<?xml version="1.0" encoding="UTF-8" standalone="no"?>
<svg
   fill="none"
   viewBox="0 0 392.10001 270.28101"
   version="1.1"
   id="svg257"
   sodipodi:docname="bg-inps-lavoro.svg"
   inkscape:version="1.1.2 (b8e25be833, 2022-02-05)"
   xmlns:inkscape="http://www.inkscape.org/namespaces/inkscape"
   xmlns:sodipodi="http://sodipodi.sourceforge.net/DTD/sodipodi-0.dtd"
   xmlns="http://www.w3.org/2000/svg"
   xmlns:svg="http://www.w3.org/2000/svg">
  <sodipodi:namedview
     id="namedview259"
     pagecolor="#ffffff"
     bordercolor="#666666"
     borderopacity="1.0"
     inkscape:pageshadow="2"
     inkscape:pageopacity="0.0"
     inkscape:pagecheckerboard="0"
     showgrid="false"
     inkscape:zoom="2.0982456"
     inkscape:cx="285"
     inkscape:cy="162.04013"
     inkscape:window-width="3440"
     inkscape:window-height="1369"
     inkscape:window-x="-8"
     inkscape:window-y="-8"
     inkscape:window-maximized="1"
     inkscape:current-layer="svg257" />
  <g
     clip-path="url(#clip0_104_869)"
     id="g250"
     transform="translate(-88.9,-53.719089)">
    <path
       d="m 127.7,72.4 h 314.5 c 21.4,0 38.8,17.3 38.8,38.8 v 101.7 c 0,21.4 -17.3,38.8 -38.8,38.8 H 127.7 c -21.4,0 -38.8,-17.3 -38.8,-38.8 V 111.1 C 89,89.7 106.3,72.4 127.7,72.4 Z"
       fill="#d9e4f7"
       id="path2" />
    <path
       d="m 405.9,251.5 v -145 c 0,-1 0.8,-1.8 1.8,-1.8 h 38.7 c 1,0 1.8,0.8 1.8,1.8 v 145"
       fill="#d9e4f7"
       id="path4" />
    <path
       d="m 405.9,251.5 v -145 c 0,-1 0.8,-1.8 1.8,-1.8 h 38.7 c 1,0 1.8,0.8 1.8,1.8 v 145"
       stroke="#598bde"
       stroke-width="0.5"
       stroke-miterlimit="10"
       id="path6" />
    <path
       d="m 405.9,251.5 v -94.8 h -20.2 c -1,0 -1.8,0.8 -1.8,1.8 V 244"
       fill="#d9e4f7"
       id="path8" />
    <path
       d="m 405.9,251.5 v -94.8 h -20.2 c -1,0 -1.8,0.8 -1.8,1.8 V 244"
       stroke="#598bde"
       stroke-width="0.5"
       stroke-miterlimit="10"
       id="path10" />
    <path
       d="m 398.6,251.5 v -94.8 h -9.7 v 94.8"
       fill="#d9e4f7"
       id="path12" />
    <path
       d="m 398.6,251.5 v -94.8 h -9.7 v 94.8"
       stroke="#598bde"
       stroke-width="0.5"
       stroke-miterlimit="10"
       id="path14" />
    <path
       d="m 468.7,240.5 v -64.8 c 0,-0.4 -0.3,-0.8 -0.8,-0.8 h -19.7 v 76.6"
       fill="#d9e4f7"
       id="path16" />
    <path
       d="m 468.7,240.5 v -64.8 c 0,-0.4 -0.3,-0.8 -0.8,-0.8 h -19.7 v 76.6"
       stroke="#598bde"
       stroke-width="0.5"
       stroke-miterlimit="10"
       id="path18" />
    <path
       d="m 415.3,114 v 7.3"
       stroke="#598bde"
       stroke-width="0.5"
       stroke-miterlimit="10"
       stroke-linecap="round"
       id="path20" />
    <path
       d="m 427.1,114 v 7.3"
       stroke="#598bde"
       stroke-width="0.5"
       stroke-miterlimit="10"
       stroke-linecap="round"
       id="path22" />
    <path
       d="m 438.9,114 v 7.3"
       stroke="#598bde"
       stroke-width="0.5"
       stroke-miterlimit="10"
       stroke-linecap="round"
       id="path24" />
    <path
       d="m 415.3,128.3 v 7.3"
       stroke="#598bde"
       stroke-width="0.5"
       stroke-miterlimit="10"
       stroke-linecap="round"
       id="path26" />
    <path
       d="m 427.1,128.3 v 7.3"
       stroke="#598bde"
       stroke-width="0.5"
       stroke-miterlimit="10"
       stroke-linecap="round"
       id="path28" />
    <path
       d="m 438.9,128.3 v 7.3"
       stroke="#598bde"
       stroke-width="0.5"
       stroke-miterlimit="10"
       stroke-linecap="round"
       id="path30" />
    <path
       d="M 415.3,142.6 V 150"
       stroke="#598bde"
       stroke-width="0.5"
       stroke-miterlimit="10"
       stroke-linecap="round"
       id="path32" />
    <path
       d="M 427.1,142.6 V 150"
       stroke="#598bde"
       stroke-width="0.5"
       stroke-miterlimit="10"
       stroke-linecap="round"
       id="path34" />
    <path
       d="M 438.9,142.6 V 150"
       stroke="#598bde"
       stroke-width="0.5"
       stroke-miterlimit="10"
       stroke-linecap="round"
       id="path36" />
    <path
       d="m 415.3,156.9 v 7.4"
       stroke="#598bde"
       stroke-width="0.5"
       stroke-miterlimit="10"
       stroke-linecap="round"
       id="path38" />
    <path
       d="m 427.1,156.9 v 7.4"
       stroke="#598bde"
       stroke-width="0.5"
       stroke-miterlimit="10"
       stroke-linecap="round"
       id="path40" />
    <path
       d="m 438.9,156.9 v 7.4"
       stroke="#598bde"
       stroke-width="0.5"
       stroke-miterlimit="10"
       stroke-linecap="round"
       id="path42" />
    <path
       d="m 415.3,171.3 v 7.3"
       stroke="#598bde"
       stroke-width="0.5"
       stroke-miterlimit="10"
       stroke-linecap="round"
       id="path44" />
    <path
       d="m 427.1,171.3 v 7.3"
       stroke="#598bde"
       stroke-width="0.5"
       stroke-miterlimit="10"
       stroke-linecap="round"
       id="path46" />
    <path
       d="m 438.9,171.3 v 7.3"
       stroke="#598bde"
       stroke-width="0.5"
       stroke-miterlimit="10"
       stroke-linecap="round"
       id="path48" />
    <path
       d="m 415.3,185.6 v 7.3"
       stroke="#598bde"
       stroke-width="0.5"
       stroke-miterlimit="10"
       stroke-linecap="round"
       id="path50" />
    <path
       d="m 427.1,185.6 v 7.3"
       stroke="#598bde"
       stroke-width="0.5"
       stroke-miterlimit="10"
       stroke-linecap="round"
       id="path52" />
    <path
       d="m 438.9,185.6 v 7.3"
       stroke="#598bde"
       stroke-width="0.5"
       stroke-miterlimit="10"
       stroke-linecap="round"
       id="path54" />
    <path
       d="m 125.2,246.4 c -11.8,-30.2 -6.3,-101.1 -6.3,-101.1 h -9.6 c 0,0 6.3,67.9 -7.7,96.4"
       stroke="#598bde"
       stroke-width="0.5"
       stroke-miterlimit="10"
       id="path56" />
    <path
       d="m 124.6,251.3 v -72.8 c 0,-0.6 0.5,-1.1 1.1,-1.1 h 40.2 c 0.6,0 1.1,0.5 1.1,1.1 v 73"
       fill="#d9e4f7"
       id="path58" />
    <path
       d="m 124.6,251.3 v -72.8 c 0,-0.6 0.5,-1.1 1.1,-1.1 h 40.2 c 0.6,0 1.1,0.5 1.1,1.1 v 73"
       stroke="#598bde"
       stroke-width="0.5"
       stroke-miterlimit="10"
       id="path60" />
    <path
       d="m 181.9,251.5 v -31.6 c 0,-0.5 -0.4,-0.8 -0.8,-0.8 h -14.2 v 32.5"
       fill="#d9e4f7"
       id="path62" />
    <path
       d="m 181.9,251.5 v -31.6 c 0,-0.5 -0.4,-0.8 -0.8,-0.8 h -14.2 v 32.5"
       stroke="#598bde"
       stroke-width="0.5"
       stroke-miterlimit="10"
       id="path64" />
    <path
       d="m 134,187.9 v 7.3"
       stroke="#598bde"
       stroke-width="0.5"
       stroke-miterlimit="10"
       stroke-linecap="round"
       id="path66" />
    <path
       d="m 145.7,187.9 v 7.3"
       stroke="#598bde"
       stroke-width="0.5"
       stroke-miterlimit="10"
       stroke-linecap="round"
       id="path68" />
    <path
       d="m 157.5,187.9 v 7.3"
       stroke="#598bde"
       stroke-width="0.5"
       stroke-miterlimit="10"
       stroke-linecap="round"
       id="path70" />
    <path
       d="m 134,202.2 v 7.3"
       stroke="#598bde"
       stroke-width="0.5"
       stroke-miterlimit="10"
       stroke-linecap="round"
       id="path72" />
    <path
       d="m 145.7,202.2 v 7.3"
       stroke="#598bde"
       stroke-width="0.5"
       stroke-miterlimit="10"
       stroke-linecap="round"
       id="path74" />
    <path
       d="m 157.5,202.2 v 7.3"
       stroke="#598bde"
       stroke-width="0.5"
       stroke-miterlimit="10"
       stroke-linecap="round"
       id="path76" />
    <path
       d="m 134,216.5 v 7.3"
       stroke="#598bde"
       stroke-width="0.5"
       stroke-miterlimit="10"
       stroke-linecap="round"
       id="path78" />
    <path
       d="m 145.7,216.5 v 7.3"
       stroke="#598bde"
       stroke-width="0.5"
       stroke-miterlimit="10"
       stroke-linecap="round"
       id="path80" />
    <path
       d="m 157.5,216.5 v 7.3"
       stroke="#598bde"
       stroke-width="0.5"
       stroke-miterlimit="10"
       stroke-linecap="round"
       id="path82" />
    <path
       d="m 134,230.8 v 7.3"
       stroke="#598bde"
       stroke-width="0.5"
       stroke-miterlimit="10"
       stroke-linecap="round"
       id="path84" />
    <path
       d="m 145.7,230.8 v 7.3"
       stroke="#598bde"
       stroke-width="0.5"
       stroke-miterlimit="10"
       stroke-linecap="round"
       id="path86" />
    <path
       d="m 157.5,230.8 v 7.3"
       stroke="#598bde"
       stroke-width="0.5"
       stroke-miterlimit="10"
       stroke-linecap="round"
       id="path88" />
    <path
       d="m 415.3,199.9 v 7.3"
       stroke="#598bde"
       stroke-width="0.5"
       stroke-miterlimit="10"
       stroke-linecap="round"
       id="path90" />
    <path
       d="m 427.1,199.9 v 7.3"
       stroke="#598bde"
       stroke-width="0.5"
       stroke-miterlimit="10"
       stroke-linecap="round"
       id="path92" />
    <path
       d="m 438.9,199.9 v 7.3"
       stroke="#598bde"
       stroke-width="0.5"
       stroke-miterlimit="10"
       stroke-linecap="round"
       id="path94" />
    <path
       d="m 391.8,156.8 c 0,0 -0.9,-14.5 13.6,-14.5 z"
       fill="#d9e4f7"
       id="path96" />
    <path
       d="m 391.8,156.8 c 0,0 -0.9,-14.5 13.6,-14.5"
       stroke="#598bde"
       stroke-width="0.5"
       stroke-miterlimit="10"
       id="path98" />
    <path
       d="m 108.1,138.9 c 0,-3.2 2.6,-5.9 5.9,-5.9 3.2,0 5.9,2.6 5.9,5.9 0,3.2 -8.4,8.2 -5.9,5.9 -3.3,-0.1 -5.9,-2.7 -5.9,-5.9 z"
       fill="#d9e4f7"
       stroke="#598bde"
       stroke-width="0.5"
       stroke-miterlimit="10"
       id="path100" />
    <path
       d="m 114,145.3 c 10.549,0 19.1,-2.104 19.1,-4.7 0,-2.596 -8.551,-4.7 -19.1,-4.7 -10.549,0 -19.1,2.104 -19.1,4.7 0,2.596 8.551,4.7 19.1,4.7 z"
       fill="#d9e4f7"
       stroke="#598bde"
       stroke-width="0.5"
       stroke-miterlimit="10"
       id="path102" />
    <path
       d="m 448.5,136.4 c 17.1,-6.4 -0.3,8.5 8.2,6.7 4.6,-0.4 13.2,-3.2 16.4,0.7 0.1,1 -0.7,2.3 0.2,2.8 1.6,0.2 3.9,-1 4.5,0.8 h -29.3 z"
       fill="#fffeff"
       id="path104" />
    <path
       opacity="0.9884"
       d="m 350.7,123.5 h 64 c 0,0 3.1,-8.6 -9.1,-5 -10.9,1 1.1,-12 -13.6,-5.3 -10.4,4.7 -5.4,-3.1 -13.1,-4.2 -8.7,-1.3 -9.2,-0.4 -14.3,6.2 -5.1,6.5 -17.6,4.9 -13.9,8.3 z"
       fill="#fffeff"
       id="path106" />
    <path
       d="m 89,113 c 1.8,-1 3.8,-0.9 4.8,1.4 0.2,0.8 0.2,1.9 1,2.3 6.6,-1.8 12.3,-6.6 8.2,4.4 29.6,-9.8 0.7,5.3 27.8,6.5 H 89 Z"
       fill="#fffeff"
       id="path108" />
    <path
       d="m 171.2,113 h 30.5 c -0.9,-2.9 -3.7,-4.1 -5.9,-2.2 -3.7,0.2 -4.6,-6.7 -8.6,-6.2 -3.2,0.1 -5.3,4.8 -8.4,3.9 -4.1,-0.7 -7,0.4 -11.5,2.5 -3.3,2.3 3.9,2 3.9,2 z"
       fill="#fffeff"
       id="path110" />
    <path
       d="m 414.7,290.3 0.9,2.9 12,3.4 -1,-3.5 z"
       fill="#fffeff"
       stroke="#002460"
       stroke-width="0.5"
       stroke-miterlimit="10"
       id="path112" />
    <path
       d="m 336.8,83.2 c 5.3,-26.2 -23.9,-22 -21.5,-12.1 0,0 -13,-5 -17.5,4 -2.1,4.8 12.7,10.8 6.9,16.4 -2.7,3.3 -12.6,8.1 -11.9,12.3 0.9,6.1 10.7,16 11.7,21.7 1.1,5.7 -14.6,-2.6 -4.2,9.8 5.2,6.1 5.9,0.7 11.3,-1.1 5.5,-1.8 25.2,-51 25.2,-51 z"
       fill="#002460"
       id="path114" />
    <path
       d="m 314.8,113.5 c 5,-5.1 26.1,-0.6 27.8,6.3 5.4,21.6 22.5,91.7 22.5,91.7 L 309.3,209 c 0,0 1.4,-54 5.5,-70.6 3,-12.1 -4.4,-20.5 0,-24.9 z"
       fill="#fffeff"
       stroke="#002460"
       stroke-width="0.5"
       stroke-miterlimit="10"
       stroke-linecap="round"
       id="path116" />
    <path
       d="m 290.6,156.8 24.2,-43.4 c 0,0 3.2,18.2 0,25.3 0,0 -10,22.6 -10.2,25.6 -0.2,2.2 38.4,14.9 38.4,14.9 l -0.6,11.9 c 0,0 -66.8,-7.9 -51.8,-34.3 z"
       fill="#fffeff"
       stroke="#002460"
       stroke-width="0.5"
       stroke-miterlimit="10"
       stroke-linecap="round"
       stroke-linejoin="bevel"
       id="path118" />
    <path
       d="m 330.1,104.1 c 0,0 7.9,4.5 9.6,-0.8 2.2,-6.6 1.4,-16 -0.9,-20.9 -0.8,-1.7 -2.8,-4 -8.8,-3.1 -10.6,1.6 -6.9,10.3 -6.9,10.3 0,0 -5,-4.7 -5.5,1.8 -0.2,2.7 4.8,4.6 4.8,4.6 0,0 -0.8,7.1 0.4,17 1.7,13.6 12.9,7.5 11,3.4 z"
       fill="#fffeff"
       stroke="#002460"
       stroke-width="0.5"
       stroke-miterlimit="10"
       id="path120" />
    <path
       d="m 335.8,87.1 1,8.8 -3.2,-0.1"
       fill="#fffeff"
       id="path122" />
    <path
       d="m 335.8,87.1 1,8.8 -3.2,-0.1"
       stroke="#002460"
       stroke-width="0.5"
       stroke-miterlimit="10"
       stroke-linecap="round"
       id="path124" />
    <path
       d="m 366.7,223.4 -13.6,61.2 7.1,6.1 35.2,-68.3 -4.6,-10.3 z"
       fill="#002460"
       stroke="#002460"
       stroke-width="0.5"
       stroke-miterlimit="10"
       id="path126" />
    <path
       d="m 342.6,119.8 c 0,0 11.5,41.2 24.6,49.2 l -15.8,-1.1 z"
       fill="#fffeff"
       stroke="#002460"
       stroke-width="0.5"
       stroke-miterlimit="10"
       stroke-linejoin="bevel"
       id="path128" />
    <path
       d="m 341.4,162.9 58.7,4.7 -8.9,36 -56.9,1.3 z"
       fill="#ffbb00"
       id="path130" />
    <path
       d="m 311,209.1 c 0,0 -0.2,34.8 44.2,20.6 44.4,-14.2 32,-11.4 32,-11.4 l 27.5,72 11.9,2.9 -16.1,-84.5 c 0,0 -6.5,-32.6 -46.1,-18.7 -39.6,14 -53.4,19.1 -53.4,19.1 z"
       fill="#002460"
       stroke="#002460"
       stroke-width="0.5"
       stroke-miterlimit="10"
       id="path132" />
    <path
       d="m 362.6,228 24.6,-9.5 4.8,13.7"
       stroke="#d9e4f7"
       stroke-width="0.5"
       stroke-miterlimit="10"
       id="path134" />
    <path
       d="m 379.3,165.9 c 0,0 0.9,4.7 2.5,1.8 1.6,-2.9 -0.1,-4.9 -1.4,-4.8 -1.1,0.1 -3,3 -3,3"
       fill="#fffeff"
       id="path136" />
    <path
       d="m 379.3,165.9 c 0,0 0.9,4.7 2.5,1.8 1.6,-2.9 -0.1,-4.9 -1.4,-4.8 -1.1,0.1 -3,3 -3,3"
       stroke="#002460"
       stroke-width="0.5"
       stroke-miterlimit="10"
       stroke-linejoin="bevel"
       id="path138" />
    <path
       d="m 376.8,165.9 c 0,0 0.9,4.7 2.5,1.8 1.6,-2.9 -0.1,-4.9 -1.4,-4.8 -1.1,0.1 -3,3 -3,3"
       fill="#fffeff"
       id="path140" />
    <path
       d="m 376.8,165.9 c 0,0 0.9,4.7 2.5,1.8 1.6,-2.9 -0.1,-4.9 -1.4,-4.8 -1.1,0.1 -3,3 -3,3"
       stroke="#002460"
       stroke-width="0.5"
       stroke-miterlimit="10"
       stroke-linejoin="bevel"
       id="path142" />
    <path
       d="m 374.5,165.8 c 0,0 0.9,4.7 2.5,1.8 1.6,-2.9 -0.1,-4.9 -1.4,-4.8 -1.1,0.1 -3,3 -3,3"
       fill="#fffeff"
       id="path144" />
    <path
       d="m 374.5,165.8 c 0,0 0.9,4.7 2.5,1.8 1.6,-2.9 -0.1,-4.9 -1.4,-4.8 -1.1,0.1 -3,3 -3,3"
       stroke="#002460"
       stroke-width="0.5"
       stroke-miterlimit="10"
       stroke-linejoin="bevel"
       id="path146" />
    <path
       d="m 372.2,165.5 c 0,0 0.7,4.9 2.3,1.9 1.6,-2.9 -0.1,-4.7 -1.4,-4.8 -2.8,-0.2 -2.9,2.7 -2.9,2.7"
       fill="#fffeff"
       id="path148" />
    <path
       d="m 372.2,165.5 c 0,0 0.7,4.9 2.3,1.9 1.6,-2.9 -0.1,-4.7 -1.4,-4.8 -2.8,-0.2 -2.9,2.7 -2.9,2.7"
       stroke="#002460"
       stroke-width="0.5"
       stroke-miterlimit="10"
       stroke-linejoin="bevel"
       id="path150" />
    <path
       d="m 329.8,92 c 2.706,0 4.9,-2.1938 4.9,-4.9 0,-2.7062 -2.194,-4.9 -4.9,-4.9 -2.706,0 -4.9,2.1938 -4.9,4.9 0,2.7062 2.194,4.9 4.9,4.9 z"
       stroke="#598bde"
       stroke-width="0.5"
       stroke-miterlimit="10"
       id="path152" />
    <path
       d="m 341.7,92 c 2.706,0 4.9,-2.1938 4.9,-4.9 0,-2.7062 -2.194,-4.9 -4.9,-4.9 -2.706,0 -4.9,2.1938 -4.9,4.9 0,2.7062 2.194,4.9 4.9,4.9 z"
       stroke="#598bde"
       stroke-width="0.5"
       stroke-miterlimit="10"
       id="path154" />
    <path
       d="m 334.8,87.1 h 1.9"
       stroke="#598bde"
       stroke-width="0.5"
       stroke-miterlimit="10"
       id="path156" />
    <path
       d="m 414.9,290.6 c 0.8,2.7 0.1,6.7 1.2,9.2 1.4,2.9 12.8,6.1 19,8.2 4.2,1.6 7.1,-1.6 3.8,-5.4 -3.5,-4.1 -11.5,-3.8 -12.3,-9.5"
       fill="#fffeff"
       id="path158" />
    <path
       d="m 415.7,296 c 3.9,1 21.5,11.1 23.1,6.4 h 2.1 l 2.5,3.4 -3,5.2 -13.6,-2.6 -12.2,-6 -0.4,-6.1 z"
       fill="#002460"
       stroke="#002460"
       stroke-width="0.5"
       stroke-miterlimit="10"
       id="path160" />
    <path
       d="m 414.9,290.6 c 0.8,2.7 0.1,6.7 1.2,9.2 1.4,2.9 12.8,6.1 19,8.2 4.2,1.6 7.1,-1.6 3.8,-5.4 -3.5,-4.1 -11.5,-3.8 -12.3,-9.5"
       stroke="#002460"
       stroke-width="0.5"
       stroke-miterlimit="10"
       id="path162" />
    <path
       d="m 353.3,283.9 c -0.5,2.3 -2.5,5 -2.6,7.2 -0.1,2.7 6.8,9.2 10.4,13 2.4,2.7 5.7,1.4 4.7,-2.6 -1,-4.3 -6.8,-7 -5.2,-11.6"
       fill="#fffeff"
       id="path164" />
    <path
       d="m 351.8,288.2 c 2.4,2.2 11.2,16.1 14,13.2 l 1.5,0.8 0.5,3.4 -4.1,2.7 -8.7,-6.9 -6.4,-8.9 2,-4.7 z"
       fill="#002460"
       stroke="#002460"
       stroke-width="0.5"
       stroke-miterlimit="10"
       id="path166" />
    <path
       d="m 353.3,283.9 c -0.5,2.3 -2.5,5 -2.6,7.2 -0.1,2.7 6.8,9.2 10.4,13 2.4,2.7 5.7,1.4 4.7,-2.6 -1,-4.3 -6.8,-7 -5.2,-11.6"
       stroke="#002460"
       stroke-width="0.5"
       stroke-miterlimit="10"
       id="path168" />
    <path
       d="m 321.1,109.6 c 1,1.7 0.5,4 -0.7,5.6 -1.3,1.5 -3.1,2.5 -5,3.1 -0.6,0.2 -1.1,0.3 -1.6,0.7 -1.1,0.9 -1,2.6 -1.2,4 -0.3,2.3 -1.5,4.4 -3.3,5.9 -1.8,1.4 -4.2,2.1 -6.5,1.7 0.9,-1.3 1.8,-2.6 2.6,-3.9 2.6,-4.2 4.6,-8.9 7.7,-12.7 1.9,-2.6 4.8,-4.8 8,-4.4 z"
       fill="#002460"
       id="path170" />
    <path
       d="m 333.4,95.8 0.5,0.9 0.4,-0.8 z"
       fill="#002460"
       stroke="#002460"
       stroke-width="0.5"
       stroke-linecap="round"
       stroke-linejoin="round"
       id="path172" />
    <path
       d="m 286.9,191.1 c -3.8,2.9 -7.1,41 1.9,30.9 2.3,-3.7 7.3,-37.6 -1.9,-30.9 z"
       fill="#f2f6fc"
       id="path174" />
    <path
       d="m 214.5,120.9 c 0.1,3.9 20.7,9.5 21.8,-10.3 0.2,-5.2 0.9,-15.5 1.1,-16.2 2.5,-0.3 7,-1.5 5.7,-5.7 -1.2,-3.9 -4,-1.8 -5.9,0 L 237,84.2 c 0,0 -11.3,-11 -18.9,-10.5 -2.5,0.2 -8.4,1.4 -9.5,5 -9.5,30.4 4.4,30.5 11.7,30.1 -0.1,4 -3.1,10.2 -5.8,12.1 z"
       fill="#fffeff"
       stroke="#002460"
       stroke-width="0.5"
       stroke-linecap="round"
       stroke-linejoin="round"
       id="path176" />
    <path
       d="m 262.9,257.2 -0.4,66.7 h -77.6 l 3.7,-65.4 z"
       fill="#002460"
       stroke="#002460"
       stroke-width="0.5"
       stroke-linecap="round"
       stroke-linejoin="round"
       id="path178" />
    <path
       d="m 236.1,113.3 c 0,0 2.3,13.9 -9.5,38.1 l -6.8,-16.4 -12.4,11.5 7.1,-25.6"
       stroke="#002460"
       stroke-width="0.5"
       stroke-linecap="round"
       stroke-linejoin="round"
       id="path180" />
    <path
       d="m 210.3,84.3 -0.7,7.4 3.7,-0.5"
       stroke="#002460"
       stroke-width="0.5"
       stroke-linecap="round"
       stroke-linejoin="round"
       id="path182" />
    <path
       d="m 267.2,171.1 -2.7,-12.2"
       stroke="#002460"
       stroke-width="0.5"
       stroke-linecap="round"
       stroke-linejoin="round"
       id="path184" />
    <path
       d="m 190.3,161.1 1.4,-11.7"
       stroke="#002460"
       stroke-width="0.5"
       stroke-linecap="round"
       stroke-linejoin="round"
       id="path186" />
    <path
       d="m 224.3,108.5 -4,0.4 -1.1,4.7 z"
       fill="#002460"
       stroke="#002460"
       stroke-width="0.5"
       stroke-linecap="round"
       stroke-linejoin="round"
       id="path188" />
    <path
       d="m 236,113.3 c -2.4,12.1 -21.5,11.5 -21.6,7.6 l -9.6,6.1 c -29,17.9 -43.7,41.1 -43.7,-26.4 0,-0.4 -13.2,2.2 -13.3,2.6 -10.9,98.5 35.9,67.1 42.5,57.8 0.2,-0.3 -4.5,102 -4.5,102 l 67,-1.8 c 0,0 -0.2,20.2 13,9.4 6,-4.9 20.5,-28.5 23.3,-39.7 C 293,215.4 309.3,123.1 236,113.3 Z"
       fill="#fffeff"
       stroke="#002460"
       stroke-width="0.5"
       stroke-miterlimit="10"
       id="path190" />
    <path
       d="m 221.5,323.9 1.2,-39.8 z"
       fill="#002460"
       id="path192" />
    <path
       d="m 221.5,323.9 1.2,-39.8"
       stroke="#fffeff"
       stroke-width="0.5"
       stroke-linecap="round"
       stroke-linejoin="round"
       id="path194" />
    <path
       d="m 258.7,153.5 c 0,0 5.5,61.2 -1.3,96.3 -1.1,5.6 5,-12.3 5.6,-15.3 10.9,-56.9 -4.3,-81 -4.3,-81 z"
       fill="#f2f6fc"
       id="path196" />
    <path
       d="m 214.4,126.1 c 0,0 -7.5,126.6 -5.4,126.8 1.9,0.2 2.9,-20.8 3.3,-23.8 7.8,-58.4 2.1,-103 2.1,-103 z"
       fill="#f2f6fc"
       id="path198" />
    <path
       d="m 209.3,77.3 c 4.6,0.5 10.4,2.6 15.1,2.5 -1,-0.9 -3.1,-3.9 -4.1,-4.8 4.8,2.5 9.6,5.1 14.4,7.2 0.7,2.5 0.4,5.4 -0.8,7.7 1.6,1.7 2.3,-0.2 4.2,-1.3 5.3,-4.8 8,5.6 -0.8,5.7 0,1.2 -0.2,2.5 -0.1,3.7 1.5,-0.1 3.1,-0.7 4.2,-1.7 2.6,1.7 6,-1.3 4.7,-4.1 2.8,-1 2.1,-4.7 0.7,-6.7 4.3,-3.9 -2.3,-7.7 -5.3,-9.8 -2.6,-2.4 -27.7,-37.8 -29.6,-13.5 -6.1,-2.1 -14.7,4.4 -6.5,11.7 -6,1.2 -8,7.8 -0.8,9.1 -6.4,1.3 -2.2,8.6 1.4,8.1 0.8,-5 1.2,-9.3 3.3,-13.8 z"
       fill="#002460"
       id="path200" />
    <path
       d="m 258.2,153.4 c 16,27.9 7.8,88.4 -5.4,107.8"
       stroke="#002460"
       stroke-width="0.5"
       stroke-miterlimit="10"
       stroke-linecap="round"
       id="path202" />
    <path
       d="m 214.4,120.9 -5.8,141.6"
       stroke="#002460"
       stroke-width="0.5"
       stroke-miterlimit="10"
       id="path204" />
    <path
       d="m 150.1,75.8001 c -0.1,-0.5 -0.2,-1.1001 -0.2,-1.6001 1.2,-0.7 2.8,-0.4999 3.9,0.3001 1.1,0.8 1.8,2.1 2.2,3.4 0.3,0.9 0.4,1.9 0.1,2.9 -0.7,2 -3.3,2.7 -4.4,4.5 -0.5,0.9 -0.6,2.7 -0.3,3.7 l 9.6,2.3 0.1,9.4999 -13.4,2.4 -5.4,-8.6999 1.2,-5.1 2.5,-3.4 2.5,-3.9 z"
       fill="#fffeff"
       stroke="#002460"
       stroke-width="0.5"
       stroke-linecap="round"
       stroke-linejoin="round"
       id="path206" />
    <path
       d="m 236.2,113.4 -7.3,149.1"
       stroke="#002460"
       stroke-width="0.5"
       stroke-miterlimit="10"
       id="path208" />
    <path
       d="m 161,100.7 c 7.1,-6.3 4.6,-7.6 1.7,-14.5 0.1,-2.3 4.3,-4.9 3.9,-5.4 -2.3,-4.7 -9.4,0.4 -8.6,4.6 0.1,1.7 0.8,3.6 -0.3,4.8 -4.1,1.8 -6.7,1.5 -5.8,7.3"
       fill="#fffeff"
       id="path210" />
    <path
       d="m 161,100.7 c 7.1,-6.3 4.6,-7.6 1.7,-14.5 0.1,-2.3 4.3,-4.9 3.9,-5.4 -2.3,-4.7 -9.4,0.4 -8.6,4.6 0.1,1.7 0.8,3.6 -0.3,4.8 -4.1,1.8 -6.7,1.5 -5.8,7.3"
       stroke="#002460"
       stroke-width="0.5"
       stroke-linecap="round"
       stroke-linejoin="round"
       id="path212" />
    <path
       d="m 144.4,90.8 c -2.3,-1.6 -0.7,-4.2 -0.7,-6.3 -1,-1.4 -2.2,-3.5 0.5,-3.9 6,-0.3 1.4,7 4.6,10.2"
       fill="#fffeff"
       id="path214" />
    <path
       d="m 144.4,90.8 c -2.3,-1.6 -0.7,-4.2 -0.7,-6.3 -1,-1.4 -2.2,-3.5 0.5,-3.9 6,-0.3 1.4,7 4.6,10.2"
       stroke="#002460"
       stroke-width="0.5"
       stroke-linecap="round"
       stroke-linejoin="round"
       id="path216" />
    <path
       d="m 141,93.7 c -0.9,-0.5 -1.5,-1.4 -1.6,-2.4 -0.1,-1 0.3,-2 1.1,-2.6 0.9,-0.7 2.2,-0.9 3.3,-0.6 1.1,0.3 2.1,1.1 2.9,2 0.3,0.3 0.5,0.6 0.5,1 0,0.4 -0.2,0.9 -0.6,0.9"
       fill="#fffeff"
       id="path218" />
    <path
       d="m 141,93.7 c -0.9,-0.5 -1.5,-1.4 -1.6,-2.4 -0.1,-1 0.3,-2 1.1,-2.6 0.9,-0.7 2.2,-0.9 3.3,-0.6 1.1,0.3 2.1,1.1 2.9,2 0.3,0.3 0.5,0.6 0.5,1 0,0.4 -0.2,0.9 -0.6,0.9"
       stroke="#002460"
       stroke-width="0.5"
       stroke-linecap="round"
       stroke-linejoin="round"
       id="path220" />
    <path
       d="m 147.6,103.2 c -2.4,-1.7 -3.1,-1.9 -4.8,-4.3 -0.7,-1 -1.3,-2.1 -1.5,-3.3 -0.2,-1.2 0.1,-2.5 0.9,-3.4 0.8,-0.9 2.2,-1.3 3.3,-0.9 0.6,0.2 1,0.7 1.5,1.1 0.4,0.4 0.8,0.9 1.1,1.5 0.3,0.6 0.2,1.3 -0.1,1.8 -0.5,0.6 -1.4,0.7 -2.1,0.5 -0.7,-0.2 -1.3,-0.8 -1.8,-1.3"
       fill="#fffeff"
       id="path222" />
    <path
       d="m 147.6,103.2 c -2.4,-1.7 -3.1,-1.9 -4.8,-4.3 -0.7,-1 -1.3,-2.1 -1.5,-3.3 -0.2,-1.2 0.1,-2.5 0.9,-3.4 0.8,-0.9 2.2,-1.3 3.3,-0.9 0.6,0.2 1,0.7 1.5,1.1 0.4,0.4 0.8,0.9 1.1,1.5 0.3,0.6 0.2,1.3 -0.1,1.8 -0.5,0.6 -1.4,0.7 -2.1,0.5 -0.7,-0.2 -1.3,-0.8 -1.8,-1.3"
       stroke="#002460"
       stroke-width="0.5"
       stroke-linecap="round"
       stroke-linejoin="round"
       id="path224" />
    <path
       d="m 214.4,121.4 3.6,11.6 5.3,-9.7 5.3,9.7 7.3,-18.4"
       stroke="#002460"
       stroke-width="0.5"
       stroke-miterlimit="10"
       stroke-linecap="round"
       stroke-linejoin="round"
       id="path226" />
    <path
       d="m 213.3,91.2 0.3,2.1 -1.5,-1.9 z"
       fill="#002460"
       stroke="#002460"
       stroke-width="0.5"
       stroke-linecap="round"
       stroke-linejoin="round"
       id="path228" />
    <path
       d="m 304.7,239.4 v -4.5 c 0,-1.8 1.5,-3.3 3.3,-3.3 h 47.7 c 1.8,0 3.3,1.5 3.3,3.3 v 4.5 z"
       fill="#fffeff"
       id="path230" />
    <path
       d="m 338.1,239.4 v 4.5 c 0,1.8 -1.5,3.3 -3.3,3.3 h -5.9 c -1.8,0 -3.3,-1.5 -3.3,-3.3 v -4.5 z"
       fill="#fffeff"
       id="path232" />
    <path
       d="m 312.6,252 v -6.7 c 0,-1.8 1.5,-3.3 3.3,-3.3 h 31.9 c 1.8,0 3.3,1.5 3.3,3.3 v 6.7"
       stroke="#fffeff"
       stroke-width="0.5"
       stroke-miterlimit="10"
       id="path234" />
    <path
       d="m 223.3,123.8 -3.6,6.6 0.8,4.6 5.9,-5.5 z"
       fill="#ffbb00"
       id="path236" />
    <path
       d="m 286.2,96.9 c -21.5,12.7 -14.1,27.9 -17.6,49.8 -8,31.4 -43.1,20.5 -46.8,-14.4 -0.5,-4.5 -0.9,-2.9 1.5,-7.6 -3.9,9.7 -4.8,19.7 -0.2,29.1 7.5,16.2 32.4,29.4 46.1,12.9 16.3,-18.2 -2.2,-45.2 20.3,-59.1 -0.6,-3.6 -0.3,-7.3 1,-10.7 -1.6,-0.2 -3.4,-0.1 -4.3,0 z"
       fill="#ffbb00"
       id="path238" />
    <path
       d="m 153,79.6 c 5.633,0 10.2,-4.5667 10.2,-10.2 0,-5.6333 -4.567,-10.2 -10.2,-10.2 -5.633,0 -10.2,4.5667 -10.2,10.2 0,5.6333 4.567,10.2 10.2,10.2 z"
       fill="#ffbb00"
       id="path240" />
    <path
       d="m 147,77.7 v 4 c 0,1.7 1.3,3.1 2.9,3.4 0,0 0,0 0,0.1 0,1.7 1.4,3.1 3.1,3.1 1.7,0 3.1,-1.4 3.1,-3.1 0,0 0,0 0,-0.1 1.6,-0.3 2.9,-1.7 2.9,-3.4 v -4 c 0,-1.9 -12,-1.9 -12,0 z"
       fill="#002460"
       id="path242" />
    <path
       d="m 150.9,76.1 -2.8,-9.6"
       stroke="#fffeff"
       stroke-width="0.5"
       stroke-miterlimit="10"
       stroke-linecap="round"
       id="path244" />
    <path
       d="m 155,76.1 2.7,-9.6"
       stroke="#fffeff"
       stroke-width="0.5"
       stroke-miterlimit="10"
       stroke-linecap="round"
       id="path246" />
    <path
       d="m 148.1,66.5 c 1.6,3 4.3,-1.8 2,-1.5 -1.3,0.2 0.4,3.7 1.8,3.3 1.4,-0.2 2.2,-3.1 1.4,-3.6 -0.2,-0.1 -0.5,0.3 -0.5,0.6 -0.5,4.2 5.3,2.1 3.5,-0.8 -0.7,-1.2 -1.1,1.3 -0.9,1.9 0.1,1.3 2.3,1.5 2.3,0"
       stroke="#fffeff"
       stroke-width="0.5"
       stroke-miterlimit="10"
       stroke-linecap="round"
       id="path248" />
  </g>
  <defs
     id="defs255">
    <clipPath
       id="clip0_104_869">
      <rect
         width="570"
         height="324"
         fill="#ffffff"
         id="rect252"
         x="0"
         y="0" />
    </clipPath>
  </defs>
</svg>
