<svg width="570" height="324" viewBox="0 0 570 324" fill="none" xmlns="http://www.w3.org/2000/svg">
<g clip-path="url(#clip0_13031_15164)">
<path opacity="0.9884" d="M132.8 72.2002H447.3C468.7 72.2002 486.1 89.5002 486.1 111V212.7C486.1 234.1 468.8 251.5 447.3 251.5H132.8C111.4 251.5 94 234.2 94 212.7V110.9C94 89.5002 111.4 72.2002 132.8 72.2002Z" fill="#D9E4F7"/>
<path d="M121.7 323.8L121.4 221.2L132.7 201.9C131.4 201 128.3 199.5 127.4 198.3C123.6 202.4 120.1 206.9 116.9 211.6C116.3 204.1 115.9 196.5 115.8 189C113.2 188.6 110.6 188.5 108 188.6C107.1 194.6 106.4 200.6 105.9 206.6C102.3 199.9 98.6 193.2 94.7 186.7C93.6 187.7 92.4 188.7 90.5 190.4C110.1 230 105.6 324 105.6 324" stroke="#598BDE" stroke-width="0.5" stroke-miterlimit="10" stroke-linecap="round" stroke-linejoin="round"/>
<path d="M101 227C92.9999 230.3 84.0999 222.2 86.4999 213.9C70.8999 216.3 58.3999 198.3 66.0999 184.5C55.3999 178.6 52.5999 163.2 60.5999 153.9C47.6999 146.6 49.2999 128.9 60.4999 120.8C61.9999 118.4 61.2999 115.3 61.1999 112.4C60.0999 94.3 84.3999 84.6 95.9999 98.5C107.8 87 118.9 91.5 131.6 97.5C138.1 96.9 145.4 93.4999 151.3 98.1999C157.5 102.8 155.6 106.7 156.2 112.5C161.3 114.5 166.9 115.7 171.8 118.5C188.1 126.9 176.4 134.6 172.7 145.8C177.8 158.1 185.1 175.4 171.7 185.2C175.9 196.5 173.3 213.6 159.5 215.9C158.1 227.2 143.7 232.9 134.9 225.6C132 229.7 126.4 231.6 121.6 230.3" stroke="#598BDE" stroke-width="0.5" stroke-miterlimit="10" stroke-linecap="round" stroke-linejoin="round"/>
<path d="M475.4 323.5L473 93.7999L442.1 73.0999L445.6 65.0999L475.2 77.2999L476.5 38.8999L483.1 37.3999L486 80.5999L497.4 92.1999L516.2 73.6999L521.7 81.1999L504.5 103.7L508.9 323.9" stroke="#598BDE" stroke-width="0.5" stroke-miterlimit="10" stroke-linecap="round" stroke-linejoin="round"/>
<path d="M472.8 101.4C469.8 104.6 464.8 105.8 460.7 104.3C456.6 102.8 453.5 98.7001 453.2 94.4001C445.4 98.4001 435.7 98.7001 427.6 95.3001C423 93.4001 418.8 90.1001 416.9 85.5001C414.9 80.9001 415.7 75.0001 419.6 71.9001C411.8 65.8001 407.1 55.9001 407.4 46.0001C407.5 41.4001 408.8 36.7001 412 33.5001C416.4 29.1001 423.2 28.5001 429.3 29.2001C431.6 22.6001 437.4 17.9001 443.6 14.7001C450.1 11.3001 457.5 9.10006 464.8 10.0001C472.1 10.9001 479.2 15.3001 482 22.1001C486.6 17.4001 493.4 15.6001 499.9 14.8001C510.4 13.5001 521.7 14.4001 530.5 20.4001C538.1 25.5001 543 34.3001 543.7 43.4001C544.3 52.5001 540.5 61.8001 533.7 67.9001C538.5 75.3001 540.5 84.9001 537.1 93.1001C533.7 101.3 524.4 107 515.9 104.7C514.5 109.6 509.5 113.2 504.4 113" stroke="#598BDE" stroke-width="0.5" stroke-miterlimit="10" stroke-linecap="round" stroke-linejoin="round"/>
<path d="M121.7 284.7H475" stroke="#598BDE" stroke-width="0.5" stroke-miterlimit="10" stroke-linecap="round" stroke-linejoin="round"/>
<path d="M475.1 289.5C485.9 291.4 498.2 293.3 508 287.3C508 287.3 508 287.3 507.9 287.2" stroke="#598BDE" stroke-width="0.5" stroke-miterlimit="10" stroke-linecap="round" stroke-linejoin="round"/>
<path d="M508.1 282.8C514.6 256 537.6 272 508.3 282.9C545.5 271.6 539.3 304.3 508.1 283.3C510 287.4 511.7 291.6 513.1 295.8" stroke="#598BDE" stroke-width="0.5" stroke-miterlimit="10" stroke-linecap="round" stroke-linejoin="round"/>
<path d="M121.8 284.8C117.1 288 110 288.4 106.1 284C89.2998 294.5 90.7998 272.1 106.2 284C90.4998 272.8 103 261.7 106 283.5C105.2 286.9 101.5 289.6 101.1 293.5" stroke="#598BDE" stroke-width="0.5" stroke-miterlimit="10" stroke-linecap="round" stroke-linejoin="round"/>
<path d="M127.3 38.6003L199 70.3003C199 70.3003 216.7 76.7003 222.7 78.7003C244.4 85.9003 254.9 83.7003 263.1 111.8C274.1 149.6 287 161.3 308.9 157C309.4 162.3 290.3 173.9 290.3 173.9C290.3 173.9 257 170.9 244.4 119.9C243.5 123.2 229.4 170.7 229.4 170.7L233.5 221.1L222.7 269.8L199.1 264.4L211.1 222.9L199.6 182.8C175.9 169.1 105 149.6 78.1001 142.4L82.9001 112L164.4 145.7L184.3 83.9003C184.3 83.9003 121.4 52.4003 121.4 52.7003C115.2 49.6003 110.1 56.5003 108.5 54.4003C106.8 52.2003 111.4 50.7003 112.6 48.3003C100.5 45.0003 91.7001 40.2003 111.4 43.3003C107.6 41.4003 99.4001 37.0003 100 35.8003C100.8 34.1003 107.4 37.7003 110.9 38.8003C108.2 36.7003 102.5 33.3003 103.4 31.7003C104.3 30.2003 111.1 34.7003 115.4 37.1003C101.9 23.5003 122.5 36.1003 127.3 38.6003Z" fill="white" stroke="#002460" stroke-width="0.5" stroke-linecap="round" stroke-linejoin="round"/>
<path d="M164.5 145.5L229.3 170.6" stroke="#002460" stroke-width="0.5" stroke-linecap="round" stroke-linejoin="round"/>
<path d="M199.7 70.9004L173 148.7L177.5 172.7L182 174.6L178.3 150.9L205.3 72.9004L199.7 70.9004Z" fill="#002460" stroke="#002460" stroke-width="0.5" stroke-linecap="round" stroke-linejoin="round"/>
<path d="M231.4 81.3003L205.6 161.7L189.8 177.9L195.4 180.4L212 164.2L236.8 82.8003L231.4 81.3003Z" fill="#002460" stroke="#002460" stroke-width="0.5" stroke-linecap="round" stroke-linejoin="round"/>
<path d="M226.864 100.995L198.736 92.1006L197.862 94.8657L225.99 103.76L226.864 100.995Z" fill="#002460" stroke="#002460" stroke-width="0.5" stroke-linecap="round" stroke-linejoin="round"/>
<path d="M215.479 96.9007L208.518 94.6997L207.252 98.7044L214.213 100.905L215.479 96.9007Z" fill="white" stroke="#002460" stroke-width="0.5" stroke-linecap="round" stroke-linejoin="round"/>
<path d="M214.747 136.418L186.619 127.523L185.745 130.289L213.873 139.183L214.747 136.418Z" fill="#002460" stroke="#002460" stroke-width="0.5" stroke-linecap="round" stroke-linejoin="round"/>
<path d="M183.7 63.5C177.9 64.9 172.7 74.5 176.2 79.6" stroke="#002460" stroke-width="0.5" stroke-linecap="round" stroke-linejoin="round"/>
<path d="M180.7 62.3003C174.9 63.7003 169.7 73.1003 173.2 78.2003" stroke="#002460" stroke-width="0.5" stroke-linecap="round" stroke-linejoin="round"/>
<path d="M209.3 73.9004C205.9 83.3004 218.9 88.0004 221.5 78.6004" stroke="#002460" stroke-width="0.5" stroke-linecap="round" stroke-linejoin="round"/>
<path d="M217.7 49C217.4 50 217.1 51 216.8 52C212.5 48.7 210.1 56.3 215.4 57L211 74.6C210 79.2 218.9 82.4 219.9 77.7L221.5 72.2C242.3 79.9 241 71.8 246.7 53.6C237.3 51.3 227.7 49.7 217.7 49Z" fill="white"/>
<path d="M217.1 51.6002L245.2 58.2002L246.2 54.9002L217.9 49.7002L217.1 51.6002Z" fill="#F2F6FC"/>
<path d="M217.7 49C217.4 50 217.1 51 216.8 52C212.5 48.7 210.1 56.3 215.4 57L211 74.6C210 79.2 218.9 82.4 219.9 77.7L221.5 72.2C242.3 79.9 241 71.8 246.7 53.6C237.3 51.3 227.7 49.7 217.7 49Z" stroke="#002460" stroke-width="0.5" stroke-miterlimit="10" stroke-linecap="round" stroke-linejoin="round"/>
<path d="M218.6 71.1001L221.5 72.2001L220.6 75.4001L218.6 71.1001Z" fill="#002460" stroke="#002460" stroke-width="0.5" stroke-linecap="round" stroke-linejoin="round"/>
<path d="M197.4 132.8C191.9 136.3 188.2 142.9 194 144.1C200.1 145.3 198.5 135.9 197.4 132.8Z" stroke="#002460" stroke-width="2" stroke-miterlimit="10"/>
<path d="M194 142.9C185 196 180.3 311.6 221.4 318C255.1 323.2 268.9 257.6 275.7 236.3" stroke="#2F6DD5" stroke-width="2" stroke-miterlimit="10" stroke-linecap="round" stroke-linejoin="round"/>
<path d="M402.8 323.7L401.5 211.2C405.1 234.7 411 269 434.5 273.2C446.1 275.3 452.2 260.2 454.7 250.6L435.5 229.8C429 205.1 431.9 174.1 414 154.7C392.8 131.8 314.4 139.5 295.2 164.6C271.8 195.2 271.4 238.7 273.9 276C275.9 306.1 297.6 281.3 305 268.4L307.2 324.5" fill="white"/>
<path d="M402.8 323.7L401.5 211.2C405.1 234.7 411 269 434.5 273.2C446.1 275.3 452.2 260.2 454.7 250.6L435.5 229.8C429 205.1 431.9 174.1 414 154.7C392.8 131.8 314.4 139.5 295.2 164.6C271.8 195.2 271.4 238.7 273.9 276C275.9 306.1 297.6 281.3 305 268.4L307.2 324.5" stroke="#002460" stroke-width="0.5" stroke-linecap="round" stroke-linejoin="round"/>
<path d="M305.3 261.3L306.5 290.1C329.8 270.5 350.7 233.1 332.2 204.6C322.8 222.9 310.4 241.5 305.3 261.3Z" fill="#F2F6FC"/>
<path d="M432.9 241.8C441.1 214.4 442.5 185.8 449.1 158.1C441 157.6 435.7 149.7 441.5 142.9C442.1 142.2 443.3 141.5 443.9 142.2C445 145.1 442.2 150.2 446.3 151.7C449.8 152.3 452.4 147.3 452.8 144.3C453.3 138.7 446.6 141.2 446.4 137.7C446.3 134.5 455.2 134.9 456.5 139C456 135 449.6 131.9 450.4 129C451.1 126.3 456 128.3 457.7 130.1C456.9 121.8 464.1 127.2 465.7 131.7C478.5 121.1 458 233.6 454.7 250.8C454.7 250.8 454.7 250.8 454.6 250.8" fill="white"/>
<path d="M432.9 241.8C441.1 214.4 442.5 185.8 449.1 158.1C441 157.6 435.7 149.7 441.5 142.9C442.1 142.2 443.3 141.5 443.9 142.2C445 145.1 442.2 150.2 446.3 151.7C449.8 152.3 452.4 147.3 452.8 144.3C453.3 138.7 446.6 141.2 446.4 137.7C446.3 134.5 455.2 134.9 456.5 139C456 135 449.6 131.9 450.4 129C451.1 126.3 456 128.3 457.7 130.1C456.9 121.8 464.1 127.2 465.7 131.7C478.5 121.1 458 233.6 454.7 250.8C454.7 250.8 454.7 250.8 454.6 250.8" stroke="#002460" stroke-width="0.5" stroke-linecap="round" stroke-linejoin="round"/>
<path d="M456.5 139C457 141 457.2 143 456.9 145" stroke="#002460" stroke-width="0.5" stroke-linecap="round" stroke-linejoin="round"/>
<path d="M465.8 131.6C463.4 136.3 465.7 141.6 464.8 146.5" stroke="#002460" stroke-width="0.5" stroke-linecap="round" stroke-linejoin="round"/>
<path d="M457.7 129.7C458.9 134.6 462.3 139.6 461.2 145" stroke="#002460" stroke-width="0.5" stroke-linecap="round" stroke-linejoin="round"/>
<path d="M284.5 254.1C293.8 237.3 303.6 220.8 313.8 204.6C315.1 202.6 316.4 199.9 314.9 198C312.2 196 310.7 194 313 190.8C316.3 185.2 320.3 180 324.8 175.3C332.3 167.2 336.4 176.7 336.1 184C340.9 208.3 317.7 249.3 304.8 268.5" fill="white"/>
<path d="M284.5 254.1C293.8 237.3 303.6 220.8 313.8 204.6C315.1 202.6 316.4 199.9 314.9 198C312.2 196 310.7 194 313 190.8C316.3 185.2 320.3 180 324.8 175.3C332.3 167.2 336.4 176.7 336.1 184C340.9 208.3 317.7 249.3 304.8 268.5" stroke="#002460" stroke-width="0.5" stroke-linecap="round" stroke-linejoin="round"/>
<path d="M315.2 150.7C316.4 163.5 317.6 176.8 318.8 189.7C322.6 188.2 328.5 185.7 328.3 181C327.9 169.8 327.1 159.1 325.9 146.9C315.9 149.1 315.2 150.7 315.2 150.7Z" fill="#002460" stroke="#002460" stroke-width="0.5" stroke-linecap="round" stroke-linejoin="round"/>
<path d="M321.3 323.5V241.2L330 221.2V276.8H384.2V284.7H330V323.6L321.3 323.5Z" fill="#002460" stroke="#002460" stroke-width="0.5" stroke-linecap="round" stroke-linejoin="round"/>
<path d="M383.7 142.4V324H393.1V143.9L383.7 142.4Z" fill="#002460" stroke="#002460" stroke-width="0.5" stroke-linecap="round" stroke-linejoin="round"/>
<path d="M336.5 197.5L335.3 206.4H384.9L384.4 197.5H336.5Z" fill="#002460" stroke="#002460" stroke-width="0.5" stroke-linecap="round" stroke-linejoin="round"/>
<path d="M360.1 280.4C354.1 276.6 348.3 299.3 349.6 304.2C350.8 309.1 355.5 308.1 358.6 308C371.3 307.4 366.3 284.3 360.1 280.4ZM357.2 303.7C354.6 304 349.6 302.9 358.5 284.9C361.2 287.3 366.7 302.6 357.2 303.7Z" fill="white" stroke="#002460" stroke-width="0.5" stroke-linecap="round" stroke-linejoin="round"/>
<path d="M363.7 195.8H347.6V208H363.7V195.8Z" fill="white" stroke="#002460" stroke-width="0.5" stroke-linecap="round" stroke-linejoin="round"/>
<path d="M401.5 211.4C401 206.8 400.5 202.3 400.1 197.7L401.5 211.4Z" fill="#002460"/>
<path d="M401.5 211.4C401 206.8 400.5 202.3 400.1 197.7" stroke="#002460" stroke-width="0.5" stroke-linecap="round" stroke-linejoin="round"/>
<path d="M401.1 207.9C406.4 198.5 418.4 190.2 429.4 193.9" stroke="#002460" stroke-width="0.5" stroke-linecap="round" stroke-linejoin="round"/>
<path d="M401.9 213.9C407.8 204.4 419.1 196.5 430.5 199.8" stroke="#002460" stroke-width="0.5" stroke-linecap="round" stroke-linejoin="round"/>
<path d="M303.3 197.4C303.2 205.6 303.1 213.8 303 222L303.3 197.4Z" fill="white"/>
<path d="M303.3 197.4C303.2 205.6 303.1 213.8 303 222" stroke="#002460" stroke-width="0.5" stroke-linecap="round" stroke-linejoin="round"/>
<path d="M302.9 213.7C295.8 207.9 283.7 206.5 275.8 211.4" stroke="#002460" stroke-width="0.5" stroke-linecap="round" stroke-linejoin="round"/>
<path d="M302.9 218.2C295.8 211.8 282.6 211.5 274.7 216.7" stroke="#002460" stroke-width="0.5" stroke-linecap="round" stroke-linejoin="round"/>
<path d="M328 88.4003C305.9 78.5003 318.3 20.4003 342.6 44.8003C345.9 48.1003 347 53.7003 351.2 55.5003C362.2 60.3003 374.1 62.9003 373.4 77.4003C392.4 74.7003 406.2 100.9 384.3 107C376 109.3 377.3 120 365.9 117.9C350.6 112.2 342.1 96.3003 328 88.4003Z" fill="#002460" stroke="#002460" stroke-width="0.5" stroke-linecap="round" stroke-linejoin="round"/>
<path d="M324.4 80.2002C316.1 111.4 312.3 125.8 350.3 128.7C350.5 134 350.2 136.6 350.2 142C350.2 147.6 367.4 149.5 368.2 140.6C368.2 140.6 370.1 120.9 371 111.1C371 110.3 371.6 109.8 372.4 109.7C382.6 107.2 377.3 91.9002 370 103.5C368.8 106.4 365.7 116.4 362.7 110.5C360.6 106.3 363.2 100.9 364 96.3002C360.6 96.7002 359.6 92.5002 359.8 89.8002C352.4 93.5002 342.7 89.6002 339.9 81.9002C335 84.4002 328.7 84.0002 324.3 80.7002C324.5 80.8002 324.5 80.8002 324.4 80.2002Z" fill="white" stroke="#002460" stroke-width="0.5" stroke-linecap="round" stroke-linejoin="round"/>
<path d="M327.6 88.6001L323.2 105.1L330.9 107.3" stroke="#002460" stroke-width="0.5" stroke-linecap="round" stroke-linejoin="round"/>
<path d="M327.9 106.4L330.9 107.3L328.6 111.8L327.9 106.4Z" fill="#002460" stroke="#002460" stroke-width="0.5" stroke-linecap="round" stroke-linejoin="round"/>
<path d="M350.3 128.7L358.2 129L350.3 136.7V128.7Z" fill="#002460" stroke="#002460" stroke-width="0.5" stroke-linecap="round" stroke-linejoin="round"/>
<path d="M346.6 142.5C337 153.2 359.2 156 366.6 152.6C372.2 150.1 376.5 144.8 371.6 141.1" stroke="#002460" stroke-width="0.5" stroke-linecap="round" stroke-linejoin="round"/>
<path d="M245.9 125.4C253.3 127.6 262.5 124 264.4 116.1" stroke="#002460" stroke-width="0.5" stroke-linecap="round" stroke-linejoin="round"/>
<path d="M247.2 129.2C254.6 131.4 263.8 127.8 265.7 119.9" stroke="#002460" stroke-width="0.5" stroke-linecap="round" stroke-linejoin="round"/>
<path d="M82.9 111.9L80.1 95.5L69 139.8L78.1 142.2L82.9 111.9Z" fill="#002460" stroke="#002460" stroke-width="0.5" stroke-linecap="round" stroke-linejoin="round"/>
<path d="M199.1 264.3L198.7 268.9L205.6 284.4H228.8L222.5 280.5L221.2 269.7L199.1 264.3Z" fill="#002460" stroke="#002460" stroke-width="0.5" stroke-linecap="round" stroke-linejoin="round"/>
<path d="M242.1 53.7002L238.9 65.6002L233.2 64.6002" stroke="#002460" stroke-width="0.5" stroke-linecap="round" stroke-linejoin="round"/>
<path d="M233.2 64.6001L235.3 65.0001L234 67.0001L233.2 64.6001Z" fill="#002460" stroke="#002460" stroke-width="0.5" stroke-linecap="round" stroke-linejoin="round"/>
<path d="M214.1 48.8002L254.9 56.2002L250.4 50.2002C250.4 50.2002 253.5 30.4002 235.9 28.7002C214.9 26.6002 214.1 48.8002 214.1 48.8002Z" fill="#2F6DD5" stroke="#2F6DD5" stroke-width="0.5" stroke-linecap="round" stroke-linejoin="round"/>
<path d="M194.1 142.4C191.7 143.2 183.7 146.4 186.5 149.2C188.8 151.5 192.4 145.6 194.1 142.4Z" stroke="#2F6DD5" stroke-width="2" stroke-linecap="round" stroke-linejoin="round"/>
<path d="M194.5 142.9C195.5 145.2 199.3 152.9 201.9 149.9C204 147.4 197.9 144.2 194.5 142.9Z" stroke="#2F6DD5" stroke-width="2" stroke-linecap="round" stroke-linejoin="round"/>
<path d="M360.5 323.8C358.5 316.9 357.6 309.6 357.4 302.3C335.4 311.9 347.4 329.1 357.4 302.5C364.2 329.8 387.3 306.3 357.4 302.4" stroke="#2F6DD5" stroke-width="2" stroke-miterlimit="10" stroke-linecap="round" stroke-linejoin="round"/>
<path d="M314.1 153.3C315.4 154.8 317 157.4 318.5 156.2C321.3 154 313.4 134.2 311.1 148.6" fill="white"/>
<path d="M314.1 153.3C315.4 154.8 317 157.4 318.5 156.2C321.3 154 313.4 134.2 311.1 148.6" stroke="#002460" stroke-width="0.5" stroke-miterlimit="10" stroke-linecap="round" stroke-linejoin="round"/>
<path d="M311.8 157.2C321.7 166.1 310.2 133.5 308.3 149.9L311.8 157.2Z" fill="white"/>
<path d="M311.8 157.2C321.7 166.1 310.2 133.5 308.3 149.9" stroke="#002460" stroke-width="0.5" stroke-miterlimit="10" stroke-linecap="round" stroke-linejoin="round"/>
<path d="M308.5 159.2C319.4 168.9 305.4 135.3 305.5 153.1L308.5 159.2Z" fill="white"/>
<path d="M308.5 159.2C319.4 168.9 305.4 135.3 305.5 153.1" stroke="#002460" stroke-width="0.5" stroke-miterlimit="10" stroke-linecap="round" stroke-linejoin="round"/>
<path d="M303.7 156.6C311.3 171.6 309.3 149 302.5 149C299.6 149 300.7 155.4 301.3 158.2" fill="white"/>
<path d="M303.7 156.6C311.3 171.6 309.3 149 302.5 149C299.6 149 300.7 155.4 301.3 158.2" stroke="#002460" stroke-width="0.5" stroke-miterlimit="10" stroke-linecap="round" stroke-linejoin="round"/>
</g>
<defs>
<clipPath id="clip0_13031_15164">
<rect width="570" height="324" fill="white"/>
</clipPath>
</defs>
</svg>
