<svg width="570" height="324" viewBox="0 0 570 324" fill="none" xmlns="http://www.w3.org/2000/svg">
<path opacity="0.9884" d="M128.8 72.2H443.3C464.7 72.2 482.1 89.5 482.1 111V212.7C482.1 234.1 464.8 251.5 443.3 251.5H128.8C107.4 251.5 90 234.2 90 212.7V110.9C90 89.5 107.4 72.2 128.8 72.2Z" fill="#D9E4F7"/>
<path d="M331.3 191.4C332 185.2 335.7 179.8 338.5 174.1C345 161.8 344.6 147.8 344.4 134.3C344.6 110.3 355.3 85 345.1 62.4C338.2 107.2 311 130.7 324.2 186" fill="white"/>
<path d="M331.3 191.4C332 185.2 335.7 179.8 338.5 174.1C345 161.8 344.6 147.8 344.4 134.3C344.6 110.3 355.3 85 345.1 62.4C338.2 107.2 311 130.7 324.2 186" stroke="#002460" stroke-width="0.5" stroke-miterlimit="10" stroke-linecap="round" stroke-linejoin="round"/>
<path d="M334.6 127.6C329.7 142.8 324.2 158.1 321.8 174C319.8 183.7 322.3 210.8 330.5 187.4C334.5 183 344.4 118.2 334.6 127.6Z" fill="#2F6DD5" stroke="#2F6DD5" stroke-width="0.5" stroke-miterlimit="10" stroke-linecap="round" stroke-linejoin="round"/>
<path d="M296.4 225.6C304.1 185.8 306.7 148.9 322.5 109.9C331.5 87.7001 315.4 62.1 342.1 47.3C329.1 62.8 338.6 82.1 339 99.6C339.4 116.9 324.2 132.1 325.6 149.3C327.4 171.3 331.3 203.8 327.4 226" fill="white"/>
<path d="M296.4 225.6C304.1 185.8 306.7 148.9 322.5 109.9C331.5 87.7001 315.4 62.1 342.1 47.3C329.1 62.8 338.6 82.1 339 99.6C339.4 116.9 324.2 132.1 325.6 149.3C327.4 171.3 331.3 203.8 327.4 226" stroke="#002460" stroke-width="0.5" stroke-miterlimit="10" stroke-linecap="round" stroke-linejoin="round"/>
<path d="M335 102.8C335.8 99.4001 334.8 88.9001 330.9 87.6001C329.4 107.9 323.1 121.2 315.3 140.2C308.4 164.8 301.9 196 301.6 221.6C301 233.3 319.4 229.6 326.4 227.4C327.9 226.3 331.3 224.4 331.1 222.6C327.9 195.8 317.6 165.4 322.9 139C326.2 123.1 332.8 116 335 102.8Z" fill="#2F6DD5" stroke="#2F6DD5" stroke-width="0.5" stroke-miterlimit="10" stroke-linecap="round" stroke-linejoin="round"/>
<path d="M302.1 225.6C310.5 198.9 318.9 171 314.4 143.5C312.1 129.8 306.1 116.3 308.1 102.6C311.6 78.6001 326 58 313.8 33.3C317.9 77.3 291.5 86.9 293.9 118.8C292.5 127.6 295.9 136.3 296.7 145.1C299.2 172 277.3 198.3 286.2 225.1" fill="white"/>
<path d="M302.1 225.6C310.5 198.9 318.9 171 314.4 143.5C312.1 129.8 306.1 116.3 308.1 102.6C311.6 78.6001 326 58 313.8 33.3C317.9 77.3 291.5 86.9 293.9 118.8C292.5 127.6 295.9 136.3 296.7 145.1C299.2 172 277.3 198.3 286.2 225.1" stroke="#002460" stroke-width="0.5" stroke-miterlimit="10" stroke-linecap="round" stroke-linejoin="round"/>
<path d="M321.2 225.2C309 201.6 335.2 178.9 339 155.9C342.9 132.1 337.9 105 360.7 90.5C347.3 107.7 355.6 129.2 353.6 148.8C351.1 174.1 329.7 201.6 347 226" fill="white"/>
<path d="M321.2 225.2C309 201.6 335.2 178.9 339 155.9C342.9 132.1 337.9 105 360.7 90.5C347.3 107.7 355.6 129.2 353.6 148.8C351.1 174.1 329.7 201.6 347 226" stroke="#002460" stroke-width="0.5" stroke-miterlimit="10" stroke-linecap="round" stroke-linejoin="round"/>
<path d="M211.7 202.1C220.978 202.1 228.5 175.685 228.5 143.1C228.5 110.515 220.978 84.1001 211.7 84.1001C202.422 84.1001 194.9 110.515 194.9 143.1C194.9 175.685 202.422 202.1 211.7 202.1Z" fill="white" stroke="#002460" stroke-width="0.5" stroke-miterlimit="10" stroke-linecap="round" stroke-linejoin="round"/>
<path d="M199.741 212.858C210.015 210.235 211.831 182.601 203.797 151.137C195.763 119.673 180.921 96.2924 170.647 98.9158C160.373 101.539 158.557 129.173 166.591 160.637C174.625 192.102 189.467 215.482 199.741 212.858Z" fill="white" stroke="#002460" stroke-width="0.5" stroke-miterlimit="10" stroke-linecap="round" stroke-linejoin="round"/>
<path d="M250.017 166.14C254.625 133.994 251.003 106.88 241.928 105.579C232.853 104.278 221.76 129.283 217.152 161.429C212.544 193.576 216.165 220.69 225.24 221.991C234.316 223.292 245.408 198.287 250.017 166.14Z" fill="white" stroke="#002460" stroke-width="0.5" stroke-miterlimit="10" stroke-linecap="round" stroke-linejoin="round"/>
<path d="M262.371 179.789C276.391 150.497 282.465 124.22 275.939 121.096C269.413 117.973 252.758 139.187 238.739 168.479C224.72 197.77 218.645 224.048 225.171 227.171C231.697 230.295 248.352 209.081 262.371 179.789Z" fill="white" stroke="#002460" stroke-width="0.5" stroke-miterlimit="10" stroke-linecap="round" stroke-linejoin="round"/>
<path d="M185.855 215.833C194.404 212.228 192.792 189.05 182.254 164.064C171.716 139.078 156.243 121.746 147.694 125.352C139.145 128.957 140.757 152.135 151.295 177.121C161.833 202.107 177.306 219.439 185.855 215.833Z" fill="white" stroke="#002460" stroke-width="0.5" stroke-miterlimit="10" stroke-linecap="round" stroke-linejoin="round"/>
<path d="M229.9 279L251.8 200.1H163.3L185.2 279H229.9Z" fill="white" stroke="#002460" stroke-width="0.5" stroke-miterlimit="10" stroke-linecap="round" stroke-linejoin="round"/>
<path d="M167.6 215.4H247.1" stroke="#002460" stroke-width="0.5" stroke-miterlimit="10" stroke-linecap="round" stroke-linejoin="round"/>
<path d="M170 99.3C180.5 132.4 187.7 166.7 196.9 200.3C196.9 200.2 196.9 200.1 196.9 200.1" stroke="#002460" stroke-width="0.5" stroke-miterlimit="10" stroke-linecap="round" stroke-linejoin="round"/>
<path d="M151.2 139.1C144.4 139.6 147.8 154.3 154.3 152.2C158.7 149.6 156 139.6 151.2 139.1Z" fill="#2F6DD5" stroke="#2F6DD5" stroke-width="0.5" stroke-miterlimit="10" stroke-linecap="round" stroke-linejoin="round"/>
<path d="M157.2 166.4C152.8 168.3 156.1 176.8 160.7 174.4C164.3 172.1 160.9 165.7 157.2 166.4Z" fill="#2F6DD5" stroke="#2F6DD5" stroke-width="0.5" stroke-miterlimit="10" stroke-linecap="round" stroke-linejoin="round"/>
<path d="M173.2 161.8C169.3 165 173.7 173.6 177.6 167.6C179.4 165.1 176 159 173.2 161.8Z" fill="#2F6DD5" stroke="#2F6DD5" stroke-width="0.5" stroke-miterlimit="10" stroke-linecap="round" stroke-linejoin="round"/>
<path d="M297.6 123.3C298.2 115.3 298.1 104.7 303.6 98.6001C304.8 103.6 303.6 108.7 303.2 113.8C302.2 127.7 308 141.3 308.7 155.2C309.9 178.7 297.2 200.6 295 224C291.7 235.7 286.2 205 286.4 202.4C285.3 186.8 291.6 171.8 293.9 156.4C296 142.6 294.8 128.3 298.2 114.7" fill="#2F6DD5"/>
<path d="M297.6 123.3C298.2 115.3 298.1 104.7 303.6 98.6001C304.8 103.6 303.6 108.7 303.2 113.8C302.2 127.7 308 141.3 308.7 155.2C309.9 178.7 297.2 200.6 295 224C291.7 235.7 286.2 205 286.4 202.4C285.3 186.8 291.6 171.8 293.9 156.4C296 142.6 294.8 128.3 298.2 114.7" stroke="#2F6DD5" stroke-width="0.5" stroke-miterlimit="10" stroke-linecap="round" stroke-linejoin="round"/>
<path d="M292.8 225.6C284.2 203.1 298.8 180.3 301.4 158C305.1 126.2 285.4 92.9 297.7 61.8C273.3 81.1 284.8 109.7 289.7 135.2C296.2 169.3 262.3 191.4 267.9 225.1" fill="white"/>
<path d="M292.8 225.6C284.2 203.1 298.8 180.3 301.4 158C305.1 126.2 285.4 92.9 297.7 61.8C273.3 81.1 284.8 109.7 289.7 135.2C296.2 169.3 262.3 191.4 267.9 225.1" stroke="#002460" stroke-width="0.5" stroke-miterlimit="10" stroke-linecap="round" stroke-linejoin="round"/>
<path d="M272.7 225.5C266.6 193.9 299.1 171.8 293.5 139.6C293.5 137.4 293.6 134.8 295.2 133.3C305.7 164.9 277.9 194.5 287.4 226.2" fill="#2F6DD5"/>
<path d="M272.7 225.5C266.6 193.9 299.1 171.8 293.5 139.6C293.5 137.4 293.6 134.8 295.2 133.3C305.7 164.9 277.9 194.5 287.4 226.2" stroke="#2F6DD5" stroke-width="0.5" stroke-miterlimit="10" stroke-linecap="round" stroke-linejoin="round"/>
<path d="M147.5 125.8C157.7 150.5 166.4 176 177.5 200.3" stroke="#002460" stroke-width="0.5" stroke-miterlimit="10" stroke-linecap="round" stroke-linejoin="round"/>
<path d="M171.6 124C169 126.3 169 133.3 173.4 133.1C177.6 131.8 175.7 123.3 171.6 124Z" fill="#2F6DD5" stroke="#2F6DD5" stroke-width="0.5" stroke-miterlimit="10" stroke-linecap="round" stroke-linejoin="round"/>
<path d="M184.8 133.6C182 136.4 184.1 146.5 188.8 141.3C191.5 138 187.3 131.4 184.8 133.6Z" fill="#2F6DD5" stroke="#2F6DD5" stroke-width="0.5" stroke-miterlimit="10" stroke-linecap="round" stroke-linejoin="round"/>
<path d="M199.1 153.2C189.6 145.9 188 164.2 192.5 169.5C194.6 174.8 202.9 176.2 203.7 169.3C204.5 164.4 203.9 155.5 199.1 153.2Z" fill="#2F6DD5" stroke="#2F6DD5" stroke-width="0.5" stroke-miterlimit="10" stroke-linecap="round" stroke-linejoin="round"/>
<path d="M211.3 108.9C198.9 108.1 199.7 131.9 211.1 133.2C222.2 132.3 222.1 110.1 211.3 108.9Z" fill="#2F6DD5" stroke="#2F6DD5" stroke-width="0.5" stroke-miterlimit="10" stroke-linecap="round" stroke-linejoin="round"/>
<path d="M210.2 93.6001C205 94.6001 203.7 104.1 209.7 104.5C214.5 103.9 214.6 94.3001 210.2 93.6001Z" fill="#2F6DD5" stroke="#2F6DD5" stroke-width="0.5" stroke-miterlimit="10" stroke-linecap="round" stroke-linejoin="round"/>
<path d="M211.6 84.7001C211.3 123.3 211.4 161.8 211.9 200.4" stroke="#002460" stroke-width="0.5" stroke-miterlimit="10" stroke-linecap="round" stroke-linejoin="round"/>
<path d="M230.3 136.2C223 136.4 223.1 149.8 230.8 149.2C237.2 148 236.4 135 230.3 136.2Z" fill="#2F6DD5" stroke="#2F6DD5" stroke-width="0.5" stroke-miterlimit="10" stroke-linecap="round" stroke-linejoin="round"/>
<path d="M241.2 148.8C236.6 150.1 236.8 160.1 242.4 155.9C244.2 154 244.8 148.3 241.2 148.8Z" fill="#2F6DD5" stroke="#2F6DD5" stroke-width="0.5" stroke-miterlimit="10" stroke-linecap="round" stroke-linejoin="round"/>
<path d="M227.7 160.3C219.5 163.6 216.1 186.9 228.8 182.5C235 178.6 239.8 157.2 227.7 160.3Z" fill="#2F6DD5" stroke="#2F6DD5" stroke-width="0.5" stroke-miterlimit="10" stroke-linecap="round" stroke-linejoin="round"/>
<path d="M264.5 140.2C257 141.2 253.9 158 264.5 154.9C270.9 152.5 270.6 141 264.5 140.2Z" fill="#2F6DD5" stroke="#2F6DD5" stroke-width="0.5" stroke-miterlimit="10" stroke-linecap="round" stroke-linejoin="round"/>
<path d="M242.6 106.1C237.6 137.6 231.5 169 224.7 200.2C224.7 200.1 224.7 200.1 224.7 200" stroke="#002460" stroke-width="0.5" stroke-miterlimit="10" stroke-linecap="round" stroke-linejoin="round"/>
<path d="M253.6 175C249.1 176 247.7 184.3 253.3 184.3C257.9 183.7 258.4 174.3 253.6 175Z" fill="#2F6DD5" stroke="#2F6DD5" stroke-width="0.5" stroke-miterlimit="10" stroke-linecap="round" stroke-linejoin="round"/>
<path d="M270.7 159.4C269.6 147.3 254 169.8 261.3 175.2C266.9 175 268.7 162.4 270.7 159.4Z" fill="#2F6DD5" stroke="#2F6DD5" stroke-width="0.5" stroke-miterlimit="10" stroke-linecap="round" stroke-linejoin="round"/>
<path d="M276.4 121.9C266 148.6 254.1 174.6 240.7 199.9" stroke="#002460" stroke-width="0.5" stroke-miterlimit="10" stroke-linecap="round" stroke-linejoin="round"/>
<path d="M348.4 128.4C353.8 161.8 329 193.7 343.1 226.4C343.9 229.8 331.6 228.2 329.3 229.1C316.6 209.1 326 195.9 330.5 187.2C337.5 173.9 341.5 160.7 344.4 145.4C345.4 140.5 343.7 131.5 348.4 128.4Z" fill="#2F6DD5" stroke="#2F6DD5" stroke-width="0.5" stroke-miterlimit="10" stroke-linecap="round" stroke-linejoin="round"/>
<path d="M329.8 277L352 226H262.1L284.4 277H329.8Z" fill="white" stroke="#002460" stroke-width="0.5" stroke-miterlimit="10" stroke-linecap="round" stroke-linejoin="round"/>
<path d="M233.6 261.5C212.8 213 292.7 209.5 269.3 260.5L233.6 261.5Z" fill="white"/>
<path d="M233.6 261.5C212.8 213 292.7 209.5 269.3 260.5" stroke="#002460" stroke-width="0.5" stroke-miterlimit="10" stroke-linecap="round" stroke-linejoin="round"/>
<path d="M237.6 261C233.7 255.5 233.8 247.5 237.8 242C241.8 236.5 249.4 234.1 255.9 236.1C262.3 238.2 267.1 244.6 267.2 251.4C267.2 255.1 266 258.7 264.6 262.2" fill="#2F6DD5"/>
<path d="M237.6 261C233.7 255.5 233.8 247.5 237.8 242C241.8 236.5 249.4 234.1 255.9 236.1C262.3 238.2 267.1 244.6 267.2 251.4C267.2 255.1 266 258.7 264.6 262.2" stroke="#2F6DD5" stroke-width="0.5" stroke-miterlimit="10" stroke-linecap="round" stroke-linejoin="round"/>
<path d="M265.4 303.5L278.8 260.5H224.7L238.1 303.5H265.4Z" fill="white" stroke="#002460" stroke-width="0.5" stroke-miterlimit="10" stroke-linecap="round" stroke-linejoin="round"/>
<path d="M257 218.8L256.3 223.6" stroke="#002460" stroke-width="0.5" stroke-miterlimit="10" stroke-linecap="round" stroke-linejoin="round"/>
<path d="M251.7 218.8L251.8 223.6" stroke="#002460" stroke-width="0.5" stroke-miterlimit="10" stroke-linecap="round" stroke-linejoin="round"/>
<path d="M245.5 219.8L247.1 224.4" stroke="#002460" stroke-width="0.5" stroke-miterlimit="10" stroke-linecap="round" stroke-linejoin="round"/>
<path d="M241.2 221.4L243.2 225.8" stroke="#002460" stroke-width="0.5" stroke-miterlimit="10" stroke-linecap="round" stroke-linejoin="round"/>
<path d="M236.1 224L239.2 227.7" stroke="#002460" stroke-width="0.5" stroke-miterlimit="10" stroke-linecap="round" stroke-linejoin="round"/>
<path d="M232.9 227.1L236.4 230.4" stroke="#002460" stroke-width="0.5" stroke-miterlimit="10" stroke-linecap="round" stroke-linejoin="round"/>
<path d="M229.3 230.9L233.5 233.2" stroke="#002460" stroke-width="0.5" stroke-miterlimit="10" stroke-linecap="round" stroke-linejoin="round"/>
<path d="M227 235.2L231.5 237" stroke="#002460" stroke-width="0.5" stroke-miterlimit="10" stroke-linecap="round" stroke-linejoin="round"/>
<path d="M225.4 240.6L230.2 241.2" stroke="#002460" stroke-width="0.5" stroke-miterlimit="10" stroke-linecap="round" stroke-linejoin="round"/>
<path d="M225.4 245.4L230.2 245.2" stroke="#002460" stroke-width="0.5" stroke-miterlimit="10" stroke-linecap="round" stroke-linejoin="round"/>
<path d="M225.4 250.3H230.2" stroke="#002460" stroke-width="0.5" stroke-miterlimit="10" stroke-linecap="round" stroke-linejoin="round"/>
<path d="M226.5 255.1L231.2 254.4" stroke="#002460" stroke-width="0.5" stroke-miterlimit="10" stroke-linecap="round" stroke-linejoin="round"/>
<path d="M264 220.5L262.1 224.9" stroke="#002460" stroke-width="0.5" stroke-miterlimit="10" stroke-linecap="round" stroke-linejoin="round"/>
<path d="M269.5 223.9L266.5 227.7" stroke="#002460" stroke-width="0.5" stroke-miterlimit="10" stroke-linecap="round" stroke-linejoin="round"/>
<path d="M273.6 228.1L269.9 231.2" stroke="#002460" stroke-width="0.5" stroke-miterlimit="10" stroke-linecap="round" stroke-linejoin="round"/>
<path d="M276.8 233.5L272.3 235.2" stroke="#002460" stroke-width="0.5" stroke-miterlimit="10" stroke-linecap="round" stroke-linejoin="round"/>
<path d="M278.4 240L273.6 240.6" stroke="#002460" stroke-width="0.5" stroke-miterlimit="10" stroke-linecap="round" stroke-linejoin="round"/>
<path d="M278.4 246L273.6 245.6" stroke="#002460" stroke-width="0.5" stroke-miterlimit="10" stroke-linecap="round" stroke-linejoin="round"/>
<path d="M278.4 246L273.6 245.6" stroke="#002460" stroke-width="0.5" stroke-miterlimit="10" stroke-linecap="round" stroke-linejoin="round"/>
<path d="M277.6 251.9L272.9 250.8" stroke="#002460" stroke-width="0.5" stroke-miterlimit="10" stroke-linecap="round" stroke-linejoin="round"/>
<path d="M361.5 208.1C357.5 236.2 355.1 264.5 354.2 292.8C372.1 293.3 389.9 293.2 407.8 292.3C408.5 269.7 408.4 245.9 397.3 226.3C393.7 220 388.9 214.1 382.6 210.4C376.3 206.7 368.5 205.3 361.5 208.1Z" fill="#2F6DD5"/>
<path d="M404.8 269.3C412.6 243.3 440.8 251.3 450.5 235.7C455.8 227.2 445.9 201.5 439 208.4C434.3 213.1 444.8 218.8 444 227.3C442.3 244.7 398.4 234.8 404.8 269.3Z" fill="#2F6DD5"/>
<path d="M352.8 199.2C361 223.3 401.8 225.7 397.5 198.1C394.8 180.9 366.3 177.1 357.8 181.5C352.6 184.1 350.8 193.3 352.8 199.2Z" fill="#2F6DD5"/>
<path d="M372.4 181.6L380.5 171.9C381.2 171.1 382.5 171.6 382.4 172.7L381.4 182.5L372.4 181.6Z" fill="#2F6DD5" stroke="#2F6DD5" stroke-miterlimit="10" stroke-linecap="round" stroke-linejoin="round"/>
<path d="M388.4 186.8L401.3 179.7C402.3 179 403.5 180.3 402.8 181.3L394.9 194.1L388.4 186.8Z" fill="#2F6DD5" stroke="#2F6DD5" stroke-miterlimit="10" stroke-linecap="round" stroke-linejoin="round"/>
<path d="M362.6 188.7L370.3 191.4C370.9 191.6 371 192.4 370.5 192.7L364.7 196.6C364.3 196.9 363.8 196.7 363.6 196.2L361.7 189.6C361.5 189.1 362 188.6 362.6 188.7Z" fill="white" stroke="white" stroke-miterlimit="10" stroke-linecap="round" stroke-linejoin="round"/>
</svg>
