<svg width="570" height="324" viewBox="0 0 570 324" fill="none" xmlns="http://www.w3.org/2000/svg">
<g clip-path="url(#clip0_13031_14801)">
<path d="M127.7 70.6001H442.2C463.6 70.6001 481 87.9001 481 109.4V211.1C481 232.5 463.7 253.4 442.2 253.4H127.7C106.3 253.4 88.8999 232.5 88.8999 211.1V109.4C88.9999 88.0001 106.3 70.6001 127.7 70.6001Z" fill="#D9E4F7"/>
<path d="M197.4 150.5H250.8C252.3 149 250.5 146.5 248.7 145.5C243.6 142.4 237.7 143.5 232.4 144.7C229.4 141.9 227 135.8 221.8 137.5C211.4 122.7 202.9 143.6 197.4 150.5Z" fill="white"/>
<path fill-rule="evenodd" clip-rule="evenodd" d="M89.4688 102.9C90.771 95.3412 94.2425 88.5198 99.2196 83.1147C100.854 83.2398 102.499 83.9474 103.8 85.0001C105.9 86.7001 107.3 89.1001 108.6 91.5001C110.6 87.5001 115.7 85.8001 120.1 86.5001C124.5 87.3001 128.3 90.0001 131.5 93.2001C132 93.7001 132.6 94.2001 133.3 94.3001C133.8 94.3001 134.3 94.1001 134.8 93.9001C141.1 91.2001 149.2 96.7001 152.1 102.9H89.4688Z" fill="white"/>
<path d="M234.8 214.9H317.3C317.3 214.9 311 200.1 305.2 204.5C302.2 206.7 295.9 197.8 291.2 199.8C292.1 189.3 278.2 186 271.2 192.1C266.3 195.2 264.3 201.1 260.8 205.4C258.8 206.8 256.1 205.9 253.7 205.5C247.9 204.2 234.9 208.9 234.8 214.9Z" fill="white"/>
<path d="M368.7 93.9999H451C449 84.7999 434.7 86.3999 428.2 88.8999C422.8 81.2999 403.2 68.8999 400.8 84.3999C393.7 81.0999 384.4 83.7999 380.1 90.2999C376.3 88.0999 370.8 89.6999 368.7 93.9999Z" fill="white"/>
<path d="M243 78.7999C220.2 141.5 202.9 163.5 194.3 172.8C194.3 172.8 150.1 162.9 175.1 143.7C176.1 143 176.9 142.2 177.8 141.5C198.5 122.3 213.4 97.3999 226.8 72.5999C230.3 66.1999 242.2 67.3999 242.2 78.0999" fill="white"/>
<path d="M243 78.7999C220.2 141.5 202.9 163.5 194.3 172.8C194.3 172.8 150.1 162.9 175.1 143.7C176.1 143 176.9 142.2 177.8 141.5C198.5 122.3 213.4 97.3999 226.8 72.5999C230.3 66.1999 242.2 67.3999 242.2 78.0999" stroke="#002460" stroke-width="0.5" stroke-miterlimit="10" stroke-linecap="round" stroke-linejoin="round"/>
<path d="M244.1 324.4C244.2 324.3 244.2 324.2 244.3 324.1C199.7 224.4 186 185.1 186 185.1C187.1 180 189.8 177.6 194.3 172.8C183.8 169.1 174.9 155.1 175.1 144.1V143.7C150.1 162.9 78.8001 176.2 83.4001 207.8C89.3001 248.9 113.2 285.5 128.2 324C128.1 323.9 128.1 323.9 128 323.8" fill="white"/>
<path d="M89.7002 186.3C103 216.9 127.8 255.9 107.7 274.4C106.7 275.3 105.9 279.6 106.2 280.5C108.9 288.3 111.5 296.1 114.2 303.9C116.9 311.9 120 320.3 126.7 325.4C131.5 329 137.6 330.3 143.5 331.2C158.3 333.5 173.4 333.7 188.3 333.8C205.3 334 222.6 334.1 238.7 328.6C242.5 327.3 246.8 325 247.4 321C247.6 319.6 247.3 318.2 247 316.8C239.7 284 217 256.9 203.9 225.9C187.3 231.5 176 232.8 146.9 156.3C143.9 158 140.9 159.7 137.9 161.4L161 218.1L122.3 235.8L97.0002 180.4C94.9002 182.8 92.6002 185.1 89.7002 186.3Z" fill="#002460" stroke="#002460" stroke-width="0.5" stroke-miterlimit="10" stroke-linecap="round" stroke-linejoin="round"/>
<path d="M244.1 324.4C244.2 324.3 244.2 324.2 244.3 324.1C199.7 224.4 186 185.1 186 185.1C187.1 180 189.8 177.6 194.3 172.8C183.8 169.1 174.9 155.1 175.1 144.1V143.7C150.1 162.9 78.8001 176.2 83.4001 207.8C89.3001 248.9 113.2 285.5 128.2 324C128.1 323.9 128.1 323.9 128 323.8" stroke="#002460" stroke-width="0.5" stroke-miterlimit="10" stroke-linecap="round" stroke-linejoin="round"/>
<path d="M90.0001 189.4C74.2001 204.4 72.4001 227.8 77.5001 246.7C83.1001 266.7 91.7001 287.4 108.1 301.1C125 315.2 148.9 306.1 167.1 298.2C174.5 295 181.9 291.9 189.4 288.6C197.5 287.6 208.4 285.5 206.3 275C206.9 271.6 204.2 269.5 202.7 266.9C202.1 265.6 202 263.9 200.8 263.2C199.6 262.5 198.1 263.2 196.7 263.3C195.2 263.3 193.7 262.5 192.3 262.9C184.1 269 175.8 275.1 165.8 278.4C116.9 294.8 104.5 272 100.3 227.3" fill="white"/>
<path d="M90.0001 189.4C74.2001 204.4 72.4001 227.8 77.5001 246.7C83.1001 266.7 91.7001 287.4 108.1 301.1C125 315.2 148.9 306.1 167.1 298.2C174.5 295 181.9 291.9 189.4 288.6C197.5 287.6 208.4 285.5 206.3 275C206.9 271.6 204.2 269.5 202.7 266.9C202.1 265.6 202 263.9 200.8 263.2C199.6 262.5 198.1 263.2 196.7 263.3C195.2 263.3 193.7 262.5 192.3 262.9C184.1 269 175.8 275.1 165.8 278.4C116.9 294.8 104.5 272 100.3 227.3" stroke="#002460" stroke-width="0.5" stroke-miterlimit="10" stroke-linecap="round" stroke-linejoin="round"/>
<path d="M78.2002 248.9C83.4002 241.1 93.3002 237.7 101.9 239.7" stroke="#002460" stroke-width="0.5" stroke-miterlimit="10" stroke-linecap="round" stroke-linejoin="round"/>
<path d="M132.7 245.6L163.7 229.9C163.7 229.9 177.6 260.9 161.8 268.9C146.2 276.9 132.7 245.6 132.7 245.6Z" fill="#002460" stroke="white" stroke-miterlimit="10"/>
<path d="M119.496 244.438C121.279 243.692 121.739 240.733 120.524 237.829C119.308 234.925 116.878 233.176 115.095 233.923C113.312 234.669 112.852 237.628 114.067 240.532C115.282 243.435 117.713 245.184 119.496 244.438Z" fill="#002460" stroke="white" stroke-miterlimit="10"/>
<path d="M168.498 218.261C170.281 217.515 170.741 214.556 169.526 211.652C168.311 208.749 165.88 207 164.097 207.746C162.314 208.492 161.854 211.451 163.069 214.355C164.285 217.259 166.715 219.008 168.498 218.261Z" fill="#002460" stroke="white" stroke-miterlimit="10"/>
<path d="M197.7 263.1C195.6 263.9 193.6 265 191.7 266.2L197.7 263.1Z" fill="white"/>
<path d="M197.7 263.1C195.6 263.9 193.6 265 191.7 266.2" stroke="#002460" stroke-width="0.5" stroke-miterlimit="10" stroke-linecap="round" stroke-linejoin="round"/>
<path d="M98.3001 149.5C99.7001 152.2 101.2 154.8 102.6 157.5C95.2001 152.9 97.8001 165.4 104.1 162.8C106.9 167.8 107.6 176.1 113.4 178.2C116.5 179.3 119.6 176.4 120.3 173.5C120.9 171.2 118.8 169.2 118 167.2C118 167.2 130 163.3 133.4 158.5C138.7 150.9 130.7 138.3 125.4 131.9L98.3001 149.5Z" fill="white" stroke="#002460" stroke-width="0.5" stroke-miterlimit="10" stroke-linecap="round" stroke-linejoin="round"/>
<path d="M96.3001 151.3C83.5001 134.6 86.7001 115.3 111.2 117.4C117.8 118.6 122.5 124 127.2 128.5C129.3 128.3 131.5 127.6 133.6 127.2L96.3001 151.3Z" fill="white" stroke="#002460" stroke-width="0.5" stroke-miterlimit="10" stroke-linecap="round" stroke-linejoin="round"/>
<path d="M106.9 177.1C112.9 189.2 130.9 180.2 123.7 168.6" stroke="#002460" stroke-width="0.5" stroke-miterlimit="10" stroke-linecap="round" stroke-linejoin="round"/>
<path d="M123.6 136.7L128.1 144.7L124.8 146.9" fill="white"/>
<path d="M123.6 136.7L128.1 144.7L124.8 146.9" stroke="#002460" stroke-width="0.5" stroke-miterlimit="10" stroke-linecap="round" stroke-linejoin="round"/>
<path d="M124.8 146.9L126.3 145.9L127.3 149L124.8 146.9Z" fill="#002460" stroke="#002460" stroke-width="0.5" stroke-miterlimit="10" stroke-linecap="round" stroke-linejoin="round"/>
<path d="M114 168.6L118 167.2L119.6 170.1L114 168.6Z" fill="#002460" stroke="#002460" stroke-width="0.5" stroke-miterlimit="10" stroke-linecap="round" stroke-linejoin="round"/>
<path d="M97.3 145.8L108.5 138.4" stroke="#002460" stroke-width="0.5" stroke-miterlimit="10" stroke-linecap="round" stroke-linejoin="round"/>
<path d="M96.3 144L107.5 136.6" stroke="#002460" stroke-width="0.5" stroke-miterlimit="10" stroke-linecap="round" stroke-linejoin="round"/>
<path d="M95.3 142.1L106.5 134.7" stroke="#002460" stroke-width="0.5" stroke-miterlimit="10" stroke-linecap="round" stroke-linejoin="round"/>
<path d="M306.7 62.5L313.3 76.3001L322.1 64.3001L317.2 54.3L306.7 62.5Z" fill="white"/>
<path d="M310.3 51.4C309.4 42.1 326.3 60.2 317.6 59.8L310.3 51.4Z" fill="white"/>
<path d="M310.3 51.4C309.4 42.1 326.3 60.2 317.6 59.8" stroke="#002460" stroke-width="0.5" stroke-miterlimit="10" stroke-linecap="round" stroke-linejoin="round"/>
<path d="M309.1 55.2999C306.5 49.1999 313.3 51.7999 315.5 55.0999C316.5 56.5999 319.7 63.2999 316 62.1999" fill="white"/>
<path d="M309.1 55.2999C306.5 49.1999 313.3 51.7999 315.5 55.0999C316.5 56.5999 319.7 63.2999 316 62.1999" stroke="#002460" stroke-width="0.5" stroke-miterlimit="10" stroke-linecap="round" stroke-linejoin="round"/>
<path d="M307.5 59.8C305.9 56.1 309 54.3 312.2 56.8C314.3 58.5 318.7 66.5 313.4 65" fill="white"/>
<path d="M307.5 59.8C305.9 56.1 309 54.3 312.2 56.8C314.3 58.5 318.7 66.5 313.4 65" stroke="#002460" stroke-width="0.5" stroke-miterlimit="10" stroke-linecap="round" stroke-linejoin="round"/>
<path d="M313.3 76.0999C309.5 74.6999 301.5 57.3999 309 59.8999C316.8 62.4999 312.7 71.7999 307.7 63.2999" fill="white"/>
<path d="M313.3 76.0999C309.5 74.6999 301.5 57.3999 309 59.8999C316.8 62.4999 312.7 71.7999 307.7 63.2999" stroke="#002460" stroke-width="0.5" stroke-miterlimit="10" stroke-linecap="round" stroke-linejoin="round"/>
<path d="M322.4 64C320.1 62.1 320.7 59.2 319.5 56.7C313.4 48.4 309.2 71 318.1 59.8" fill="white"/>
<path d="M322.4 64C320.1 62.1 320.7 59.2 319.5 56.7C313.4 48.4 309.2 71 318.1 59.8" stroke="#002460" stroke-width="0.5" stroke-miterlimit="10" stroke-linecap="round" stroke-linejoin="round"/>
<path d="M460 324C516.4 76.2999 446.9 220.7 321.3 61.8999C317.7 66.7999 314.1 71.5999 310.1 77.6999C323.7 109.1 345.9 135.3 369 159.8C360.6 215.3 352.1 269.3 343.8 324" fill="#002460"/>
<path d="M460 324C516.4 76.2999 446.9 220.7 321.3 61.8999C317.7 66.7999 314.1 71.5999 310.1 77.6999C323.7 109.1 345.9 135.3 369 159.8C360.6 215.3 352.1 269.3 343.8 324" stroke="#002460" stroke-width="0.5" stroke-miterlimit="10" stroke-linecap="round" stroke-linejoin="round"/>
<path d="M398 323.6L446 153.6L431.2 147.7L375.9 323.5" fill="white"/>
<path d="M398 323.6L446 153.6L431.2 147.7L375.9 323.5" stroke="#002460" stroke-width="0.5" stroke-miterlimit="10" stroke-linecap="round" stroke-linejoin="round"/>
<path d="M432.6 148.2L425.9 167.3L436.8 155.1L437.7 173.2L443.6 152.6" stroke="#002460" stroke-width="0.5" stroke-miterlimit="10" stroke-linecap="round" stroke-linejoin="round"/>
<path d="M431.2 161.4L432.5 165L393.6 278.8L395.8 288.1L404.5 281.9L434.9 166.3L437.2 164.5L436.7 155.3L431.2 161.4Z" fill="#002460"/>
<path d="M428.6 98.9999C424.4 108.7 418.3 120.5 417.4 131.5C417 136.5 428.8 137.3 433.7 139.7C436.1 140.9 434 144.5 432.6 148.2C431.6 153.9 442 156.5 443.6 152.2L452.1 128.2C459.1 129.2 462.4 121.7 453.8 123.1C457.1 115.4 457.1 107.3 462.7 104.4C461.5 104.3 458.8 104.2 457.6 104.1C457.8 102.6 457.9 101.2 458.1 99.6999C454.8 109.2 430.5 94.7999 428.6 98.9999Z" fill="white"/>
<path fill-rule="evenodd" clip-rule="evenodd" d="M439.033 99.9607L439.019 99.9563C436.432 99.1766 434.021 98.4502 432.161 98.1319C431.23 97.9727 430.415 97.9112 429.774 98.0063C429.132 98.1015 428.613 98.3638 428.372 98.8969L428.372 98.8968L428.371 98.9006C428.273 99.1265 428.174 99.3535 428.074 99.5817C428.051 99.634 428.047 99.6926 428.062 99.7477C428.548 101.529 429.804 102.723 431.447 103.634C433.079 104.54 435.125 105.183 437.241 105.848L437.241 105.848L437.258 105.853C440.935 107.009 444.831 108.24 447.441 110.993C450.029 113.722 451.39 117.999 449.855 125.349C449.83 125.469 449.896 125.59 450.011 125.634C450.126 125.677 450.256 125.631 450.317 125.524C451.294 123.822 453.005 123.52 455.203 123.191C455.335 123.171 455.428 123.05 455.414 122.917C455.4 122.784 455.284 122.686 455.15 122.694C454.853 122.712 454.537 122.743 454.203 122.787C455.189 120.401 455.875 117.988 456.518 115.725L456.52 115.718C457.228 113.227 457.883 110.927 458.827 109.005C459.769 107.089 460.988 105.568 462.815 104.622C462.914 104.571 462.967 104.46 462.945 104.351C462.923 104.242 462.832 104.16 462.721 104.151C462.117 104.1 461.139 104.05 460.168 104L460.163 104C459.318 103.957 458.478 103.914 457.882 103.871C457.966 103.21 458.032 102.567 458.099 101.927L458.099 101.926C458.174 101.2 458.248 100.479 458.348 99.7329C458.365 99.6057 458.283 99.4864 458.158 99.4567C458.033 99.427 457.906 99.4966 457.864 99.6179C457.398 100.96 456.494 101.795 455.272 102.265C454.038 102.74 452.473 102.845 450.702 102.699C447.159 102.408 442.894 101.124 439.033 99.9607Z" fill="#002460"/>
<path d="M428.6 98.9999C424.4 108.7 418.3 120.5 417.4 131.5C417 136.5 428.8 137.3 433.7 139.7C436.1 140.9 434 144.5 432.6 148.2C431.6 153.9 442 156.5 443.6 152.2L452.1 128.2C459.1 129.2 462.4 121.7 453.8 123.1C457.1 115.4 457.1 107.3 462.7 104.4C461.5 104.3 458.8 104.2 457.6 104.1C457.8 102.6 457.9 101.2 458.1 99.6999C454.8 109.2 430.5 94.7999 428.6 98.9999Z" stroke="#002460" stroke-width="0.5" stroke-miterlimit="10" stroke-linecap="round" stroke-linejoin="round"/>
<path d="M426 113.3L422.6 123L428.2 125.1" stroke="#002460" stroke-width="0.5" stroke-miterlimit="10" stroke-linecap="round" stroke-linejoin="round"/>
<path d="M426.3 124.4L428.2 125.1L426.5 127.9L426.3 124.4Z" fill="#002460" stroke="#002460" stroke-width="0.5" stroke-miterlimit="10" stroke-linecap="round" stroke-linejoin="round"/>
<path d="M432.5 139.2L439.9 141.6L434.5 143.4C436.6 140.2 432.5 139.2 432.5 139.2Z" fill="#002460" stroke="#002460" stroke-width="0.5" stroke-miterlimit="10" stroke-linecap="round" stroke-linejoin="round"/>
<path d="M445.6 153.9L456.2 176.3L437.5 180.2" stroke="white" stroke-width="0.5" stroke-miterlimit="10" stroke-linecap="round" stroke-linejoin="round"/>
<path d="M443.7 178.9L455.1 183.1L408.9 280.2" stroke="white" stroke-width="0.5" stroke-miterlimit="10" stroke-linecap="round" stroke-linejoin="round"/>
<path d="M431.3 148.2L410.2 159.6L423.3 174" stroke="white" stroke-width="0.5" stroke-miterlimit="10" stroke-linecap="round" stroke-linejoin="round"/>
<path d="M419 169.3L407.2 166.3L392.6 275.9" stroke="white" stroke-width="0.5" stroke-miterlimit="10" stroke-linecap="round" stroke-linejoin="round"/>
<path d="M462.9 217.3L440.7 324.3" stroke="white" stroke-width="0.5" stroke-miterlimit="10" stroke-linecap="round" stroke-linejoin="round"/>
<path d="M271.5 34.0999L238.1 38.2999C251.3 119.2 276.4 116.3 276.4 116.3L278.6 137.7C269.3 138.9 261.4 154 261.4 154L283.4 151.3" fill="#2F6DD5"/>
<path d="M239.9 52.4999C240.7 55.3999 242.1 59.5999 241.8 55.6999C241.1 46.0999 234 37.0999 227.1 42.3999C218 49.3999 225.2 65.4999 232.7 70.6999C235.3 72.4999 238.2 73.7999 240.8 75.7999C243.4 77.7999 246 81.0999 246 84.9999C246 88.0999 248.2 89.7999 248.6 86.1999C250.5 70.1999 228.7 69.5999 226 54.4999C223.8 41.9999 236.9 41.7999 239.9 52.4999Z" fill="#2F6DD5"/>
<path d="M271.4 34.0999L304.8 29.8999C308.2 112 283.2 115.3 283.2 115.3L285.4 136.7C294.7 135.5 305.4 148.4 305.4 148.4L283.4 151.1" fill="#2F6DD5"/>
<path d="M317.2 52.1999C318.8 49.3999 319.8 46.3999 319.7 42.8999C319.4 30.0999 306.6 33.0999 305.8 44.1999C305.6 47.1999 305.1 51.6999 304.6 47.6999C303.3 38.1999 308.5 27.6999 316.2 31.0999C324.6 34.8999 323.6 47.2999 319.5 55.4999C318.2 53.2999 317.2 52.1999 317.2 52.1999Z" fill="#2F6DD5"/>
<path d="M310.2 66.6C310 66.8 309.9 67 309.7 67.2C307.6 69.8 305.7 73.6 306.5 77.5C307.1 80.6 305.3 82.8 304.2 79.3C302.1 73 304.5 68.4 307.9 64C308.9 65.6 310.2 66.6 310.2 66.6Z" fill="#2F6DD5"/>
<path d="M242.6 71.3997C247.9 69.6997 241.8 85.2997 239.9 78.4997L242.6 71.3997Z" fill="white"/>
<path d="M242.6 71.3997C247.9 69.6997 241.8 85.2997 239.9 78.4997" stroke="#002460" stroke-width="0.5" stroke-miterlimit="10" stroke-linecap="round" stroke-linejoin="round"/>
<path d="M241 67.9999C247.6 61.5999 238.6 87.9999 236.9 76.4999L241 67.9999Z" fill="white"/>
<path d="M241 67.9999C247.6 61.5999 238.6 87.9999 236.9 76.4999" stroke="#002460" stroke-width="0.5" stroke-miterlimit="10" stroke-linecap="round" stroke-linejoin="round"/>
<path d="M237.5 65.4999C245.8 53.4999 239 84.2999 233.6 76.4999L237.5 65.4999Z" fill="white"/>
<path d="M237.5 65.4999C245.8 53.4999 239 84.2999 233.6 76.4999" stroke="#002460" stroke-width="0.5" stroke-miterlimit="10" stroke-linecap="round" stroke-linejoin="round"/>
<path d="M231.5 68.1998C231.7 66.3998 236.8 59.0998 238.2 62.6998C239.5 66.0998 232.5 83.2998 230.8 73.7998" fill="white"/>
<path d="M231.5 68.1998C231.7 66.3998 236.8 59.0998 238.2 62.6998C239.5 66.0998 232.5 83.2998 230.8 73.7998" stroke="#002460" stroke-width="0.5" stroke-miterlimit="10" stroke-linecap="round" stroke-linejoin="round"/>
<path d="M227.8 71.0999C229.4 68.7999 232.4 68.0999 234.1 66.2999C241.2 59.1999 240.1 75.6999 229.4 75.0999" fill="white"/>
<path d="M227.8 71.0999C229.4 68.7999 232.4 68.0999 234.1 66.2999C241.2 59.1999 240.1 75.6999 229.4 75.0999" stroke="#002460" stroke-width="0.5" stroke-miterlimit="10" stroke-linecap="round" stroke-linejoin="round"/>
</g>
<defs>
<clipPath id="clip0_13031_14801">
<rect width="570" height="324" fill="white"/>
</clipPath>
</defs>
</svg>
