<?xml version="1.0" encoding="UTF-8" standalone="no"?>
<svg
   fill="none"
   viewBox="0 0 451.28201 284.55"
   version="1.1"
   id="svg231"
   sodipodi:docname="bg-inps-impresa.svg"
   inkscape:version="1.1.2 (b8e25be833, 2022-02-05)"
   xmlns:inkscape="http://www.inkscape.org/namespaces/inkscape"
   xmlns:sodipodi="http://sodipodi.sourceforge.net/DTD/sodipodi-0.dtd"
   xmlns="http://www.w3.org/2000/svg"
   xmlns:svg="http://www.w3.org/2000/svg">
  <sodipodi:namedview
     id="namedview233"
     pagecolor="#ffffff"
     bordercolor="#666666"
     borderopacity="1.0"
     inkscape:pageshadow="2"
     inkscape:pageopacity="0.0"
     inkscape:pagecheckerboard="0"
     showgrid="false"
     inkscape:zoom="2.0982456"
     inkscape:cx="285"
     inkscape:cy="162.51672"
     inkscape:window-width="3440"
     inkscape:window-height="1369"
     inkscape:window-x="-8"
     inkscape:window-y="-8"
     inkscape:window-maximized="1"
     inkscape:current-layer="svg231" />
  <g
     clip-path="url(#clip0_104_855)"
     id="g224"
     transform="translate(-61.617872,-39.45)">
    <path
       d="m 127.7,70.6 h 314.5 c 21.4,0 38.8,17.3 38.8,38.8 v 101.7 c 0,21.4 -17.3,42.3 -38.8,42.3 H 127.7 c -21.4,0 -38.8001,-20.9 -38.8001,-42.3 V 109.4 C 88.9999,88 106.3,70.6 127.7,70.6 Z"
       fill="#d9e4f7"
       id="path2" />
    <path
       d="m 146.2,235.5 -6.3,-13.8 8.3,-22.7 c 0.4,-1.1 1.9,-1.1 2.3,0 l 4.8,14.6 -7.4,21.5"
       fill="#fffeff"
       id="path4" />
    <path
       d="m 113,249.9 16.1,-43.7 c 0.8,-1.7 3.3,-1.6 3.9,0.2 l 7,15.3 6,13.2 c 0.4,0.9 1.7,0.9 2.1,-0.1 L 183,135.6 c 0.4,-1 1.8,-1 2.1,0 l 13.5,43.4 46.9,-80.7 c 0.4,-0.9 1.7,-0.9 2.1,0 l 8.7,20 16.9,-39.6 26.5,58.7"
       stroke="#598bde"
       stroke-width="0.5"
       stroke-miterlimit="10"
       id="path6" />
    <path
       opacity="0.9884"
       d="m 363.9,89 c 6.8,0 36,0 36,0 0,0 -3.8,-6.7 -8.6,-4.8 -4.9,1.9 -1.6,-6.9 -9.9,-2.8 -8.3,4.1 -4.7,-3.1 -10.5,2.1 -1.3,1.1 -7.3,0.2 -7,5.5 z"
       fill="#fffeff"
       id="path8" />
    <path
       opacity="0.9884"
       d="m 109,134.2 c 10.2,0 50,0.1 50,0.1 0,0 -11.5,-13.8 -23.9,-8.6 -12.5,5.2 -7,-4.9 -15.7,1.6 -1.8,1.4 -4.5,1.6 -10.4,6.9 z"
       fill="#fffeff"
       id="path10" />
    <path
       opacity="0.9884"
       d="m 124.6,111.3 c 15.8,0 77.5,0.1 77.5,0.1 0,0 -8.9,-15 -20.2,-10.8 -11.3,4.2 2.4,-15.1 -16.9,-6 -19.3,9.2 -8.4,-2.5 -21.8,8.9 -2.8,2.4 -17,3.3 -18.6,7.8 z"
       fill="#fffeff"
       id="path12" />
    <path
       d="m 427.1,253.6 22.7,-61.3 c 0.6,-1.6 2.8,-1.6 3.4,0 l 18.3,45.8"
       stroke="#598bde"
       stroke-width="0.5"
       stroke-miterlimit="10"
       id="path14" />
    <path
       d="m 267.4,253.5 23.3,-62.9 c 0.4,-1 1.8,-1 2.2,0 l 25.8,63.1"
       fill="#d9e4f7"
       id="path16" />
    <path
       d="m 267.4,253.5 23.3,-62.9 c 0.4,-1 1.8,-1 2.2,0 l 25.8,63.1"
       stroke="#598bde"
       stroke-width="0.5"
       stroke-miterlimit="10"
       id="path18" />
    <path
       d="m 255.6,253.6 14.7,-39.8 c 0.2,-0.6 1.1,-0.6 1.4,0 l 16.3,39.9"
       fill="#fffeff"
       id="path20" />
    <path
       opacity="0.9884"
       d="m 481,177.6 h -40.7 c 0,0 -4.8,-18.5 14.3,-10.8 17.1,2.1 -1.8,-25.8 21.3,-11.4 2,1.3 3.7,2.1 5,2.6 v 19.6 z"
       fill="#fffeff"
       id="path22" />
    <path
       d="m 463,216.7 6.7,-16.3 c 0.3,-0.8 1.5,-0.8 1.9,0 l 8,21.2"
       stroke="#598bde"
       stroke-width="0.5"
       stroke-miterlimit="10"
       id="path24" />
    <path
       d="m 271,213.4 v -16.5 l 7.4,3.2 -7.4,2.7"
       fill="#49c94f"
       id="path26" />
    <path
       d="m 271,213.4 v -16.5 l 7.4,3.2 -7.4,2.7"
       stroke="#49c94f"
       stroke-miterlimit="10"
       id="path28" />
    <path
       d="m 149.4,198.1 v -16.5 l 7.4,3.2 -7.4,2.7"
       fill="#49c94f"
       id="path30" />
    <path
       d="m 149.4,198.1 v -16.5 l 7.4,3.2 -7.4,2.7"
       stroke="#49c94f"
       stroke-miterlimit="10"
       id="path32" />
    <path
       d="m 90.0002,147.7 c 1.1,8.7 11.0998,-1.7 14.8998,-1.9 1.8,-0.1 3.3,6.5 3.3,6.5 0,0 19.1,-5 18,3.6 3.6,0.6 10.3,0.6 11.4,4.9 0,0 -43.2998,-0.3 -64.6998,0 h -10.7 c 1.9,-2 7.9,-5.8 8.3,-4.5 0.4,1.3 18.2,-15.9 19.5,-8.6 z"
       stroke="#598bde"
       stroke-width="0.5"
       stroke-miterlimit="10"
       id="path34" />
    <path
       d="m 476.3,59.9 -3,10 1.8,-10.1 c -0.6,0 -0.9,-0.1 -0.9,-0.1 L 458,89.4 c 0,0 12.3,11.2 31.3,-5.4 14.9,-13.1 23.6,-6.2 23.6,-6.2 -7.2,-13.9 -29.5,-17.2 -36.6,-17.9 z"
       fill="#49c94f"
       id="path36" />
    <path
       d="m 458.1,89.4 c 0,0 10.1,-1.1 10.6,-3.8 0.4,-2.1 -2.6,-7.3 -4.8,-7.2 z"
       fill="#002460"
       id="path38" />
    <path
       d="m 421.2,41.2 -1.9,36 c 0,0 47.6,0 49.3,8.4 0,0 10.7,-29.6 5,-37.1 -7.9,-10.5 -52.4,-7.3 -52.4,-7.3 z"
       fill="#49c94f"
       id="path40" />
    <path
       d="m 417.1,323.4 -0.3,-167.2 5.8,-8.8 v 176"
       fill="#fffeff"
       id="path42" />
    <path
       d="m 417.1,323.4 -0.3,-167.2 5.8,-8.8 v 176"
       stroke="#002460"
       stroke-width="0.5"
       stroke-miterlimit="10"
       id="path44" />
    <path
       d="m 344.2,68.3 c 0.5,0.9 0.9,2.3 0.4,3.7 1.4,0 2.4,1.5 2.4,3 0,1.4 0.4,2.2 -0.3,3.4 3.1,0 5.8,11.9 0.1,12.3 1.4,4 -0.9,5.1 -1.9,5.5 -3.1,-8.7 -4,-18 -3.3,-27.2 -0.1,0 2.8,-0.6 2.6,-0.7 z"
       fill="#002460"
       id="path46" />
    <path
       d="m 307.3,77.2 c 2.4,12.3 4.6,28.7 17,24.5 l 0.8,3.9 21,-4.2 -8.1,-31.5"
       fill="#fffeff"
       id="path48" />
    <path
       d="m 307.3,77.2 c 2.4,12.3 4.6,28.7 17,24.5 l 0.8,3.9 21,-4.2 -8.1,-31.5"
       stroke="#002460"
       stroke-width="0.5"
       stroke-miterlimit="10"
       id="path50" />
    <path
       d="m 310.8,80.1 c 1.3,8.9 2.4,12.4 2.4,12.4 l 3,-0.8"
       fill="#fffeff"
       id="path52" />
    <path
       d="m 310.8,80.1 c 1.3,8.9 2.4,12.4 2.4,12.4 l 3,-0.8"
       stroke="#002460"
       stroke-width="0.5"
       stroke-miterlimit="10"
       stroke-linecap="round"
       id="path54" />
    <path
       d="m 308,76.7 c 1,1 3.1,0.7 3.6,-0.5 0.6,0.6 1.5,1.1 2.4,1 0.9,-0.1 1.8,-0.7 1.7,-1.5 0.5,0.8 1.7,1.2 2.7,1.1 1,-0.2 1.9,-0.9 2.1,-1.8 0.9,0.5 1.9,1 3,1 1.1,0 2.2,-0.8 2,-1.7 0.4,1 1.1,1.9 2.3,2.2 1.2,0.3 2.5,-0.3 2.6,-1.3 0.2,1 0.6,2.3 1.7,2.6 0.8,0.2 1.8,-0.2 2.2,-0.9 0.5,-0.6 0.6,-1.4 0.6,-2.2 0.1,-1.7 -0.1,-3.5 -1,-5.1 -0.1,-0.2 -0.3,-0.4 -0.6,-0.5 -0.2,-0.1 -0.4,0 -0.6,0 -7.5,1.5 -15,3 -22.5,4.5 -0.9,0.2 -1.9,0.4 -2.5,1 -0.5,0.8 -0.3,1.9 0.3,2.1 z"
       fill="#002460"
       id="path56" />
    <path
       d="m 303.2,76.8 -0.6,-2.2 c -0.3,-1.1 0.3,-2.2 1.5,-2.5 l 40.1,-10.4 c 1.1,-0.3 2.3,0.4 2.6,1.5 l 0.6,2.2 c 0.3,1.1 -0.3,2.2 -1.5,2.5 l -40.1,10.4 c -1.1,0.3 -2.3,-0.4 -2.6,-1.5 z"
       fill="#fffeff"
       stroke="#002460"
       stroke-width="0.5"
       stroke-miterlimit="10"
       id="path58" />
    <path
       d="m 317.5,91.3 -0.3,1.8 -1.6,-1.2 z"
       fill="#002460"
       stroke="#002460"
       stroke-width="0.5"
       stroke-miterlimit="10"
       stroke-linecap="round"
       stroke-linejoin="round"
       id="path60" />
    <path
       d="m 329.6,72.3 8.2,14.7 c 0,0 2.1,4.3 7.3,2.6 5.2,-1.7 3,-5.2 2.5,-6.4 -0.5,-1.2 -6.3,-14.1 -6.3,-14.1 z"
       fill="#fffeff"
       stroke="#002460"
       stroke-width="0.5"
       stroke-miterlimit="10"
       id="path62" />
    <path
       d="m 305.3,71.6 c -0.1,-18.3 32.8,-32.4 37.8,-9.7 z"
       fill="#fffeff"
       stroke="#002460"
       stroke-width="0.5"
       stroke-miterlimit="10"
       id="path64" />
    <path
       d="m 335.2,256 27,-3.5 -23.8,-149.4 -14.2,2.6 z"
       fill="#fffeff"
       id="path66" />
    <path
       d="m 337.4,103.3 c 24.1,-6.1 101.3,-10.6 119.2,10.5 8,9.4 -21,33.7 -27.6,38.3 -1.8,-3.5 -11.1,-16.4 -7.8,-18.3 31.6,-18.7 -27,-15 -33,-9 -2.8,2.8 -1.5,9.4 0.3,16 3.1,11.5 13.6,36.3 15.1,110.8 0.2,10.6 -28.9,4.9 -42.1,6 h -0.1 -0.1"
       fill="#fffeff"
       id="path68" />
    <path
       d="m 337.4,103.3 c 24.1,-6.1 101.3,-10.6 119.2,10.5 8,9.4 -21,33.7 -27.6,38.3 -1.8,-3.5 -11.1,-16.4 -7.8,-18.3 31.6,-18.7 -27,-15 -33,-9 -2.8,2.8 -1.5,9.4 0.3,16 3.1,11.5 13.6,36.3 15.1,110.8 0.2,10.6 -28.9,4.9 -42.1,6 h -0.1 -0.1"
       stroke="#002460"
       stroke-width="0.5"
       stroke-miterlimit="10"
       stroke-linejoin="round"
       id="path70" />
    <path
       d="m 324.9,105.1 c 0,0 -53.9,40.2 -64.6,53.6 -5.6,7 3.1,18.2 15.4,12.6 7.8,-3.6 25,-15.4 25,-15.4 4.5,-3 6.6,3.2 7.3,5.4 7,23.5 7.2,48.9 4.4,101.9 l 25.7,-2.3"
       fill="#fffeff"
       id="path72" />
    <path
       d="m 324.9,105.1 c 0,0 -53.9,40.2 -64.6,53.6 -5.6,7 3.1,18.2 15.4,12.6 7.8,-3.6 25,-15.4 25,-15.4 4.5,-3 6.6,3.2 7.3,5.4 7,23.5 7.2,48.9 4.4,101.9 l 25.7,-2.3"
       stroke="#002460"
       stroke-width="0.5"
       stroke-miterlimit="10"
       id="path74" />
    <path
       d="m 312.4,263.2 91.3,-11.6 -0.1,-3.8 -91.7,10.7 z"
       fill="#fffeff"
       stroke="#002460"
       stroke-width="0.5"
       stroke-miterlimit="10"
       stroke-linejoin="round"
       id="path76" />
    <path
       d="m 343.8,255.1 0.8,4.6"
       stroke="#002460"
       stroke-width="0.5"
       stroke-miterlimit="10"
       id="path78" />
    <path
       d="m 352.6,254 0.8,4.6"
       stroke="#002460"
       stroke-width="0.5"
       stroke-miterlimit="10"
       id="path80" />
    <path
       d="m 330.8,104.7 c 0,0 21.9,53.5 18.9,123.7 0,1.1 -0.1,2.3 -0.2,3.4 -0.1,1 -2.4,3.1 -2.4,3.1 0,0 2.1,2.6 2,3.9 -0.4,5.1 -0.9,10.3 -1.6,15.5"
       fill="#fffeff"
       id="path82" />
    <path
       d="m 330.8,104.7 c 0,0 21.9,53.5 18.9,123.7 0,1.1 -0.1,2.3 -0.2,3.4 -0.1,1 -2.4,3.1 -2.4,3.1 0,0 2.1,2.6 2,3.9 -0.4,5.1 -0.9,10.3 -1.6,15.5"
       stroke="#002460"
       stroke-width="0.5"
       stroke-miterlimit="10"
       stroke-linecap="round"
       stroke-linejoin="round"
       id="path84" />
    <path
       d="m 330.9,105 -2.5,4.8 3.2,1.8 4.7,-4 z"
       fill="#49c94f"
       id="path86" />
    <path
       d="m 177.9,242.5 4.8,-3.3 v 3.4 l -4.5,1.3 z"
       fill="#fffeff"
       id="path88" />
    <path
       d="m 174.7,246.9 3.6,-4 3.4,-1.3 1.1,5.1 -7.5,2 z"
       fill="#fffeff"
       id="path90" />
    <path
       d="m 182.5,239.3 c -2.1,1.8 -4.5,3.3 -7.1,4.3 -1.5,0.6 -3.1,1 -4.6,1.6 -0.4,0.2 -0.8,0.4 -0.9,0.8 0,0.2 0.1,0.5 0.2,0.7 0.5,0.6 1.3,0.7 2.1,0.7 1,0 2,-0.2 2.9,-0.5"
       fill="#fffeff"
       id="path92" />
    <path
       d="m 182.5,239.3 c -2.1,1.8 -4.5,3.3 -7.1,4.3 -1.5,0.6 -3.1,1 -4.6,1.6 -0.4,0.2 -0.8,0.4 -0.9,0.8 0,0.2 0.1,0.5 0.2,0.7 0.5,0.6 1.3,0.7 2.1,0.7 1,0 2,-0.2 2.9,-0.5"
       stroke="#002460"
       stroke-width="0.5"
       stroke-miterlimit="10"
       stroke-linecap="round"
       stroke-linejoin="round"
       id="path94" />
    <path
       d="m 179.7,244.9 c -2.9,1.4 -6.3,0.8 -8.4,2.9 -2.8,2.8 5.1,1.8 6.7,0.6"
       fill="#fffeff"
       id="path96" />
    <path
       d="m 179.7,244.9 c -2.9,1.4 -6.3,0.8 -8.4,2.9 -2.8,2.8 5.1,1.8 6.7,0.6"
       stroke="#002460"
       stroke-width="0.5"
       stroke-miterlimit="10"
       stroke-linecap="round"
       stroke-linejoin="round"
       id="path98" />
    <path
       d="m 180.2,247.4 c -2.9,1.4 -6.3,0.8 -8.4,2.9 -2.8,2.8 5.1,1.8 6.7,0.6"
       fill="#fffeff"
       id="path100" />
    <path
       d="m 180.2,247.4 c -2.9,1.4 -6.3,0.8 -8.4,2.9 -2.8,2.8 5.1,1.8 6.7,0.6"
       stroke="#002460"
       stroke-width="0.5"
       stroke-miterlimit="10"
       stroke-linecap="round"
       stroke-linejoin="round"
       id="path102" />
    <path
       d="m 182.3,249.2 c -2.9,1.4 -6.3,0.8 -8.4,2.9 -2.8,2.8 4.3,3.2 13.2,-2.2"
       fill="#fffeff"
       id="path104" />
    <path
       d="m 182.3,249.2 c -2.9,1.4 -6.3,0.8 -8.4,2.9 -2.8,2.8 4.3,3.2 13.2,-2.2"
       stroke="#002460"
       stroke-width="0.5"
       stroke-miterlimit="10"
       stroke-linecap="round"
       stroke-linejoin="round"
       id="path106" />
    <path
       d="m 197,215.6 c -8.9,5.5 -14.8,15.5 -15.3,26 -0.1,1.6 0,3.3 0.6,4.8 0.6,1.5 1.8,2.9 3.3,3.3 2.3,0.6 4.6,-0.9 6.3,-2.5 4.1,-3.9 6.9,-9.2 7.9,-14.8 1,-5.7 0.1,-11.6 -2.8,-16.8 z"
       fill="#fffeff"
       stroke="#002460"
       stroke-width="0.5"
       stroke-miterlimit="10"
       stroke-linecap="round"
       stroke-linejoin="round"
       id="path108" />
    <path
       d="m 192.7,226.4 c -1.3,6.8 -3.1,13.5 -5.2,20.1 -0.9,0 -1.7,-0.7 -2.1,-1.4 -0.5,-0.8 -0.6,-1.7 -0.6,-2.6 -0.1,-2.1 0.4,-4.2 1,-6.2 1.4,-4.2 3.7,-8.3 7.5,-10.7 -0.1,0 -0.4,-0.2 -0.6,0.8 z"
       fill="#f2f6fc"
       id="path110" />
    <path
       d="m 182.7,246.6 c -1.9,0.3 -3.9,1.4 -4.7,2.3 -0.4,0.4 -0.9,1.5 -0.6,2.3 0.3,0.7 1.2,1.1 2,1 0.8,0 5.3,-2.5 6,-2.9"
       fill="#fffeff"
       id="path112" />
    <path
       d="m 182.7,246.6 c -1.9,0.3 -3.9,1.4 -4.7,2.3 -0.4,0.4 -0.9,1.5 -0.6,2.3 0.3,0.7 1.2,1.1 2,1 0.8,0 5.3,-2.5 6,-2.9"
       stroke="#002460"
       stroke-width="0.5"
       stroke-miterlimit="10"
       stroke-linecap="round"
       stroke-linejoin="round"
       id="path114" />
    <path
       d="m 324.9,115.5 5.9,-10.8 11.4,6 3.9,-9.4 -21.3,4.3 z"
       fill="#fffeff"
       stroke="#002460"
       stroke-width="0.5"
       stroke-miterlimit="10"
       stroke-linecap="round"
       stroke-linejoin="round"
       id="path116" />
    <path
       d="m 312.4,263.2 c -1,1.3 0,16.7 -18.4,60.3 h 39.9 l 4.2,-10.5 4.8,1.8 -0.9,8.7 h 49.6 c 14.4,-50.4 12.1,-71.9 12.1,-71.9 z"
       fill="#002460"
       stroke="#002460"
       stroke-width="0.5"
       stroke-miterlimit="10"
       stroke-linejoin="round"
       id="path118" />
    <path
       d="m 329.5,110.4 c 0.2,-0.9 3.6,0 3.6,0 0,0 -4.4,34.4 25.5,29 22.2,-4 32.9,-13.3 41.7,-16.6 l 8.9,3.5 -3.5,9.8 c 0,0 -31.3,11.6 -42.3,13.2 -12.7,1.6 -45.2,2.8 -33.9,-38.9 z"
       fill="#49c94f"
       id="path120" />
    <path
       d="m 170,306.5 c 5,-25.9 19.7,-79.6 32.6,-102.6 2.9,-5.1 6.6,-10.6 12.3,-11.8 3.8,-0.8 7.8,0.7 10.9,3 3.1,2.4 5.4,5.6 7.4,9 6,9.9 10.1,21.1 11.9,32.5 1,6.3 1.4,12.6 2.2,18.9 0.8,6 2.1,11.9 2.7,18 0.5,4.8 0.5,9.5 0.6,14.3 0.1,6.1 -0.1,11.2 0.2,17.2"
       fill="#fffeff"
       id="path122" />
    <path
       d="m 170,306.5 c 5,-25.9 19.7,-79.6 32.6,-102.6 2.9,-5.1 6.6,-10.6 12.3,-11.8 3.8,-0.8 7.8,0.7 10.9,3 3.1,2.4 5.4,5.6 7.4,9 6,9.9 10.1,21.1 11.9,32.5 1,6.3 1.4,12.6 2.2,18.9 0.8,6 2.1,11.9 2.7,18 0.5,4.8 0.5,9.5 0.6,14.3 0.1,6.1 -0.1,11.2 0.2,17.2"
       stroke="#002460"
       stroke-width="0.5"
       stroke-miterlimit="10"
       id="path124" />
    <path
       d="m 211.5,144.4 -2.2,-3.5 c 0,0 -1,-2.7 2.8,-5.8 10.3,-8.4 30,-2 17.8,7.9 -12.4,10 -18.4,1.4 -18.4,1.4 z"
       fill="#002460"
       stroke="#002460"
       stroke-width="0.5"
       stroke-miterlimit="10"
       id="path126" />
    <path
       d="m 214,185.5 c -4,0.3 -6.6,5.5 -3.5,8.7 3.9,0.3 15.7,0.6 17.5,-3.4 1.4,-5 -3.9,-7.7 -8.2,-6.6 -1.7,0.5 -4.8,-0.3 -5.8,1.3 z"
       fill="#002460"
       id="path128" />
    <path
       d="m 212.9,146 -0.6,7.3 c 0,0 -2,-7.7 -4.8,-4.9 -2.8,2.8 3.9,10.3 3.9,10.3 l 2.1,27.3 8.3,-1.6 -0.8,-13.5 c 10.3,-1.3 11.6,-3.4 9.8,-31.1 -0.4,-5.2 -17,-4.7 -17.9,6.2 z"
       fill="#fffeff"
       stroke="#002460"
       stroke-width="0.5"
       stroke-miterlimit="10"
       id="path130" />
    <path
       d="m 227.1,143.6 2.3,13.6 -4.5,-0.4"
       fill="#fffeff"
       id="path132" />
    <path
       d="m 227.1,143.6 2.3,13.6 -4.5,-0.4"
       stroke="#002460"
       stroke-width="0.5"
       stroke-miterlimit="10"
       stroke-linecap="round"
       id="path134" />
    <path
       d="m 327.4,100.4 -3.1,1.3 c 0,0 0.4,1.2 0.6,2.7 z"
       fill="#002460"
       stroke="#002460"
       stroke-width="0.5"
       stroke-miterlimit="10"
       stroke-linecap="round"
       stroke-linejoin="round"
       id="path136" />
    <path
       d="m 215.4,205.7 c 3.7,5.1 9.8,4.2 19.7,-5.8 9.9,-6.3 9.5,-8.5 18.8,-15.4 2.1,-1.7 4.2,-2.1 6.6,-1.7 4.4,0.2 5.8,-4.5 10.2,-5.2 4.7,-0.3 4.4,-3.4 3.2,-5.6 -6.9,2.5 -19.3,-6.7 -13.6,-13.4 -1.6,-3.3 -9.3,1.4 -8,3.9 -19.2,20.6 -7.7,8.4 -25.4,22 -2.8,2.1 -14.4,10.8 -14.1,16.2"
       fill="#fffeff"
       id="path138" />
    <path
       d="m 215.4,205.7 c 3.7,5.1 9.8,4.2 19.7,-5.8 9.9,-6.3 9.5,-8.5 18.8,-15.4 2.1,-1.7 4.2,-2.1 6.6,-1.7 4.4,0.2 5.8,-4.5 10.2,-5.2 4.7,-0.3 4.4,-3.4 3.2,-5.6 -6.9,2.5 -19.3,-6.7 -13.6,-13.4 -1.6,-3.3 -9.3,1.4 -8,3.9 -19.2,20.6 -7.7,8.4 -25.4,22 -2.8,2.1 -14.4,10.8 -14.1,16.2"
       stroke="#002460"
       stroke-width="0.5"
       stroke-miterlimit="10"
       stroke-linecap="round"
       id="path140" />
    <path
       d="m 211.4,137.2 c 0,0 -5.9,-9.9 -1.2,-13.4 9,-6.8 19.9,10.7 19.9,10.7 z"
       fill="#002460"
       stroke="#002460"
       stroke-width="0.5"
       stroke-miterlimit="10"
       id="path142" />
    <path
       d="m 251,180.7 c 4.9,-2.7 9.4,-10.3 15.2,-7.1 1.8,1.3 7.1,-0.8 7.4,1.2 -0.3,1.9 -2.6,2.1 -4.2,2.5 -5.1,1.1 -3.4,3.6 -9.9,4.5 -2.5,0.2 -3.8,0.7 -4.8,0.9 -0.9,-0.3 -3.7,-2.1 -3.7,-2 z"
       fill="#f2f6fc"
       id="path144" />
    <path
       d="m 244.7,170.7 c -1.1,3.6 0.5,13.1 10.4,13.1"
       stroke="#002460"
       stroke-width="0.5"
       stroke-miterlimit="10"
       id="path146" />
    <path
       d="m 224.9,156.7 0.4,2.4 1.5,-2.1 z"
       fill="#002460"
       stroke="#002460"
       stroke-width="0.5"
       stroke-miterlimit="10"
       stroke-linecap="round"
       stroke-linejoin="round"
       id="path148" />
    <path
       d="m 218.9,171 2.5,5.4 -0.3,-5.5 z"
       fill="#002460"
       stroke="#002460"
       stroke-width="0.5"
       stroke-miterlimit="10"
       stroke-linecap="round"
       stroke-linejoin="round"
       id="path150" />
    <path
       d="m 213,187.2 c -27.6,-3.9 -23.1,-42.7 -59.7,-42.7 l 0.2,23.2 c 19.4,-4.7 27.8,35.2 55.6,24.4 2.3,-0.3 5,-2.4 3.9,-4.9 z"
       fill="#002460"
       id="path152" />
    <path
       d="m 243,172.4 c -1.4,1.9 -1.9,3.8 -2.7,4.6 -2.4,2.2 -2.5,-1.8 -2.4,-3.5 0,-1.4 2.5,-4.1 4.5,-3.9 0.8,0.1 2,0.6 2.2,1.1 -0.1,0.1 -1.5,1.5 -1.6,1.7 z"
       fill="#fffeff"
       stroke="#002460"
       stroke-width="0.5"
       stroke-miterlimit="10"
       id="path154" />
    <path
       d="m 270.7,177.6 -4.1,0.3"
       stroke="#002460"
       stroke-width="0.5"
       stroke-miterlimit="10"
       stroke-linecap="round"
       id="path156" />
    <path
       d="m 267.2,179.3 c 0,0 -2.4,1.9 -4.6,1.3 z"
       fill="#fffeff"
       id="path158" />
    <path
       d="m 267.2,179.3 c 0,0 -2.4,1.9 -4.6,1.3"
       stroke="#002460"
       stroke-width="0.5"
       stroke-miterlimit="10"
       stroke-linecap="round"
       id="path160" />
    <path
       d="m 246.5,186.4 c -0.7,-0.4 -2.1,-0.6 -2.7,0 -0.6,0.5 -0.6,0.9 -0.2,1.5 0.8,1.5 2.7,2.5 4.4,2.7 0.4,0.1 1.5,0.1 2,-0.7 0.3,-0.5 0,-2.1 0.1,-2.6"
       fill="#fffeff"
       id="path162" />
    <path
       d="m 246.5,186.4 c -0.7,-0.4 -2.1,-0.6 -2.7,0 -0.6,0.5 -0.6,0.9 -0.2,1.5 0.8,1.5 2.7,2.5 4.4,2.7 0.4,0.1 1.5,0.1 2,-0.7 0.3,-0.5 0,-2.1 0.1,-2.6"
       stroke="#002460"
       stroke-width="0.5"
       stroke-miterlimit="10"
       id="path164" />
    <path
       d="m 249.2,185.1 c -0.6,-0.5 -2,-0.8 -2.7,-0.4 -0.6,0.4 -0.7,0.8 -0.5,1.5 0.6,1.5 2.3,2.8 4,3.2 0.4,0.1 1.6,-0.1 2,-0.4 0.6,-0.3 1.4,-1.4 0.5,-2.5"
       fill="#fffeff"
       id="path166" />
    <path
       d="m 249.2,185.1 c -0.6,-0.5 -2,-0.8 -2.7,-0.4 -0.6,0.4 -0.7,0.8 -0.5,1.5 0.6,1.5 2.3,2.8 4,3.2 0.4,0.1 1.6,-0.1 2,-0.4 0.6,-0.3 1.4,-1.4 0.5,-2.5"
       stroke="#002460"
       stroke-width="0.5"
       stroke-miterlimit="10"
       id="path168" />
    <path
       d="m 251.6,182.4 c -0.7,-0.4 -2,-0.4 -2.7,0.1 -0.6,0.4 -0.7,0.8 -0.4,1.5 0.7,1.5 2.5,2.4 4.1,2.8 0.4,0.1 1.8,0.2 2.1,-0.3 0.7,-1 0.4,-2.1 0,-2.8 0,0.1 -1.7,-0.4 -3.1,-1.3 z"
       fill="#fffeff"
       stroke="#002460"
       stroke-width="0.5"
       stroke-miterlimit="10"
       id="path170" />
    <path
       d="m 215.4,206.3 c 0,0 -12.5,37.9 0.1,52.2 12.7,14.4 18.5,-12.8 17.6,-29.2 -1,-16.4 -4.5,-22 -4.7,-22.7 -6.6,7.9 -13,-0.3 -13,-0.3 z"
       fill="#f2f6fc"
       id="path172" />
    <path
       d="m 215.4,205.7 c 2.5,9.1 12.3,10.6 12.9,0.1 -2.5,3 -10.5,4.8 -12.9,-0.1 z"
       fill="#002460"
       stroke="#002460"
       stroke-width="0.5"
       stroke-miterlimit="10"
       stroke-linejoin="round"
       id="path174" />
    <path
       d="m 172.2,295.2 78.6,4.7 1.5,23.4 h -82.9 c -1.1,-11 2.8,-28.1 2.8,-28.1 z"
       fill="#002460"
       stroke="#002460"
       stroke-width="0.5"
       stroke-miterlimit="10"
       stroke-linecap="round"
       id="path176" />
    <path
       d="m 185,249.9 61.9,3.8"
       stroke="#002460"
       stroke-width="0.5"
       stroke-miterlimit="10"
       stroke-linecap="round"
       id="path178" />
    <path
       d="m 183,255 65.1,4.8"
       stroke="#002460"
       stroke-width="0.5"
       stroke-miterlimit="10"
       stroke-linecap="round"
       id="path180" />
    <path
       d="m 378.1,254.7 c 1.5,2.9 4.2,5.1 7.4,5.9 3.1,0.8 6.6,0.3 9.3,-1.5"
       stroke="#fffeff"
       stroke-width="0.5"
       stroke-miterlimit="10"
       stroke-linecap="round"
       id="path182" />
    <path
       d="m 318.5,267.2 c 2.7,1.4 5.8,1.6 8.2,0.5 2.5,-1.1 4.3,-3.5 4.8,-6.4"
       stroke="#fffeff"
       stroke-width="0.5"
       stroke-miterlimit="10"
       stroke-linecap="round"
       id="path184" />
    <path
       d="m 388.7,148.6 c 11.4,23.7 12.3,65.5 14.4,96.4 0.1,1.6 -8.3,-17.8 -9.8,-23.9 -4.3,-18.1 -6.9,-39.7 -6.9,-53.1 0.1,-4.9 1.7,-20.6 2.3,-19.4 z"
       fill="#f2f6fc"
       id="path186" />
    <path
       d="m 455.2,118.4 c -0.8,11.1 -12.1,20.9 -20.8,26.5 -0.8,-7.9 6.5,-19.1 12.6,-24.1 2,-1.1 6.8,-5.7 8.2,-2.4 z"
       fill="#f2f6fc"
       id="path188" />
    <path
       d="m 430.6,141.4 c 0.8,4.5 0.9,8.3 -1.1,11.7 -1.3,2.3 -3.9,3.7 -6.5,4.2 -2.6,0.5 -9.5,1 -11.2,-0.6 -1.4,-1.4 0,-3.1 0,-3.1 0,0 -1.5,-0.9 -1.6,-2 -0.2,-1.9 1,-2.5 1,-2.5 0,0 -1.3,-0.7 -1.4,-2.7 -0.1,-1.5 0.9,-2.6 0.9,-2.6 0,0 -1.2,-1.5 -1.2,-3.1 0,-1.8 0.4,-2.1 1.7,-3.2 -0.3,-1.3 2.1,-2.1 2.5,-2.9 1,-2.1 3.8,-1.3 5.4,-1.3 0.1,0 0.1,0 0.2,0 6.7,0 10.7,4.5 11.3,8.1 z"
       fill="#fffeff"
       stroke="#002460"
       stroke-width="0.5"
       stroke-miterlimit="10"
       id="path190" />
    <path
       d="m 410.8,137.9 c 0.5,-0.7 1.2,-0.7 1.9,-0.9 1.4,-0.4 2.9,-0.8 4.3,-1"
       fill="#fffeff"
       id="path192" />
    <path
       d="m 410.8,137.9 c 0.5,-0.7 1.2,-0.7 1.9,-0.9 1.4,-0.4 2.9,-0.8 4.3,-1"
       stroke="#002460"
       stroke-width="0.5"
       stroke-miterlimit="10"
       id="path194" />
    <path
       d="m 416.8,137.6 c 0,0 -0.8,0.2 -1.2,0.4 -0.1,0 -0.2,0.1 -0.2,0.2 0,0.1 0.1,0.2 0.2,0.2 0.5,0 1.3,0.1 1.3,0.1 z"
       fill="#002460"
       stroke="#002460"
       stroke-width="0.5"
       stroke-miterlimit="10"
       id="path196" />
    <path
       d="m 410.7,143.8 c 2.9,1 5.5,1.4 8.5,1 z"
       fill="#fffeff"
       id="path198" />
    <path
       d="m 410.7,143.8 c 2.9,1 5.5,1.4 8.5,1"
       stroke="#002460"
       stroke-width="0.5"
       stroke-miterlimit="10"
       stroke-linecap="round"
       id="path200" />
    <path
       d="m 411.4,149.3 c 2.2,1 5.7,0.7 7.7,0.4 z"
       fill="#fffeff"
       id="path202" />
    <path
       d="m 411.4,149.3 c 2.2,1 5.7,0.7 7.7,0.4"
       stroke="#002460"
       stroke-width="0.5"
       stroke-miterlimit="10"
       stroke-linecap="round"
       id="path204" />
    <path
       d="m 412.1,153.7 c 0.8,0.2 1.6,0.4 2.4,0.4 1.7,0.1 3.2,0.1 4.8,-0.6"
       fill="#fffeff"
       id="path206" />
    <path
       d="m 412.1,153.7 c 0.8,0.2 1.6,0.4 2.4,0.4 1.7,0.1 3.2,0.1 4.8,-0.6"
       stroke="#002460"
       stroke-width="0.5"
       stroke-miterlimit="10"
       stroke-linecap="round"
       id="path208" />
    <path
       d="m 425.6,142.9 c 1,-1 0.3,-4.2 -1.6,-3.3 -1.8,1 -0.3,5.3 1.6,3.3 z"
       fill="#f2f6fc"
       id="path210" />
    <path
       d="m 424,145.4 c -0.5,0.6 -0.5,2.3 0.2,2.8 0.2,0.1 0.8,0.2 1,0.1 0.3,-0.1 0.5,-0.3 0.6,-0.5 0.4,-0.5 0.5,-1.2 0.3,-1.8 -0.1,-0.3 -0.2,-0.7 -0.6,-0.9 -0.5,-0.2 -1.3,0 -1.5,0.3 z"
       fill="#f2f6fc"
       id="path212" />
    <path
       d="m 424.8,149.8 c -0.3,0.3 -0.5,0.7 -0.5,1.2 0,0.4 0.3,0.9 0.8,1 0.5,0.1 1,-0.3 1.2,-0.8 0.2,-0.4 0.2,-0.9 0,-1.2 -0.5,-0.6 -1.3,-0.5 -1.5,-0.2 z"
       fill="#f2f6fc"
       id="path214" />
    <path
       d="m 424.1,154.2 c -0.1,0.3 0.1,0.8 0.5,0.9 0.3,0.1 0.7,0 0.9,-0.2 0.2,-0.2 0.3,-0.5 0.4,-0.7 0,-0.2 0.1,-0.4 0,-0.6 -0.1,-0.2 -0.3,-0.4 -0.5,-0.4 -0.5,-0.1 -1.2,0.6 -1.3,1 z"
       fill="#f2f6fc"
       id="path216" />
    <path
       d="M 417.1,138.4 V 39.7 h 5.5 v 95.6 c 0,1.7 -1,3 -2.1,3 z"
       fill="#fffeff"
       stroke="#002460"
       stroke-width="0.5"
       stroke-miterlimit="10"
       id="path218" />
    <path
       d="m 218.3,312.3 -1.4,12.5"
       stroke="#fffeff"
       stroke-width="0.5"
       stroke-miterlimit="10"
       stroke-linecap="round"
       id="path220" />
    <path
       d="m 216.2,205.7 c 5.5,6.4 13.5,-2.4 18.6,-6.4 4,-1.7 7.7,-6.2 11.1,-8.7 -5.1,-4.8 -19.3,17.7 -29.7,15.1 z"
       fill="#f2f6fc"
       id="path222" />
  </g>
  <defs
     id="defs229">
    <clipPath
       id="clip0_104_855">
      <rect
         width="570"
         height="324"
         fill="#ffffff"
         id="rect226"
         x="0"
         y="0" />
    </clipPath>
  </defs>
</svg>
