<svg width="570" height="324" viewBox="0 0 570 324" fill="none" xmlns="http://www.w3.org/2000/svg">
<path opacity="0.9884" d="M128.8 72.2002H443.3C464.7 72.2002 482.1 89.5002 482.1 111V212.7C482.1 234.1 464.8 251.5 443.3 251.5H128.8C107.4 251.5 90 234.2 90 212.7V110.9C90 89.5002 107.4 72.2002 128.8 72.2002Z" fill="#D9E4F7"/>
<path d="M108.4 323.1C100.5 314.1 106.6 304.5 109.6 295.3C107.6 282.7 104.8 276.8 113.2 265.3C112.2 245 121.1 246.6 123.1 226.8C125.3 205.2 153 191.2 171 205.5C178.8 211.8 181 222 184 231.1C190 233.3 195.2 236.9 198.1 243.4C202.2 252.5 191.5 266.4 204.2 268.4" stroke="#598BDE" stroke-width="0.5" stroke-miterlimit="10" stroke-linecap="round" stroke-linejoin="round"/>
<path d="M136.9 323.8C132.1 313.2 135.6 296.9 144.1 289.2C150.8 283.1 161.5 285.7 170.3 283.8C187.5 280 201.2 264.7 220.2 265.8C246.5 267.3 243.7 284.2 254.7 301.7C259.8 309.8 273.4 313.2 273.9 324" stroke="#598BDE" stroke-width="0.5" stroke-miterlimit="10" stroke-linecap="round" stroke-linejoin="round"/>
<path d="M112.7 266.2C98.1001 257.6 87.6001 243.2 81.4001 227.5C75.2001 211.8 73.1001 194.7 72.6001 177.8C83.3001 182.5 91.7001 191.3 98.8001 200.6C107.8 212.4 115.2 225.4 120.2 239.4" stroke="#598BDE" stroke-width="0.5" stroke-miterlimit="10" stroke-linecap="round" stroke-linejoin="round"/>
<path d="M79.8 223.2C72.8 217.5 64.4 213.5 55.5 211.8C57.1 226 63.3 239.5 72.9 250.2C82.4 260.8 95.2 268.4 109 272" stroke="#598BDE" stroke-width="0.5" stroke-miterlimit="10" stroke-linecap="round" stroke-linejoin="round"/>
<path d="M92.5001 265.9C86.7001 266.1 80.9001 267.5 75.6001 270C77.2001 272.1 79.7001 273.3 82.1001 274.3C90.0001 277.7 98.5001 280.2 107.1 279.7" stroke="#598BDE" stroke-width="0.5" stroke-miterlimit="10" stroke-linecap="round" stroke-linejoin="round"/>
<path d="M107.2 212.7C107.8 192.2 113 171.9 122.1 153.5C123 156.9 123.9 160.3 124.8 163.7C125.8 167.6 126.8 171.6 127.7 175.6C128.9 181.4 129.6 187.4 130.1 193.3C130.6 199 131 204.5 130.9 210.3" stroke="#598BDE" stroke-width="0.5" stroke-miterlimit="10" stroke-linecap="round" stroke-linejoin="round"/>
<path d="M130.5 198.6C132.4 193.5 135.1 188.8 138.5 184.6C139 191.5 138.9 197.9 137.7 204.6" stroke="#598BDE" stroke-width="0.5" stroke-miterlimit="10" stroke-linecap="round" stroke-linejoin="round"/>
<path d="M198.1 242.3C206.9 226.7 220.2 213.6 235.9 205C229.8 228.1 220.8 247.8 207.2 267.4" stroke="#598BDE" stroke-width="0.5" stroke-miterlimit="10" stroke-linecap="round" stroke-linejoin="round"/>
<path d="M190.9 234.6C191.4 224.5 193.8 214.5 197.8 205.3C201.6 214.8 203.2 225.3 202.3 235.5" stroke="#598BDE" stroke-width="0.5" stroke-miterlimit="10" stroke-linecap="round" stroke-linejoin="round"/>
<path d="M214.7 255.8C224.9 248.3 236.8 243.2 249.3 240.8C240.5 251.2 233.6 258.3 222.4 265.9" stroke="#598BDE" stroke-width="0.5" stroke-miterlimit="10" stroke-linecap="round" stroke-linejoin="round"/>
<path d="M202.3 225.6C204.3 220.3 207.5 215.5 211.5 211.6C211.1 216.9 210.1 222.2 208.6 227.4" stroke="#598BDE" stroke-width="0.5" stroke-miterlimit="10" stroke-linecap="round" stroke-linejoin="round"/>
<path d="M137.1 186.5L138.3 143.2L122 135.2L124 129.2L138.1 131.9L138.7 115.9L143.5 115.2L146.2 126L153 118.9L156 121.8L152 142.6L153 199.8" stroke="#598BDE" stroke-width="0.5" stroke-miterlimit="10" stroke-linecap="round" stroke-linejoin="round"/>
<path d="M137.9 148.7C132.6 155.8 123.3 149.3 119.6 143.6C106.2 149.1 90.9 136.2 94.1 122.1C72.2 125.1 69.1 96.6998 87.5 88.3998C90 81.0998 88 72.2998 92 65.1998C104.7 42.9998 112.9 64.7998 131.2 45.9998C139.1 37.8998 150.9 39.0998 159.5 45.2998C173.5 44.0998 196.4 44.9998 196.1 63.5998C196 69.3998 191.9 74.8998 193.4 80.4998C195 86.1998 201.6 88.8998 204.5 93.9998C209.9 104 201.1 114.8 191.7 118.4C196.9 130.6 183.1 143.5 171.3 137.5C171.6 144.7 162.8 149.5 156.9 145.4C156.3 147.7 154.3 149.5 152.1 148.8" stroke="#598BDE" stroke-width="0.5" stroke-miterlimit="10" stroke-linecap="round" stroke-linejoin="round"/>
<path d="M217 130.3H294C292.9 125.3 287.1 123.6 283.7 124.5C281.8 124.3 281.7 121.6 281.2 119.8C277.9 112.1 268 116.5 263.8 121.2C261.4 114.6 254.7 107.2 247.4 110.1C243.4 113.4 240.9 118.2 237.5 122.1C233.7 117.4 227.7 122.6 225.9 126.8C222.8 125.4 218.7 127.2 217 130.3Z" fill="white"/>
<path d="M396.9 102.7H468C465.5 101.5 462.6 98.9998 460.1 98.5998C459.6 89.7998 451.6 88.1998 445.9 94.1998C442 65.8998 420.8 82.3998 412.5 98.5998C411.5 94.2998 406.1 94.2998 403.6 97.2998C401 98.5998 396.4 98.3998 396.9 102.7Z" fill="white"/>
<path d="M313.3 68.0999C308 68.9999 292.4 72.0999 296.7 62.5999C299.8 55.5999 316.2 49.8999 326.7 45.5999C337.8 40.9999 355 35.4999 361.6 50.0999C365.8 59.3999 368.6 79.7999 356.1 81.3999" stroke="#002460" stroke-miterlimit="10" stroke-linecap="round" stroke-linejoin="round"/>
<path d="M471 168.4L468.4 171.7L437.2 165.8L432.7 162L445.9 156L471 168.4Z" fill="white"/>
<path d="M483.4 168.2C496.4 168.2 476.1 156.5 461.2 156.5C462 152.8 469.5 154.1 469.6 152.2C468 143.2 434.2 155.5 432.8 162.4" fill="white"/>
<path d="M483.4 168.2C496.4 168.2 476.1 156.5 461.2 156.5C462 152.8 469.5 154.1 469.6 152.2C468 143.2 434.2 155.5 432.8 162.4" stroke="#002460" stroke-width="0.5" stroke-miterlimit="10" stroke-linecap="round" stroke-linejoin="round"/>
<path d="M479.1 171.2C490.9 170.1 476.2 162.3 466 161.5L479.1 171.2Z" fill="white"/>
<path d="M479.1 171.2C490.9 170.1 476.2 162.3 466 161.5" stroke="#002460" stroke-width="0.5" stroke-miterlimit="10" stroke-linecap="round" stroke-linejoin="round"/>
<path d="M472.9 172.7C472.9 172.7 476.7 173.8 478.9 172C481.6 169.9 468.9 164.8 461.9 164.3" fill="white"/>
<path d="M472.9 172.7C472.9 172.7 476.7 173.8 478.9 172C481.6 169.9 468.9 164.8 461.9 164.3" stroke="#002460" stroke-width="0.5" stroke-miterlimit="10" stroke-linecap="round" stroke-linejoin="round"/>
<path d="M432.9 162.4L443.9 171.4C453.5 170.1 468.8 178.1 473.2 173.7C475.8 171.1 462.3 167.7 457.8 167.3" fill="white"/>
<path d="M432.9 162.4L443.9 171.4C453.5 170.1 468.8 178.1 473.2 173.7C475.8 171.1 462.3 167.7 457.8 167.3" stroke="#002460" stroke-width="0.5" stroke-miterlimit="10" stroke-linecap="round" stroke-linejoin="round"/>
<path d="M292.2 324V232.3C272.2 228.8 259.4 209.8 250.5 193.3L266.3 180.4C274.8 191.7 281.8 200.2 287 207.2C283.6 165.5 289.2 119 344.1 116.6C414.6 113.5 402.8 202.2 402.8 202.2C411.4 194.8 430.5 160.4 430.5 160.4L444.9 172.5C439 199.6 420.5 220.9 394.8 232.7V324" fill="white"/>
<path d="M292.2 324V232.3C272.2 228.8 259.4 209.8 250.5 193.3L266.3 180.4C274.8 191.7 281.8 200.2 287 207.2C283.6 165.5 289.2 119 344.1 116.6C414.6 113.5 402.8 202.2 402.8 202.2C411.4 194.8 430.5 160.4 430.5 160.4L444.9 172.5C439 199.6 420.5 220.9 394.8 232.7V324" stroke="#002460" stroke-width="0.5" stroke-miterlimit="10" stroke-linecap="round" stroke-linejoin="round"/>
<path d="M314.1 59.3997C314 71.6997 306.6 97.4997 317.8 104.2C324.5 108.2 333.6 106.2 341.3 105.4C341.5 109.3 341.7 113.1 342 116.9C344.7 121.6 352.4 122.3 354 116.8C353.4 107.7 353.3 97.8997 353.1 88.8997C353 88.2997 353.3 87.8997 353.9 87.7997C361.3 85.1997 361.9 72.2997 352.4 80.0997C351.3 74.3997 353.9 62.4997 350.4 58.6997C339.1 54.2997 325.6 55.5997 314.1 59.3997Z" fill="white" stroke="#002460" stroke-width="0.5" stroke-miterlimit="10" stroke-linecap="round" stroke-linejoin="round"/>
<path d="M318.8 71.1001L319.3 83.6001L328.7 81.4001" stroke="#002460" stroke-width="0.5" stroke-miterlimit="10" stroke-linecap="round" stroke-linejoin="round"/>
<path d="M226.8 187.6L229.5 190.9L260.6 184.9L265.1 181.2L251.9 175.1L226.8 187.6Z" fill="white"/>
<path d="M214.4 187.3C201.4 187.3 221.7 175.6 236.6 175.6C235.8 171.9 228.3 173.2 228.2 171.3C229.8 162.3 263.6 174.6 265 181.5" fill="white"/>
<path d="M214.4 187.3C201.4 187.3 221.7 175.6 236.6 175.6C235.8 171.9 228.3 173.2 228.2 171.3C229.8 162.3 263.6 174.6 265 181.5" stroke="#002460" stroke-width="0.5" stroke-miterlimit="10" stroke-linecap="round" stroke-linejoin="round"/>
<path d="M218.7 190.4C206.9 189.3 221.6 181.5 231.8 180.7L218.7 190.4Z" fill="white"/>
<path d="M218.7 190.4C206.9 189.3 221.6 181.5 231.8 180.7" stroke="#002460" stroke-width="0.5" stroke-miterlimit="10" stroke-linecap="round" stroke-linejoin="round"/>
<path d="M225 191.8C225 191.8 221.2 192.9 219 191.1C216.3 189 229 183.9 236 183.4" fill="white"/>
<path d="M225 191.8C225 191.8 221.2 192.9 219 191.1C216.3 189 229 183.9 236 183.4" stroke="#002460" stroke-width="0.5" stroke-miterlimit="10" stroke-linecap="round" stroke-linejoin="round"/>
<path d="M265 181.5L254 190.5C244.4 189.2 229.1 197.2 224.7 192.8C222.1 190.2 235.6 186.8 240.1 186.4" fill="white"/>
<path d="M265 181.5L254 190.5C244.4 189.2 229.1 197.2 224.7 192.8C222.1 190.2 235.6 186.8 240.1 186.4" stroke="#002460" stroke-width="0.5" stroke-miterlimit="10" stroke-linecap="round" stroke-linejoin="round"/>
<path d="M324.7 82.3999L328.7 81.3999L327.8 87.1999L324.7 82.3999Z" fill="#002460" stroke="#002460" stroke-width="0.5" stroke-miterlimit="10" stroke-linecap="round" stroke-linejoin="round"/>
<path d="M341.3 105.3L347.2 104.6L341.6 109.9L341.3 105.3Z" fill="#002460" stroke="#002460" stroke-width="0.5" stroke-miterlimit="10" stroke-linecap="round" stroke-linejoin="round"/>
<path d="M319 58.2C320.9 62.5 324.1 58.4 326.8 59.5C333.8 62.2 332.9 58.5 337.3 61.2C339.3 62.4 337.4 66.1 339 67.8C341.4 70.2 347.2 67.5 348.3 72.3C349.1 75.7 346.4 82.1 349 82.9C353.7 84.4 352.2 77.5 352.7 71.8C352.6 67.5 353.1 62.4 350.5 58.8C340.6 55.3 329.4 55.5 319.4 58.1C319.4 58 319.4 58 319 58.2Z" fill="#002460" stroke="#002460" stroke-width="0.5" stroke-miterlimit="10" stroke-linecap="round" stroke-linejoin="round"/>
<path d="M313.5 66.3999C291.8 70.8999 299.9 63.2999 314.2 59.3999L313.5 66.3999Z" fill="#F2F6FC"/>
<path d="M313.5 66.3999C291.8 70.8999 299.9 63.2999 314.2 59.3999" stroke="#002460" stroke-width="0.5" stroke-miterlimit="10" stroke-linecap="round" stroke-linejoin="round"/>
<path d="M395 270.1H292.2V324H395V270.1Z" fill="#002460" stroke="#002460" stroke-width="0.5" stroke-miterlimit="10" stroke-linecap="round" stroke-linejoin="round"/>
<path d="M395 261.1H292.2V270.1H395V261.1Z" fill="white" stroke="#002460" stroke-width="0.5" stroke-miterlimit="10" stroke-linecap="round" stroke-linejoin="round"/>
<path d="M297.7 261.1V270.8" stroke="#002460" stroke-width="0.5" stroke-miterlimit="10" stroke-linecap="round" stroke-linejoin="round"/>
<path d="M305.1 261.1V270.8" stroke="#002460" stroke-width="0.5" stroke-miterlimit="10" stroke-linecap="round" stroke-linejoin="round"/>
<path d="M314.6 261.1V270.8" stroke="#002460" stroke-width="0.5" stroke-miterlimit="10" stroke-linecap="round" stroke-linejoin="round"/>
<path d="M324.3 261.1V270.8" stroke="#002460" stroke-width="0.5" stroke-miterlimit="10" stroke-linecap="round" stroke-linejoin="round"/>
<path d="M333.3 261.1V270.8" stroke="#002460" stroke-width="0.5" stroke-miterlimit="10" stroke-linecap="round" stroke-linejoin="round"/>
<path d="M341.7 261.1V270.8" stroke="#002460" stroke-width="0.5" stroke-miterlimit="10" stroke-linecap="round" stroke-linejoin="round"/>
<path d="M351.6 261.1V270.8" stroke="#002460" stroke-width="0.5" stroke-miterlimit="10" stroke-linecap="round" stroke-linejoin="round"/>
<path d="M358.4 261.1V270.8" stroke="#002460" stroke-width="0.5" stroke-miterlimit="10" stroke-linecap="round" stroke-linejoin="round"/>
<path d="M367.2 261.1V270.8" stroke="#002460" stroke-width="0.5" stroke-miterlimit="10" stroke-linecap="round" stroke-linejoin="round"/>
<path d="M373.5 261.1V270.8" stroke="#002460" stroke-width="0.5" stroke-miterlimit="10" stroke-linecap="round" stroke-linejoin="round"/>
<path d="M380.5 261.1V270.8" stroke="#002460" stroke-width="0.5" stroke-miterlimit="10" stroke-linecap="round" stroke-linejoin="round"/>
<path d="M387.9 261.1V270.8" stroke="#002460" stroke-width="0.5" stroke-miterlimit="10" stroke-linecap="round" stroke-linejoin="round"/>
<path d="M254 199.4L270.5 185.6" stroke="#002460" stroke-width="0.5" stroke-miterlimit="10" stroke-linecap="round" stroke-linejoin="round"/>
<path d="M252.2 191.9L256.3 197.3" stroke="#002460" stroke-width="0.5" stroke-miterlimit="10" stroke-linecap="round" stroke-linejoin="round"/>
<path d="M255.6 189.2L259.7 194.6" stroke="#002460" stroke-width="0.5" stroke-miterlimit="10" stroke-linecap="round" stroke-linejoin="round"/>
<path d="M258.9 186.5L263 191.9" stroke="#002460" stroke-width="0.5" stroke-miterlimit="10" stroke-linecap="round" stroke-linejoin="round"/>
<path d="M262.2 183.8L266.2 189.2" stroke="#002460" stroke-width="0.5" stroke-miterlimit="10" stroke-linecap="round" stroke-linejoin="round"/>
<path d="M426.8 167.2L442.9 180" stroke="#002460" stroke-width="0.5" stroke-miterlimit="10" stroke-linecap="round" stroke-linejoin="round"/>
<path d="M433.3 162.5L429.6 169.4" stroke="#002460" stroke-width="0.5" stroke-miterlimit="10" stroke-linecap="round" stroke-linejoin="round"/>
<path d="M436.5 165.4L432.9 172" stroke="#002460" stroke-width="0.5" stroke-miterlimit="10" stroke-linecap="round" stroke-linejoin="round"/>
<path d="M440.3 168.3L436.8 174.8" stroke="#002460" stroke-width="0.5" stroke-miterlimit="10" stroke-linecap="round" stroke-linejoin="round"/>
<path d="M443.6 171.1L440.3 177.8" stroke="#002460" stroke-width="0.5" stroke-miterlimit="10" stroke-linecap="round" stroke-linejoin="round"/>
<path d="M333.9 117.8C337.6 134.7 358.1 133.2 363.6 118.5" stroke="#002460" stroke-width="0.5" stroke-miterlimit="10" stroke-linecap="round" stroke-linejoin="round"/>
<path d="M348.9 120.8L348.8 129.9" stroke="#002460" stroke-width="0.5" stroke-miterlimit="10" stroke-linecap="round" stroke-linejoin="round"/>
<path d="M344.9 120L341.8 128.6" stroke="#002460" stroke-width="0.5" stroke-miterlimit="10" stroke-linecap="round" stroke-linejoin="round"/>
<path d="M343 118.2L336.3 123.7" stroke="#002460" stroke-width="0.5" stroke-miterlimit="10" stroke-linecap="round" stroke-linejoin="round"/>
<path d="M353.6 117.8L361.6 122.3" stroke="#002460" stroke-width="0.5" stroke-miterlimit="10" stroke-linecap="round" stroke-linejoin="round"/>
<path d="M351.9 119.7L357.3 126.8" stroke="#002460" stroke-width="0.5" stroke-miterlimit="10" stroke-linecap="round" stroke-linejoin="round"/>
<path d="M292.1 231.2C267.8 223.1 256.4 198.1 291.9 218.1C291.8 218.1 291.8 218 291.7 218" fill="#F2F6FC"/>
<path d="M292.2 232.3C291.2 208.6 292.2 184.8 295.5 161.3" stroke="#002460" stroke-width="0.5" stroke-miterlimit="10" stroke-linecap="round" stroke-linejoin="round"/>
<path d="M395.3 219.8C404.4 216.5 410.8 201.2 420.4 205.2C429.9 209.2 399.8 227.3 395.1 231.2" fill="#F2F6FC"/>
<path d="M395 232.6C395 207.7 396.3 182.6 390.4 158.2" stroke="#002460" stroke-width="0.5" stroke-miterlimit="10" stroke-linecap="round" stroke-linejoin="round"/>
<path d="M334.1 289.6L333.8 324.4" stroke="white" stroke-width="0.5" stroke-miterlimit="10" stroke-linecap="round" stroke-linejoin="round"/>
</svg>
