<svg width="491" height="322" viewBox="0 0 491 322" fill="none" xmlns="http://www.w3.org/2000/svg">
<path opacity="0.9884" d="M74.4226 46.0771H418.168C441.558 46.0771 460.576 64.9659 460.576 88.4403V199.48C460.576 222.845 441.667 241.843 418.168 241.843H74.4226C51.0327 241.843 32.0146 222.954 32.0146 199.48V88.3311C32.0146 64.9659 51.0327 46.0771 74.4226 46.0771Z" fill="#AEC6EF"/>
<path d="M341.768 32.866L400.899 30.2456L344.172 12.5579L341.768 32.866Z" fill="#84A9E6" stroke="#84A9E6" stroke-width="0.5" stroke-miterlimit="10" stroke-linecap="round" stroke-linejoin="round"/>
<path d="M341.767 32.8657L400.898 30.2453L338.488 19.1086L341.767 32.8657Z" fill="#84A9E6" stroke="#84A9E6" stroke-width="0.5" stroke-miterlimit="10" stroke-linecap="round" stroke-linejoin="round"/>
<path d="M344.171 12.5574L353.352 3.38601L400.897 30.2451L344.171 12.5574Z" fill="white" stroke="#84A9E6" stroke-width="0.5" stroke-miterlimit="10" stroke-linecap="round" stroke-linejoin="round"/>
<path opacity="0.9884" d="M360.13 79.924C370.732 79.924 412.156 80.0332 412.156 80.0332C412.156 80.0332 406.144 69.9883 398.603 72.8271C391.061 75.6658 400.242 62.673 387.236 68.7873C374.229 74.9016 379.913 64.3108 370.95 71.8444C369.092 73.4822 359.692 72.172 360.13 79.924Z" fill="white"/>
<path opacity="0.9884" d="M380.568 149.473H490.413C490.413 149.473 495.659 129.275 474.783 137.682C456.093 139.974 476.751 109.512 451.503 125.235C433.687 136.262 442.212 118.029 428.987 115.408C414.013 112.46 413.248 114.426 404.395 129.93C395.542 145.324 374.119 141.503 380.568 149.473Z" fill="white"/>
<path opacity="0.9884" d="M1.1914 207.342H111.037C111.037 207.342 116.283 187.143 95.407 195.55C76.7169 197.843 97.3744 167.381 72.1264 183.103C65.4591 187.252 62.5081 187.252 60.65 185.505C57.5896 182.666 57.8082 174.914 49.5015 173.167C34.5276 170.219 33.7625 172.185 24.9093 187.689C16.1654 203.193 -5.25723 199.371 1.1914 207.342Z" fill="white"/>
<path opacity="0.9884" d="M319.579 187.578C335.646 187.578 398.493 188.015 398.493 188.015C398.493 188.015 389.53 172.729 378.054 176.988C366.577 181.246 380.568 161.593 360.894 170.873C341.22 180.045 349.855 163.995 336.083 175.459C333.132 177.861 318.923 175.677 319.579 187.578Z" fill="white"/>
<path opacity="0.9884" d="M99.2333 81.7806C107.103 81.7806 137.816 81.8898 137.816 81.8898C137.816 81.8898 133.335 74.4654 127.76 76.5398C122.186 78.6143 128.963 69.0062 119.344 73.5919C109.726 78.1776 113.879 70.2072 107.212 75.8847C105.901 76.9766 98.9054 75.9939 99.2333 81.7806Z" fill="white"/>
<g opacity="0.9884">
<path d="M159.128 42.9108C159.128 42.9108 160.111 48.8067 154.974 41.0547C139.563 18.563 204.596 11.7936 196.945 25.4415C191.262 35.5956 203.612 44.1119 200.989 52.8465C198.366 61.5812 184.485 74.6832 188.857 80.5791" fill="#00354C"/>
<path d="M159.128 42.9108C159.128 42.9108 160.111 48.8067 154.974 41.0547C139.563 18.563 204.596 11.7936 196.945 25.4415C191.262 35.5956 203.612 44.1119 200.989 52.8465C198.366 61.5812 184.485 74.6832 188.857 80.5791" stroke="#00354C" stroke-width="0.5" stroke-linecap="round" stroke-linejoin="round"/>
</g>
<g opacity="0.9884">
<path d="M149.51 123.925L87.5379 98.4855L78.9033 103.508C78.9033 103.508 106.665 142.05 143.608 138.119" fill="white"/>
<path d="M149.51 123.925L87.5379 98.4855L78.9033 103.508C78.9033 103.508 106.665 142.05 143.608 138.119" stroke="#00354C" stroke-width="0.5" stroke-linecap="round" stroke-linejoin="round"/>
</g>
<path d="M309.852 67.804C309.743 72.0621 309.196 75.4468 308.322 77.958C303.294 92.3702 287.227 78.1764 285.915 56.6673C285.697 50.9897 284.932 39.7438 284.713 38.9796C281.981 38.652 277.062 37.3418 278.483 32.7561C279.795 28.498 282.855 30.7908 284.932 32.7561L285.15 27.8429C285.15 27.8429 297.501 15.8327 305.808 16.3786C308.54 16.597 310.836 18.2347 312.038 22.1653C322.421 55.3571 311.382 55.1387 303.294 54.8111C303.622 58.9601 306.901 65.7295 309.852 67.804Z" fill="white" stroke="#00354C" stroke-width="0.5" stroke-linecap="round" stroke-linejoin="round"/>
<path d="M168.419 79.5964C168.419 79.5964 147.106 71.2985 161.643 98.8127L168.419 79.5964Z" fill="white" stroke="#00354C" stroke-width="0.5" stroke-linejoin="round"/>
<path d="M233.015 320.127C191.591 235.073 182.628 174.913 193.886 84.2911L181.754 70.9707C181.754 70.9707 170.168 75.1197 170.059 75.3381C98.0309 183.102 92.566 250.577 113.442 320.891" fill="white"/>
<mask id="mask0_294_6706" style="mask-type:luminance" maskUnits="userSpaceOnUse" x="103" y="70" width="131" height="251">
<path d="M233.261 320.033C191.837 234.979 182.874 174.819 194.132 84.1969L182 70.8766C182 70.8766 170.414 75.0255 170.305 75.2439C98.2768 183.008 92.8118 250.483 113.688 320.797" fill="white"/>
</mask>
<g mask="url(#mask0_294_6706)">
<path opacity="0.9884" d="M189.76 130.489C182.874 139.769 169.868 228.426 182.218 248.625C194.569 268.824 204.406 258.124 206.811 256.159C209.106 254.084 208.013 240.545 189.76 130.489Z" fill="#EDF4F7"/>
</g>
<path d="M233.015 320.127C191.591 235.073 182.628 174.913 193.886 84.2911L181.754 70.9707C181.754 70.9707 170.168 75.1197 170.059 75.3381C98.0309 183.102 92.566 250.577 113.442 320.891" stroke="#00354C" stroke-width="0.5" stroke-linecap="round" stroke-linejoin="round"/>
<path opacity="0.9884" d="M64.1477 80.7964L74.7497 74.5729C75.7334 74.027 77.045 74.3546 77.7008 75.3372L89.833 95.9729C90.3794 96.9555 90.0516 98.2657 89.0679 98.9208L78.4659 105.144C77.4822 105.69 76.1706 105.363 75.5148 104.38L63.3826 83.7443C62.7268 82.7617 63.164 81.4515 64.1477 80.7964Z" fill="#84A9E6"/>
<path d="M70.0487 95.0988C70.0487 95.0988 70.3766 93.461 71.0324 92.6967C72.4533 90.8406 70.3766 87.5651 67.3163 91.7141C64.1466 95.9722 70.0487 95.0988 70.0487 95.0988Z" fill="white" stroke="#00354C" stroke-width="0.5" stroke-linecap="round" stroke-linejoin="round"/>
<path d="M71.3622 97.5015C71.3622 97.5015 71.6901 95.8637 72.3459 95.0995C73.7668 93.2434 71.6901 89.9678 68.6297 94.1168C65.5693 98.375 71.3622 97.5015 71.3622 97.5015Z" fill="white" stroke="#00354C" stroke-width="0.5" stroke-linecap="round" stroke-linejoin="round"/>
<path d="M72.7821 99.5755C72.7821 99.5755 73.11 97.9377 73.7658 97.1734C75.1867 95.3173 73.11 92.0418 70.0497 96.1908C66.88 100.449 72.7821 99.5755 72.7821 99.5755Z" fill="white" stroke="#00354C" stroke-width="0.5" stroke-linecap="round" stroke-linejoin="round"/>
<path d="M73.9843 102.306C73.9843 102.306 74.3122 100.995 74.7494 100.34C75.9517 98.8118 74.2029 96.0822 71.5797 99.5761C68.9565 102.961 73.9843 102.306 73.9843 102.306Z" fill="white" stroke="#00354C" stroke-width="0.5" stroke-linecap="round" stroke-linejoin="round"/>
<path d="M86.2261 90.4046C86.2261 90.4046 82.6193 92.3699 83.3844 89.8587C84.6959 85.3822 92.1283 87.7842 87.1005 91.7148" fill="white"/>
<path d="M86.2261 90.4046C86.2261 90.4046 82.6193 92.3699 83.3844 89.8587C84.6959 85.3822 92.1283 87.7842 87.1005 91.7148" stroke="#00354C" stroke-width="0.5" stroke-linejoin="round"/>
<path d="M254.219 239.005L256.404 320.783H341.22L338.269 230.707L254.219 239.005Z" fill="#00354C" stroke="#00354C" stroke-width="0.5" stroke-linecap="round" stroke-linejoin="round"/>
<path d="M286.353 59.5063C286.353 59.5063 283.839 74.6828 296.737 101.105L304.169 83.1991L317.722 95.7551L309.962 67.8042" stroke="#00354C" stroke-width="0.5" stroke-linecap="round" stroke-linejoin="round"/>
<path d="M308.212 32.648L308.977 40.7276L304.933 41.0551" stroke="#00354C" stroke-width="0.5" stroke-linecap="round" stroke-linejoin="round"/>
<path d="M319.908 13.213C319.908 13.213 323.187 21.6201 311.71 20.965C300.234 20.3099 302.529 25.8783 292.474 25.5507C297.939 31.5558 288.32 34.2854 288.32 34.2854L287.337 38.8711L284.932 32.7568C284.932 32.7568 279.03 26.8609 278.484 33.4119C278.046 38.3252 284.495 38.9803 284.495 38.9803L285.697 44.5486C285.697 44.5486 278.046 42.6925 274.112 37.015C271.926 33.8487 269.302 27.6252 277.937 24.8956C275.095 21.8385 276.735 16.0518 281.325 16.4885C284.276 8.51812 288.32 9.50078 292.802 10.811C292.911 5.57018 308.322 -9.60631 319.908 13.213Z" fill="#00354C" stroke="#00354C" stroke-width="0.5" stroke-linecap="round" stroke-linejoin="round"/>
<path d="M252.251 122.615L255.202 109.294" stroke="#00354C" stroke-width="0.5" stroke-linecap="round" stroke-linejoin="round"/>
<path d="M336.302 111.697L334.772 98.9226" stroke="#00354C" stroke-width="0.5" stroke-linecap="round" stroke-linejoin="round"/>
<path d="M297.281 53.938L303.402 54.7022L304.604 59.8339L297.281 53.938Z" fill="#00354C" stroke="#00354C" stroke-width="0.5" stroke-linecap="round" stroke-linejoin="round"/>
<path opacity="0.9884" d="M198.366 187.798L290.614 181.356L287.444 245.556L195.305 249.159L198.366 187.798Z" fill="white" stroke="#84A9E6" stroke-width="0.5" stroke-linecap="round" stroke-linejoin="round"/>
<path d="M367.999 32.1039C398.275 116.066 343.516 121.853 336.302 111.699C336.084 111.371 342.751 230.162 342.751 230.162L255.093 239.88L252.251 122.617C252.142 122.508 248.426 160.394 246.786 181.467C246.458 184.961 246.24 188.018 246.131 190.42C244.819 212.584 245.803 227.979 247.114 235.84C249.3 234.093 253.672 233.547 253.672 236.058C253.672 238.46 250.721 240.535 248.863 241.408C250.83 246.977 254.656 246.649 254.656 246.649C255.202 246.977 263.618 245.885 263.618 246.322C263.728 253.528 237.824 259.751 231.047 242.719C227.987 234.857 222.194 221.755 222.85 191.184C222.959 187.908 222.959 184.633 222.959 181.467C223.834 111.589 220.773 65.6232 286.353 59.5089C288.757 79.3803 303.622 91.718 308.431 77.9609C309.305 75.4497 309.852 72.1742 309.961 67.8068C312.694 70.5364 316.41 72.2834 320.454 74.467C373.573 104.056 352.588 37.4539 348.544 34.0692C348.434 33.96 345.593 28.0641 347.778 27.8457C350.402 27.6274 350.839 27.1906 358.271 32.3223C360.457 33.7416 367.999 31.9947 367.999 32.1039Z" fill="white"/>
<path d="M367.781 32.1019C400.352 118.029 343.626 121.851 336.303 111.696C336.084 111.369 342.751 230.16 342.751 230.16L255.094 239.878L252.252 122.615C252.142 122.506 248.426 160.392 246.787 181.465C246.459 184.958 246.24 188.016 246.131 190.418C244.819 212.582 245.803 227.977 247.115 235.838C249.301 234.091 253.673 233.545 253.673 236.056C253.673 238.458 250.722 240.533 248.863 241.406C250.831 246.975 254.656 246.647 254.656 246.647C255.203 246.975 263.619 245.883 263.619 246.319C263.728 253.526 237.824 259.749 231.048 242.716C227.987 234.855 222.195 221.753 222.85 191.182C222.96 187.906 222.96 184.631 222.96 181.465C223.834 111.587 220.774 65.6211 286.353 59.5069C288.758 79.3782 303.622 91.7159 308.431 77.9588C309.306 75.4476 309.852 72.1721 309.962 67.8048C312.694 70.5344 316.41 72.2813 320.454 74.465C373.574 104.054 354.337 44.9855 348.544 34.0672C345.374 27.9529 347.998 27.407 349.418 27.407C354.228 27.407 356.414 32.6478 359.693 32.4294" stroke="#00354C" stroke-width="0.5" stroke-linecap="round" stroke-linejoin="round"/>
<path d="M248.863 72.7185C249.628 73.0461 250.393 73.4828 250.83 73.8104C253.126 75.4481 251.486 78.0685 248.535 75.8849C245.475 73.7012 242.633 76.54 242.633 76.54C242.196 71.0808 246.13 71.5175 248.863 72.7185Z" fill="white" stroke="#00354C" stroke-width="0.5" stroke-linecap="round" stroke-linejoin="round"/>
<path d="M249.3 75.8844C251.595 77.5221 249.956 80.1426 247.004 77.9589C243.944 75.7752 241.102 78.614 241.102 78.614C240.556 71.5171 247.332 74.5742 249.3 75.8844Z" fill="white" stroke="#00354C" stroke-width="0.5" stroke-linecap="round" stroke-linejoin="round"/>
<path d="M247.223 77.4134C249.518 79.0512 247.879 81.6716 244.928 79.4879C241.867 77.3042 239.026 80.143 239.026 80.143C238.479 73.1553 245.256 76.1032 247.223 77.4134Z" fill="white" stroke="#00354C" stroke-width="0.5" stroke-linecap="round" stroke-linejoin="round"/>
<path d="M245.912 79.8151C248.207 81.4528 246.568 84.0732 243.617 81.8896C240.556 79.7059 237.715 82.5447 237.715 82.5447C237.168 75.4478 243.945 78.3957 245.912 79.8151Z" fill="white" stroke="#00354C" stroke-width="0.5" stroke-linecap="round" stroke-linejoin="round"/>
<path d="M225.034 123.379C225.034 123.379 234.325 136.809 251.485 129.821" stroke="#00354C" stroke-width="0.5" stroke-linecap="round" stroke-linejoin="round"/>
<path d="M224.599 126.326C224.599 126.326 233.89 139.756 251.05 132.768" stroke="#00354C" stroke-width="0.5" stroke-linecap="round" stroke-linejoin="round"/>
<path d="M338.05 81.7796C338.05 81.7796 350.838 90.2959 340.673 114.207" stroke="#00354C" stroke-width="0.5" stroke-linecap="round" stroke-linejoin="round"/>
<path d="M335.646 81.2352C335.646 81.2352 348.543 89.424 338.378 113.335" stroke="#00354C" stroke-width="0.5" stroke-linecap="round" stroke-linejoin="round"/>
<path d="M301.217 320.781L300.78 265.753Z" fill="#00354C"/>
<path d="M301.217 320.781L300.78 265.753" stroke="white" stroke-width="0.5" stroke-linecap="round" stroke-linejoin="round"/>
<path opacity="0.9884" d="M157.598 42.0374C156.396 47.3874 149.947 70.971 169.839 66.822C171.37 74.7924 170.167 75.2291 170.167 75.2291C170.167 75.2291 178.693 87.4577 183.72 63.4373C185.141 56.7771 184.813 54.4843 185.141 54.2659C190.497 51.318 183.83 46.5139 180.004 51.9731C178.255 54.4843 177.49 53.5016 177.49 53.6108C180.988 50.7721 179.786 42.1466 174.867 45.3129C167.981 49.8986 158.909 36.6874 157.598 42.0374Z" fill="white" stroke="#00354C" stroke-width="0.5" stroke-linecap="round" stroke-linejoin="round"/>
<path opacity="0.9884" d="M160.44 49.0252L158.364 56.0129L161.096 56.668" stroke="#00354C" stroke-width="0.5" stroke-linecap="round" stroke-linejoin="round"/>
<path opacity="0.9884" d="M225.582 117.374L223.506 144.233C201.646 172.839 187.109 156.789 191.153 110.168C191.918 101.542 193.776 84.1823 193.776 84.1823C193.776 84.1823 208.422 86.1476 205.143 107.438C201.864 128.62 212.685 144.015 225.582 117.374Z" fill="white" stroke="#00354C" stroke-width="0.5" stroke-linecap="round" stroke-linejoin="round"/>
<path opacity="0.9884" d="M103.168 267.937C103.059 268.155 211.046 268.92 211.046 268.92C211.046 268.92 218.697 291.848 233.234 320.782L113.442 321C113.442 321 105.791 296.216 103.168 267.937Z" fill="#00354C"/>
<path d="M165 320.5C165 320.5 156.724 300.037 156.833 284.424Z" fill="#00354C"/>
<path d="M165 320.5C165 320.5 156.724 300.037 156.833 284.424" stroke="white" stroke-width="0.5" stroke-linecap="round" stroke-linejoin="round"/>
<path opacity="0.9884" d="M184.157 51.755C184.704 52.1918 184.704 53.0652 184.267 53.7203L184.048 54.0479C183.502 54.703 182.627 54.8122 182.081 54.2662C181.534 53.8295 181.534 52.956 181.971 52.3009L182.19 51.9734C182.736 51.3183 183.611 51.2091 184.157 51.755Z" fill="#84A9E6" stroke="#84A9E6" stroke-width="0.5" stroke-linecap="round" stroke-linejoin="round"/>
<path opacity="0.9884" d="M169.949 66.8221L173.665 65.9487C173.665 65.9487 171.698 69.0058 170.605 70.0976C170.495 70.0976 170.058 66.8221 169.949 66.8221Z" fill="#00354C" stroke="#00354C" stroke-width="0.5" stroke-linecap="round" stroke-linejoin="round"/>
<g opacity="0.9884">
<path d="M251.814 183.976L290.615 181.356L287.445 245.556L255.093 246.866" fill="white"/>
<path d="M251.814 183.976L290.615 181.356L287.445 245.556L255.093 246.866" stroke="#84A9E6" stroke-width="0.5" stroke-linecap="round" stroke-linejoin="round"/>
</g>
<path d="M290.832 184.412L303.511 184.194L294.439 235.291L288.209 235.947L290.832 184.412Z" fill="#EDF4F7"/>
<path d="M258.262 200.027L257.607 226.668H276.187L277.608 199.372" fill="#84A9E6"/>
<path d="M258.262 200.027L257.607 226.668H276.187L277.608 199.372" stroke="white" stroke-width="0.5" stroke-linecap="round" stroke-linejoin="round"/>
<path opacity="0.9884" d="M182.409 53.8296C182.518 53.9388 182.518 54.048 182.409 54.1572L180.878 55.9041C180.769 56.0133 180.66 56.0133 180.55 55.9041C180.441 55.7949 180.441 55.6857 180.55 55.5766L182.081 53.8296C182.081 53.7204 182.299 53.7204 182.409 53.8296Z" fill="#84A9E6" stroke="#84A9E6" stroke-width="0.5" stroke-linecap="round" stroke-linejoin="round"/>
<path d="M337.831 17.5809L400.897 30.2462L324.278 29.4819L337.831 17.5809Z" fill="white" stroke="#84A9E6" stroke-width="0.5" stroke-miterlimit="10" stroke-linecap="round" stroke-linejoin="round"/>
<path opacity="0.9884" d="M140.876 122.943L134.536 134.844C134.536 134.844 115.518 137.464 107.977 118.248C104.151 108.749 140.876 122.943 140.876 122.943Z" fill="#EDF4F7"/>
<path d="M161.096 56.6683L160.768 58.3061L159.893 56.45L161.096 56.6683Z" fill="#03374E" stroke="#03374E" stroke-width="0.5" stroke-linecap="round" stroke-linejoin="round"/>
<path d="M304.933 40.9458L306.244 43.3478L306.9 40.8366L304.933 40.9458Z" fill="#00354C" stroke="#00354C" stroke-width="0.5" stroke-linecap="round" stroke-linejoin="round"/>
</svg>
