<svg width="574" height="324" viewBox="0 0 574 324" fill="none" xmlns="http://www.w3.org/2000/svg">
<g clip-path="url(#clip0_17353_23738)">
<path opacity="0.9884" d="M134.8 72.2H449.3C470.7 72.2 488.1 89.5 488.1 111V212.7C488.1 234.1 470.8 251.5 449.3 251.5H134.8C113.4 251.5 96 234.2 96 212.7V110.9C96 89.5 113.4 72.2 134.8 72.2Z" fill="#D9E4F7"/>
<path fill-rule="evenodd" clip-rule="evenodd" d="M96.0789 215.2C96.0266 214.374 96 213.54 96 212.7V197.142C101.585 194.514 111.571 194.845 110.9 202.8C117.1 200.9 128.9 197.8 132 205.3C132.075 205.652 132.119 206.029 132.163 206.408C132.294 207.535 132.427 208.676 133.4 209.2C135.773 209.722 138.304 209.613 140.833 209.505C143.631 209.385 146.426 209.265 149 210C150.743 212.587 153.056 212.96 155.315 213.325C157.073 213.608 158.799 213.887 160.2 215.2H96.0789Z" fill="white"/>
<path d="M219.9 111.8H285C282 106.1 272.6 111.6 269.3 106.4C268.1 99.8999 261.1 101.1 257.6 105.1C255.2 95.8999 246.2 88.3999 237.8 95.7999C233.3 98.8999 232.4 105.3 228.1 108.4C224.4 108.9 219.3 107.2 219.9 111.8Z" fill="white"/>
<path d="M430.8 156.2H469.2C471.5 151.4 461.3 155.4 459 154.5C457.6 149 452.5 147.3 448 150.9C441.1 137.7 430.2 156.2 430.8 156.2Z" fill="white"/>
<path d="M395.9 243.6C419.9 217 452.8 198.5 487.9 191.7" stroke="#598BDE" stroke-width="0.5" stroke-miterlimit="10" stroke-linecap="round" stroke-linejoin="round"/>
<path d="M430.9 251.4C431.2 241.8 431.9 232.4 433.9 222.6C435.8 213.1 441 211.3 442.5 217.8C444.8 227.5 445.4 239.9 445.9 251.5" stroke="#598BDE" stroke-width="0.5" stroke-miterlimit="10" stroke-linecap="round" stroke-linejoin="round"/>
<path d="M450.4 251.2C450.4 238.2 450.9 226 453.5 213.1C455.4 203.6 462.1 201.6 463.6 208C466.3 219.3 466.5 234 467 247.1" stroke="#598BDE" stroke-width="0.5" stroke-miterlimit="10" stroke-linecap="round" stroke-linejoin="round"/>
<path d="M472.4 243.9C472.4 230.7 472.8 218.3 475.5 205.2C477.4 195.7 482.6 193.9 484.1 200.4C485.6 206.6 486.4 213.9 486.9 221.4" stroke="#598BDE" stroke-width="0.5" stroke-miterlimit="10" stroke-linecap="round" stroke-linejoin="round"/>
<path d="M420.2 212.3C440.8 198.6 463.9 188.5 488 182.7" stroke="#598BDE" stroke-width="0.5" stroke-miterlimit="10" stroke-linecap="round" stroke-linejoin="round"/>
<path d="M140.6 251.5C141 246.1 146.8 241.5 152.3 244.2C151.5 235.4 159.9 225.5 169 229.8C165.5 208.5 205.4 194.8 212.7 216.5C225.6 213.4 239.2 223.8 239.6 237.1C245.7 234 254.1 236.8 257.1 243C263.1 237.1 274 239 277.8 246.6" stroke="#598BDE" stroke-width="0.5" stroke-miterlimit="10" stroke-linecap="round" stroke-linejoin="round"/>
<path d="M211.4 86.9C223.3 76.9 211 60.7 197.3 61.7C182.2 62.9 173.5 76.8 173.8 91.2C174.2 107.3 167.9 123.2 159.1 136.7C152.2 147.2 142 158.2 143.9 171.7C144.8 178.2 149.4 184.8 155.8 185.6C181.1 189 190.6 145 194.1 125.5C195.4 116.5 196 106.6 202.2 100" fill="#002460"/>
<path d="M211.4 86.9C223.3 76.9 211 60.7 197.3 61.7C182.2 62.9 173.5 76.8 173.8 91.2C174.2 107.3 167.9 123.2 159.1 136.7C152.2 147.2 142 158.2 143.9 171.7C144.8 178.2 149.4 184.8 155.8 185.6C181.1 189 190.6 145 194.1 125.5C195.4 116.5 196 106.6 202.2 100" stroke="#002460" stroke-width="0.5" stroke-linecap="round" stroke-linejoin="round"/>
<path d="M233.7 244.7C235.2 213.1 237.4 181.2 232.6 149.8C229.9 132.4 217.2 120.6 199.5 119.6C175.6 118.3 117.4 133.9 128 90C123.7 89.7 119.1 90.2 114.7 90.1C113.8 100.2 111.4 111.2 115 120.9C122.1 139.8 149.8 140.9 167.9 141.5C170.5 175.9 172.8 210.3 175.4 244.7" fill="white"/>
<path d="M233.7 244.7C235.2 213.1 237.4 181.2 232.6 149.8C229.9 132.4 217.2 120.6 199.5 119.6C175.6 118.3 117.4 133.9 128 90C123.7 89.7 119.1 90.2 114.7 90.1C113.8 100.2 111.4 111.2 115 120.9C122.1 139.8 149.8 140.9 167.9 141.5C170.5 175.9 172.8 210.3 175.4 244.7" stroke="#002460" stroke-width="0.5" stroke-linecap="round" stroke-linejoin="round"/>
<path d="M226.1 148C228.1 176.1 229 204.3 228.6 232.5C231.1 229.9 233 227.2 234.7 224" stroke="#002460" stroke-width="0.5" stroke-linecap="round" stroke-linejoin="round"/>
<path d="M155.5 121.1C161.1 125.1 159.6 135.1 155 140.8" stroke="#002460" stroke-width="0.5" stroke-linecap="round" stroke-linejoin="round"/>
<path d="M226.8 159.5C228.9 160 232.5 160.6 233.7 158.4" stroke="#002460" stroke-width="0.5" stroke-linecap="round" stroke-linejoin="round"/>
<path d="M184.1 91.9C177.8 85.1 176.6 99.6 184.1 98.1C184.1 116.1 191 106.6 190.4 117.7C190.1 123.4 195 129.7 198.1 123.4C199.7 120.2 198.8 112.7 198.8 112.7C202 112.3 206.5 111 209.4 109.8C217.4 106.4 213.4 82.9 211.2 79.2C200.9 87 193.2 73.5 184.1 91.9Z" fill="white" stroke="#002460" stroke-width="0.5" stroke-linecap="round" stroke-linejoin="round"/>
<path d="M208.9 85.5L210.5 96.5L204.8 96.6" stroke="#002460" stroke-width="0.5" stroke-linecap="round" stroke-linejoin="round"/>
<path d="M204.8 96.6H207.3L207.4 98.7L204.8 96.6Z" fill="#002460" stroke="#002460" stroke-width="0.5" stroke-linecap="round" stroke-linejoin="round"/>
<path d="M193.7 112.8H198.7L199 117.6L193.7 112.8Z" fill="#002460" stroke="#002460" stroke-width="0.5" stroke-linecap="round" stroke-linejoin="round"/>
<path d="M116.6 90.6C114.1 89.2 113.4 92.5 115.3 93.9C118.6 96.2 124.3 94 119.2 90.9" fill="white"/>
<path d="M116.6 90.6C114.1 89.2 113.4 92.5 115.3 93.9C118.6 96.2 124.3 94 119.2 90.9" stroke="#002460" stroke-width="0.5" stroke-linecap="round" stroke-linejoin="round"/>
<path d="M116.1 86.7C114.3 85.1 113.8 88.7 114.4 89.9C115.5 92.1 119.6 93.5 120.8 90.9C120.3 88.7 117.7 88.1 116.1 86.7Z" fill="white" stroke="#002460" stroke-width="0.5" stroke-linecap="round" stroke-linejoin="round"/>
<path d="M117.1 82.6C111.7 80.3 116.9 90.3 120.1 89.6C124.9 88.4 119.5 83.8 117.1 82.6Z" fill="white" stroke="#002460" stroke-width="0.5" stroke-linecap="round" stroke-linejoin="round"/>
<path d="M120.8 81C129.3 90.9 113.6 87.3 116.3 77.9C116.9 75.7 122.6 79.9 125 81.2" fill="white"/>
<path d="M120.8 81C129.3 90.9 113.6 87.3 116.3 77.9C116.9 75.7 122.6 79.9 125 81.2" stroke="#002460" stroke-width="0.5" stroke-linecap="round" stroke-linejoin="round"/>
<path d="M125.6 83.4C121.9 84.3 117.5 92 123.4 92.3C129.5 92.6 131.7 82.9 125.1 81.1" fill="white"/>
<path d="M125.6 83.4C121.9 84.3 117.5 92 123.4 92.3C129.5 92.6 131.7 82.9 125.1 81.1" stroke="#002460" stroke-width="0.5" stroke-linecap="round" stroke-linejoin="round"/>
<path d="M175.3 323.8L174.2 227.2L228.6 224.8V231.5L234.7 224L233.7 324" fill="#002460"/>
<path d="M175.3 323.8L174.2 227.2L228.6 224.8V231.5L234.7 224L233.7 324" stroke="#002460" stroke-width="0.5" stroke-linecap="round" stroke-linejoin="round"/>
<path d="M123.7 83.2L137.7 22.6" stroke="#2F6DD5" stroke-width="2" stroke-linecap="round" stroke-linejoin="round"/>
<path d="M132.7 43.9L153.9 42.8L156.3 27L137.7 22.3L132.7 43.9Z" fill="#2F6DD5" stroke="#2F6DD5" stroke-width="2" stroke-linecap="round" stroke-linejoin="round"/>
<path d="M154.8 20.2L189.9 30.1L152.7 36.4L154.8 20.2Z" fill="#2F6DD5" stroke="#2F6DD5" stroke-width="2" stroke-linecap="round" stroke-linejoin="round"/>
<path d="M338.3 324L340.2 229.7L340.3 161.7C368.1 115.8 310 86.6 280.7 129.1C270.6 143.3 267.7 156.6 272.5 173.7L271.4 231.4L269.3 324.2" fill="white"/>
<path d="M338.3 324L340.2 229.7L340.3 161.7C368.1 115.8 310 86.6 280.7 129.1C270.6 143.3 267.7 156.6 272.5 173.7L271.4 231.4L269.3 324.2" stroke="#002460" stroke-width="0.5" stroke-miterlimit="10"/>
<path d="M309.3 183.8C329.2 196.4 348.4 146.1 332.3 158.9C327.2 164 308.9 173.5 309.3 183.8Z" fill="#F2F6FC"/>
<path d="M273.3 189C274.1 191.7 274.2 201.7 276.1 202.1C286.1 201.4 296 200.4 305.9 198.1C315.2 194.8 313.9 198.3 313.8 182.9C312.2 179.4 306.7 182.6 304 182.8C293.7 186.7 283.1 182.6 273.3 189Z" fill="#F2F6FC"/>
<path d="M310.6 108.9C302.8 125.2 317.1 125.6 324.8 109.6" stroke="#002460" stroke-width="0.5" stroke-miterlimit="10"/>
<path d="M272.4 173.7C273.2 156.8 281 139.9 290.4 128.7" stroke="#002460" stroke-width="0.5" stroke-miterlimit="10"/>
<path d="M333.8 132.6C335.2 141.5 332 149.8 328.1 156.6C324.7 162.6 317.2 164.1 310.6 164.9C310 169 309 177.2 311 177.3C327.7 177.3 334.3 171.5 340.2 161.7" fill="white"/>
<path d="M333.8 132.6C335.2 141.5 332 149.8 328.1 156.6C324.7 162.6 317.2 164.1 310.6 164.9C310 169 309 177.2 311 177.3C327.7 177.3 334.3 171.5 340.2 161.7" stroke="#002460" stroke-width="0.5" stroke-miterlimit="10"/>
<path d="M333.9 141.1C338 139 343.2 139.1 347.2 141.5" stroke="#002460" stroke-width="0.5" stroke-miterlimit="10"/>
<path d="M276 136.4C278.7 135.5 281.8 136.1 283.9 138" stroke="#002460" stroke-width="0.5" stroke-miterlimit="10"/>
<path d="M305.8 158.8L325.3 109.6" stroke="#2F6DD5" stroke-width="2" stroke-miterlimit="10" stroke-linecap="round" stroke-linejoin="round"/>
<path d="M270.1 164.3L311 108.4" stroke="#2F6DD5" stroke-width="2" stroke-miterlimit="10" stroke-linecap="round" stroke-linejoin="round"/>
<path d="M275.9 189.2L272.4 164.3C272.3 163.5 272.9 162.7 273.7 162.6L306.2 158C307 157.9 307.8 158.5 307.9 159.3L311.4 184.2C311.5 185 310.9 185.8 310.1 185.9L277.6 190.5C276.8 190.6 276 190.1 275.9 189.2Z" fill="#2F6DD5" stroke="#2F6DD5" stroke-width="0.5" stroke-miterlimit="10"/>
<path d="M272 189.8L268.5 164.9C268.4 164.1 269 163.3 269.8 163.2L302.3 158.6C303.1 158.5 303.9 159.1 304 159.9L307.5 184.8C307.6 185.6 307 186.4 306.2 186.5L273.7 191.1C272.9 191.2 272.2 190.6 272 189.8Z" fill="white" stroke="#2F6DD5" stroke-width="0.5" stroke-miterlimit="10"/>
<path d="M286 169L290.8 168.4C293.1 168.1 295.3 170.5 295.8 173.7C296.3 177 294.8 179.9 292.5 180.2L287.7 180.9L286 169Z" fill="white" stroke="#2F6DD5" stroke-width="0.5" stroke-miterlimit="10"/>
<path d="M302.789 184.04C304.102 183.855 304.897 181.799 304.566 179.448C304.235 177.096 302.903 175.34 301.59 175.524C300.278 175.709 299.482 177.765 299.813 180.117C300.144 182.468 301.477 184.225 302.789 184.04Z" fill="#2F6DD5" stroke="#2F6DD5" stroke-width="0.5" stroke-miterlimit="10"/>
<path d="M280.8 164.4L285.8 163.7C289.2 163.2 292.6 167.9 293.4 174.1C294.3 180.3 292.3 185.7 288.9 186.2L283.9 186.9L280.8 164.4Z" fill="white" stroke="#2F6DD5" stroke-width="0.5" stroke-miterlimit="10"/>
<path d="M283.964 186.778C287.3 186.309 289.299 180.918 288.429 174.738C287.559 168.559 284.149 163.929 280.813 164.399C277.477 164.869 275.478 170.259 276.348 176.439C277.218 182.619 280.628 187.248 283.964 186.778Z" fill="white"/>
<path d="M286.371 186.472C289.707 186.003 291.706 180.612 290.836 174.433C289.966 168.253 286.556 163.624 283.22 164.094C279.884 164.564 277.885 169.954 278.755 176.133C279.625 182.313 283.035 186.942 286.371 186.472Z" fill="#2F6DD5" stroke="#2F6DD5" stroke-width="0.5" stroke-miterlimit="10"/>
<path d="M283.964 186.778C287.3 186.309 289.299 180.918 288.429 174.738C287.559 168.559 284.149 163.929 280.813 164.399C277.477 164.869 275.478 170.259 276.348 176.439C277.218 182.619 280.628 187.248 283.964 186.778Z" stroke="#2F6DD5" stroke-width="0.499982" stroke-miterlimit="10"/>
<path d="M295.3 159.6L295 157.7C294.9 156.7 295.6 155.7 296.6 155.6L298.7 155.3C299.7 155.2 300.7 155.9 300.8 156.9L301.1 158.8L295.3 159.6Z" fill="white" stroke="#2F6DD5" stroke-width="0.5" stroke-miterlimit="10"/>
<path d="M310.8 173.8C312.4 173.3 314.8 174.5 313.4 176.3C311.5 178.2 306.4 177.5 305.6 174.6C305 172.4 309.2 174 310.8 173.8Z" fill="white" stroke="#002460" stroke-width="0.5" stroke-miterlimit="10" stroke-linecap="round" stroke-linejoin="round"/>
<path d="M310.6 170C316.2 169.4 314.9 174.9 310.2 174.6C308.1 174.5 303.5 173 304.9 171C306.2 169.1 308.5 170.5 310.6 170Z" fill="white" stroke="#002460" stroke-width="0.5" stroke-miterlimit="10" stroke-linecap="round" stroke-linejoin="round"/>
<path d="M312 166.4C318.6 168.6 309.7 172.4 306.3 170.5C304.1 169.2 304.9 167 307.2 167.2C308.7 166.9 310.1 166.2 312 166.4Z" fill="white" stroke="#002460" stroke-width="0.5" stroke-miterlimit="10" stroke-linecap="round" stroke-linejoin="round"/>
<path d="M308.8 163.9C307.2 164.1 305.5 163.9 304.1 164.5C302.1 165.3 303.5 167.3 305.1 167.7C311.8 169.1 318.4 163 308.5 161.9" fill="white"/>
<path d="M308.8 163.9C307.2 164.1 305.5 163.9 304.1 164.5C302.1 165.3 303.5 167.3 305.1 167.7C311.8 169.1 318.4 163 308.5 161.9" stroke="#002460" stroke-width="0.5" stroke-miterlimit="10" stroke-linecap="round" stroke-linejoin="round"/>
<path d="M269 181.9C265.3 181 270.1 187.2 272.4 184.8C273.2 184 272.2 182.7 271.5 182.1C270.9 181.7 270.2 182.3 269 181.9Z" fill="white" stroke="#002460" stroke-width="0.5" stroke-miterlimit="10" stroke-linecap="round" stroke-linejoin="round"/>
<path d="M291.6 65.8C297.9 46.4 328 51.8 324.4 72.8L291.6 65.8Z" fill="white"/>
<path d="M291.6 65.8C297.9 46.4 328 51.8 324.4 72.8" stroke="#002460" stroke-width="0.5" stroke-miterlimit="10" stroke-linecap="round" stroke-linejoin="round"/>
<path d="M314.1 68.9C305.5 67.5 297 66.1 288.3 65.1C280.3 64.1 272 63.5 264.2 65.8C263.4 66.1 262.4 66.5 262.3 67.3C262.1 68.2 263 69 263.8 69.5C268.3 72.3 273.5 73.3 278.7 74.4C282.8 75.2 287 76.1 291.2 76.2" fill="#F2F6FC"/>
<path d="M314.1 68.9C305.5 67.5 297 66.1 288.3 65.1C280.3 64.1 272 63.5 264.2 65.8C263.4 66.1 262.4 66.5 262.3 67.3C262.1 68.2 263 69 263.8 69.5C268.3 72.3 273.5 73.3 278.7 74.4C282.8 75.2 287 76.1 291.2 76.2" stroke="#002460" stroke-width="0.5" stroke-miterlimit="10" stroke-linecap="round" stroke-linejoin="round"/>
<path d="M267.3 178.7C264.3 178.8 266 182 268.1 182.5C272.9 183.6 276.2 178.2 269.8 178.4" fill="white"/>
<path d="M267.3 178.7C264.3 178.8 266 182 268.1 182.5C272.9 183.6 276.2 178.2 269.8 178.4" stroke="#002460" stroke-width="0.5" stroke-miterlimit="10" stroke-linecap="round" stroke-linejoin="round"/>
<path d="M265.6 174.5C262.6 175.4 263.9 179.3 266.6 179.9C269.7 180.6 276.2 177.9 273.8 173.8C270.9 172 269.6 174.3 265.6 174.5Z" fill="white" stroke="#002460" stroke-width="0.5" stroke-miterlimit="10" stroke-linecap="round" stroke-linejoin="round"/>
<path d="M269.1 170.7C277.4 168.1 275.4 175.6 268.6 176.3C262.3 176.9 263.7 168.6 268.8 168.2" fill="white"/>
<path d="M269.1 170.7C277.4 168.1 275.4 175.6 268.6 176.3C262.3 176.9 263.7 168.6 268.8 168.2" stroke="#002460" stroke-width="0.5" stroke-miterlimit="10" stroke-linecap="round" stroke-linejoin="round"/>
<path d="M290.6 70.7C296.9 64.2 315.3 69.5 324 70.5C324.5 70.6 325 70.5 325.3 70.1C328.6 67.1 333.7 62.1 333.9 70.2C341.1 67.9 345.7 74.6 338.6 78.9C343.2 83.4 338.7 88 333.4 86C333.4 95.3 323.5 92.6 319.4 87.7C312.3 87 289.7 79 290.6 70.7Z" fill="#002460" stroke="#002460" stroke-width="0.5" stroke-miterlimit="10" stroke-linecap="round" stroke-linejoin="round"/>
<path d="M290.6 70.7C291.6 78.8 288.1 93.4 296.9 96.8C301.8 98.7 312.6 97.9 312.6 97.9C312.6 97.9 312.8 108.1 312.8 108.5C313 113.1 321 112.5 321.4 108.9L323.2 87.2C330.7 87.4 332.1 75.7 323.6 81.5C323.3 80.5 323.4 79 323.6 78C320.7 79.1 317.2 76.8 317.2 73.7C313.1 77.3 306.2 76.6 303 72.2C299.3 75.6 293.5 74.5 290.6 70.7Z" fill="white" stroke="#002460" stroke-width="0.5" stroke-miterlimit="10" stroke-linecap="round" stroke-linejoin="round"/>
<path d="M293.5 79.8L293.6 88.6L298.5 88.3" stroke="#002460" stroke-width="0.5" stroke-miterlimit="10" stroke-linecap="round" stroke-linejoin="round"/>
<path d="M296.3 88.5L298.5 88.3L297.2 91.7L296.3 88.5Z" fill="#002460" stroke="#002460" stroke-width="0.5" stroke-miterlimit="10" stroke-linecap="round" stroke-linejoin="round"/>
<path d="M312.6 98L317.1 97.7L312.7 103.4L312.6 98Z" fill="#002460" stroke="#002460" stroke-width="0.5" stroke-miterlimit="10" stroke-linecap="round" stroke-linejoin="round"/>
<path d="M356.4 244.6L361.8 176.8C343.5 173.8 364.3 124.7 371.4 115.3C383.1 99.7 403.4 94.9 420.6 103.3C436.9 111.2 450.2 176.7 429.3 177L428.2 244.5V244.4" fill="white"/>
<path d="M356.4 244.6L361.8 176.8C343.5 173.8 364.3 124.7 371.4 115.3C383.1 99.7 403.4 94.9 420.6 103.3C436.9 111.2 450.2 176.7 429.3 177L428.2 244.5V244.4" stroke="#002460" stroke-width="0.5" stroke-miterlimit="10" stroke-linecap="round" stroke-linejoin="round"/>
<path d="M370.6 131.7C367.4 144.4 363.3 163.9 361.8 176.9" stroke="#002460" stroke-width="0.5" stroke-miterlimit="10" stroke-linecap="round" stroke-linejoin="round"/>
<path d="M411.5 120.5C411.4 114.3 411.3 105.6 415.7 101C417.1 101.1 418.4 101.8 419.6 102.4C418.1 108.7 419.2 115.4 419 121.7C417 123.2 412.3 123.5 411.5 120.5Z" fill="#2F6DD5" stroke="#2F6DD5" stroke-width="0.5" stroke-miterlimit="10" stroke-linecap="round" stroke-linejoin="round"/>
<path d="M411.4 116.6C408.8 116.9 408.8 119.6 409.7 121.7C410.2 122.8 409.4 124.1 409.4 125.4C409.5 126.7 410.5 127.9 410.8 129.2C411.5 132.2 411.8 135.5 414.2 137.7C417.8 136.1 423.3 133 422.9 128.5C422.7 126.1 420.6 123.9 421.2 121.4C421.4 120 424.3 117.7 422.1 117C419.3 116 417.4 123.4 411.7 120.5" fill="white"/>
<path d="M411.4 116.6C408.8 116.9 408.8 119.6 409.7 121.7C410.2 122.8 409.4 124.1 409.4 125.4C409.5 126.7 410.5 127.9 410.8 129.2C411.5 132.2 411.8 135.5 414.2 137.7C417.8 136.1 423.3 133 422.9 128.5C422.7 126.1 420.6 123.9 421.2 121.4C421.4 120 424.3 117.7 422.1 117C419.3 116 417.4 123.4 411.7 120.5" stroke="#002460" stroke-width="0.5" stroke-miterlimit="10" stroke-linecap="round" stroke-linejoin="round"/>
<path d="M375.5 60.3C379.2 42.1 409.9 45.9 408.8 64.7L375.5 60.3Z" fill="white"/>
<path d="M375.5 60.3C379.2 42.1 409.9 45.9 408.8 64.7" stroke="#002460" stroke-width="0.5" stroke-miterlimit="10" stroke-linecap="round" stroke-linejoin="round"/>
<path d="M415.6 136.9C413.9 138.5 412.3 140 410.6 141.6C410.4 154 404.4 199.2 428.1 186.9C430 170 426.6 150.3 415.6 136.9Z" fill="#F2F6FC"/>
<path d="M356.4 324V244.6L428.2 244.5V323.7" fill="#002460"/>
<path d="M356.4 324V244.6L428.2 244.5V323.7" stroke="#002460" stroke-width="0.5" stroke-miterlimit="10" stroke-linecap="round" stroke-linejoin="round"/>
<path d="M395.2 73.5C389.7 73.2 344.4 69.3 349.8 63.3C357.9 54.2 420.9 58.2 431.2 64.8C433.5 66.3 432.7 68.9 430.6 70.1C420 76.3 407.1 74.2 395.2 73.5Z" fill="#F2F6FC" stroke="#002460" stroke-width="0.5" stroke-miterlimit="10" stroke-linecap="round" stroke-linejoin="round"/>
<path d="M429.2 177C421 177 412.3 137.3 412.3 137.3L423.4 128.3C426.3 136.5 429.2 145.7 431.6 154" fill="white"/>
<path d="M429.2 177C421 177 412.3 137.3 412.3 137.3L423.4 128.3C426.3 136.5 429.2 145.7 431.6 154" stroke="#002460" stroke-width="0.5" stroke-miterlimit="10" stroke-linecap="round" stroke-linejoin="round"/>
<path d="M374 66.9C369.3 91.1 373.1 92.9 396.7 93.1C396.7 95.5 396.2 97.9 396.5 100.3C397.2 104 402.4 104.6 404.2 101.4C405.4 95.1 407 82.3 407 82.3C413.1 83.5 415.2 74.6 407.6 76L408.4 67.2C397.2 63.2 384.9 62.7 374 66.9Z" fill="white" stroke="#002460" stroke-width="0.5" stroke-miterlimit="10" stroke-linecap="round" stroke-linejoin="round"/>
<path d="M377.4 70.1L376.7 79.9L380.8 79.1" fill="white"/>
<path d="M377.4 70.1L376.7 79.9L380.8 79.1" stroke="#002460" stroke-width="0.5" stroke-miterlimit="10" stroke-linecap="round" stroke-linejoin="round"/>
<path d="M379 79.5L380.8 79.1L380.1 81.5L379 79.5Z" fill="#002460" stroke="#002460" stroke-width="0.5" stroke-miterlimit="10" stroke-linecap="round" stroke-linejoin="round"/>
<path d="M396.6 93.1L400.9 93L396.3 98.1L396.6 93.1Z" fill="#002460" stroke="#002460" stroke-width="0.5" stroke-miterlimit="10" stroke-linecap="round" stroke-linejoin="round"/>
<path d="M374 66.9C377.9 69.3 382.5 64 386.3 65.6C390 67.2 393.3 67.4 397 66.6C399.6 66 400.4 68.6 402.3 70C404 71.4 407.4 72.1 406.3 74C405.1 76.2 406.2 76.4 407.5 76C407.5 73.2 408.6 69.6 407.8 67.1C397.1 63 384.9 62.9 374 66.9Z" fill="#002460" stroke="#002460" stroke-width="0.5" stroke-miterlimit="10" stroke-linecap="round" stroke-linejoin="round"/>
<path d="M370.6 128.6C373.5 118.5 377.6 112.5 386.7 102.3C381.4 102.7 358 122.4 370.6 128.6Z" fill="#2F6DD5" stroke="#2F6DD5" stroke-width="0.5" stroke-miterlimit="10" stroke-linecap="round" stroke-linejoin="round"/>
<path d="M372.2 133.7C360.5 143.7 358.2 130.3 363.2 121.3C363 113.3 366.6 118.7 366.7 123.2C368.6 121.8 379.9 115.3 375.8 121.8C375.3 124.1 375.4 126.4 373.9 128.4C373.4 130.2 373.9 132.2 372.2 133.7Z" fill="white" stroke="#002460" stroke-width="0.5" stroke-miterlimit="10" stroke-linecap="round" stroke-linejoin="round"/>
<path d="M360.8 136.9C360.8 140.2 365.7 141.6 368.5 140.6L360.8 136.9Z" fill="white"/>
<path d="M360.8 136.9C360.8 140.2 365.7 141.6 368.5 140.6" stroke="#002460" stroke-width="0.5" stroke-miterlimit="10" stroke-linecap="round" stroke-linejoin="round"/>
<path d="M413.2 140.9L424.8 132.3" stroke="#002460" stroke-width="0.5" stroke-miterlimit="10" stroke-linecap="round" stroke-linejoin="round"/>
<path d="M168.6 141.8C169.3 151.7 169.9 160.9 170.6 171.4C170.9 176.4 171.4 201.2 176 203.6C183.7 207.5 177.3 142.3 168.6 141.8Z" fill="#F2F6FC"/>
<path d="M339.8 233.7H271.1V243H339.8V233.7Z" fill="white" stroke="#002460" stroke-width="0.5" stroke-miterlimit="10" stroke-linecap="round" stroke-linejoin="round"/>
<path d="M207.3 246.2L205.2 324.2" stroke="white" stroke-width="0.5" stroke-miterlimit="10" stroke-linecap="round" stroke-linejoin="round"/>
<path d="M381.9 260.3L379.8 323.8" stroke="white" stroke-width="0.5" stroke-miterlimit="10" stroke-linecap="round" stroke-linejoin="round"/>
<path d="M288.2 265.3L285.9 324.2" stroke="#002460" stroke-width="0.5" stroke-miterlimit="10" stroke-linecap="round" stroke-linejoin="round"/>
</g>
<defs>
<clipPath id="clip0_17353_23738">
<rect width="570" height="324" fill="white" transform="translate(2)"/>
</clipPath>
</defs>
</svg>
