<svg width="73" height="100" viewBox="0 0 73 100" xmlns="http://www.w3.org/2000/svg">
    <path d="M60.192 66.54S72.46 73.519 72.46 84.225C72.46 95.031 56.355 100 46.293 100c-4.812 0-9.582-.858-13.27-1.761l-.605-.15c-3.564-.906-5.989-1.812-6.234-1.905l-.02-.008-2.681 3.444-4.603-15.685 16.774-1.816-2.49 3.825s.057.067.177.189l.089.088c1.225 1.204 6.796 5.957 18.995 6.704 12.766.702 13.403-1.334 13.422-4.188v-.385l-.001-.196v-.198c0-3.353-1.63-6.691-11.118-11.765 4.503-.382 7.764-1.052 7.764-1.052l-2.3-8.6zm-4.12-5.26 2.778 11.568-11.983.954 2.01-3.248s-13.415-4.303-20.03-5.639a75.21 75.21 0 0 0-1.37-.265l-.468-.085c-.47-.083-.948-.161-1.427-.233l-.48-.07c-.16-.023-.32-.045-.481-.065l-.48-.06c-5.518-.655-10.772-.154-9.288 4.885 2.016 6.407 10.638 11.474 10.638 11.474l-9.296 1.341 2.685 11.661C15.43 91.394 0 80.592 0 73.324c0-4.774 6.9-8.508 14.472-10.422C18.5 61.76 22.62 61.28 25.974 61.28c3.214 0 7.118.427 10.932 1.007l.761.117c7.723 1.217 14.86 2.985 14.86 2.985l3.544-4.11zM64.563 0c2.01 0 2.588 1.238 3.07 2.489.478 1.237 1.82.57 2.49-1.151C70.796-.387 71.56.288 71.56.38v22.754h-1.054v-.042c-.005-.509-.103-5.621-2.008-13.055-1.863-7.78-2.548-8.113-3.635-8.126h-.106c-1.052 0-5.176 2.2-1.633 11.566C66.77 22.752 73 34.99 73 44.262c0 9.276-3.93 12.719-7.668 12.812-3.738-.093-4.315-3.725-5.557-1.911-1.159 1.51-2.482 1.537-2.665 1.533h-.021V33.08h1.053s.575 10.703 2.11 15.488c1.628 4.781 3.26 7.075 4.697 7.075 1.437 0 2.49-1.912 2.49-8.225 0-6.405-3.734-12.14-7.187-21.226C56.897 17.015 56.324 0 64.564 0zm-51.18.482V2.2H11.08v52.58h2.688v1.72H1.782v-1.72h2.685V2.2H1.881V.482h11.502zm20.987 0V2.2s-2.298-.194-2.393 3.153c.041 1.397.064 11.05.07 21.6v1.477l.001.742V37.289c-.007 10.355-.03 19.212-.071 19.212h-4.99L18.746 5.828v44.176c0 2.385.575 5.26 2.88 5.352v1.145h-7.38v-1.052s2.872.382 2.872-5.64V2.389h-1.823V.669h9.011l6.23 38.148v-.23l.001-.1v-.248c.006-1.92.024-8.345.034-15.02l.001-.977.001-.49.001-.977.002-1.941.001-.958v-.474l.001-1.399V12.504l-.001-.406-.001-.79c-.004-3.218-.016-5.525-.04-5.955.095-1.723-.287-2.964-2.297-3.253V.482h6.13zm12.558 0c4.505 0 8.626 3.148 8.626 9.174v13.478c0 4.114-3.066 9.276-9.489 9.276l-.191 22.37h2.489v1.72H36.671v-1.337h2.206V2.2H37.25V.482zM45.682 2.2v28.966s3.739 1.054 3.739-6.213V5.826c0-2.959-2.3-3.626-3.74-3.626z" fill="#007db3" fill-rule="evenodd"/>
</svg>
