<svg xmlns="http://www.w3.org/2000/svg" width="68.051" height="54.96" viewBox="0 0 68.051 54.96">
  <path id="Tracciato_3" data-name="Tracciato 3" d="M20.239,326.071v1.091h10.39v-.53c0-.383-.015-.534-.057-.547s-.236-.041-.454-.071a2.742,2.742,0,0,1-.572-.136,1.664,1.664,0,0,0-.2-.083,2.84,2.84,0,0,1-.647-.482,2.247,2.247,0,0,1-.434-.826c-.076-.266-.081-1.51-.1-23.806-.012-18.311,0-23.61.041-23.909a3.193,3.193,0,0,1,.157-.626,1.941,1.941,0,0,1,.545-.744.194.194,0,0,0,.122-.076,2.223,2.223,0,0,1,1.233-.432c.163-.016.3-.034.306-.038s.023-.9.017-1.028c0-.048-1.052-.059-5.164-.048l-5.16.012-.013.541-.012.541h.2a2.823,2.823,0,0,1,1.623.621c.027.038.056.077.086.117a2.1,2.1,0,0,1,.43.819c.086.277.088.734.088,23.967,0,23.373,0,24.057-.136,24.242a1.226,1.226,0,0,0-.092.233,1.5,1.5,0,0,1-.317.462,2.248,2.248,0,0,1-1.562.7Zm43.974-23.755a2.373,2.373,0,0,1-1.565.813,6.951,6.951,0,0,1-1.305.066.245.245,0,0,1-.1-.08c-.039-.062-.048-27.86-.009-27.968.022-.06.125-.068.652-.049,1.769.064,2.557.669,2.935,2.252.122.509.125.518.14.564s.091.524.139.926a91.8,91.8,0,0,1,.272,10.227c0,3.086-.02,6.147-.045,6.8-.064,1.669-.131,2.865-.181,3.23l-.031.229c-.021.16-.047.347-.066.493A5.748,5.748,0,0,1,64.213,302.315ZM52.921,326.6a4.766,4.766,0,0,0,.03.72c.016.018,2.421.027,5.344.02l5.314-.012.012-.706.013-.707-.15-.024c-.082-.013-.278-.036-.435-.053a1.98,1.98,0,0,1-1.612-1.013c-.02-.041-.039-.076-.055-.112-.184-.393-.177-.876-.166-10.37l.011-9.6,1.008-.03a9.41,9.41,0,0,0,1.945-.189,3.15,3.15,0,0,1,.321-.066,6.68,6.68,0,0,0,2.719-1.417.321.321,0,0,1,.124-.1,9.449,9.449,0,0,0,1.228-1.393c.063-.093.13-.19.15-.217a4.95,4.95,0,0,0,.339-.566,1.029,1.029,0,0,1,.1-.179,4.275,4.275,0,0,0,.219-.432,21.421,21.421,0,0,0,1.786-7.7c.1-1.116.116-5.294.023-6.357a31.843,31.843,0,0,0-.6-4.369,1.7,1.7,0,0,1-.071-.4c.012-.012,0-.047-.017-.076a1.928,1.928,0,0,1-.114-.365,17.493,17.493,0,0,0-.63-1.922c-.235-.537-.6-1.31-.638-1.365-.022-.029-.175-.266-.34-.527s-.387-.585-.492-.72a12,12,0,0,0-1.127-1.175,6.727,6.727,0,0,0-2.02-1.14,8.475,8.475,0,0,0-1.007-.292c-.063-.007-.28-.041-.481-.077-.286-.049-1.486-.063-5.538-.063H52.943l-.012.706-.012.707.15.024c.083.012.272.036.42.051a1.993,1.993,0,0,1,1.516.819,2.147,2.147,0,0,1,.29.734.26.26,0,0,0,.023.108c.017.039.026,10.755.019,23.813L55.324,324.3l-.1.274a2.669,2.669,0,0,1-.24.482,2.162,2.162,0,0,1-1.528.785c-.273.022-.408.018-.474.083S52.921,326.176,52.921,326.6Zm-20.331-.121a2.914,2.914,0,0,0,.03.814h0a28.116,28.116,0,0,0,3.456.06H39.51v-1.433l-.126-.025c-.069-.015-.25-.039-.4-.055a2.2,2.2,0,0,1-1.245-.488.1.1,0,0,0-.08-.065c-.085,0-.343-.4-.453-.711l-.1-.274-.012-20.5c-.008-11.273,0-20.584.018-20.689l.031-.192.041.144c.034.115.308,2.262.43,3.364a1.655,1.655,0,0,0,.042.265c.008.015.037.2.066.42.07.538.083.624.132.9.124.7.284,1.622.328,1.9.029.172.08.464.114.648s.1.585.155.889l.022.128c.053.314.13.774.185,1.1l.052.305c.043.254.079.47.09.536.06.378.279,1.653.386,2.234.048.264.1.556.112.65s.119.709.234,1.369.249,1.44.3,1.731.119.712.158.937c.031.176.087.512.14.827l.043.255c.061.37.141.835.177,1.033s.13.75.209,1.226.175,1.016.21,1.2.1.542.136.793.11.684.159.961c.083.471.218,1.26.323,1.874.025.145.055.33.066.408.024.161.386,2.264.526,3.052.049.277.1.58.112.673.028.207.113.7.294,1.706.076.423.2,1.158.279,1.634s.16.961.185,1.081.129.714.231,1.322.226,1.332.277,1.61.12.689.156.913.158.938.271,1.585c.269,1.539.393,2.265.446,2.62.024.159.073.44.109.624s.1.553.141.817a5.321,5.321,0,0,0,.114.589l.041.109,2.027-.012,2.026-.012.023-25.375.023-25.375.107-.278a1.737,1.737,0,0,1,.873-.973.754.754,0,0,1,.269-.1.365.365,0,0,0,.187-.051,1.926,1.926,0,0,1,.487-.1c.221-.019.341-.024.405-.086.081-.078.075-.247.075-.647a5.31,5.31,0,0,0-.028-.7c-.025-.068-.372-.076-3.454-.076H44.228l-.029.163a4.05,4.05,0,0,0,.062,1.273,1.67,1.67,0,0,0,.412.069,2.072,2.072,0,0,1,.86.232,1.1,1.1,0,0,0,.236.09,1.465,1.465,0,0,1,.316.278,1.537,1.537,0,0,1,.381.589l.114.31.012,17.225c.007,9.475,0,17.217-.008,17.206a3.65,3.65,0,0,1-.07-.453c-.028-.238-.07-.562-.093-.72s-.054-.473-.068-.7-.036-.462-.046-.528-.033-.282-.047-.48c-.032-.423-.318-3.129-.386-3.653-.236-1.809-.276-2.077-.46-3.171-.025-.146-.055-.329-.066-.409s-.073-.425-.134-.768-.176-1.014-.254-1.49-.161-.963-.185-1.082c-.048-.245-.176-.989-.322-1.875-.055-.33-.189-1.108-.3-1.73s-.219-1.27-.244-1.442-.065-.409-.09-.528-.077-.411-.116-.648-.175-1.038-.3-1.779c-.21-1.233-.364-2.14-.434-2.571-.042-.256-.139-.817-.271-1.562-.162-.918-.345-1.988-.417-2.451-.034-.211-.115-.687-.182-1.057-.141-.786-.286-1.621-.318-1.826-.012-.08-.042-.263-.067-.409s-.088-.524-.141-.841-.106-.609-.117-.648-.04-.213-.065-.385-.1-.6-.162-.961c-.109-.6-.176-.989-.366-2.14-.039-.237-.1-.589-.143-.781l-.073-.348h-4c-2.2,0-4.008.016-4.02.038a6.628,6.628,0,0,0-.036.7c-.016.75-.015.751.329.752a3.335,3.335,0,0,1,1.21.341,1.727,1.727,0,0,1,.827,1.322c.1.557.1,47.023,0,47.526A1.848,1.848,0,0,1,33.1,325.84c-.258.023-.385.024-.447.087S32.6,326.144,32.591,326.481Zm46.9,1.284a6.112,6.112,0,0,0,.71.141,5.362,5.362,0,0,0,3.112-.493,10,10,0,0,0,1.259-.849,9.486,9.486,0,0,0,1.9-2.442.659.659,0,0,1,.151-.228c.021,0,.027-.019.013-.043s.016-.1.066-.163a.488.488,0,0,0,.09-.165,1.155,1.155,0,0,1,.085-.232,9.94,9.94,0,0,0,.386-.958,17.085,17.085,0,0,0,.879-3.846c.017-.184.04-.39.052-.456s.044-.549.073-1.075a21.6,21.6,0,0,0-.076-2.986c-.011-.08-.055-.469-.1-.865a40.877,40.877,0,0,0-.982-4.95c-.022-.078-.1-.339-.163-.576s-.128-.465-.133-.505a1.015,1.015,0,0,0-.06-.192c-.052-.125-.473-1.477-.485-1.562a.33.33,0,0,0-.035-.1,3.217,3.217,0,0,1-.105-.312c-.043-.145-.105-.329-.138-.408s-.123-.329-.2-.552c-.225-.668-1.068-2.931-1.245-3.341-.045-.106-.191-.462-.323-.793s-.269-.644-.3-.7a.374.374,0,0,1-.062-.154,2,2,0,0,0-.134-.362c-.369-.833-1.01-2.394-1.01-2.461,0-.042-.016-.076-.036-.076a2.286,2.286,0,0,1-.248-.6.489.489,0,0,0-.089-.162.43.43,0,0,1-.085-.168.577.577,0,0,0-.06-.174c-.032-.066-.1-.229-.14-.36a4.279,4.279,0,0,0-.164-.408c-.045-.093-.159-.363-.251-.6-.171-.438-.215-.545-.388-.94a1.39,1.39,0,0,1-.1-.264,5.373,5.373,0,0,0-.188-.525c-.1-.264-.3-.795-.436-1.178s-.26-.729-.276-.768a3.876,3.876,0,0,1-.211-.672c.013,0,0-.028-.023-.06a2.086,2.086,0,0,1-.146-.373c-.054-.172-.157-.485-.229-.7s-.237-.741-.367-1.178-.264-.879-.3-.985-.106-.366-.162-.577-.127-.471-.159-.576-.072-.257-.087-.336-.1-.436-.181-.793-.179-.8-.209-.985-.075-.4-.1-.482a3.065,3.065,0,0,1-.066-.408,3.051,3.051,0,0,0-.068-.408,5.951,5.951,0,0,1-.118-.793c0-.04-.017-.172-.034-.337-.011-.1-.022-.217-.034-.332a11.467,11.467,0,0,1,.089-2.676c.057-.266.085-.4.126-.524s.1-.249.21-.5a2.477,2.477,0,0,1,2.369-1.529,1.983,1.983,0,0,1,.989.247,2.181,2.181,0,0,1,.759.611,4.337,4.337,0,0,1,.479.588,1.389,1.389,0,0,0,.133.224,8.953,8.953,0,0,1,.818,1.924c-.014.024-.009.044.012.044a.924.924,0,0,1,.171.433.355.355,0,0,0,.033.12,22.724,22.724,0,0,1,.6,2.282c.021.1.053.247.086.4l.074.343c.179.822.4,2.057.532,2.932.034.238.116.778.181,1.2s.126.834.136.913.06.448.11.817.145,1.127.21,1.682.137,1.16.162,1.346.067.652.094,1.038.054.744.063.793.031.328.049.62.038.583.046.648.029.31.047.543c.027.335.051.431.116.469a3.052,3.052,0,0,0,.993.007c.046-.031.056-2.2.046-10.681L87.5,273.6H85.763l-.107.24c-.167.375-.379.7-.431.666-.027-.018-.036-.01-.019.018.043.073-.353.437-.6.555a1.254,1.254,0,0,1-.563.1,1,1,0,0,1-.654-.163,2.89,2.89,0,0,1-.544-.4,7.557,7.557,0,0,0-.65-.54c-.227-.168-.437-.328-.468-.355a.189.189,0,0,0-.1-.051,2.535,2.535,0,0,1-.38-.163,4.665,4.665,0,0,0-1.265-.4.636.636,0,0,1-.263-.07,4.268,4.268,0,0,0-1.232.006.218.218,0,0,1-.157.048,4.694,4.694,0,0,0-1.361.456,5.931,5.931,0,0,0-1.826,1.61c-.06.093-.166.255-.236.36s-.2.317-.286.469a1.2,1.2,0,0,1-.186.277c-.015,0-.029.027-.03.06a3.064,3.064,0,0,1-.173.445,15.674,15.674,0,0,0-.738,2.218c-.012.067-.05.256-.085.418-.081.37-.255,1.433-.276,1.689-.1,1.188-.119,1.614-.12,2.356a11.517,11.517,0,0,0,.1,1.874c.087.6.228,1.486.268,1.67a.417.417,0,0,1,.02.18c-.012,0,0,.038.023.084a1.031,1.031,0,0,1,.067.228c.058.344.38,1.588.635,2.452.1.344.232.787.289.985s.124.415.149.481.05.141.057.168.018.069.027.1c.028.081.288.892.409,1.274.063.2.135.4.159.456s.107.291.185.528c.133.407.368,1.083.45,1.3.02.053.061.172.092.264s.181.515.333.938.305.844.338.937.165.46.295.817.247.7.26.757.039.108.057.108.034.027.035.06c0,.057.237.719.428,1.2.049.125.152.406.229.625.134.387.437,1.214.856,2.345.113.3.211.574.216.6a2.36,2.36,0,0,0,.087.226,1.321,1.321,0,0,1,.075.211c0,.017.074.225.164.461s.243.672.341.967.22.656.273.8c.1.28.317.937.348,1.057.011.04.181.581.38,1.2.57,1.781.975,3.208,1.243,4.374.021.092.081.352.134.576a39.667,39.667,0,0,1,.808,4.59,26.361,26.361,0,0,1,.064,3.644,10.42,10.42,0,0,1-.368,1.759c-.022.041-.074.178-.117.3s-.1.229-.117.229a.028.028,0,0,0-.028.038,2.065,2.065,0,0,1-.353.651.531.531,0,0,0-.116.172.767.767,0,0,1-.176.2,1.728,1.728,0,0,1-1.5.642,1.248,1.248,0,0,1-.849-.181,4.75,4.75,0,0,1-1.7-1.848,10.891,10.891,0,0,1-.836-1.744c0-.012-.06-.149-.127-.3a1.767,1.767,0,0,1-.122-.338.19.19,0,0,0-.04-.108c-.068-.078-.666-1.909-.808-2.473-.01-.039-.051-.19-.091-.336s-.153-.6-.251-1.009-.2-.832-.226-.937c-.145-.576-.434-1.983-.6-2.908-.021-.12-.045-.256-.069-.39-.036-.2-.071-.4-.092-.522-.057-.322-.219-1.384-.411-2.691-.036-.251-.088-.662-.115-.913s-.067-.6-.091-.77-.054-.431-.067-.576-.055-.556-.091-.913-.078-.886-.1-1.178a4.3,4.3,0,0,0-.051-.552,3.614,3.614,0,0,0-.556-.024h-.534l-.012,11.043c-.011,10.843-.01,11.044.077,11.078a1.928,1.928,0,0,0,.457.018l.37-.015.154-.345c.264-.6.8-1.329.972-1.329.036,0,.064-.016.064-.036s.094-.077.209-.127a1.485,1.485,0,0,1,1,.036.638.638,0,0,0,.185.078.668.668,0,0,1,.205.157.829.829,0,0,0,.188.156,1.245,1.245,0,0,1,.229.192,6.971,6.971,0,0,0,1.773,1.117,2.767,2.767,0,0,0,.512.2.136.136,0,0,1,.106.042.664.664,0,0,0,.243.1C79.164,327.669,79.366,327.726,79.492,327.766Z" transform="translate(-20.237 -273)" fill="#007db3" fill-rule="evenodd"/>
</svg>
