<?xml version="1.0" encoding="UTF-8"?>
<svg xmlns="http://www.w3.org/2000/svg" xmlns:xlink="http://www.w3.org/1999/xlink" viewBox="0 0 73.79 105" width="74" height="105">
  <path d="M11.69,54.27c-2.7-.05-2.51-1.95-2.51-2.62V4.79c0-.67-.19-2.57,2.51-2.62h0c.06,0,.11-.05,.11-.11V.68c0-.06-.05-.11-.11-.11H.27c-.06,0-.11,.05-.11,.11v1.38c0,.06,.05,.11,.11,.11h0c2.7,.05,2.51,1.95,2.51,2.62V51.65c0,.67,.19,2.57-2.51,2.62h0c-.06,0-.11,.05-.11,.11v1.38c0,.06,.05,.11,.11,.11H11.7c.06,0,.11-.05,.11-.11v-1.38c0-.06-.05-.11-.11-.11" fill="#0075b8"/>
  <path d="M31,55.87c.06,0,.11-.05,.11-.11V4.79c0-.67-.19-2.57,2.51-2.62h0c.06,0,.11-.05,.11-.11V.68c0-.06-.05-.11-.11-.11h-7.35c-.06,0-.11,.05-.11,.11v1.38c0,.06,.05,.11,.11,.11h0c2.7,.05,2.51,1.95,2.51,2.62V39.28h0s-.54-6.64-1.19-10.09L22.47,.67v.02c0-.06-.05-.11-.11-.11H13.75c-.06,0-.11,.05-.11,.11v1.38c0,.06,.05,.11,.11,.11h0c2.7,.05,2.51,1.95,2.51,2.62V51.65c0,.67,.19,2.57-2.51,2.62h0c-.06,0-.11,.05-.11,.11v1.39c0,.06,.05,.11,.11,.11h7.35c.06,0,.11-.05,.11-.11h0v-1.39c0-.06-.05-.11-.11-.11h0c-2.7-.05-2.51-1.95-2.51-2.62V10.02s.36,3.24,.8,5.79l7.19,39.97h0s.05,.09,.11,.09h4.31Z" fill="#0075b8"/>
  <path d="M44.56,2.28c0-.06,.05-.11,.11-.11h0c4.11,.02,4.35,1.09,4.35,14.41s-.24,14.43-4.35,14.44h0c-.06,0-.11-.05-.11-.11V2.28h0Zm.04,30.45c0-.06,.05-.11,.11-.11h0c2.72,.02,10.75,.74,10.75-16.05S47.21,.57,44.59,.57h-8.92c-.06,0-.11,.05-.11,.11v1.39c0,.06,.05,.11,.11,.11h0c2.7,.05,2.51,1.95,2.51,2.62V51.65c0,.67,.19,2.57-2.51,2.62h0c-.06,0-.11,.05-.11,.11v1.39c0,.06,.05,.11,.11,.11h11.43c.06,0,.11-.05,.11-.11v-1.39c0-.06-.05-.11-.11-.11h0c-2.7-.05-2.51-1.95-2.51-2.62v-18.92h0Z" fill="#0075b8"/>
  <path d="M70.94,.65s.06-.07,.1-.07h1.8c.06,0,.11,.05,.11,.11V22.49c0,.06-.05,.11-.11,.11h-1.09c-.06,0-.11-.05-.11-.11l-.34-4.03c-1.43-11.91-3.02-16.66-5.97-16.66-1.79,0-2.95,1.58-2.95,4.11,0,3.16,1.47,9.07,5.18,17.4,1.87,4.32,6.23,13.28,6.23,20.87,0,6.96-3.24,12.32-7.88,12.32-2.21,0-4.35-1.15-5.3-2.08-1.57-1.3-2.61,.25-3.05,1.43-.02,.04-.06,.07-.1,.07h-.91c-.06,0-.11-.05-.11-.11v-22.61h0c0-.06,.05-.11,.11-.11h0s1.09,0,1.09,0h0c.06,0,.11,.05,.11,.11h0c.37,5.83,2.75,21.21,7.23,21.21,1.72,0,2.98-2.21,2.98-5.27,0-4.11-1.19-9.59-5.07-19.4-3.75-9.7-5.68-14.86-5.68-18.77C57.2,4.54,59.6,0,63.81,0c2.04,0,3.38,.97,4.15,1.7,1.37,1.25,2.52,.1,2.97-1.05h0Z" fill="#0075b8"/>
  <path d="M31.85,89.63l2.51-5.12-16.7,4,6.45,16.49,2.59-5.08c20.49,5.88,35.85,2.04,44.57-8.1,9.43-10.97-11.88-24-11.88-24l2.92,7.79-7.46,1.71s9.57,3.73,11.65,9.75c2.08,6.02-1.35,7.57-1.35,7.57-13.66,3.84-33.29-5-33.29-5h0Z" fill="#0075b8"/>
  <path d="M26.3,85.22s-17.31-8.02-11.75-16.32c0,0,19.83-2.53,37.34,4.25l-2.2,4.28,11.36-2.57-4.42-11.21-2.54,4.95s-24.79-11.3-46.82,.96c-21.85,12.17,12.46,28.1,12.46,28.1l-3.83-9.89,10.39-2.56h0Z" fill="#0075b8"/>
</svg>