<svg width="265" height="311" viewBox="0 0 265 311" fill="none" xmlns="http://www.w3.org/2000/svg">
<g clip-path="url(#clip0_41_27716)">
<path d="M234.34 253.04C234.73 252.49 235.09 251.92 235.42 251.35C235.49 251.23 235.56 251.11 235.62 250.99C235.96 250.39 236.27 249.77 236.55 249.14C236.58 249.08 236.6 249.02 236.63 248.96C236.91 248.32 237.17 247.66 237.39 247C237.41 246.96 237.42 246.91 237.44 246.87C237.66 246.2 237.85 245.51 238.02 244.82C238.04 244.72 238.07 244.63 238.09 244.53C238.24 243.85 238.37 243.17 238.47 242.49C238.48 242.4 238.49 242.31 238.5 242.22C238.59 241.52 238.66 240.81 238.7 240.11C239.21 228.87 233.05 218.31 210.98 203.79C193.43 192.23 173.11 185.15 154.04 180.32C131.76 174.68 101.24 172.46 78.2902 176.63C49.7602 181.83 26.8802 202.69 26.8902 231.79C26.7802 246.33 32.5902 259.06 41.6802 269.55C68.8602 300.9 111.97 313.43 151.59 309.96C174.35 307.97 189.24 294.9 198.1 286.41C201.69 282.97 226.46 260.93 231.11 256.78L231.07 256.73C231.14 256.66 231.2 256.59 231.28 256.52C231.77 256.07 232.25 255.6 232.7 255.11C232.75 255.05 232.8 255 232.85 254.94C233.29 254.44 233.7 253.92 234.09 253.39C234.17 253.28 234.26 253.17 234.34 253.05V253.04ZM188.41 264.2C145.54 263.18 106.12 245.5 81.6002 221.19C76.2902 215.93 66.4002 202.31 73.2502 192.99C78.3902 186.02 91.0702 186.6 98.3502 187.68C141.16 194.04 176.23 224.25 188.4 264.12V264.18L188.41 264.2Z" fill="white"/>
<path d="M188.41 264.2V264.13C176.24 224.26 141.17 194.05 98.3602 187.69C91.0802 186.61 78.3902 186.03 73.2602 193C66.4102 202.32 76.3002 215.94 81.6102 221.2C106.12 245.5 145.54 263.18 188.42 264.21L188.41 264.2ZM231.07 256.73L231.11 256.78C226.46 260.92 201.69 282.97 198.1 286.41C189.23 294.9 174.34 307.98 151.59 309.96C111.98 313.43 68.8602 300.9 41.6802 269.55C32.5902 259.06 26.7802 246.33 26.8902 231.79C26.8802 202.68 49.7702 181.83 78.2902 176.63C101.25 172.46 131.76 174.68 154.04 180.32C173.11 185.14 193.43 192.23 210.98 203.79C233.05 218.31 239.21 228.87 238.7 240.11C238.42 246.18 235.88 252.43 231.06 256.73H231.07Z" fill="url(#paint0_radial_41_27716)"/>
<path d="M73.2603 193C78.4003 186.03 91.0803 186.61 98.3603 187.69C141.17 194.05 176.24 224.26 188.41 264.13V264.19C198.8 264.44 209.4 263.71 220.04 261.85L220.94 261.7C223.8 261.14 226.31 260.1 228.47 258.71C234.98 254.53 238.39 247.2 238.71 240.12C239.22 228.88 233.06 218.32 210.99 203.8C193.44 192.24 173.12 185.16 154.05 180.33C131.77 174.69 101.25 172.47 78.3003 176.64" fill="url(#paint1_linear_41_27716)"/>
<path d="M110 1.59985H95.2903C94.6503 1.59985 94.1403 2.10986 94.1403 2.74986V96.2299C94.1403 97.5599 92.2703 97.8298 91.8903 96.5599L64.0303 2.42986C63.8903 1.93986 63.4403 1.60986 62.9303 1.60986H53.0503C53.0503 1.60986 53.0503 1.60986 53.0303 1.60986H39.4203C38.7803 1.60986 38.2703 2.11986 38.2703 2.75986V147.82C38.2703 148.46 38.7803 148.97 39.4203 148.97H54.1303C54.7703 148.97 55.2803 148.46 55.2803 147.82V54.3199C55.2803 52.9899 57.1503 52.7199 57.5303 53.9899L85.4003 148.13C85.5403 148.62 85.9903 148.95 86.5003 148.95H96.3203C96.3203 148.95 96.3703 148.95 96.3903 148.95H110C110.64 148.95 111.15 148.44 111.15 147.8V2.74986C111.15 2.10986 110.64 1.59985 110 1.59985Z" fill="white"/>
<path d="M21.8602 1.59985H3.68018C2.43754 1.59985 1.43018 2.60721 1.43018 3.84985V146.71C1.43018 147.953 2.43754 148.96 3.68018 148.96H21.8602C23.1028 148.96 24.1102 147.953 24.1102 146.71V3.84985C24.1102 2.60721 23.1028 1.59985 21.8602 1.59985Z" fill="white"/>
<path fill-rule="evenodd" clip-rule="evenodd" d="M184.77 18.4299C181.47 8.63986 172.21 1.59985 161.31 1.59985H127.57C126.33 1.59985 125.32 2.60985 125.32 3.84985V146.73C125.32 147.97 126.33 148.98 127.57 148.98H145.75C146.99 148.98 148 147.97 148 146.73V102.72C148 101.34 149.12 100.22 150.5 100.22C154.16 100.22 161.31 100.22 161.31 100.22C172.25 100.22 181.53 93.1299 184.8 83.2898C188.5 73.1898 190.51 62.2899 190.51 50.9099C190.51 39.5299 188.48 28.5599 184.76 18.4299H184.77ZM164.99 81.9099C163.74 85.9499 159.23 88.8799 154.78 88.8799C154.78 88.8799 152.23 88.8799 150.26 88.8799C149.02 88.8799 148.01 87.8699 148.01 86.6299V15.1899C148.01 13.9499 149.02 12.9399 150.26 12.9399C152.23 12.9399 154.78 12.9399 154.78 12.9399C158.95 12.9399 163.27 15.5199 164.73 19.1699C168.28 29.0899 170.21 39.7699 170.21 50.9099C170.21 62.0499 168.37 72.1999 164.99 81.9099Z" fill="white"/>
<path d="M244.88 71.8699C237.65 64.3299 220.9 46.75 217.58 38.82C214.23 30.85 215.05 23.36 218.69 18.47C221.68 14.46 227.72 12.1299 233.82 14.2099C239.07 16.0099 245.39 21.5499 246.74 37.6399C246.78 38.72 247.64 39.83 249.06 39.83H256.21C257.32 39.83 258.46 38.99 258.51 37.55C259.06 28.51 256.45 19.12 253.37 14.44C247.99 5.46995 241.61 1.98995 232.3 0.809947C222.9 -0.390053 210.17 3.45995 203.57 13.9199C197.8 23.0699 196.22 37.81 199.59 49.32C203.86 63.91 207.9 68.2999 214.58 76.3299C215.7 77.6799 222.56 85.1199 224.97 87.4299C235.47 97.4399 241.08 105.29 242.03 118.02C242.79 128.12 237.38 137.1 228.02 136.66C222.37 136.4 219.54 134.44 215.72 130.35C211.89 126.25 210.39 121.07 209.63 112.61C209.35 109.47 209.55 104.13 209.57 102.46C209.57 101.35 208.7 100.21 207.32 100.21H198.46C197.1 100.21 196.2 101.34 196.2 102.46C196.25 108.91 196.44 115.64 197.1 119.46C199.24 131.81 201.47 135.63 208.12 142.38C213.65 147 220.15 149.94 228.52 149.94C245.15 149.94 257.54 140.09 262.22 125.43C263.94 120.03 264.5 114.31 264.11 108.66C262.89 91.1899 252.89 80.2499 244.87 71.8699H244.88Z" fill="white"/>
</g>
<defs>
<radialGradient id="paint0_radial_41_27716" cx="0" cy="0" r="1" gradientUnits="userSpaceOnUse" gradientTransform="translate(80.9307 200) rotate(-163.338) scale(148.224 115.844)">
<stop offset="0.0810973" stop-color="#D1D3D4"/>
<stop offset="0.666674" stop-color="#D1D3D4" stop-opacity="0.02"/>
<stop offset="0.88" stop-color="#D1D3D4" stop-opacity="0"/>
</radialGradient>
<linearGradient id="paint1_linear_41_27716" x1="132.12" y1="186.53" x2="221.68" y2="276.08" gradientUnits="userSpaceOnUse">
<stop stop-color="#D1D3D4" stop-opacity="0"/>
<stop offset="0.22" stop-color="#D1D3D4" stop-opacity="0.34"/>
<stop offset="0.5" stop-color="#D1D3D4" stop-opacity="0.7"/>
<stop offset="0.73" stop-color="#D1D3D4" stop-opacity="0.92"/>
<stop offset="0.88" stop-color="#D1D3D4"/>
</linearGradient>
<clipPath id="clip0_41_27716">
<rect width="264" height="311" fill="white" transform="translate(0.810059)"/>
</clipPath>
</defs>
</svg>
