<svg width="570" height="324" viewBox="0 0 570 324" fill="none" xmlns="http://www.w3.org/2000/svg">
    <g clip-path="url(#clip0_22548_8607)">
        <path opacity="0.9884" d="M132.8 72.2H447.3C468.7 72.2 486.1 89.5 486.1 111V212.7C486.1 234.1 468.8 251.5 447.3 251.5H132.8C111.4 251.5 94 234.2 94 212.7V110.9C94 89.5 111.4 72.2 132.8 72.2Z" fill="#D9E4F7"/>
        <path fill-rule="evenodd" clip-rule="evenodd" d="M94.0789 215.2C94.0266 214.374 94 213.54 94 212.7V197.142C99.5853 194.514 109.571 194.845 108.9 202.8C115.1 200.9 126.9 197.8 130 205.3C130.075 205.652 130.119 206.029 130.163 206.408C130.294 207.535 130.427 208.676 131.4 209.2C133.773 209.722 136.304 209.613 138.833 209.505C141.631 209.385 144.426 209.265 147 210C148.743 212.587 151.056 212.96 153.315 213.325C155.073 213.608 156.799 213.887 158.2 215.2H94.0789Z" fill="white"/>
        <path d="M217.9 111.8H283C280 106.1 270.6 111.6 267.3 106.4C266.1 99.8999 259.1 101.1 255.6 105.1C253.2 95.8999 244.2 88.3999 235.8 95.7999C231.3 98.8999 230.4 105.3 226.1 108.4C222.4 108.9 217.3 107.2 217.9 111.8Z" fill="white"/>
        <path d="M428.8 156.2H467.2C469.5 151.4 459.3 155.4 457 154.5C455.6 149 450.5 147.3 446 150.9C439.1 137.7 428.2 156.2 428.8 156.2Z" fill="white"/>
        <path d="M393.9 243.6C417.9 217 450.8 198.5 485.9 191.7" stroke="#598BDE" stroke-width="0.5" stroke-miterlimit="10" stroke-linecap="round" stroke-linejoin="round"/>
        <path d="M428.9 251.4C429.2 241.8 429.9 232.4 431.9 222.6C433.8 213.1 439 211.3 440.5 217.8C442.8 227.5 443.4 239.9 443.9 251.5" stroke="#598BDE" stroke-width="0.5" stroke-miterlimit="10" stroke-linecap="round" stroke-linejoin="round"/>
        <path d="M448.4 251.2C448.4 238.2 448.9 226 451.5 213.1C453.4 203.6 460.1 201.6 461.6 208C464.3 219.3 464.5 234 465 247.1" stroke="#598BDE" stroke-width="0.5" stroke-miterlimit="10" stroke-linecap="round" stroke-linejoin="round"/>
        <path d="M470.4 243.9C470.4 230.7 470.8 218.3 473.5 205.2C475.4 195.7 480.6 193.9 482.1 200.4C483.6 206.6 484.4 213.9 484.9 221.4" stroke="#598BDE" stroke-width="0.5" stroke-miterlimit="10" stroke-linecap="round" stroke-linejoin="round"/>
        <path d="M418.2 212.3C438.8 198.6 461.9 188.5 486 182.7" stroke="#598BDE" stroke-width="0.5" stroke-miterlimit="10" stroke-linecap="round" stroke-linejoin="round"/>
        <path d="M138.6 251.5C139 246.1 144.8 241.5 150.3 244.2C149.5 235.4 157.9 225.5 167 229.8C163.5 208.5 203.4 194.8 210.7 216.5C223.6 213.4 237.2 223.8 237.6 237.1C243.7 234 252.1 236.8 255.1 243C261.1 237.1 272 239 275.8 246.6" stroke="#598BDE" stroke-width="0.5" stroke-miterlimit="10" stroke-linecap="round" stroke-linejoin="round"/>
        <path d="M209.4 86.9C221.3 76.9 209 60.7 195.3 61.7C180.2 62.9 171.5 76.8 171.8 91.2C172.2 107.3 165.9 123.2 157.1 136.7C150.2 147.2 140 158.2 141.9 171.7C142.8 178.2 147.4 184.8 153.8 185.6C179.1 189 188.6 145 192.1 125.5C193.4 116.5 194 106.6 200.2 100" fill="#002460"/>
        <path d="M209.4 86.9C221.3 76.9 209 60.7 195.3 61.7C180.2 62.9 171.5 76.8 171.8 91.2C172.2 107.3 165.9 123.2 157.1 136.7C150.2 147.2 140 158.2 141.9 171.7C142.8 178.2 147.4 184.8 153.8 185.6C179.1 189 188.6 145 192.1 125.5C193.4 116.5 194 106.6 200.2 100" stroke="#002460" stroke-width="0.5" stroke-linecap="round" stroke-linejoin="round"/>
        <path d="M231.7 244.7C233.2 213.1 235.4 181.2 230.6 149.8C227.9 132.4 215.2 120.6 197.5 119.6C173.6 118.3 115.4 133.9 126 90C121.7 89.7 117.1 90.2 112.7 90.1C111.8 100.2 109.4 111.2 113 120.9C120.1 139.8 147.8 140.9 165.9 141.5C168.5 175.9 170.8 210.3 173.4 244.7" fill="white"/>
        <path d="M231.7 244.7C233.2 213.1 235.4 181.2 230.6 149.8C227.9 132.4 215.2 120.6 197.5 119.6C173.6 118.3 115.4 133.9 126 90C121.7 89.7 117.1 90.2 112.7 90.1C111.8 100.2 109.4 111.2 113 120.9C120.1 139.8 147.8 140.9 165.9 141.5C168.5 175.9 170.8 210.3 173.4 244.7" stroke="#002460" stroke-width="0.5" stroke-linecap="round" stroke-linejoin="round"/>
        <path d="M224.1 148C226.1 176.1 227 204.3 226.6 232.5C229.1 229.9 231 227.2 232.7 224" stroke="#002460" stroke-width="0.5" stroke-linecap="round" stroke-linejoin="round"/>
        <path d="M153.5 121.1C159.1 125.1 157.6 135.1 153 140.8" stroke="#002460" stroke-width="0.5" stroke-linecap="round" stroke-linejoin="round"/>
        <path d="M224.8 159.5C226.9 160 230.5 160.6 231.7 158.4" stroke="#002460" stroke-width="0.5" stroke-linecap="round" stroke-linejoin="round"/>
        <path d="M182.1 91.9C175.8 85.1 174.6 99.6 182.1 98.1C182.1 116.1 189 106.6 188.4 117.7C188.1 123.4 193 129.7 196.1 123.4C197.7 120.2 196.8 112.7 196.8 112.7C200 112.3 204.5 111 207.4 109.8C215.4 106.4 211.4 82.9 209.2 79.2C198.9 87 191.2 73.5 182.1 91.9Z" fill="white" stroke="#002460" stroke-width="0.5" stroke-linecap="round" stroke-linejoin="round"/>
        <path d="M206.9 85.5L208.5 96.5L202.8 96.6" stroke="#002460" stroke-width="0.5" stroke-linecap="round" stroke-linejoin="round"/>
        <path d="M202.8 96.6H205.3L205.4 98.7L202.8 96.6Z" fill="#002460" stroke="#002460" stroke-width="0.5" stroke-linecap="round" stroke-linejoin="round"/>
        <path d="M191.7 112.8H196.7L197 117.6L191.7 112.8Z" fill="#002460" stroke="#002460" stroke-width="0.5" stroke-linecap="round" stroke-linejoin="round"/>
        <path d="M114.6 90.6C112.1 89.2 111.4 92.5 113.3 93.9C116.6 96.2 122.3 94 117.2 90.9" fill="white"/>
        <path d="M114.6 90.6C112.1 89.2 111.4 92.5 113.3 93.9C116.6 96.2 122.3 94 117.2 90.9" stroke="#002460" stroke-width="0.5" stroke-linecap="round" stroke-linejoin="round"/>
        <path d="M114.1 86.7C112.3 85.1 111.8 88.7 112.4 89.9C113.5 92.1 117.6 93.5 118.8 90.9C118.3 88.7 115.7 88.1 114.1 86.7Z" fill="white" stroke="#002460" stroke-width="0.5" stroke-linecap="round" stroke-linejoin="round"/>
        <path d="M115.1 82.6C109.7 80.3 114.9 90.3 118.1 89.6C122.9 88.4 117.5 83.8 115.1 82.6Z" fill="white" stroke="#002460" stroke-width="0.5" stroke-linecap="round" stroke-linejoin="round"/>
        <path d="M118.8 81C127.3 90.9 111.6 87.3 114.3 77.9C114.9 75.7 120.6 79.9 123 81.2" fill="white"/>
        <path d="M118.8 81C127.3 90.9 111.6 87.3 114.3 77.9C114.9 75.7 120.6 79.9 123 81.2" stroke="#002460" stroke-width="0.5" stroke-linecap="round" stroke-linejoin="round"/>
        <path d="M123.6 83.4C119.9 84.3 115.5 92 121.4 92.3C127.5 92.6 129.7 82.9 123.1 81.1" fill="white"/>
        <path d="M123.6 83.4C119.9 84.3 115.5 92 121.4 92.3C127.5 92.6 129.7 82.9 123.1 81.1" stroke="#002460" stroke-width="0.5" stroke-linecap="round" stroke-linejoin="round"/>
        <path d="M173.3 323.8L172.2 227.2L226.6 224.8V231.5L232.7 224L231.7 324" fill="#002460"/>
        <path d="M173.3 323.8L172.2 227.2L226.6 224.8V231.5L232.7 224L231.7 324" stroke="#002460" stroke-width="0.5" stroke-linecap="round" stroke-linejoin="round"/>
        <path d="M121.7 83.2L135.7 22.6" stroke="#2F6DD5" stroke-width="2" stroke-linecap="round" stroke-linejoin="round"/>
        <path d="M130.7 43.9L151.9 42.8L154.3 27L135.7 22.3L130.7 43.9Z" fill="#2F6DD5" stroke="#2F6DD5" stroke-width="2" stroke-linecap="round" stroke-linejoin="round"/>
        <path d="M152.8 20.2L187.9 30.1L150.7 36.4L152.8 20.2Z" fill="#2F6DD5" stroke="#2F6DD5" stroke-width="2" stroke-linecap="round" stroke-linejoin="round"/>
        <path d="M336.3 324L338.2 229.7L338.3 161.7C366.1 115.8 308 86.6 278.7 129.1C268.6 143.3 265.7 156.6 270.5 173.7L269.4 231.4L267.3 324.2" fill="white"/>
        <path d="M336.3 324L338.2 229.7L338.3 161.7C366.1 115.8 308 86.6 278.7 129.1C268.6 143.3 265.7 156.6 270.5 173.7L269.4 231.4L267.3 324.2" stroke="#002460" stroke-width="0.5" stroke-miterlimit="10"/>
        <path d="M307.3 183.8C327.2 196.4 346.4 146.1 330.3 158.9C325.2 164 306.9 173.5 307.3 183.8Z" fill="#F2F6FC"/>
        <path d="M271.3 189C272.1 191.7 272.2 201.7 274.1 202.1C284.1 201.4 294 200.4 303.9 198.1C313.2 194.8 311.9 198.3 311.8 182.9C310.2 179.4 304.7 182.6 302 182.8C291.7 186.7 281.1 182.6 271.3 189Z" fill="#F2F6FC"/>
        <path d="M308.6 108.9C300.8 125.2 315.1 125.6 322.8 109.6" stroke="#002460" stroke-width="0.5" stroke-miterlimit="10"/>
        <path d="M270.4 173.7C271.2 156.8 279 139.9 288.4 128.7" stroke="#002460" stroke-width="0.5" stroke-miterlimit="10"/>
        <path d="M331.8 132.6C333.2 141.5 330 149.8 326.1 156.6C322.7 162.6 315.2 164.1 308.6 164.9C308 169 307 177.2 309 177.3C325.7 177.3 332.3 171.5 338.2 161.7" fill="white"/>
        <path d="M331.8 132.6C333.2 141.5 330 149.8 326.1 156.6C322.7 162.6 315.2 164.1 308.6 164.9C308 169 307 177.2 309 177.3C325.7 177.3 332.3 171.5 338.2 161.7" stroke="#002460" stroke-width="0.5" stroke-miterlimit="10"/>
        <path d="M331.9 141.1C336 139 341.2 139.1 345.2 141.5" stroke="#002460" stroke-width="0.5" stroke-miterlimit="10"/>
        <path d="M274 136.4C276.7 135.5 279.8 136.1 281.9 138" stroke="#002460" stroke-width="0.5" stroke-miterlimit="10"/>
        <path d="M303.8 158.8L323.3 109.6" stroke="#2F6DD5" stroke-width="2" stroke-miterlimit="10" stroke-linecap="round" stroke-linejoin="round"/>
        <path d="M268.1 164.3L309 108.4" stroke="#2F6DD5" stroke-width="2" stroke-miterlimit="10" stroke-linecap="round" stroke-linejoin="round"/>
        <path d="M273.9 189.2L270.4 164.3C270.3 163.5 270.9 162.7 271.7 162.6L304.2 158C305 157.9 305.8 158.5 305.9 159.3L309.4 184.2C309.5 185 308.9 185.8 308.1 185.9L275.6 190.5C274.8 190.6 274 190.1 273.9 189.2Z" fill="#2F6DD5" stroke="#2F6DD5" stroke-width="0.5" stroke-miterlimit="10"/>
        <path d="M270 189.8L266.5 164.9C266.4 164.1 267 163.3 267.8 163.2L300.3 158.6C301.1 158.5 301.9 159.1 302 159.9L305.5 184.8C305.6 185.6 305 186.4 304.2 186.5L271.7 191.1C270.9 191.2 270.2 190.6 270 189.8Z" fill="white" stroke="#2F6DD5" stroke-width="0.5" stroke-miterlimit="10"/>
        <path d="M284 169L288.8 168.4C291.1 168.1 293.3 170.5 293.8 173.7C294.3 177 292.8 179.9 290.5 180.2L285.7 180.9L284 169Z" fill="white" stroke="#2F6DD5" stroke-width="0.5" stroke-miterlimit="10"/>
        <path d="M300.789 184.04C302.102 183.855 302.897 181.799 302.566 179.448C302.235 177.096 300.903 175.34 299.59 175.524C298.278 175.709 297.482 177.765 297.813 180.117C298.144 182.468 299.477 184.225 300.789 184.04Z" fill="#2F6DD5" stroke="#2F6DD5" stroke-width="0.5" stroke-miterlimit="10"/>
        <path d="M278.8 164.4L283.8 163.7C287.2 163.2 290.6 167.9 291.4 174.1C292.3 180.3 290.3 185.7 286.9 186.2L281.9 186.9L278.8 164.4Z" fill="white" stroke="#2F6DD5" stroke-width="0.5" stroke-miterlimit="10"/>
        <path d="M281.964 186.778C285.3 186.309 287.299 180.918 286.429 174.738C285.559 168.559 282.149 163.929 278.813 164.399C275.477 164.869 273.478 170.259 274.348 176.439C275.218 182.619 278.628 187.248 281.964 186.778Z" fill="white"/>
        <path d="M284.371 186.472C287.707 186.003 289.706 180.612 288.836 174.433C287.966 168.253 284.556 163.624 281.22 164.094C277.884 164.564 275.885 169.954 276.755 176.133C277.625 182.313 281.035 186.942 284.371 186.472Z" fill="#2F6DD5" stroke="#2F6DD5" stroke-width="0.5" stroke-miterlimit="10"/>
        <path d="M281.964 186.778C285.3 186.309 287.299 180.918 286.429 174.738C285.559 168.559 282.149 163.929 278.813 164.399C275.477 164.869 273.478 170.259 274.348 176.439C275.218 182.619 278.628 187.248 281.964 186.778Z" stroke="#2F6DD5" stroke-width="0.499982" stroke-miterlimit="10"/>
        <path d="M293.3 159.6L293 157.7C292.9 156.7 293.6 155.7 294.6 155.6L296.7 155.3C297.7 155.2 298.7 155.9 298.8 156.9L299.1 158.8L293.3 159.6Z" fill="white" stroke="#2F6DD5" stroke-width="0.5" stroke-miterlimit="10"/>
        <path d="M308.8 173.8C310.4 173.3 312.8 174.5 311.4 176.3C309.5 178.2 304.4 177.5 303.6 174.6C303 172.4 307.2 174 308.8 173.8Z" fill="white" stroke="#002460" stroke-width="0.5" stroke-miterlimit="10" stroke-linecap="round" stroke-linejoin="round"/>
        <path d="M308.6 170C314.2 169.4 312.9 174.9 308.2 174.6C306.1 174.5 301.5 173 302.9 171C304.2 169.1 306.5 170.5 308.6 170Z" fill="white" stroke="#002460" stroke-width="0.5" stroke-miterlimit="10" stroke-linecap="round" stroke-linejoin="round"/>
        <path d="M310 166.4C316.6 168.6 307.7 172.4 304.3 170.5C302.1 169.2 302.9 167 305.2 167.2C306.7 166.9 308.1 166.2 310 166.4Z" fill="white" stroke="#002460" stroke-width="0.5" stroke-miterlimit="10" stroke-linecap="round" stroke-linejoin="round"/>
        <path d="M306.8 163.9C305.2 164.1 303.5 163.9 302.1 164.5C300.1 165.3 301.5 167.3 303.1 167.7C309.8 169.1 316.4 163 306.5 161.9" fill="white"/>
        <path d="M306.8 163.9C305.2 164.1 303.5 163.9 302.1 164.5C300.1 165.3 301.5 167.3 303.1 167.7C309.8 169.1 316.4 163 306.5 161.9" stroke="#002460" stroke-width="0.5" stroke-miterlimit="10" stroke-linecap="round" stroke-linejoin="round"/>
        <path d="M267 181.9C263.3 181 268.1 187.2 270.4 184.8C271.2 184 270.2 182.7 269.5 182.1C268.9 181.7 268.2 182.3 267 181.9Z" fill="white" stroke="#002460" stroke-width="0.5" stroke-miterlimit="10" stroke-linecap="round" stroke-linejoin="round"/>
        <path d="M289.6 65.8C295.9 46.4 326 51.8 322.4 72.8L289.6 65.8Z" fill="white"/>
        <path d="M289.6 65.8C295.9 46.4 326 51.8 322.4 72.8" stroke="#002460" stroke-width="0.5" stroke-miterlimit="10" stroke-linecap="round" stroke-linejoin="round"/>
        <path d="M312.1 68.9C303.5 67.5 295 66.1 286.3 65.1C278.3 64.1 270 63.5 262.2 65.8C261.4 66.1 260.4 66.5 260.3 67.3C260.1 68.2 261 69 261.8 69.5C266.3 72.3 271.5 73.3 276.7 74.4C280.8 75.2 285 76.1 289.2 76.2" fill="#F2F6FC"/>
        <path d="M312.1 68.9C303.5 67.5 295 66.1 286.3 65.1C278.3 64.1 270 63.5 262.2 65.8C261.4 66.1 260.4 66.5 260.3 67.3C260.1 68.2 261 69 261.8 69.5C266.3 72.3 271.5 73.3 276.7 74.4C280.8 75.2 285 76.1 289.2 76.2" stroke="#002460" stroke-width="0.5" stroke-miterlimit="10" stroke-linecap="round" stroke-linejoin="round"/>
        <path d="M265.3 178.7C262.3 178.8 264 182 266.1 182.5C270.9 183.6 274.2 178.2 267.8 178.4" fill="white"/>
        <path d="M265.3 178.7C262.3 178.8 264 182 266.1 182.5C270.9 183.6 274.2 178.2 267.8 178.4" stroke="#002460" stroke-width="0.5" stroke-miterlimit="10" stroke-linecap="round" stroke-linejoin="round"/>
        <path d="M263.6 174.5C260.6 175.4 261.9 179.3 264.6 179.9C267.7 180.6 274.2 177.9 271.8 173.8C268.9 172 267.6 174.3 263.6 174.5Z" fill="white" stroke="#002460" stroke-width="0.5" stroke-miterlimit="10" stroke-linecap="round" stroke-linejoin="round"/>
        <path d="M267.1 170.7C275.4 168.1 273.4 175.6 266.6 176.3C260.3 176.9 261.7 168.6 266.8 168.2" fill="white"/>
        <path d="M267.1 170.7C275.4 168.1 273.4 175.6 266.6 176.3C260.3 176.9 261.7 168.6 266.8 168.2" stroke="#002460" stroke-width="0.5" stroke-miterlimit="10" stroke-linecap="round" stroke-linejoin="round"/>
        <path d="M288.6 70.7C294.9 64.2 313.3 69.5 322 70.5C322.5 70.6 323 70.5 323.3 70.1C326.6 67.1 331.7 62.1 331.9 70.2C339.1 67.9 343.7 74.6 336.6 78.9C341.2 83.4 336.7 88 331.4 86C331.4 95.3 321.5 92.6 317.4 87.7C310.3 87 287.7 79 288.6 70.7Z" fill="#002460" stroke="#002460" stroke-width="0.5" stroke-miterlimit="10" stroke-linecap="round" stroke-linejoin="round"/>
        <path d="M288.6 70.7C289.6 78.8 286.1 93.4 294.9 96.8C299.8 98.7 310.6 97.9 310.6 97.9C310.6 97.9 310.8 108.1 310.8 108.5C311 113.1 319 112.5 319.4 108.9L321.2 87.2C328.7 87.4 330.1 75.7 321.6 81.5C321.3 80.5 321.4 79 321.6 78C318.7 79.1 315.2 76.8 315.2 73.7C311.1 77.3 304.2 76.6 301 72.2C297.3 75.6 291.5 74.5 288.6 70.7Z" fill="white" stroke="#002460" stroke-width="0.5" stroke-miterlimit="10" stroke-linecap="round" stroke-linejoin="round"/>
        <path d="M291.5 79.8L291.6 88.6L296.5 88.3" stroke="#002460" stroke-width="0.5" stroke-miterlimit="10" stroke-linecap="round" stroke-linejoin="round"/>
        <path d="M294.3 88.5L296.5 88.3L295.2 91.7L294.3 88.5Z" fill="#002460" stroke="#002460" stroke-width="0.5" stroke-miterlimit="10" stroke-linecap="round" stroke-linejoin="round"/>
        <path d="M310.6 98L315.1 97.7L310.7 103.4L310.6 98Z" fill="#002460" stroke="#002460" stroke-width="0.5" stroke-miterlimit="10" stroke-linecap="round" stroke-linejoin="round"/>
        <path d="M354.4 244.6L359.8 176.8C341.5 173.8 362.3 124.7 369.4 115.3C381.1 99.7 401.4 94.9 418.6 103.3C434.9 111.2 448.2 176.7 427.3 177L426.2 244.5V244.4" fill="white"/>
        <path d="M354.4 244.6L359.8 176.8C341.5 173.8 362.3 124.7 369.4 115.3C381.1 99.7 401.4 94.9 418.6 103.3C434.9 111.2 448.2 176.7 427.3 177L426.2 244.5V244.4" stroke="#002460" stroke-width="0.5" stroke-miterlimit="10" stroke-linecap="round" stroke-linejoin="round"/>
        <path d="M368.6 131.7C365.4 144.4 361.3 163.9 359.8 176.9" stroke="#002460" stroke-width="0.5" stroke-miterlimit="10" stroke-linecap="round" stroke-linejoin="round"/>
        <path d="M409.5 120.5C409.4 114.3 409.3 105.6 413.7 101C415.1 101.1 416.4 101.8 417.6 102.4C416.1 108.7 417.2 115.4 417 121.7C415 123.2 410.3 123.5 409.5 120.5Z" fill="#2F6DD5" stroke="#2F6DD5" stroke-width="0.5" stroke-miterlimit="10" stroke-linecap="round" stroke-linejoin="round"/>
        <path d="M409.4 116.6C406.8 116.9 406.8 119.6 407.7 121.7C408.2 122.8 407.4 124.1 407.4 125.4C407.5 126.7 408.5 127.9 408.8 129.2C409.5 132.2 409.8 135.5 412.2 137.7C415.8 136.1 421.3 133 420.9 128.5C420.7 126.1 418.6 123.9 419.2 121.4C419.4 120 422.3 117.7 420.1 117C417.3 116 415.4 123.4 409.7 120.5" fill="white"/>
        <path d="M409.4 116.6C406.8 116.9 406.8 119.6 407.7 121.7C408.2 122.8 407.4 124.1 407.4 125.4C407.5 126.7 408.5 127.9 408.8 129.2C409.5 132.2 409.8 135.5 412.2 137.7C415.8 136.1 421.3 133 420.9 128.5C420.7 126.1 418.6 123.9 419.2 121.4C419.4 120 422.3 117.7 420.1 117C417.3 116 415.4 123.4 409.7 120.5" stroke="#002460" stroke-width="0.5" stroke-miterlimit="10" stroke-linecap="round" stroke-linejoin="round"/>
        <path d="M373.5 60.3C377.2 42.1 407.9 45.9 406.8 64.7L373.5 60.3Z" fill="white"/>
        <path d="M373.5 60.3C377.2 42.1 407.9 45.9 406.8 64.7" stroke="#002460" stroke-width="0.5" stroke-miterlimit="10" stroke-linecap="round" stroke-linejoin="round"/>
        <path d="M413.6 136.9C411.9 138.5 410.3 140 408.6 141.6C408.4 154 402.4 199.2 426.1 186.9C428 170 424.6 150.3 413.6 136.9Z" fill="#F2F6FC"/>
        <path d="M354.4 324V244.6L426.2 244.5V323.7" fill="#002460"/>
        <path d="M354.4 324V244.6L426.2 244.5V323.7" stroke="#002460" stroke-width="0.5" stroke-miterlimit="10" stroke-linecap="round" stroke-linejoin="round"/>
        <path d="M393.2 73.5C387.7 73.2 342.4 69.3 347.8 63.3C355.9 54.2 418.9 58.2 429.2 64.8C431.5 66.3 430.7 68.9 428.6 70.1C418 76.3 405.1 74.2 393.2 73.5Z" fill="#F2F6FC" stroke="#002460" stroke-width="0.5" stroke-miterlimit="10" stroke-linecap="round" stroke-linejoin="round"/>
        <path d="M427.2 177C419 177 410.3 137.3 410.3 137.3L421.4 128.3C424.3 136.5 427.2 145.7 429.6 154" fill="white"/>
        <path d="M427.2 177C419 177 410.3 137.3 410.3 137.3L421.4 128.3C424.3 136.5 427.2 145.7 429.6 154" stroke="#002460" stroke-width="0.5" stroke-miterlimit="10" stroke-linecap="round" stroke-linejoin="round"/>
        <path d="M372 66.9C367.3 91.1 371.1 92.9 394.7 93.1C394.7 95.5 394.2 97.9 394.5 100.3C395.2 104 400.4 104.6 402.2 101.4C403.4 95.1 405 82.3 405 82.3C411.1 83.5 413.2 74.6 405.6 76L406.4 67.2C395.2 63.2 382.9 62.7 372 66.9Z" fill="white" stroke="#002460" stroke-width="0.5" stroke-miterlimit="10" stroke-linecap="round" stroke-linejoin="round"/>
        <path d="M375.4 70.1L374.7 79.9L378.8 79.1" fill="white"/>
        <path d="M375.4 70.1L374.7 79.9L378.8 79.1" stroke="#002460" stroke-width="0.5" stroke-miterlimit="10" stroke-linecap="round" stroke-linejoin="round"/>
        <path d="M377 79.5L378.8 79.1L378.1 81.5L377 79.5Z" fill="#002460" stroke="#002460" stroke-width="0.5" stroke-miterlimit="10" stroke-linecap="round" stroke-linejoin="round"/>
        <path d="M394.6 93.1L398.9 93L394.3 98.1L394.6 93.1Z" fill="#002460" stroke="#002460" stroke-width="0.5" stroke-miterlimit="10" stroke-linecap="round" stroke-linejoin="round"/>
        <path d="M372 66.9C375.9 69.3 380.5 64 384.3 65.6C388 67.2 391.3 67.4 395 66.6C397.6 66 398.4 68.6 400.3 70C402 71.4 405.4 72.1 404.3 74C403.1 76.2 404.2 76.4 405.5 76C405.5 73.2 406.6 69.6 405.8 67.1C395.1 63 382.9 62.9 372 66.9Z" fill="#002460" stroke="#002460" stroke-width="0.5" stroke-miterlimit="10" stroke-linecap="round" stroke-linejoin="round"/>
        <path d="M368.6 128.6C371.5 118.5 375.6 112.5 384.7 102.3C379.4 102.7 356 122.4 368.6 128.6Z" fill="#2F6DD5" stroke="#2F6DD5" stroke-width="0.5" stroke-miterlimit="10" stroke-linecap="round" stroke-linejoin="round"/>
        <path d="M370.2 133.7C358.5 143.7 356.2 130.3 361.2 121.3C361 113.3 364.6 118.7 364.7 123.2C366.6 121.8 377.9 115.3 373.8 121.8C373.3 124.1 373.4 126.4 371.9 128.4C371.4 130.2 371.9 132.2 370.2 133.7Z" fill="white" stroke="#002460" stroke-width="0.5" stroke-miterlimit="10" stroke-linecap="round" stroke-linejoin="round"/>
        <path d="M358.8 136.9C358.8 140.2 363.7 141.6 366.5 140.6L358.8 136.9Z" fill="white"/>
        <path d="M358.8 136.9C358.8 140.2 363.7 141.6 366.5 140.6" stroke="#002460" stroke-width="0.5" stroke-miterlimit="10" stroke-linecap="round" stroke-linejoin="round"/>
        <path d="M411.2 140.9L422.8 132.3" stroke="#002460" stroke-width="0.5" stroke-miterlimit="10" stroke-linecap="round" stroke-linejoin="round"/>
        <path d="M166.6 141.8C167.3 151.7 167.9 160.9 168.6 171.4C168.9 176.4 169.4 201.2 174 203.6C181.7 207.5 175.3 142.3 166.6 141.8Z" fill="#F2F6FC"/>
        <path d="M337.8 233.7H269.1V243H337.8V233.7Z" fill="white" stroke="#002460" stroke-width="0.5" stroke-miterlimit="10" stroke-linecap="round" stroke-linejoin="round"/>
        <path d="M205.3 246.2L203.2 324.2" stroke="white" stroke-width="0.5" stroke-miterlimit="10" stroke-linecap="round" stroke-linejoin="round"/>
        <path d="M379.9 260.3L377.8 323.8" stroke="white" stroke-width="0.5" stroke-miterlimit="10" stroke-linecap="round" stroke-linejoin="round"/>
        <path d="M286.2 265.3L283.9 324.2" stroke="#002460" stroke-width="0.5" stroke-miterlimit="10" stroke-linecap="round" stroke-linejoin="round"/>
    </g>
    <defs>
        <clipPath id="clip0_22548_8607">
            <rect width="570" height="324" fill="white"/>
        </clipPath>
    </defs>
</svg>
