<svg width="570" height="325" viewBox="0 0 570 325" fill="none" xmlns="http://www.w3.org/2000/svg">
<path opacity="0.9884" d="M128.8 72.2H443.3C464.7 72.2 482.1 89.5 482.1 111V212.7C482.1 234.1 464.8 251.5 443.3 251.5H128.8C107.4 251.5 90 234.2 90 212.7V110.9C90 89.5 107.4 72.2 128.8 72.2Z" fill="#D9E4F7"/>
<path d="M108.4 323.1C100.5 314.1 106.6 304.5 109.6 295.3C107.6 282.7 104.8 276.8 113.2 265.3C112.2 245 121.1 246.6 123.1 226.8C125.3 205.2 153 191.2 171 205.5C178.8 211.8 181 222 184 231.1C190 233.3 195.2 236.9 198.1 243.4C202.2 252.5 191.5 266.4 204.2 268.4" stroke="#598BDE" stroke-width="0.5" stroke-miterlimit="10" stroke-linecap="round" stroke-linejoin="round"/>
<path d="M136.9 323.8C132.1 313.2 135.6 296.9 144.1 289.2C150.8 283.1 161.5 285.7 170.3 283.8C187.5 280 201.2 264.7 220.2 265.8C246.5 267.3 243.7 284.2 254.7 301.7C259.8 309.8 273.4 313.2 273.9 324" stroke="#598BDE" stroke-width="0.5" stroke-miterlimit="10" stroke-linecap="round" stroke-linejoin="round"/>
<path d="M112.7 266.2C98.0996 257.6 87.5996 243.2 81.3996 227.5C75.1996 211.8 73.0996 194.7 72.5996 177.8C83.2996 182.5 91.6996 191.3 98.7996 200.6C107.8 212.4 115.2 225.4 120.2 239.4" stroke="#598BDE" stroke-width="0.5" stroke-miterlimit="10" stroke-linecap="round" stroke-linejoin="round"/>
<path d="M79.8 223.2C72.8 217.5 64.4 213.5 55.5 211.8C57.1 226 63.3 239.5 72.9 250.2C82.4 260.8 95.2 268.4 109 272" stroke="#598BDE" stroke-width="0.5" stroke-miterlimit="10" stroke-linecap="round" stroke-linejoin="round"/>
<path d="M92.4996 265.9C86.6996 266.1 80.8996 267.5 75.5996 270C77.1996 272.1 79.6996 273.3 82.0996 274.3C89.9996 277.7 98.4996 280.2 107.1 279.7" stroke="#598BDE" stroke-width="0.5" stroke-miterlimit="10" stroke-linecap="round" stroke-linejoin="round"/>
<path d="M107.199 212.7C107.799 192.2 112.999 171.9 122.099 153.5C122.999 156.9 123.899 160.3 124.799 163.7C125.799 167.6 126.799 171.6 127.699 175.6C128.899 181.4 129.599 187.4 130.099 193.3C130.599 199 130.999 204.5 130.899 210.3" stroke="#598BDE" stroke-width="0.5" stroke-miterlimit="10" stroke-linecap="round" stroke-linejoin="round"/>
<path d="M130.5 198.6C132.4 193.5 135.1 188.8 138.5 184.6C139 191.5 138.9 197.9 137.7 204.6" stroke="#598BDE" stroke-width="0.5" stroke-miterlimit="10" stroke-linecap="round" stroke-linejoin="round"/>
<path d="M198.1 242.3C206.9 226.7 220.2 213.6 235.9 205C229.8 228.1 220.8 247.8 207.2 267.4" stroke="#598BDE" stroke-width="0.5" stroke-miterlimit="10" stroke-linecap="round" stroke-linejoin="round"/>
<path d="M190.9 234.6C191.4 224.5 193.8 214.5 197.8 205.3C201.6 214.8 203.2 225.3 202.3 235.5" stroke="#598BDE" stroke-width="0.5" stroke-miterlimit="10" stroke-linecap="round" stroke-linejoin="round"/>
<path d="M214.699 255.8C224.899 248.3 236.799 243.2 249.299 240.8C240.499 251.2 233.599 258.3 222.399 265.9" stroke="#598BDE" stroke-width="0.5" stroke-miterlimit="10" stroke-linecap="round" stroke-linejoin="round"/>
<path d="M202.301 225.6C204.301 220.3 207.501 215.5 211.501 211.6C211.101 216.9 210.101 222.2 208.601 227.4" stroke="#598BDE" stroke-width="0.5" stroke-miterlimit="10" stroke-linecap="round" stroke-linejoin="round"/>
<path d="M137.1 186.5L138.3 143.2L122 135.2L124 129.2L138.1 131.9L138.7 115.9L143.5 115.2L146.2 126L153 118.9L156 121.8L152 142.6L153 199.8" stroke="#598BDE" stroke-width="0.5" stroke-miterlimit="10" stroke-linecap="round" stroke-linejoin="round"/>
<path d="M137.9 148.7C132.6 155.8 123.3 149.3 119.6 143.6C106.2 149.1 90.8995 136.2 94.0995 122.1C72.1995 125.1 69.0995 96.7 87.4995 88.4C89.9995 81.1 87.9995 72.3 91.9995 65.2C104.7 43 112.9 64.8 131.2 46C139.1 37.9 150.9 39.1 159.5 45.3C173.5 44.1 196.4 45 196.1 63.6C196 69.4 191.9 74.9 193.4 80.5C195 86.2 201.6 88.9 204.5 94C209.9 104 201.1 114.8 191.7 118.4C196.9 130.6 183.1 143.5 171.3 137.5C171.6 144.7 162.8 149.5 156.9 145.4C156.3 147.7 154.3 149.5 152.1 148.8" stroke="#598BDE" stroke-width="0.5" stroke-miterlimit="10" stroke-linecap="round" stroke-linejoin="round"/>
<path d="M217 130.3H294C292.9 125.3 287.1 123.6 283.7 124.5C281.8 124.3 281.7 121.6 281.2 119.8C277.9 112.1 268 116.5 263.8 121.2C261.4 114.6 254.7 107.2 247.4 110.1C243.4 113.4 240.9 118.2 237.5 122.1C233.7 117.4 227.7 122.6 225.9 126.8C222.8 125.4 218.7 127.2 217 130.3Z" fill="white"/>
<path d="M396.901 102.7H468.001C465.501 101.5 462.601 99 460.101 98.6C459.601 89.8 451.601 88.2 445.901 94.2C442.001 65.9 420.801 82.4 412.501 98.6C411.501 94.3 406.101 94.3 403.601 97.3C401.001 98.6 396.401 98.4 396.901 102.7Z" fill="white"/>
<path d="M313.301 68.1C308.001 69 292.402 72.1 296.702 62.6C299.802 55.6 316.202 49.9 326.702 45.6C337.802 41 355.002 35.5 361.602 50.1C365.802 59.4 368.602 79.8 356.102 81.4" fill="white"/>
<path d="M313.301 68.1C308.001 69 292.402 72.1 296.702 62.6C299.802 55.6 316.202 49.9 326.702 45.6C337.802 41 355.002 35.5 361.602 50.1C365.802 59.4 368.602 79.8 356.102 81.4" stroke="#002460" stroke-width="0.5" stroke-miterlimit="10" stroke-linecap="round" stroke-linejoin="round"/>
<path d="M471.001 168.4L468.401 171.7L437.201 165.8L432.701 162L445.901 156L471.001 168.4Z" fill="white"/>
<path d="M483.401 168.2C496.401 168.2 476.101 156.5 461.201 156.5C462.001 152.8 469.501 154.1 469.601 152.2C468.001 143.2 434.201 155.5 432.801 162.4" fill="white"/>
<path d="M483.401 168.2C496.401 168.2 476.101 156.5 461.201 156.5C462.001 152.8 469.501 154.1 469.601 152.2C468.001 143.2 434.201 155.5 432.801 162.4" stroke="#002460" stroke-width="0.5" stroke-miterlimit="10" stroke-linecap="round" stroke-linejoin="round"/>
<path d="M479.102 171.2C490.902 170.1 476.202 162.3 466.002 161.5L479.102 171.2Z" fill="white"/>
<path d="M479.102 171.2C490.902 170.1 476.202 162.3 466.002 161.5" stroke="#002460" stroke-width="0.5" stroke-miterlimit="10" stroke-linecap="round" stroke-linejoin="round"/>
<path d="M472.9 172.7C472.9 172.7 476.7 173.8 478.9 172C481.6 169.9 468.9 164.8 461.9 164.3" fill="white"/>
<path d="M472.9 172.7C472.9 172.7 476.7 173.8 478.9 172C481.6 169.9 468.9 164.8 461.9 164.3" stroke="#002460" stroke-width="0.5" stroke-miterlimit="10" stroke-linecap="round" stroke-linejoin="round"/>
<path d="M432.9 162.4L443.9 171.4C453.5 170.1 468.8 178.1 473.2 173.7C475.8 171.1 462.3 167.7 457.8 167.3" fill="white"/>
<path d="M432.9 162.4L443.9 171.4C453.5 170.1 468.8 178.1 473.2 173.7C475.8 171.1 462.3 167.7 457.8 167.3" stroke="#002460" stroke-width="0.5" stroke-miterlimit="10" stroke-linecap="round" stroke-linejoin="round"/>
<path d="M292.2 324V232.3C272.2 228.8 259.4 209.8 250.5 193.3L266.3 180.4C274.8 191.7 281.8 200.2 287 207.2C283.6 165.5 289.2 119 344.1 116.6C414.6 113.5 402.8 202.2 402.8 202.2C411.4 194.8 430.5 160.4 430.5 160.4L444.9 172.5C439 199.6 420.5 220.9 394.8 232.7V324" fill="white"/>
<path d="M292.2 324V232.3C272.2 228.8 259.4 209.8 250.5 193.3L266.3 180.4C274.8 191.7 281.8 200.2 287 207.2C283.6 165.5 289.2 119 344.1 116.6C414.6 113.5 402.8 202.2 402.8 202.2C411.4 194.8 430.5 160.4 430.5 160.4L444.9 172.5C439 199.6 420.5 220.9 394.8 232.7V324" stroke="#002460" stroke-width="0.5" stroke-miterlimit="10" stroke-linecap="round" stroke-linejoin="round"/>
<path d="M314.101 59.4C314.001 71.7 306.601 97.5 317.801 104.2C324.501 108.2 333.601 106.2 341.301 105.4C341.501 109.3 341.701 113.1 342.001 116.9C344.701 121.6 352.401 122.3 354.001 116.8C353.401 107.7 353.301 97.9 353.101 88.9C353.001 88.3 353.301 87.9 353.901 87.8C361.301 85.2 361.901 72.3 352.401 80.1C351.301 74.4 353.901 62.5 350.401 58.7C339.101 54.3 325.601 55.6 314.101 59.4Z" fill="white" stroke="#002460" stroke-width="0.5" stroke-miterlimit="10" stroke-linecap="round" stroke-linejoin="round"/>
<path d="M318.801 71.1L319.301 83.6L328.701 81.4" stroke="#002460" stroke-width="0.5" stroke-miterlimit="10" stroke-linecap="round" stroke-linejoin="round"/>
<path d="M226.801 187.6L229.501 190.9L260.601 184.9L265.101 181.2L251.901 175.1L226.801 187.6Z" fill="white"/>
<path d="M214.401 187.3C201.401 187.3 221.701 175.6 236.601 175.6C235.801 171.9 228.301 173.2 228.201 171.3C229.801 162.3 263.601 174.6 265.001 181.5" fill="white"/>
<path d="M214.401 187.3C201.401 187.3 221.701 175.6 236.601 175.6C235.801 171.9 228.301 173.2 228.201 171.3C229.801 162.3 263.601 174.6 265.001 181.5" stroke="#002460" stroke-width="0.5" stroke-miterlimit="10" stroke-linecap="round" stroke-linejoin="round"/>
<path d="M218.701 190.4C206.901 189.3 221.601 181.5 231.801 180.7L218.701 190.4Z" fill="white"/>
<path d="M218.701 190.4C206.901 189.3 221.601 181.5 231.801 180.7" stroke="#002460" stroke-width="0.5" stroke-miterlimit="10" stroke-linecap="round" stroke-linejoin="round"/>
<path d="M225 191.8C225 191.8 221.2 192.9 219 191.1C216.3 189 229 183.9 236 183.4" fill="white"/>
<path d="M225 191.8C225 191.8 221.2 192.9 219 191.1C216.3 189 229 183.9 236 183.4" stroke="#002460" stroke-width="0.5" stroke-miterlimit="10" stroke-linecap="round" stroke-linejoin="round"/>
<path d="M265.001 181.5L254.001 190.5C244.401 189.2 229.101 197.2 224.701 192.8C222.101 190.2 235.601 186.8 240.101 186.4" fill="white"/>
<path d="M265.001 181.5L254.001 190.5C244.401 189.2 229.101 197.2 224.701 192.8C222.101 190.2 235.601 186.8 240.101 186.4" stroke="#002460" stroke-width="0.5" stroke-miterlimit="10" stroke-linecap="round" stroke-linejoin="round"/>
<path d="M324.701 82.4L328.701 81.4L327.801 87.2L324.701 82.4Z" fill="#002460" stroke="#002460" stroke-width="0.5" stroke-miterlimit="10" stroke-linecap="round" stroke-linejoin="round"/>
<path d="M341.301 105.3L347.201 104.6L341.601 109.9L341.301 105.3Z" fill="#002460" stroke="#002460" stroke-width="0.5" stroke-miterlimit="10" stroke-linecap="round" stroke-linejoin="round"/>
<path d="M319 58.2C320.9 62.5 324.1 58.4 326.8 59.5C333.8 62.2 332.9 58.5 337.3 61.2C339.3 62.4 337.4 66.1 339 67.8C341.4 70.2 347.2 67.5 348.3 72.3C349.1 75.7 346.4 82.1 349 82.9C353.7 84.4 352.2 77.5 352.7 71.8C352.6 67.5 353.1 62.4 350.5 58.8C340.6 55.3 329.4 55.5 319.4 58.1C319.4 58 319.4 58 319 58.2Z" fill="#002460" stroke="#002460" stroke-width="0.5" stroke-miterlimit="10" stroke-linecap="round" stroke-linejoin="round"/>
<path d="M313.501 66.4C291.801 70.9 299.901 63.3 314.201 59.4L313.501 66.4Z" fill="#F2F6FC"/>
<path d="M313.501 66.4C291.801 70.9 299.901 63.3 314.201 59.4" stroke="#002460" stroke-width="0.5" stroke-miterlimit="10" stroke-linecap="round" stroke-linejoin="round"/>
<path d="M395.001 270.1H292.201V324H395.001V270.1Z" fill="#002460" stroke="#002460" stroke-width="0.5" stroke-miterlimit="10" stroke-linecap="round" stroke-linejoin="round"/>
<path d="M395.001 261.1H292.201V270.1H395.001V261.1Z" fill="white" stroke="#002460" stroke-width="0.5" stroke-miterlimit="10" stroke-linecap="round" stroke-linejoin="round"/>
<path d="M297.701 261.1V270.8" stroke="#002460" stroke-width="0.5" stroke-miterlimit="10" stroke-linecap="round" stroke-linejoin="round"/>
<path d="M305.102 261.1V270.8" stroke="#002460" stroke-width="0.5" stroke-miterlimit="10" stroke-linecap="round" stroke-linejoin="round"/>
<path d="M314.602 261.1V270.8" stroke="#002460" stroke-width="0.5" stroke-miterlimit="10" stroke-linecap="round" stroke-linejoin="round"/>
<path d="M324.301 261.1V270.8" stroke="#002460" stroke-width="0.5" stroke-miterlimit="10" stroke-linecap="round" stroke-linejoin="round"/>
<path d="M333.301 261.1V270.8" stroke="#002460" stroke-width="0.5" stroke-miterlimit="10" stroke-linecap="round" stroke-linejoin="round"/>
<path d="M341.701 261.1V270.8" stroke="#002460" stroke-width="0.5" stroke-miterlimit="10" stroke-linecap="round" stroke-linejoin="round"/>
<path d="M351.602 261.1V270.8" stroke="#002460" stroke-width="0.5" stroke-miterlimit="10" stroke-linecap="round" stroke-linejoin="round"/>
<path d="M358.4 261.1V270.8" stroke="#002460" stroke-width="0.5" stroke-miterlimit="10" stroke-linecap="round" stroke-linejoin="round"/>
<path d="M367.201 261.1V270.8" stroke="#002460" stroke-width="0.5" stroke-miterlimit="10" stroke-linecap="round" stroke-linejoin="round"/>
<path d="M373.5 261.1V270.8" stroke="#002460" stroke-width="0.5" stroke-miterlimit="10" stroke-linecap="round" stroke-linejoin="round"/>
<path d="M380.5 261.1V270.8" stroke="#002460" stroke-width="0.5" stroke-miterlimit="10" stroke-linecap="round" stroke-linejoin="round"/>
<path d="M387.9 261.1V270.8" stroke="#002460" stroke-width="0.5" stroke-miterlimit="10" stroke-linecap="round" stroke-linejoin="round"/>
<path d="M254.002 199.4L270.502 185.6" stroke="#002460" stroke-width="0.5" stroke-miterlimit="10" stroke-linecap="round" stroke-linejoin="round"/>
<path d="M252.201 191.9L256.301 197.3" stroke="#002460" stroke-width="0.5" stroke-miterlimit="10" stroke-linecap="round" stroke-linejoin="round"/>
<path d="M255.602 189.2L259.702 194.6" stroke="#002460" stroke-width="0.5" stroke-miterlimit="10" stroke-linecap="round" stroke-linejoin="round"/>
<path d="M258.9 186.5L263 191.9" stroke="#002460" stroke-width="0.5" stroke-miterlimit="10" stroke-linecap="round" stroke-linejoin="round"/>
<path d="M262.201 183.8L266.201 189.2" stroke="#002460" stroke-width="0.5" stroke-miterlimit="10" stroke-linecap="round" stroke-linejoin="round"/>
<path d="M426.801 167.2L442.901 180" stroke="#002460" stroke-width="0.5" stroke-miterlimit="10" stroke-linecap="round" stroke-linejoin="round"/>
<path d="M433.302 162.5L429.602 169.4" stroke="#002460" stroke-width="0.5" stroke-miterlimit="10" stroke-linecap="round" stroke-linejoin="round"/>
<path d="M436.5 165.4L432.9 172" stroke="#002460" stroke-width="0.5" stroke-miterlimit="10" stroke-linecap="round" stroke-linejoin="round"/>
<path d="M440.301 168.3L436.801 174.8" stroke="#002460" stroke-width="0.5" stroke-miterlimit="10" stroke-linecap="round" stroke-linejoin="round"/>
<path d="M443.601 171.1L440.301 177.8" stroke="#002460" stroke-width="0.5" stroke-miterlimit="10" stroke-linecap="round" stroke-linejoin="round"/>
<path d="M333.9 117.8C337.6 134.7 358.1 133.2 363.6 118.5" stroke="#002460" stroke-width="0.5" stroke-miterlimit="10" stroke-linecap="round" stroke-linejoin="round"/>
<path d="M348.901 120.8L348.801 129.9" stroke="#002460" stroke-width="0.5" stroke-miterlimit="10" stroke-linecap="round" stroke-linejoin="round"/>
<path d="M344.901 120L341.801 128.6" stroke="#002460" stroke-width="0.5" stroke-miterlimit="10" stroke-linecap="round" stroke-linejoin="round"/>
<path d="M343.001 118.2L336.301 123.7" stroke="#002460" stroke-width="0.5" stroke-miterlimit="10" stroke-linecap="round" stroke-linejoin="round"/>
<path d="M353.602 117.8L361.602 122.3" stroke="#002460" stroke-width="0.5" stroke-miterlimit="10" stroke-linecap="round" stroke-linejoin="round"/>
<path d="M351.9 119.7L357.3 126.8" stroke="#002460" stroke-width="0.5" stroke-miterlimit="10" stroke-linecap="round" stroke-linejoin="round"/>
<path d="M292.101 231.2C267.801 223.1 256.401 198.1 291.901 218.1C291.801 218.1 291.801 218 291.701 218" fill="#F2F6FC"/>
<path d="M292.201 232.3C291.201 208.6 292.201 184.8 295.501 161.3" stroke="#002460" stroke-width="0.5" stroke-miterlimit="10" stroke-linecap="round" stroke-linejoin="round"/>
<path d="M395.302 219.8C404.402 216.5 410.802 201.2 420.402 205.2C429.902 209.2 399.802 227.3 395.102 231.2" fill="#F2F6FC"/>
<path d="M395 232.6C395 207.7 396.3 182.6 390.4 158.2" stroke="#002460" stroke-width="0.5" stroke-miterlimit="10" stroke-linecap="round" stroke-linejoin="round"/>
<path d="M334.101 289.6L333.801 324.4" stroke="white" stroke-width="0.5" stroke-miterlimit="10" stroke-linecap="round" stroke-linejoin="round"/>
</svg>
