<?xml version="1.0" encoding="UTF-8" standalone="no"?>
<svg
   fill="none"
   viewBox="0 0 412.452 288.41902"
   version="1.1"
   id="svg171"
   sodipodi:docname="bg-inps-sostegni.svg"
   inkscape:version="1.1.2 (b8e25be833, 2022-02-05)"
   xmlns:inkscape="http://www.inkscape.org/namespaces/inkscape"
   xmlns:sodipodi="http://sodipodi.sourceforge.net/DTD/sodipodi-0.dtd"
   xmlns="http://www.w3.org/2000/svg"
   xmlns:svg="http://www.w3.org/2000/svg">
  <sodipodi:namedview
     id="namedview173"
     pagecolor="#ffffff"
     bordercolor="#666666"
     borderopacity="1.0"
     inkscape:pageshadow="2"
     inkscape:pageopacity="0.0"
     inkscape:pagecheckerboard="0"
     showgrid="false"
     inkscape:zoom="2.0982456"
     inkscape:cx="285"
     inkscape:cy="162.04013"
     inkscape:window-width="3440"
     inkscape:window-height="1369"
     inkscape:window-x="-8"
     inkscape:window-y="-8"
     inkscape:window-maximized="1"
     inkscape:current-layer="svg171" />
  <g
     clip-path="url(#clip0_104_870)"
     id="g164"
     transform="translate(-88.7,-35.581431)">
    <path
       d="m 127.7,70.6 h 314.5 c 21.4,0 38.8,17.3 38.8,38.8 v 101.7 c 0,21.4 -17.3,42.3 -38.8,42.3 H 127.7 c -21.4,0 -38.8001,-20.9 -38.8001,-42.3 V 109.4 C 88.9999,88 106.3,70.6 127.7,70.6 Z"
       fill="#d9e4f7"
       id="path2" />
    <path
       d="m 417.1,253.4 v -15.1 h 15.4 v -15.4 h 15.6 v -15.4 h 15.5 V 192.2 H 481"
       stroke="#598bde"
       stroke-width="0.5"
       stroke-miterlimit="10"
       stroke-linecap="round"
       stroke-linejoin="round"
       id="path4" />
    <path
       d="m 297.4,158.2 h 2.9 v 43.5 h 43.5 v 43.5 h 43.5 v 8.2"
       stroke="#598bde"
       stroke-miterlimit="10"
       stroke-linecap="round"
       stroke-linejoin="round"
       id="path6" />
    <path
       d="m 135.5,164 c -3.1,1.2 -5.5,6.4 -9,5.8 -5.8,-0.7 -9.8,0.3 -16,2.4 -4.6,2.2 5.4,1.8 5.4,1.8 h 19.7"
       fill="#fffeff"
       id="path8" />
    <path
       d="M 227.7,240.3 H 274 c -2.6,-5.8 -10.6,-8.4 -16.7,-4.4 -10.6,0.4 -13.2,-13.6 -24.3,-12.6 -1.9,0.1 -3.6,0.5 -5.3,1.2"
       fill="#fffeff"
       id="path10" />
    <path
       d="m 455.3,216.7 c -2.6,-5.8 -9.7,-4.7 -16.7,-4.4 -10.6,0.5 -3.7,-13.9 -19.2,-11.1 -6.5,1.2 -16.2,8.2 -16.2,8.2 0,0 1.5,-9.3 -5.3,-5.6 -10.5,5.6 -19.4,6.2 -26.2,6.3 -3.7,0.1 -14,2.9 -13.2,6.4 h 96.8 z"
       fill="#fffeff"
       id="path12" />
    <path
       d="m 89,208.3 h 15.5 v -15.5 h 15.4 v -15.4 h 15.6 V 162 H 151 v -15.4 h 21.9"
       stroke="#598bde"
       stroke-width="0.5"
       stroke-miterlimit="10"
       stroke-linecap="round"
       stroke-linejoin="round"
       id="path14" />
    <path
       opacity="0.9884"
       d="m 436.8,153.1 h 64 c 0,0 3.1,-8.6 -9.1,-5 -10.9,1 1.1,-12 -13.6,-5.3 -10.4,4.7 -22.3,-4.6 -27.4,2 -5.2,6.6 -17.6,4.9 -13.9,8.3 z"
       fill="#fffeff"
       id="path16" />
    <path
       opacity="0.9884"
       d="m 276.9,105 h 52.4 c 0,0 -3.6,-5.7 -7.5,-5.7 -8.9,1.1 -3.6,-5.2 -11.1,-1.5 -8.7,4.3 -6.6,-5 -8.8,-5.3 -4.5,-0.7 -5.3,2.7 -12.5,5.3 -6.2,2.3 -15.6,3.4 -12.5,7.2 z"
       fill="#fffeff"
       id="path18" />
    <path
       d="m 88.7,108.8 c 6.3,-2.5 4.9,5.8 5.7,6.1 6.6,-1.8 14,-2.9 14.2,2.2 19.5,2.9 22.2,0.9 21.8,6.2 H 88.7 Z"
       fill="#fffeff"
       id="path20" />
    <path
       d="m 418,161.2 -6.6,-21.9 c -0.6,-1.9 0.5,-3.9 2.4,-4.4 l 36.8,-11 c 1.9,-0.6 3.9,0.5 4.4,2.4 l 6.6,21.9 c 0.6,1.9 -0.5,3.9 -2.4,4.4 l -36.8,11 c -1.8,0.6 -3.8,-0.5 -4.4,-2.4 z"
       fill="#ff3b29"
       id="path22" />
    <path
       d="m 438.6,120.2 c 4.4,-0.8 7.4,12.4 1.5,8.3 -0.9,-5 -2.4,-3.5 -3.3,-4.6 -2.1,-2.4 -4.2,-2.6 1.8,-3.7 z"
       fill="#ff3b29"
       id="path24" />
    <path
       d="m 287.6,57 c 1.8,5.5 4.3,5.7 4.3,5.7 10.7,42.5 47.8,30.8 47.8,30.8 l 8.5,45.2 c 8.2,-1.1 16.3,-2.2 24.5,-3.4 9.8,-1.3 29,-4.3 29,-4.3 l -1.2,-43.2 c 0,0 11.5,-4.3 15.9,1.4 6.6,8.6 8.6,18.4 9.7,25.1 0.1,0.5 0.2,1 0,1.5 -0.2,0.5 -1.8,1.2 -2.6,4.7 -0.3,1.4 -0.1,4.1 1,5.1 l 0.5,4.6 c 0.5,0.3 4.8,0 7.9,-0.5 1.8,-0.3 5.6,-5.7 5.8,-6.3 0.4,-1.7 -0.7,-5.3 -1.6,-6.8 -3.1,-5.4 -1.6,-11.1 -2.5,-17.3 -0.7,-4.8 -5.1,-36.8 -60.8,-32.3 l -6.8,0.7 c -10.1,0 -26.2,5.1 -35.7,8.4 -5.4,1.9 -19,9.7 -31.8,-17.9"
       fill="#fffeff"
       id="path26" />
    <path
       d="m 287.6,57 c 1.8,5.5 4.3,5.7 4.3,5.7 10.7,42.5 47.8,30.8 47.8,30.8 l 8.5,45.2 c 8.2,-1.1 16.3,-2.2 24.5,-3.4 9.8,-1.3 29,-4.3 29,-4.3 l -1.2,-43.2 c 0,0 11.5,-4.3 15.9,1.4 6.6,8.6 8.6,18.4 9.7,25.1 0.1,0.5 0.2,1 0,1.5 -0.2,0.5 -1.8,1.2 -2.6,4.7 -0.3,1.4 -0.1,4.1 1,5.1 l 0.5,4.6 c 0.5,0.3 4.8,0 7.9,-0.5 1.8,-0.3 5.6,-5.7 5.8,-6.3 0.4,-1.7 -0.7,-5.3 -1.6,-6.8 -3.1,-5.4 -1.6,-11.1 -2.5,-17.3 -0.7,-4.8 -5.1,-36.8 -60.8,-32.3 l -6.8,0.7 c -10.1,0 -26.2,5.1 -35.7,8.4 -5.4,1.9 -19,9.7 -31.8,-17.9"
       stroke="#002460"
       stroke-width="0.5"
       stroke-miterlimit="10"
       stroke-linecap="round"
       stroke-linejoin="round"
       id="path28" />
    <path
       d="m 401.8,131 c 2.5,26.8 -16.2,35.1 -20,50.9 -5.6,19.9 -0.9,43.1 0.9,63.3 H 349 c 0.5,-0.5 8.8,-6.5 8.8,-6.5 l -4.1,-45.9 c 2.3,-7.9 7.2,-23.8 10.3,-31.4 -11.7,0.3 -29.2,1.5 -29.2,1.5 l 0.8,38.2 H 303 c 2.6,-2 8.9,-5.7 8.9,-5.7 0.2,-13.3 -5.1,-48.6 3.6,-51.9 9.1,-3.4 24,-3 32.7,-2.8 0,-0.7 0.1,-1.5 0.1,-2.2"
       fill="#002460"
       id="path30" />
    <path
       d="m 401.8,131 c 2.5,26.8 -16.2,35.1 -20,50.9 -5.6,19.9 -0.9,43.1 0.9,63.3 H 349 c 0.5,-0.5 8.8,-6.5 8.8,-6.5 l -4.1,-45.9 c 2.3,-7.9 7.2,-23.8 10.3,-31.4 -11.7,0.3 -29.2,1.5 -29.2,1.5 l 0.8,38.2 H 303 c 2.6,-2 8.9,-5.7 8.9,-5.7 0.2,-13.3 -5.1,-48.6 3.6,-51.9 9.1,-3.4 24,-3 32.7,-2.8 0,-0.7 0.1,-1.5 0.1,-2.2"
       stroke="#002460"
       stroke-width="0.5"
       stroke-miterlimit="10"
       stroke-linecap="round"
       stroke-linejoin="round"
       id="path32" />
    <path
       d="m 428.2,122.6 c -8.2,1.4 -8,6.1 -5,13 4.8,1.8 3.8,-3.2 2.7,-5.7 -1.5,-4.6 3,-0.9 2.3,-7.3 z"
       fill="#ff3b29"
       id="path34" />
    <path
       d="m 339.8,93.6 -1,-5"
       stroke="#002460"
       stroke-width="0.5"
       stroke-miterlimit="10"
       stroke-linecap="round"
       stroke-linejoin="round"
       id="path36" />
    <path
       d="m 299.7,58.1 c 0.8,-0.7 1.1,-0.9 1.1,-2.7 0,-1.6 3.9,-4.3 3.7,-4.6 -2.5,-3.5 -6.4,5.4 -9.1,0.9"
       stroke="#002460"
       stroke-width="0.5"
       stroke-miterlimit="10"
       stroke-linecap="round"
       stroke-linejoin="round"
       id="path38" />
    <path
       d="m 288.9,55.5 c -0.4,-0.3 -0.5,-1 -1,-1.3 -3.5,5.2 7.7,6.4 1,1.3 z"
       fill="#fffeff"
       stroke="#002460"
       stroke-width="0.5"
       stroke-miterlimit="10"
       stroke-linecap="round"
       stroke-linejoin="round"
       id="path40" />
    <path
       d="m 288.9,51.7 c -3.8,1.6 1.3,6.4 2.7,6 4.1,-1.1 -2.4,-5.9 -2.7,-6 z"
       fill="#fffeff"
       stroke="#002460"
       stroke-width="0.5"
       stroke-miterlimit="10"
       stroke-linecap="round"
       stroke-linejoin="round"
       id="path42" />
    <path
       d="m 290.6,49.8 c -1.7,-0.2 -3,0.5 -1.5,2.7 1.2,1.7 2.7,3.9 4.1,3.7 4,-0.5 -0.9,-5 -2.6,-6.4 z"
       fill="#fffeff"
       stroke="#002460"
       stroke-width="0.5"
       stroke-miterlimit="10"
       stroke-linecap="round"
       stroke-linejoin="round"
       id="path44" />
    <path
       d="m 296.1,52.4 c -1,-1.6 -3.9,-5.4 -4.7,-4.9 -2.8,1.9 1.3,5.6 2.9,7.2 0.8,0.9 2.6,-0.9 1.8,-2.3 z"
       fill="#fffeff"
       stroke="#002460"
       stroke-width="0.5"
       stroke-miterlimit="10"
       stroke-linecap="round"
       stroke-linejoin="round"
       id="path46" />
    <path
       d="m 363,162.4 c 1.3,-3.1 2.7,-6.2 4.3,-9.2"
       stroke="#d9e4f7"
       stroke-width="0.5"
       stroke-miterlimit="10"
       stroke-linecap="round"
       id="path48" />
    <path
       d="m 391.7,88.3 c -4.8,6.3 -4.2,17.6 -2.7,23.3 2.9,11 8.3,18.4 12.2,18.4 L 400,87.6 c -2.2,-1.4 -6.9,-1.1 -8.3,0.7 z"
       fill="#f2f6fc"
       id="path50" />
    <path
       d="m 356.8,47.5 c -4.9,-2.5 -6.1,-11.1 1.6,-9.1 10,-1.8 13.4,-5 20.5,-0.6 10,8.4 1.7,13.4 1.6,21 -0.8,2.9 -5.1,4.3 -8,2.6 -3.1,-1.8 -3.3,-5.7 -5.6,-8.3 -2.8,-2.7 -6.4,-3.9 -9.8,-6 0.1,0.3 -0.1,0.3 -0.3,0.4 z"
       fill="#002460"
       id="path52" />
    <path
       d="m 359.7,50.7 c -0.2,1.8 -0.4,3.6 -0.4,5.4 0.8,0.1 1.6,0.1 2.4,0"
       stroke="#002460"
       stroke-width="0.5"
       stroke-miterlimit="10"
       stroke-linecap="round"
       stroke-linejoin="round"
       id="path54" />
    <path
       d="m 357.2,46.6 c 0.1,-0.1 0.1,-0.1 0,0 z"
       fill="#fffeff"
       stroke="#002460"
       stroke-width="0.5"
       stroke-miterlimit="10"
       stroke-linecap="round"
       stroke-linejoin="round"
       id="path56" />
    <path
       d="m 375.6,67.1 v -6.2 c -4,-0.8 -2.9,-4.7 -2.4,-6.8 5.8,-0.2 5.9,-8.4 0,-3.4 -1.9,-3.3 -11.2,-0.8 -16,-4.1 0,0 -0.1,0 -0.1,0.1 -6.3,28.2 11.4,12.5 10.1,21.3 -6.3,4.4 8.4,5.3 8.4,-0.9 z"
       fill="#fffeff"
       stroke="#002460"
       stroke-width="0.5"
       stroke-miterlimit="10"
       stroke-linecap="round"
       stroke-linejoin="round"
       id="path58" />
    <path
       d="m 360.1,56.9 1.3,1.3 0.1,-1.4 z"
       fill="#002460"
       stroke="#002460"
       stroke-width="0.5"
       stroke-miterlimit="10"
       stroke-linecap="round"
       stroke-linejoin="round"
       id="path60" />
    <path
       d="m 359.7,51.2 -1.2,5.8 3,-0.2"
       fill="#fffeff"
       id="path62" />
    <path
       d="m 359.7,51.2 -1.2,5.8 3,-0.2"
       stroke="#002460"
       stroke-width="0.5"
       stroke-miterlimit="10"
       stroke-linecap="round"
       stroke-linejoin="round"
       id="path64" />
    <path
       d="m 365.5,64.9 3.4,0.4 -1.5,1.9 c 0.2,-2.1 -1.9,-2.3 -1.9,-2.3 z"
       fill="#002460"
       stroke="#002460"
       stroke-width="0.5"
       stroke-miterlimit="10"
       stroke-linecap="round"
       stroke-linejoin="round"
       id="path66" />
    <path
       d="m 292.7,72.4 13.8,-4.4 4,3.8 -14.2,5.4 z"
       fill="#fffeff"
       stroke="#002460"
       stroke-width="0.5"
       stroke-miterlimit="10"
       stroke-linecap="round"
       stroke-linejoin="round"
       id="path68" />
    <path
       d="m 423.7,104 12.8,-2.4 -0.8,-7.4 -14.9,3.2 z"
       fill="#fffeff"
       stroke="#002460"
       stroke-width="0.5"
       stroke-miterlimit="10"
       stroke-linecap="round"
       stroke-linejoin="round"
       id="path70" />
    <path
       d="m 367.2,67.6 c 0,0 -6,2.5 -6,8.1 l 7.5,-4.2 9.4,6.6 c 0,0 2.4,-6.3 -2.6,-11"
       stroke="#002460"
       stroke-width="0.5"
       stroke-miterlimit="10"
       stroke-linecap="round"
       stroke-linejoin="round"
       id="path72" />
    <path
       d="m 368.7,71.5 0.6,64"
       stroke="#002460"
       stroke-width="0.5"
       stroke-miterlimit="10"
       stroke-linecap="round"
       stroke-linejoin="round"
       id="path74" />
    <path
       d="m 368.8,71.8 -3.3,1.7 3.4,2.1 2.5,-2.2 z"
       fill="#002460"
       id="path76" />
    <path
       d="m 368,73.9 c -8.1,39.7 18.3,49.9 18.3,49.9 l 4.3,-2 -1.3,-3.6 c 0,0 -22.1,-8.6 -19.5,-44.9 0.1,-0.5 -1.7,0.1 -1.8,0.6 z"
       fill="#002460"
       id="path78" />
    <path
       d="m 173.7,88.6 c 1.1,6.2 3.1,32.8 10.7,28.4 7.6,-4.4 0.3,-23.5 -6.2,-29.6 -1.6,-1.4 -5,-1.3 -4.5,1.2 z"
       fill="#fffeff"
       stroke="#002460"
       stroke-width="0.5"
       stroke-miterlimit="10"
       stroke-linecap="round"
       stroke-linejoin="round"
       id="path80" />
    <path
       d="M 284.679,138.135 162.571,63.7176 150.081,84.2112 272.189,158.628 Z"
       fill="#ff3b29"
       stroke="#ff3b29"
       stroke-width="0.5"
       stroke-miterlimit="10"
       stroke-linecap="round"
       stroke-linejoin="round"
       id="path82" />
    <path
       d="m 159.196,75.7247 c 3.449,-5.6591 4.945,-11.0389 3.342,-12.0161 -1.604,-0.9772 -5.699,2.8182 -9.148,8.4774 -3.449,5.6592 -4.945,11.039 -3.342,12.0162 1.604,0.9772 5.699,-2.8183 9.148,-8.4775 z"
       fill="#fffeff"
       stroke="#ff3b29"
       stroke-width="0.5"
       stroke-miterlimit="10"
       id="path84" />
    <path
       d="m 156.714,74.2029 c 1.149,-1.8864 1.661,-3.6719 1.142,-3.9881 -0.519,-0.3161 -1.871,0.9568 -3.021,2.8432 -1.15,1.8864 -1.661,3.6719 -1.142,3.988 0.518,0.3162 1.871,-0.9568 3.021,-2.8431 z"
       fill="#598bde"
       id="path86" />
    <path
       d="m 285,138.3 -0.3,-0.2 -12.5,20.5 0.4,0.3 19.9,-0.5 c 0.9,0 1.5,-1 1.1,-1.9 z"
       fill="#fffeff"
       stroke="#ff3b29"
       stroke-width="0.5"
       stroke-miterlimit="10"
       stroke-linecap="round"
       stroke-linejoin="round"
       id="path88" />
    <path
       d="m 293.8,156.5 -2.7,-5.7 c -1.4,4.9 -4.7,7.7 -4.7,7.7 l 6.3,-0.1 c 0.8,0 1.5,-1 1.1,-1.9 z"
       fill="#598bde"
       stroke="#598bde"
       stroke-width="0.5"
       stroke-miterlimit="10"
       stroke-linecap="round"
       stroke-linejoin="round"
       id="path90" />
    <path
       d="m 281.424,150.165 c 3.449,-5.659 4.945,-11.039 3.342,-12.016 -1.604,-0.978 -5.699,2.818 -9.148,8.477 -3.449,5.659 -4.945,11.039 -3.342,12.016 1.603,0.977 5.699,-2.818 9.148,-8.477 z"
       fill="#ff3b29"
       stroke="#ff3b29"
       stroke-width="0.5"
       stroke-miterlimit="10"
       id="path92" />
    <path
       d="m 265.8,150.6 c 3.2,-1.3 4.9,-4.7 6,-3.8 0.4,0.3 -0.6,2.1 -2.3,4.1 -0.7,0.8 -3.3,4.3 -9.3,3.8"
       fill="#fffeff"
       id="path94" />
    <path
       d="m 265.8,150.6 c 3.2,-1.3 4.9,-4.7 6,-3.8 0.4,0.3 -0.6,2.1 -2.3,4.1 -0.7,0.8 -3.3,4.3 -9.3,3.8"
       stroke="#002460"
       stroke-width="0.5"
       stroke-miterlimit="10"
       stroke-linecap="round"
       stroke-linejoin="round"
       id="path96" />
    <path
       d="m 264.2,148.9 c 3,-1.7 5.1,-4.2 5.8,-3.9 0.5,0.2 1,0.9 -1.3,3.8 -1.7,2.1 -2.9,2.8 -2.9,2.8"
       fill="#fffeff"
       id="path98" />
    <path
       d="m 264.2,148.9 c 3,-1.7 5.1,-4.2 5.8,-3.9 0.5,0.2 1,0.9 -1.3,3.8 -1.7,2.1 -2.9,2.8 -2.9,2.8"
       stroke="#002460"
       stroke-width="0.5"
       stroke-miterlimit="10"
       stroke-linecap="round"
       stroke-linejoin="round"
       id="path100" />
    <path
       d="m 254.8,148.6 1.7,0.2 1.9,-0.3 1.5,-0.5 3.8,0.9 2.4,1.6 -3.5,3.4 z"
       fill="#fffeff"
       id="path102" />
    <path
       d="m 261.9,148.3 c 3,-1.7 5.4,-5.3 6.3,-4.7 0.6,0.4 0.5,1.5 -1.4,4.1 -1.5,2.1 -3.3,3.2 -3.3,3.2"
       fill="#fffeff"
       id="path104" />
    <path
       d="m 261.9,148.3 c 3,-1.7 5.4,-5.3 6.3,-4.7 0.6,0.4 0.5,1.5 -1.4,4.1 -1.5,2.1 -3.3,3.2 -3.3,3.2"
       stroke="#002460"
       stroke-width="0.5"
       stroke-miterlimit="10"
       stroke-linecap="round"
       stroke-linejoin="round"
       id="path106" />
    <path
       d="m 255.4,148.6 c 1.4,0.4 3.4,-0.2 4.7,-0.9 3,-1.7 4.5,-5 5.3,-4.5 0.4,0.3 1.1,1.4 -0.9,4 -1.1,1.5 -3.3,3 -3.3,3"
       fill="#fffeff"
       id="path108" />
    <path
       d="m 255.4,148.6 c 1.4,0.4 3.4,-0.2 4.7,-0.9 3,-1.7 4.5,-5 5.3,-4.5 0.4,0.3 1.1,1.4 -0.9,4 -1.1,1.5 -3.3,3 -3.3,3"
       stroke="#002460"
       stroke-width="0.5"
       stroke-miterlimit="10"
       stroke-linecap="round"
       stroke-linejoin="round"
       id="path110" />
    <path
       d="m 213.6,152.4 c -2.2,10.9 -0.9,30 2.9,44.2 3.3,12.6 12.4,18.5 19.3,11.7 11.1,-11.1 19.3,-26.6 24.5,-53.4 l -7.6,-7.7 c -1.5,4.1 1.2,4 1,4.4 -6.2,13.1 -16.4,32.6 -19,34.1 0,0 -0.1,-13.3 0.7,-31.4 0,-5.5 -1.3,-10.5 -4.6,-14.6 -3.3,-4.1 -7.8,-7 -12.6,-9 -2.8,-1.2 -5.8,-2.1 -9,-1.9 l -15.5,1.4 c -7,1.5 -17.2,8.3 -21.5,14.1 -10.1,13.7 -10.3,124.1 -10.3,124.1 h 72.3 c 0,0 -1.4,-49 -1.7,-57.7"
       fill="#fffeff"
       id="path112" />
    <path
       d="m 213.6,152.4 c -2.2,10.9 -0.9,30 2.9,44.2 3.3,12.6 12.4,18.5 19.3,11.7 11.1,-11.1 19.3,-26.6 24.5,-53.4 l -7.6,-7.7 c -1.5,4.1 1.2,4 1,4.4 -6.2,13.1 -16.4,32.6 -19,34.1 0,0 -0.1,-13.3 0.7,-31.4 0,-5.5 -1.3,-10.5 -4.6,-14.6 -3.3,-4.1 -7.8,-7 -12.6,-9 -2.8,-1.2 -5.8,-2.1 -9,-1.9 l -15.5,1.4 c -7,1.5 -17.2,8.3 -21.5,14.1 -10.1,13.7 -10.3,124.1 -10.3,124.1 h 72.3 c 0,0 -1.4,-49 -1.7,-57.7"
       stroke="#002460"
       stroke-width="0.5"
       stroke-miterlimit="10"
       stroke-linecap="round"
       stroke-linejoin="round"
       id="path114" />
    <path
       d="m 234.5,185.7 0.1,4.3"
       stroke="#002460"
       stroke-width="0.5"
       stroke-miterlimit="10"
       stroke-linecap="round"
       stroke-linejoin="round"
       id="path116" />
    <path
       d="m 161.5,268.5 -1.4,55.5 h 74.1 l -0.3,-55.5 h -72.2 z"
       fill="#002460"
       stroke="#002460"
       stroke-width="0.5"
       stroke-miterlimit="10"
       stroke-linecap="round"
       stroke-linejoin="round"
       id="path118" />
    <path
       d="m 212.7,171.3 c 4.1,3.5 19.9,2.7 22,-1.9"
       stroke="#002460"
       stroke-width="0.5"
       stroke-miterlimit="10"
       stroke-linecap="round"
       stroke-linejoin="round"
       id="path120" />
    <path
       d="m 212.9,174.7 c 4,3.9 18.4,4.3 21.7,-1.7"
       stroke="#002460"
       stroke-width="0.5"
       stroke-miterlimit="10"
       stroke-linecap="round"
       stroke-linejoin="round"
       id="path122" />
    <path
       d="m 184.2,75.2 c 1.8,-2.9 3.5,1.8 3,3.2 -0.8,2.5 -2.1,1.3 -2.2,-0.8"
       fill="#fffeff"
       id="path124" />
    <path
       d="m 184.2,75.2 c 1.8,-2.9 3.5,1.8 3,3.2 -0.8,2.5 -2.1,1.3 -2.2,-0.8"
       stroke="#002460"
       stroke-width="0.5"
       stroke-miterlimit="10"
       id="path126" />
    <path
       d="m 192.4,280.1 c 0,28.7 15.4,16.7 15.4,0 z"
       stroke="#fffeff"
       stroke-width="0.5"
       stroke-miterlimit="10"
       stroke-linecap="round"
       stroke-linejoin="round"
       id="path128" />
    <path
       d="m 164.4,280.1 c 0,23.1 11.1,16.7 11.1,0 z"
       stroke="#fffeff"
       stroke-width="0.5"
       stroke-miterlimit="10"
       stroke-linecap="round"
       stroke-linejoin="round"
       id="path130" />
    <path
       d="m 179.8,311.2 -0.3,13.1"
       stroke="#fffeff"
       stroke-width="0.5"
       stroke-miterlimit="10"
       stroke-linecap="round"
       stroke-linejoin="round"
       id="path132" />
    <path
       d="m 181.9,74.3 c 1.8,-4.7 4.1,2.5 3.7,4.7 -0.7,4 -2.3,2.2 -2.5,-1"
       fill="#fffeff"
       id="path134" />
    <path
       d="m 181.9,74.3 c 1.8,-4.7 4.1,2.5 3.7,4.7 -0.7,4 -2.3,2.2 -2.5,-1"
       stroke="#002460"
       stroke-width="0.5"
       stroke-miterlimit="10"
       id="path136" />
    <path
       d="m 181,72.8 c 2.3,-0.9 2.4,3.8 2.3,5.2 -0.3,4 -2.3,2.9 -2.5,-0.7"
       fill="#fffeff"
       id="path138" />
    <path
       d="m 181,72.8 c 2.3,-0.9 2.4,3.8 2.3,5.2 -0.3,4 -2.3,2.9 -2.5,-0.7"
       stroke="#002460"
       stroke-width="0.5"
       stroke-miterlimit="10"
       id="path140" />
    <path
       d="m 179,73.5999 c 0.4,1.3 0.1,2.6001 1.3,3.7001 0.8,0.8 1.3,0.5 1.5,-0.4 0.7,-3 -2.9,-9.8 -5.6,-5.1"
       fill="#fffeff"
       id="path142" />
    <path
       d="m 179,73.5999 c 0.4,1.3 0.1,2.6001 1.3,3.7001 0.8,0.8 1.3,0.5 1.5,-0.4 0.7,-3 -2.9,-9.8 -5.6,-5.1"
       stroke="#002460"
       stroke-width="0.5"
       stroke-miterlimit="10"
       id="path144" />
    <path
       d="m 263.1,153.6 -10.3,-6.6 -0.3,1.1 0.8,2.2 6.5,5 0.1,-0.7 2.8,-0.2 z"
       fill="#fffeff"
       id="path146" />
    <path
       d="m 201,134.1 c 9,3.3 8.9,-5.2 12.8,-4.7"
       stroke="#002460"
       stroke-width="0.5"
       stroke-miterlimit="10"
       stroke-linecap="round"
       stroke-linejoin="round"
       id="path148" />
    <path
       d="m 174.4,162.7 c 1.3,3 7.5,7.6 10.8,8.5 9.8,2.5 21.5,-9.1 12.2,-18.8 13.2,2.4 18,-16.8 5.4,-20.2 -9.1,11.1 -19.6,18.6 -28.4,30.5 z"
       fill="#f2f6fc"
       id="path150" />
    <path
       d="m 219.1,99.7 4.7,9.3 c 0.2,0.3 -0.1,0.7 -0.5,0.8 l -4.1,0.5 z"
       fill="#fffeff"
       stroke="#002460"
       stroke-width="0.5"
       stroke-miterlimit="10"
       id="path152" />
    <path
       d="m 215.5,90.7 c 2.9,3.9 5.6,11.1 5.6,21.4 0,17.1 -15.7,2.4 -11.2,17 -2,2.7 -6.3,5.3 -9.4,2.7 -1.4,-1.3 -1.4,-3.3 -1.4,-5.2 0.1,-7.4 0.2,-14.8 0.3,-22.2 -0.5,-10.5 4.9,-15.1 16.1,-13.7 z"
       fill="#fffeff"
       stroke="#002460"
       stroke-width="0.5"
       stroke-miterlimit="10"
       id="path154" />
    <path
       d="m 216.6,92.4 c 2,7.6 -0.8,12.8 -4.7,12.6 -2.8,-3.9 -5.2,2.3 -1.7,6.2 1,1.1 -4.5,1.1 -7.1,2.1 -5.1,2.1 3.6,8.9 4.3,17.6 1.1,13.7 -7.3,23.1 -19,23.1 4.1,13.2 -21.2,16 -20.4,1.8 -16.2,1 -17,-26.1 -1.8,-28.4 -4.1,-5.2 -1,-12.5 6.8,-10.7 -2.4,-11.5 11.2,-9.3 12.3,-15.1 2.3,-6.9 1.2,-14.9 9,-17.7 22,-7.9 24.2,12.1 22.3,8.5 z"
       fill="#002460"
       id="path156" />
    <path
       d="m 217.7,103.6 c -1.6,1.1 -1.9,5 0.4,5.2 2.6,0.3 2.2,-7 -0.4,-5.2 z"
       fill="#f2f6fc"
       id="path158" />
    <path
       d="m 211.7,268 c -1.6,-11.3 0.3,-23 4,-33.8 1.5,-4.3 3.2,-8.6 5.8,-12.4 2.6,-3.8 6,-7.1 10.1,-9.1 0,19.2 0.9,37.6 1.5,54.6 z"
       fill="#f2f6fc"
       id="path160" />
    <path
       d="m 161.7,257.4 71.7,5.6"
       stroke="#002460"
       stroke-width="0.5"
       stroke-miterlimit="10"
       stroke-linecap="round"
       stroke-linejoin="round"
       id="path162" />
  </g>
  <defs
     id="defs169">
    <clipPath
       id="clip0_104_870">
      <rect
         width="570"
         height="324"
         fill="#ffffff"
         id="rect166"
         x="0"
         y="0" />
    </clipPath>
  </defs>
</svg>
