<?xml version="1.0" encoding="UTF-8" standalone="no"?>
<svg
   fill="none"
   viewBox="0 0 509.89999 291.51"
   version="1.1"
   id="svg187"
   sodipodi:docname="bg-inps-previdenza.svg"
   inkscape:version="1.1.2 (b8e25be833, 2022-02-05)"
   xmlns:inkscape="http://www.inkscape.org/namespaces/inkscape"
   xmlns:sodipodi="http://sodipodi.sourceforge.net/DTD/sodipodi-0.dtd"
   xmlns="http://www.w3.org/2000/svg"
   xmlns:svg="http://www.w3.org/2000/svg">
  <sodipodi:namedview
     id="namedview189"
     pagecolor="#ffffff"
     bordercolor="#666666"
     borderopacity="1.0"
     inkscape:pageshadow="2"
     inkscape:pageopacity="0.0"
     inkscape:pagecheckerboard="0"
     showgrid="false"
     inkscape:zoom="2.0982456"
     inkscape:cx="285"
     inkscape:cy="162.51672"
     inkscape:window-width="3440"
     inkscape:window-height="1369"
     inkscape:window-x="-8"
     inkscape:window-y="-8"
     inkscape:window-maximized="1"
     inkscape:current-layer="svg187" />
  <g
     clip-path="url(#clip0_101_796)"
     id="g180"
     transform="translate(-30.050041,-32.490017)">
    <path
       opacity="0.9884"
       d="m 128.8,72.2 h 314.5 c 21.4,0 38.8,17.3 38.8,38.8 v 101.7 c 0,21.4 -17.3,38.8 -38.8,38.8 H 128.8 C 107.4,251.5 90,234.2 90,212.7 V 110.9 c 0,-21.4 17.4,-38.7 38.8,-38.7 z"
       fill="#d9e4f7"
       id="path2" />
    <path
       opacity="0.9884"
       d="m 390.2,103.2 c 9.7,0 47.6,0.1 47.6,0.1 0,0 -5.5,-9.2 -12.4,-6.6 -6.9,2.6 1.5,-9.3 -10.4,-3.7 -11.9,5.6 -6.7,-4.1 -14.9,2.8 -1.7,1.5 -10.3,0.3 -9.9,7.4 z"
       fill="#fffeff"
       id="path4" />
    <path
       opacity="0.9884"
       d="m 394.9,161.8 h 100.5 c 0,0 4.8,-18.5 -14.3,-10.8 -17.1,2.1 1.8,-25.8 -21.3,-11.4 -16.3,10.1 -8.5,-6.6 -20.6,-9 -13.7,-2.7 -14.4,-0.9 -22.5,13.3 -8.1,14.1 -27.7,10.6 -21.8,17.9 z"
       fill="#fffeff"
       id="path6" />
    <path
       opacity="0.9884"
       d="m 61.8,219.9 h 100.5 c 0,0 4.8,-18.5 -14.3,-10.8 -17.1,2.1 1.8,-25.8 -21.3,-11.4 -6.1,3.8 -8.8,3.8 -10.5,2.2 -2.8,-2.6 -2.6,-9.7 -10.2,-11.3 -13.7,-2.7 -14.4,-0.9 -22.5,13.3 -8,14.2 -27.6,10.7 -21.7,18 z"
       fill="#fffeff"
       id="path8" />
    <path
       opacity="0.9884"
       d="m 353.1,201.8 c 14.7,0 72.2,0.4 72.2,0.4 0,0 -8.2,-14 -18.7,-10.1 -10.5,3.9 2.3,-14.1 -15.7,-5.6 -18,8.4 -10.1,-6.3 -22.7,4.2 -2.7,2.2 -15.7,0.2 -15.1,11.1 z"
       fill="#fffeff"
       id="path10" />
    <path
       opacity="0.9884"
       d="m 30.3,172.5 c 28.6,0.2 123.4,0 123.4,0 0,0 12.8,-20.9 -8.6,-19 -24.9,2.2 -17.5,-12.6 -35.7,-5.6 -14.5999,5.6 -4.2,-18.3 -40.7,13.5 -4.7,4 -21,-4.2 -38.4,11.1 z"
       stroke="#598bde"
       stroke-width="0.5"
       stroke-linecap="round"
       stroke-linejoin="round"
       id="path12" />
    <path
       opacity="0.9884"
       d="m 406.1,231.6 h 86.5 47.1 c 0,0 -8.1,-16 -19,-14.3 -15.4,2.4 -12.1,-14.2 -30.1,-7.7 -9,3.2 -16.1,9.7 -18.3,7.5 -3.7,-3.5 2.7,-25 -7.4,-27 -18.2,-3.6 -31.2,4.2 -41.9,23.1 -10.7,18.8 -13.9,8.7 -16.9,18.4 z"
       stroke="#598bde"
       stroke-width="0.5"
       stroke-linecap="round"
       stroke-linejoin="round"
       id="path14" />
    <path
       opacity="0.9884"
       d="m 151.5,104.9 c 7.2,0 35.3,0.1 35.3,0.1 0,0 -4.1,-6.8 -9.2,-4.9 -5.1,1.9 1.1,-6.9 -7.7,-2.7 -8.8,4.2 -5,-3.1 -11.1,2.1 -1.2,1 -7.6,0.1 -7.3,5.4 z"
       fill="#fffeff"
       id="path16" />
    <path
       d="m 221,51.4 c 1,-0.6 2.2,-0.5 3.2,0.3 1,0.8 1.7,2.1 2,3.7 0.3,1.8 0,3.8 -0.5,5.5 -0.5,1.7 -1.3,3.3 -2,4.9"
       fill="#fffeff"
       id="path18" />
    <path
       d="m 221,51.4 c 1,-0.6 2.2,-0.5 3.2,0.3 1,0.8 1.7,2.1 2,3.7 0.3,1.8 0,3.8 -0.5,5.5 -0.5,1.7 -1.3,3.3 -2,4.9"
       stroke="#002460"
       stroke-width="0.5"
       stroke-linecap="round"
       stroke-linejoin="round"
       id="path20" />
    <path
       d="m 163.3,234 0.3,-51.5 c 0,0 -1.3,-38.4 -0.2,-51.1 1,-11.6 4.5,-25.7 33,-33.2 2.5,12.8 22.6,12.1 22.7,8 0,0 -2,-2.3 -2.3,-6.8 0,0 16.9,-0.7 29.1,15.4 28.7,37.7 33.1,1.4 54.3,-13.5 0.3,-0.2 14.4,4.2 14.2,4.6 -32.6,58.8 -62.8,50.8 -72.2,36.5 -0.1,-0.2 1.2,58.5 2.9,91.6 z"
       fill="#fffeff"
       stroke="#002460"
       stroke-width="0.5"
       stroke-miterlimit="10"
       id="path22" />
    <path
       d="m 219,106.1 c -0.1,4.1 -21.7,9.9 -22.9,-10.8 -0.2,-5.4 -0.9,-16.3 -1.1,-17 -2.6,-0.3 -7.3,-1.5 -6,-6 1.2,-4.1 4.2,-1.8 6.2,0 l 1,-9.6 c 0,0 -3.7,-19.3 11.6,-21.5 9.7,-1.4 11.9,2.4 17.3,20.5 9.7,32 -0.9,32.8 -8.6,32.5 0.2,4.2 0.2,8.6 2.5,11.9 z"
       fill="#fffeff"
       stroke="#002460"
       stroke-width="0.5"
       stroke-linecap="round"
       stroke-linejoin="round"
       id="path24" />
    <path
       d="m 219.1,111.6 c 0,0 1,83.7 2.8,122.3 l -3.4,-2 c -3.9,-50.8 0.6,-120.3 0.6,-120.3 z"
       fill="#f2f6fc"
       id="path26" />
    <path
       d="m 219.1,106.2 2.8,127.7"
       stroke="#002460"
       stroke-width="0.5"
       stroke-miterlimit="10"
       id="path28" />
    <path
       d="m 196.1,98.2 2,135.8"
       stroke="#002460"
       stroke-width="0.5"
       stroke-miterlimit="10"
       id="path30" />
    <path
       d="m 219.1,106.7 -3.8,12.2 -5.6,-8.8 -5.5,8.8 -7.8,-19.4"
       stroke="#002460"
       stroke-width="0.5"
       stroke-miterlimit="10"
       stroke-linecap="round"
       stroke-linejoin="round"
       id="path32" />
    <path
       d="m 220.2,74.9 c -19.6,15 -11.8,-5.9 -21,-4 0.1,-1.4 0,-3.4 -1.6,-4 1.3,-1.5 0.3,-12.3 -1.7,-12.5 0,0 -5.6,0.4 -6,5.7 -0.2,2.9 1.7,8.1 1.9,9.9 6,3.4 1.9,4.6 3.2,6.2 -2.8,1.7 -1.1,3.7 0.3,5.4 -1.3,1.7 -0.8,4.5 1.5,5.1 -0.3,1.8 1.9,3.7 3.7,4 0.1,2 2.3,3.6 4.3,3.1 0.3,2.3 2.6,4.2 5,4.1 1.2,1.8 4.9,2.6 5.3,-0.2 2.7,2.1 7.2,2.7 7.1,-1.9 2.1,-0.3 5.1,-1.5 4.8,-4 2.7,0 4.3,-3.4 2.6,-5.5 2.8,-1.5 2.4,-5 0.5,-7 0.7,-1.6 -0.4,-6.5 -2.1,-7.1 -0.2,0.1 3.7,11.7 -7.8,2.7 z"
       fill="#fffeff"
       stroke="#002460"
       stroke-width="0.5"
       stroke-linecap="round"
       stroke-linejoin="round"
       id="path34" />
    <path
       d="m 272.9,163.8 c -15.9,3.6 -27.8,7.3 -31.2,11 -4.6,5.1 -2.2,13.2 2.8,18.2 5.1,5.2 17,6.7 23.6,0.1 l -2.2,-3.5 c 0,0 -6.6,7.7 -16.5,1.6 -7.9,-4.8 -5.6,-11.4 -3.5,-13.2 3.8,-3.3 14.3,-6.5 27.8,-9.6"
       fill="#ff8800"
       id="path36" />
    <path
       d="m 217.2,102 c -0.7,-0.2 -2.1,-1.5 -2.1,-1.5 -0.9,0.7 -2.1,0.7 -3.2,0.4 -1.1,-0.2 -2.1,-1.2 -2.1,-2.4 -1.4,0.5 -3,-0.3 -3.5,-1.7 1.1,0.7 2.3,1.1 3.6,1.1 0.1,0.5 0.4,0.9 0.8,1.2 0.4,0.3 0.9,0.4 1.4,0.5 0.7,0.1 0.9,0.1 1.6,-0.1 0.6,-0.2 1.4,-0.9 1.3,-1.6 0.4,0.4 1.3,0.8 1.8,1 0,0.3 0.3,3 0.4,3.1 z"
       fill="#002460"
       id="path38" />
    <path
       d="m 175.3,150.7 c 21.1,19 57.6,23.6 87.1,19.1 l 14.4,-18.5 c -24.7,3.8 -77,-7.8 -93.3,-29.7"
       fill="#fffeff"
       id="path40" />
    <path
       d="m 175.3,150.7 c 21.1,19 57.6,23.6 87.1,19.1 l 14.4,-18.5 c -24.7,3.8 -77,-7.8 -93.3,-29.7"
       stroke="#002460"
       stroke-width="0.5"
       stroke-miterlimit="10"
       stroke-linecap="round"
       stroke-linejoin="round"
       id="path42" />
    <path
       d="m 171.2,324 -5.5,-90 h 76.5 l -7,90 z"
       fill="#002460"
       id="path44" />
    <path
       d="m 211.5,257.5 c -0.3,22 -0.8,45.1 -0.7,67.1 z"
       fill="#002460"
       id="path46" />
    <path
       d="m 211.5,257.5 c -0.3,22 -0.8,45.1 -0.7,67.1"
       stroke="#fffeff"
       stroke-width="0.5"
       stroke-miterlimit="10"
       id="path48" />
    <path
       d="m 213.2,60.5 c -2.6,-1.2 -13.5,-0.1 -11.4,6.7 0.4,2 1.8,4.3 3.9,5 2.9,1 8.2,0.6 10,-2.7 1.4,-2.5 0.9,-7.4 -2.5,-9 z"
       stroke="#ff8800"
       stroke-width="0.5"
       stroke-miterlimit="10"
       id="path50" />
    <path
       d="m 221.8,64.1 c -1.1,-5.3 5.9,-6.9 8.7,-4.8 2.5,1.8 2.9,8.8 -0.9,9.9 -3.9,1 -6.9,-1 -7.8,-5.1 z"
       stroke="#ff8800"
       stroke-width="0.5"
       stroke-miterlimit="10"
       id="path52" />
    <path
       d="m 219.4,63.4 c 4.4,4.9 7.2,13.1 3.5,15.2 -2.1,1.2 -4.4,-3.7 -4.4,-3.7"
       fill="#fffeff"
       id="path54" />
    <path
       d="m 219.4,63.4 c 4.4,4.9 7.2,13.1 3.5,15.2 -2.1,1.2 -4.4,-3.7 -4.4,-3.7"
       stroke="#002460"
       stroke-width="0.5"
       stroke-linecap="round"
       stroke-linejoin="round"
       id="path56" />
    <path
       d="m 216.5,64.7 c 1.4,-1.2 3.3,-1.6 5,-1.1"
       stroke="#ff8800"
       stroke-width="0.5"
       stroke-linecap="round"
       stroke-linejoin="round"
       id="path58" />
    <path
       d="m 198.1,226.8 23.8,-0.9"
       stroke="#002460"
       stroke-width="0.5"
       stroke-miterlimit="10"
       id="path60" />
    <path
       d="m 204.9,226.8 c 0.2,2.7 0.4,5.3 0.6,8 0,0 0,0 -0.1,-0.1"
       fill="#fffeff"
       id="path62" />
    <path
       d="m 204.9,226.8 c 0.2,2.7 0.4,5.3 0.6,8 0,0 0,0 -0.1,-0.1"
       stroke="#002460"
       stroke-width="0.5"
       stroke-miterlimit="10"
       id="path64" />
    <path
       d="m 215.3,226.2 c 0.2,2.7 0.3,5.4 0.5,8.2 0,0 0,0 0.1,0.1"
       fill="#fffeff"
       id="path66" />
    <path
       d="m 215.3,226.2 c 0.2,2.7 0.3,5.4 0.5,8.2 0,0 0,0 0.1,0.1"
       stroke="#002460"
       stroke-width="0.5"
       stroke-miterlimit="10"
       id="path68" />
    <path
       d="m 218.9,76.1 c -0.7,2.5 2.3,8.1 2.8,2.7 -1.3,-0.5 -1.7,-2 -2.8,-2.7 z"
       fill="#002460"
       id="path70" />
    <path
       d="m 272.6,111.7 c 6.1,10 13.2,6.3 13.2,6.3 34.5,-28.4 15.6,-14 21.6,-13.9 11.5,2.1 -7.7,15 -2.6,6 7.2,0.4 15.1,-3.2 16.5,-10.9 0.8,-9.4 10.1,-15.5 4.7,-25.8 -0.7,-2.9 -5.3,-4.4 -6.3,-1.1 -3,6.8 -12.1,-4.9 -13.4,10.3 -10.9,-8.2 -27.4,-9.2 -21.5,9.1 -9.5,0.3 -17.4,11.5 -12.2,20 z"
       fill="#002460"
       stroke="#002460"
       stroke-width="0.5"
       stroke-linecap="round"
       stroke-linejoin="round"
       id="path72" />
    <path
       d="m 298.5,248.1 c 8.7,52.5 -1,75.9 -1,75.9 h 77.6 c 0,0 12,-36.6 -2.7,-82.5 -5.6,-17.7 -76.9,-11.7 -73.9,6.6 z"
       fill="#002460"
       stroke="#002460"
       stroke-width="0.5"
       stroke-linecap="round"
       stroke-linejoin="round"
       id="path74" />
    <path
       d="m 338.6,324 c 9.5,-28.7 3.2,-52.4 3.2,-52.4 z"
       fill="#002460"
       id="path76" />
    <path
       d="m 338.6,324 c 9.5,-28.7 3.2,-52.4 3.2,-52.4"
       stroke="#fffeff"
       stroke-width="0.5"
       stroke-linecap="round"
       stroke-linejoin="round"
       id="path78" />
    <path
       d="m 298.5,249.7 c 0,0 74,-6.4 73.9,-8.2 -15.9,-30.2 -7.3,-116.8 -7.4,-126.6 19.7,-1.2 90,-9.9 99.4,-9.9 5.5,0 5.6,-7.3 6.5,-12.7 -36.8,-2.8 -90.3,-5.4 -127.2,-6.5 -0.6,0 -1.1,-0.1 -1.7,-0.1 l -17,-0.9 c -48.3,3.2 -46.9,61.5 -47.5,77 -1.3,35.9 -0.3,44 -0.3,44 l 20.7,-7.4 c 0,0 2,-78.8 2.1,-78.7 L 296.9,234 c 0,0 -1.1,4.4 1.6,15.7 z"
       fill="#fffeff"
       stroke="#002460"
       stroke-width="0.5"
       stroke-linecap="round"
       stroke-linejoin="round"
       id="path80" />
    <path
       d="m 475.5,96 c 3.7,3.4 0.6,4.3 -0.6,5.9 l -3.3,1.9 -3.7,-2.5 1.9,-5.7 4,-0.9 z"
       fill="#fffeff"
       stroke="#002460"
       stroke-width="0.5"
       stroke-linecap="round"
       stroke-linejoin="round"
       id="path82" />
    <path
       d="m 470.2,92.2 c 5.4,0.2 17.8,0.3 16.9,2.5 -0.9,2.2 -7.3,1.1 -11.7,1.2 -1.8,0.1 -3.3,0 -3.7,0.8 -0.9,1.5 -2.3,5.5 0.6,5.2 1.5,-0.2 2.4,-0.8 3.7,-0.4 1.6,0.5 1.8,3.1 0,3.1 -4.2,0 -9.9,3.3 -11.7,0.2"
       fill="#fffeff"
       id="path84" />
    <path
       d="m 471.7,101.9 c 1.4,0.1 2.6,-0.5 4,-0.4 1.6,0.1 2.3,2.8 0,3.1 -4.2,0.7 -9.1,3.9 -11.5,0.2"
       fill="#fffeff"
       id="path86" />
    <path
       d="m 471.7,101.9 c 1.4,0.1 2.6,-0.5 4,-0.4 1.6,0.1 2.3,2.8 0,3.1 -4.2,0.7 -9.1,3.9 -11.5,0.2"
       stroke="#002460"
       stroke-width="0.5"
       stroke-miterlimit="10"
       stroke-linecap="round"
       id="path88" />
    <path
       d="m 469.4,92.2 c 5.4,0.2 18.7,0.4 17.8,2.6 -0.8,2.2 -7.7,1 -12,1.1"
       fill="#fffeff"
       id="path90" />
    <path
       d="m 469.4,92.2 c 5.4,0.2 18.7,0.4 17.8,2.6 -0.8,2.2 -7.7,1 -12,1.1"
       stroke="#002460"
       stroke-width="0.5"
       stroke-miterlimit="10"
       stroke-linecap="round"
       id="path92" />
    <path
       d="m 471.5,98.4999 c 0.4,-0.4 2.1,0.2 2.1,0.2 0,0 -1.2,2.1001 -1.8,2.1001 -0.7,0.1 -0.7,-1.8001 -0.3,-2.3001 z"
       fill="#002460"
       id="path94" />
    <path
       d="m 475.1,95.9 c -1,0.3 -5.3,1.7 -3.4,6"
       stroke="#002460"
       stroke-width="0.5"
       stroke-miterlimit="10"
       stroke-linecap="round"
       id="path96" />
    <path
       d="m 379.7,87.1 c -31.2,31.2 -54.7,25.2 -93.9,25.2 z"
       fill="#fffeff"
       id="path98" />
    <path
       d="m 379.7,87.1 c -31.2,31.2 -54.7,25.2 -93.9,25.2"
       stroke="#002460"
       stroke-width="0.5"
       stroke-linecap="round"
       stroke-linejoin="round"
       id="path100" />
    <path
       d="m 388.8,87.6 2.3,25.1"
       stroke="#002460"
       stroke-width="0.5"
       stroke-linecap="round"
       stroke-linejoin="round"
       id="path102" />
    <path
       d="m 278.8,139.5 c 6.3,1.7 14.2,2.5 20.5,0.9"
       stroke="#002460"
       stroke-width="0.5"
       stroke-linecap="round"
       stroke-linejoin="round"
       id="path104" />
    <path
       d="m 329.8,208.3 c 3.4,-1.8 14.8,-3.1 12,3.4 -8.8,9.3 -24.1,9.9 -33.4,18.9 -2.1,2.2 -8.4,6.2 -8.4,0.5 5,-9.8 19.7,-21.7 30.7,-23.3 -0.3,0.2 -0.6,0.5 -0.9,0.5 z"
       fill="#f2f6fc"
       id="path106" />
    <path
       d="m 252.6,227.9 c 6.3,-12.3 26.5,-23.9 42,-32 13.6,-7.1 29.7,-14 41.2,-8.9 11.5,5 13.2,22.7 -1.6,25.7 -10.8,2.2 -62,32.5 -67.1,39.9 -1.9,2.7 -6,3 -8.9,1.3 -8.4,-4.3 -9.7,-18 -5.6,-26 z"
       fill="#fffeff"
       stroke="#002460"
       stroke-width="0.5"
       stroke-linecap="round"
       stroke-linejoin="round"
       id="path108" />
    <path
       d="m 315.6,189.2 c -0.7,-10.5 -19.2,-1.1 -11.7,5.3 3.2,2.9 12,-0.3 11.7,-5.3 z"
       fill="#002460"
       stroke="#002460"
       stroke-width="0.5"
       stroke-linecap="round"
       stroke-linejoin="round"
       id="path110" />
    <path
       d="m 310.6,195 c 3.2,-1.1 6.3,-4.4 1.9,-4.7 -5.8,-0.2 -9.7,7.3 -1.9,4.7 z"
       fill="#fffeff"
       stroke="#002460"
       stroke-width="0.5"
       stroke-linecap="round"
       stroke-linejoin="round"
       id="path112" />
    <path
       d="m 319.1,206.7 c -1.7,-4.6 -3.7,-9 -6,-13.3 -0.2,-0.4 -0.5,-0.9 -0.9,-1.1 -0.7,-0.4 -1.5,-0.1 -2.2,0.2 -0.5,0.2 -1,0.4 -1.2,0.9 -0.2,0.5 0,1 0.2,1.5 1.8,4.2 3.7,8.4 5.5,12.5 0.1,0.3 0.3,0.6 0.5,0.8 0.5,0.3 1.1,0.1 1.6,-0.2 0.8,-0.4 1.7,-0.9 2.3,-1.6 0.2,0.1 0.2,0.1 0.2,0.3 z"
       fill="#fffeff"
       stroke="#002460"
       stroke-width="0.5"
       stroke-linecap="round"
       stroke-linejoin="round"
       id="path114" />
    <path
       d="m 324.8,210 c -0.7,-10.5 -19.2,-1.1 -11.7,5.3 3.2,2.9 12,-0.4 11.7,-5.3 z"
       fill="#002460"
       stroke="#002460"
       stroke-width="0.5"
       stroke-linecap="round"
       stroke-linejoin="round"
       id="path116" />
    <path
       d="m 319.8,215.7 c 3.2,-1.1 6.3,-4.4 1.9,-4.7 -5.8,-0.2 -9.7,7.4 -1.9,4.7 z"
       fill="#fffeff"
       stroke="#002460"
       stroke-width="0.5"
       stroke-linecap="round"
       stroke-linejoin="round"
       id="path118" />
    <path
       d="m 323.4,87.4 c -0.3,-1.7 -0.5,-3.5 -0.7,-5.4 -0.2,-5.2 -0.9,-15.5 -1.1,-16.2 -9,0 -6.7,-12.7 0.1,-5.6 l 0.2,-4.5 c 0.4,-0.7 21.1,-19.3 24.6,-5.2 7.6,19.1 -0.6,30.2 -8,29.9 0.1,2 0.9,4.5 2,6.7"
       fill="#fffeff"
       id="path120" />
    <path
       d="m 323.4,87.4 c -0.3,-1.7 -0.5,-3.5 -0.7,-5.4 -0.2,-5.2 -0.9,-15.5 -1.1,-16.2 -9,0 -6.7,-12.7 0.1,-5.6 l 0.2,-4.5 c 0.4,-0.7 21.1,-19.3 24.6,-5.2 7.6,19.1 -0.6,30.2 -8,29.9 0.1,2 0.9,4.5 2,6.7"
       stroke="#002460"
       stroke-width="0.5"
       stroke-linecap="round"
       stroke-linejoin="round"
       id="path122" />
    <path
       d="m 342.1,60 2.1,7.1 c 0,0 -2.5,1 -3.7,0.2"
       stroke="#002460"
       stroke-width="0.5"
       stroke-linecap="round"
       stroke-linejoin="round"
       id="path124" />
    <path
       d="m 333,79.7 5.6,0.7 1.1,4.7 z"
       fill="#002460"
       stroke="#002460"
       stroke-width="0.5"
       stroke-linecap="round"
       stroke-linejoin="round"
       id="path126" />
    <path
       d="m 340.4,67.3 c -0.2,-0.1 1.3,2.2 1.3,2.2 l 0.4,-1.8 c 0.1,0 -0.7,0.3 -1.7,-0.4 z"
       fill="#002460"
       stroke="#002460"
       stroke-width="0.5"
       stroke-linecap="round"
       stroke-linejoin="round"
       id="path128" />
    <path
       d="m 265.8,218.5 c -2.2,-10.3 -19.1,1.6 -10.9,6.9 3.7,2.4 12,-2.1 10.9,-6.9 z"
       fill="#002460"
       stroke="#002460"
       stroke-width="0.5"
       stroke-linecap="round"
       stroke-linejoin="round"
       id="path130" />
    <path
       d="m 261.7,224.9 c 3,-1.5 5.7,-5.2 1.2,-4.9 -5.7,0.6 -8.5,8.6 -1.2,4.9 z"
       fill="#fffeff"
       stroke="#002460"
       stroke-width="0.5"
       stroke-linecap="round"
       stroke-linejoin="round"
       id="path132" />
    <path
       d="m 271.8,235.3 c -2.3,-4.3 -4.9,-8.4 -7.8,-12.4 -0.3,-0.4 -0.6,-0.8 -1.1,-1 -0.7,-0.3 -1.5,0.1 -2.1,0.5 -0.4,0.3 -0.9,0.6 -1.1,1.1 -0.1,0.5 0.2,1 0.4,1.5 2.4,3.9 4.8,7.8 7.2,11.6 0.2,0.3 0.3,0.5 0.6,0.7 0.5,0.2 1.1,-0.1 1.5,-0.4 0.8,-0.6 1.5,-1.1 2.1,-1.9 0.2,0.1 0.2,0.1 0.3,0.3 z"
       fill="#fffeff"
       stroke="#002460"
       stroke-width="0.5"
       stroke-linecap="round"
       stroke-linejoin="round"
       id="path134" />
    <path
       d="m 277.8,237.8 c -2.2,-10.3 -19.1,1.6 -10.9,6.9 3.7,2.4 12,-2.1 10.9,-6.9 z"
       fill="#002460"
       stroke="#002460"
       stroke-width="0.5"
       stroke-linecap="round"
       stroke-linejoin="round"
       id="path136" />
    <path
       d="m 273.7,244.1 c 3,-1.5 5.7,-5.2 1.2,-4.9 -5.7,0.6 -8.5,8.7 -1.2,4.9 z"
       fill="#fffeff"
       stroke="#002460"
       stroke-width="0.5"
       stroke-linecap="round"
       stroke-linejoin="round"
       id="path138" />
    <path
       d="m 277,202.8 c 0,5.3 2.9,22.6 7.2,31.3 2.7,5.4 7.1,6 9.1,4.2 2.6,-2.4 6.3,-2 9.8,-7.1 0.4,-0.6 1.8,-2.2 0.5,-3.3 -2.7,1.8 -2.2,-1.3 -1.6,-2.2 0.6,-0.9 4.7,-2.5 5.3,-3.4 0.6,-0.9 0.4,-2.4 -0.6,-2.7 -0.4,-0.1 -5,1.3 -6.7,2.5 -2.9,-9 -1.9,-21.3 -1.9,-28.5"
       fill="#fffeff"
       id="path140" />
    <path
       d="m 277,202.8 c 0,5.3 2.9,22.6 7.2,31.3 2.7,5.4 7.1,6 9.1,4.2 2.6,-2.4 6.3,-2 9.8,-7.1 0.4,-0.6 1.8,-2.2 0.5,-3.3 -2.7,1.8 -2.2,-1.3 -1.6,-2.2 0.6,-0.9 4.7,-2.5 5.3,-3.4 0.6,-0.9 0.4,-2.4 -0.6,-2.7 -0.4,-0.1 -5,1.3 -6.7,2.5 -2.9,-9 -1.9,-21.3 -1.9,-28.5"
       stroke="#002460"
       stroke-width="0.5"
       stroke-linecap="round"
       stroke-linejoin="round"
       id="path142" />
    <path
       d="m 345,46.6999 c -1.9,3 -6.1,2.7 -12.7,8.2 -3.4,2.9 -13.3,4.1 -10.4,-2.8 5.1,-6.2 15.6,-9.7 23.2,-6.9 1.2,0.7 -0.3,3.5 -0.1,1.5 z"
       fill="#002460"
       stroke="#002460"
       stroke-width="0.5"
       stroke-linecap="round"
       stroke-linejoin="round"
       id="path144" />
    <path
       d="m 321.1,72.2 c 11.5,-0.3 3.3,-13.6 5.2,-18.6 3.8,-4.7 14.8,-6.2 19.6,-3.7 1.7,4.6 1.7,5 3.2,11.4 3,-10.9 1,-29.3 -16.2,-28.8 -11.9,0.4 -21.9,4.6 -23.5,16.4 -0.6,5.1 1.6,23.5 11.7,23.3 z"
       fill="#ff8800"
       id="path146" />
    <path
       d="m 315.8,66.5999 c 2.5,1.9 2,-3.1999 0.3,-3.3999 -1.4,0 -1.1,2.5999 -0.3,3.3999 z"
       fill="#fffeff"
       id="path148" />
    <path
       d="m 320.3,66.5999 c 2.5,1.9 2,-3.1999 0.3,-3.3999 -1.4,0 -1.1,2.5999 -0.3,3.3999 z"
       fill="#fffeff"
       id="path150" />
    <path
       d="m 275.5,164 -3.3,-7 3.9,-5 c 1.7,1 3.8,1 5.5,2 2.5,1.4 3.3,4.8 4,7.6 z"
       fill="#fffeff"
       stroke="#002460"
       stroke-width="0.5"
       stroke-miterlimit="10"
       id="path152" />
    <path
       d="m 274.1,167.9 c 31.6,-7.1 107.8,-19.3 127.4,-21.8 2.7,-0.3 2.6,-4 0.8,-4.8 -28.2,3.4 -99.6,15.4 -129.1,22"
       fill="#ff8800"
       id="path154" />
    <path
       d="m 273.1,155.8 -9.9,12.9 c 0.4,0.8 1.4,2.6 2.1,3.3 1.6,1.6 3.2,0.4 4.7,-0.3 2,-1 3.8,0.5 7.5,-2 1.7,-1.1 4.4,2.1 6.1,0.6 3.6,-3.2 -3,-7.7 -3.4,-11.4"
       fill="#fffeff"
       id="path156" />
    <path
       d="m 273.1,155.8 -9.9,12.9 c 0.4,0.8 1.4,2.6 2.1,3.3 1.6,1.6 3.2,0.4 4.7,-0.3 2,-1 3.8,0.5 7.5,-2 1.7,-1.1 4.4,2.1 6.1,0.6 3.6,-3.2 -3,-7.7 -3.4,-11.4"
       stroke="#002460"
       stroke-width="0.5"
       stroke-miterlimit="10"
       stroke-linecap="round"
       id="path158" />
    <path
       d="m 311.1,88.4 c 0.3,-1.7 0,-6.4 3.9,-4.8 2.2,0.9 4.5,4.2 4.1,5.8 -0.2,0.6 -1.6,0.2 -2.2,-0.2 -1,-0.8 -2.1,-3.4 -5.8,-0.8 z"
       fill="#fffeff"
       stroke="#002460"
       stroke-width="0.5"
       stroke-miterlimit="10"
       id="path160" />
    <path
       d="m 309.6,88.8999 c 0.3,-1.7 -0.5,-4.3 2.2,-4.4 2.5,-0.1 4.5,4.2 4.1,5.8 -0.2,0.6 -1.6,0.2 -2.2,-0.2 -1.1,-0.7 -1.6,-2.8 -4.1,-1.2 z"
       fill="#fffeff"
       stroke="#002460"
       stroke-width="0.5"
       stroke-miterlimit="10"
       id="path162" />
    <path
       d="m 305,90.6999 c 0.3,-1.7 0.7,-4.9 3.9,-4.8 2.4,0.1 4.5,4.2 4.1,5.8 -0.2,0.6 -1.6,0.2 -2.2,-0.2 -1.1,-0.8 -2.1,-3.4 -5.8,-0.8 z"
       fill="#fffeff"
       stroke="#002460"
       stroke-width="0.5"
       stroke-miterlimit="10"
       id="path164" />
    <path
       d="m 301.3,92.6999 c 0.3,-1.7 0.6,-5.3999 4.7,-4.3999 2.3,0.6 3.7,3.7999 3.2,5.3999 -0.2,0.6 -1.6,0.2001 -2.2,-0.1999 -1,-0.8 -2,-3.3001 -5.7,-0.8001 z"
       fill="#fffeff"
       stroke="#002460"
       stroke-width="0.5"
       stroke-miterlimit="10"
       id="path166" />
    <path
       d="m 242.2,142.4 c -0.1,-2.2 -0.3,-4.5 -0.4,-6.7 z"
       fill="#fffeff"
       id="path168" />
    <path
       d="m 242.2,142.4 c -0.1,-2.2 -0.3,-4.5 -0.4,-6.7"
       stroke="#002460"
       stroke-width="0.5"
       stroke-miterlimit="10"
       stroke-linecap="round"
       id="path170" />
    <path
       d="m 369.8,237.7 c 0.7,2 -0.7,4 -2.9,4.1 -12,3.2 -13.5,-4.9 -13.5,-14.8 0,-23.5 1.3,-44.8 9,-69.7 0.1,25.8 -2.1,54.4 7.4,80.4 z"
       fill="#f2f6fc"
       id="path172" />
    <path
       d="m 247.9,147.2 c 7.9,5.6 25.4,7.5 28.1,-4.4 0.1,-1.5 -0.7,-3 -2.3,-3.2 -7,0 -13.4,6.9 -21,4.4 -2.3,-1.1 -6.3,0.5 -4.8,3.2 z"
       fill="#f2f6fc"
       id="path174" />
    <path
       d="m 185.1,156.7 c 21.1,12.6 46.6,15.1 70.7,12.7 -23.6,-2.3 -46.7,-12.5 -70.1,-12.5 0,0 0,0.1 -0.6,-0.2 z"
       fill="#f2f6fc"
       id="path176" />
    <path
       d="m 394.3,110.7 c 23.2,-3.4 46.8,-4.4 70,-7.1 -12.8,-3.4 -58.9,-0.1 -70.1,6.5 0.2,0.3 0.4,0.5 0.1,0.6 z"
       fill="#f2f6fc"
       id="path178" />
  </g>
  <defs
     id="defs185">
    <clipPath
       id="clip0_101_796">
      <rect
         width="570"
         height="324"
         fill="#ffffff"
         id="rect182"
         x="0"
         y="0" />
    </clipPath>
  </defs>
</svg>
