<svg width="570" height="324" viewBox="0 0 570 324" fill="none" xmlns="http://www.w3.org/2000/svg">
    <g clip-path="url(#clip0_104_833)">
        <path opacity="0.9884" d="M132.8 72.2002H447.3C468.7 72.2002 486.1 89.5002 486.1 111V212.7C486.1 234.1 468.8 251.5 447.3 251.5H132.8C111.4 251.5 94 234.2 94 212.7V110.9C94 89.5002 111.4 72.2002 132.8 72.2002Z" fill="#D9E4F7"/>
        <path opacity="0.9884" d="M177.6 104.6H130C130 104.6 135.5 95.3998 142.4 97.9998C149.3 100.6 141.5 91.6998 152.8 94.2998C165.6 97.2998 159.5 90.1998 167.7 97.0998C169.4 98.5998 178 97.4998 177.6 104.6Z" fill="white"/>
        <path opacity="0.9884" fill-rule="evenodd" clip-rule="evenodd" d="M94 186.299V160.6C94.0001 160.6 94.0002 160.6 94.0003 160.6C106.3 156 113.1 163 115.7 168.6C119.177 175.933 125.073 178.221 129.863 180.079C133.89 181.641 137.135 182.9 137.5 186.6L94.0003 186.3C94.0003 186.3 94.0002 186.3 94 186.299Z" fill="white"/>
        <path opacity="0.9884" fill-rule="evenodd" clip-rule="evenodd" d="M482.67 228.686C481.799 230.613 480.775 232.456 479.614 234.2H386.1C386.1 234.2 388.6 215.4 400.4 223.4C404.926 226.452 405.962 224.658 407.633 221.762C409.138 219.156 411.157 215.658 416.7 214C424.9 211.6 433.2 221.2 433.2 221.2C433.2 221.2 456.7 202.1 464.8 216.2C469.092 223.725 475.097 225.886 479.72 227.55C480.79 227.935 481.786 228.293 482.67 228.686Z" fill="white"/>
        <path opacity="0.9884" d="M195.8 237.6H123.6C123.6 237.6 131.2 226 142.3 227.5C147.3 228.1 148.8 216.6 158 221.9C175.3 231.8 168.6 221.6 181.1 232.1C183.8 234.2 196.4 226.7 195.8 237.6Z" fill="white"/>
        <path opacity="0.9884" d="M453.5 117.6H385.5C385.5 117.6 393.3 110.8 403.2 112.7C413.1 114.6 403.2 109.2 419.5 107.3C429.3 106.1 435.8 110.3 439.4 112.1C441.7 113.3 454.1 112.3 453.5 117.6Z" fill="white"/>
        <path d="M267.6 177C266.5 179.4 264.5 181.3 262.2 182.5C262.3 186.9 262.4 191.2 262.3 195.6C270.6 193.9 277.2 186.3 278 177.7C274.6 178 271.1 177.8 267.6 177Z" fill="white" stroke="#002460" stroke-width="0.5" stroke-miterlimit="10" stroke-linecap="round" stroke-linejoin="round"/>
        <path d="M264 323C263.6 281.4 265.7 212.1 262.9 170.6C261.9 156.1 256.1 134.6 249.6 121C241.7 104.6 219.2 104.4 205.1 112.8C182.7 126.1 173.7 222.5 206.8 206.9C207.1 234.6 207.3 295.8 207.6 323.5" fill="white"/>
        <path d="M264 323C263.6 281.4 265.7 212.1 262.9 170.6C261.9 156.1 256.1 134.6 249.6 121C241.7 104.6 219.2 104.4 205.1 112.8C182.7 126.1 173.7 222.5 206.8 206.9C207.1 234.6 207.3 295.8 207.6 323.5" stroke="#002460" stroke-width="0.5" stroke-miterlimit="10" stroke-linecap="round" stroke-linejoin="round"/>
        <path d="M220.601 190.7C230.201 213.5 207.601 240.6 207.601 206.8C207.701 206.8 216.401 203.2 220.601 190.7Z" fill="#F2F6FC"/>
        <path d="M220.3 190.4C220.4 203.6 220.1 216.2 219.9 228.5H206.8" stroke="#002460" stroke-width="0.5" stroke-miterlimit="10" stroke-linecap="round" stroke-linejoin="round"/>
        <path d="M209.8 110.5C216.5 136.3 219.5 160.1 220.1 181.9" stroke="#002460" stroke-width="0.5" stroke-miterlimit="10" stroke-linecap="round" stroke-linejoin="round"/>
        <path d="M238.5 110.1C257.3 166.3 254.3 210.5 254.9 228.6H264.4" stroke="#002460" stroke-width="0.5" stroke-miterlimit="10" stroke-linecap="round" stroke-linejoin="round"/>
        <path d="M312.1 125.1C308.4 123.2 306.8 118 308.7 114.3C301.9 113.6 300.7 103.4 307.1 101C299.6 95.6002 299.3 83.4002 306.5 77.7001C294.3 63.1001 312.8 36.7002 327.2 49.1002C336.9 35.1002 365 34.4002 360.4 57.5002C381.6 59.0002 386.2 74.9002 372.7 90.5002C372.6 91.5002 373.5 92.2002 374.2 92.9002C381.4 99.0002 378.7 112.4 369.2 114C370.7 131.4 344.5 132 332.5 132.3C325.1 132 318.6 128.4 312.1 125.1Z" fill="#002460" stroke="#002460" stroke-width="0.5" stroke-miterlimit="10" stroke-linecap="round" stroke-linejoin="round"/>
        <path d="M205.7 190C205.5 185.3 205.4 180.6 205.2 175.9L198.8 175.6C198.8 175.6 196.9 186.9 200.5 189.6C203.4 191.8 205.7 190 205.7 190Z" fill="#D9E4F7" stroke="#002460" stroke-width="0.5" stroke-miterlimit="10" stroke-linecap="round" stroke-linejoin="round"/>
        <path d="M214.3 108.9C217.6 117.3 222.1 140.5 222.1 140.5L241.6 138.1C241.6 138.1 239.3 119.5 233.8 108.4" stroke="#002460" stroke-width="0.5" stroke-miterlimit="10" stroke-linecap="round" stroke-linejoin="round"/>
        <path d="M285.5 175.9C285.4 179.8 285.8 183.6 286.7 187.4C287.6 191.1 289 194.8 291.8 197.3C294.1 199.4 297.2 200.4 300.3 200.2C301.4 194.8 301.9 189.2 301.8 183.7C300.2 183.6 298.6 182.7 297.5 181.4C296.4 180.2 295.7 178.6 295.4 176.9C295.4 176.8 295.3 176.6 295.2 176.5C295.1 176.4 294.9 176.4 294.8 176.4C292.1 176.2 289.7 176.1 285.5 175.9Z" fill="white" stroke="#002460" stroke-width="0.5" stroke-miterlimit="10" stroke-linecap="round" stroke-linejoin="round"/>
        <path d="M299.6 323.6C299.6 323.6 296.3 191.6 301.5 137.1C302.3 128.2 308.3 120.3 315.4 115C322.7 109.6 332 108.2 340.9 107.4C364.8 105.4 375.9 126.5 376.4 147.8C376.7 161.1 382.3 197.8 371 205.2L371.5 323.6" fill="white"/>
        <path d="M299.6 323.6C299.6 323.6 296.3 191.6 301.5 137.1C302.3 128.2 308.3 120.3 315.4 115C322.7 109.6 332 108.2 340.9 107.4C364.8 105.4 375.9 126.5 376.4 147.8C376.7 161.1 382.3 197.8 371 205.2L371.5 323.6" stroke="#002460" stroke-width="0.5" stroke-miterlimit="10" stroke-linecap="round" stroke-linejoin="round"/>
        <path d="M327 109.7C323.7 116.6 320.3 125.2 322.7 132.7C325.5 141.3 335.9 140.2 341.9 134.2C348.9 127.2 352.2 118.2 353.8 108.8" fill="white"/>
        <path d="M327 109.7C323.7 116.6 320.3 125.2 322.7 132.7C325.5 141.3 335.9 140.2 341.9 134.2C348.9 127.2 352.2 118.2 353.8 108.8" stroke="#002460" stroke-width="0.5" stroke-miterlimit="10" stroke-linecap="round" stroke-linejoin="round"/>
        <path d="M200.5 155.2C201.3 151.8 202.4 148.4 203.8 145.2C204.1 148.7 204.4 152.2 204.7 155.7" fill="#D9E4F7"/>
        <path d="M200.5 155.2C201.3 151.8 202.4 148.4 203.8 145.2C204.1 148.7 204.4 152.2 204.7 155.7" stroke="#002460" stroke-width="0.5" stroke-miterlimit="10" stroke-linecap="round" stroke-linejoin="round"/>
        <path d="M339.5 178.8C338.4 188.5 337.5 198.8 342 208C348.8 221.9 364.8 221.9 369.7 206.1C351.6 211.8 339.1 195 339.5 178.8Z" fill="#F2F6FC"/>
        <path d="M394.1 153.7H181.2V176H394.1V153.7Z" fill="#2F6DD5"/>
        <path d="M206.8 207C216.2 201.7 221.2 193.7 221.4 181.8L210.8 180.9C210.1 185 206.5 192.2 202.1 190.6C197.2 188.8 198.3 180.7 198.8 176" stroke="#002460" stroke-width="0.5" stroke-miterlimit="10" stroke-linecap="round" stroke-linejoin="round"/>
        <path d="M138.7 145.6C131.9 152.6 129.1 162.1 130.2 171.2L147.6 153.4L170.8 155.9L173.2 179.6L155.8 197.4C164.7 198.6 173.9 195.7 180.7 188.7C192.3 176.8 192.3 157.5 180.7 145.6C169.2 133.7 150.3 133.7 138.7 145.6Z" fill="#2F6DD5"/>
        <path d="M431.301 184.2C438.101 177.2 440.901 167.7 439.801 158.6L422.401 176.4L399.201 173.9L396.801 150.2L414.201 132.4C405.301 131.2 396.101 134.1 389.301 141.1C377.701 153 377.701 172.3 389.301 184.2C400.801 196.1 419.701 196.1 431.301 184.2Z" fill="#2F6DD5"/>
        <path d="M370.9 205.2C355.5 217.5 337.5 195.4 339.7 179.4C343.9 179.1 348.1 178.4 352.2 177.2C353.9 187.3 364 185.8 364 176" fill="white"/>
        <path d="M370.9 205.2C355.5 217.5 337.5 195.4 339.7 179.4C343.9 179.1 348.1 178.4 352.2 177.2C353.9 187.3 364 185.8 364 176" stroke="#002460" stroke-width="0.5" stroke-miterlimit="10" stroke-linecap="round" stroke-linejoin="round"/>
        <path d="M195.9 167.8V162C195.9 160.6 197.1 159.4 198.5 159.4H376.8C378.2 159.4 379.4 160.6 379.4 162V167.8C379.4 169.2 378.2 170.4 376.8 170.4H198.5C197.1 170.4 195.9 169.3 195.9 167.8Z" fill="#2F6DD5" stroke="white" stroke-miterlimit="10"/>
        <path d="M332 108.7C321.8 142.4 342.4 130.9 346.8 107.4" stroke="#002460" stroke-width="0.5" stroke-miterlimit="10" stroke-linecap="round" stroke-linejoin="round"/>
        <path d="M218 77.1C217.4 60.7 238.3 54.1 243.4 69.6L218 77.1Z" fill="white"/>
        <path d="M218 77.1C217.4 60.7 238.3 54.1 243.4 69.6" stroke="#002460" stroke-width="0.5" stroke-miterlimit="10" stroke-linecap="round" stroke-linejoin="round"/>
        <path d="M209.5 176.1C209.5 182.1 211.7 181.1 214.8 181.4C217.3 181.6 220.7 182.6 222.7 181.1C224.6 179.8 227 173.8 227.7 169C228.7 162.5 221.8 174.2 222 176.1" fill="white"/>
        <path d="M209.5 176.1C209.5 182.1 211.7 181.1 214.8 181.4C217.3 181.6 220.7 182.6 222.7 181.1C224.6 179.8 227 173.8 227.7 169C228.7 162.5 221.8 174.2 222 176.1" stroke="#002460" stroke-width="0.5" stroke-miterlimit="10" stroke-linecap="round" stroke-linejoin="round"/>
        <path d="M218.3 171.6L216.3 177.6L223.2 178.3L224.6 174.2L218.3 171.6Z" fill="white"/>
        <path d="M221 170.9C228.3 156.7 225.4 172.2 222.5 177.5L221 170.9Z" fill="white"/>
        <path d="M221 170.9C228.3 156.7 225.4 172.2 222.5 177.5" stroke="#002460" stroke-width="0.5" stroke-miterlimit="10" stroke-linecap="round" stroke-linejoin="round"/>
        <path d="M218.8 170C224.5 156.4 222.5 172.5 220.3 177.1L218.8 170Z" fill="white"/>
        <path d="M218.8 170C224.5 156.4 222.5 172.5 220.3 177.1" stroke="#002460" stroke-width="0.5" stroke-miterlimit="10" stroke-linecap="round" stroke-linejoin="round"/>
        <path d="M214.3 176.1C215.6 173.8 216.3 170.9 217 168.2C219.8 157.3 221.1 171.2 218 176.8" fill="white"/>
        <path d="M214.3 176.1C215.6 173.8 216.3 170.9 217 168.2C219.8 157.3 221.1 171.2 218 176.8" stroke="#002460" stroke-width="0.5" stroke-miterlimit="10" stroke-linecap="round" stroke-linejoin="round"/>
        <path d="M352.8 175.9C352.8 180.9 350.6 180.1 347.6 180.3C345.1 180.5 341.8 181.3 339.8 180.1C337.9 179 335.6 174 334.9 170C333.9 164.6 340.7 174.3 340.5 175.9" fill="white"/>
        <path d="M352.8 175.9C352.8 180.9 350.6 180.1 347.6 180.3C345.1 180.5 341.8 181.3 339.8 180.1C337.9 179 335.6 174 334.9 170C333.9 164.6 340.7 174.3 340.5 175.9" stroke="#002460" stroke-width="0.5" stroke-miterlimit="10" stroke-linecap="round" stroke-linejoin="round"/>
        <path d="M344.1 172.2L346.1 177.2L339.2 177.8L337.9 174.4L344.1 172.2Z" fill="white"/>
        <path d="M341.5 171.7C334.3 159.9 337.1 172.8 340 177.2L341.5 171.7Z" fill="white"/>
        <path d="M341.5 171.7C334.3 159.9 337.1 172.8 340 177.2" stroke="#002460" stroke-width="0.5" stroke-miterlimit="10" stroke-linecap="round" stroke-linejoin="round"/>
        <path d="M343.601 170.8C338.001 159.5 339.901 172.9 342.101 176.7L343.601 170.8Z" fill="white"/>
        <path d="M343.601 170.8C338.001 159.5 339.901 172.9 342.101 176.7" stroke="#002460" stroke-width="0.5" stroke-miterlimit="10" stroke-linecap="round" stroke-linejoin="round"/>
        <path d="M348.1 176C346.8 174.1 346.1 171.7 345.5 169.4C342.8 160.3 341.5 171.9 344.5 176.5" fill="white"/>
        <path d="M348.1 176C346.8 174.1 346.1 171.7 345.5 169.4C342.8 160.3 341.5 171.9 344.5 176.5" stroke="#002460" stroke-width="0.5" stroke-miterlimit="10" stroke-linecap="round" stroke-linejoin="round"/>
        <path d="M217.8 77.2001C232.6 71.5001 249 66.6001 265 67.1001C257 74.7001 231.1 78.8001 219.9 78.6001" fill="white"/>
        <path d="M217.8 77.2001C232.6 71.5001 249 66.6001 265 67.1001C257 74.7001 231.1 78.8001 219.9 78.6001" stroke="#002460" stroke-width="0.5" stroke-miterlimit="10" stroke-linecap="round" stroke-linejoin="round"/>
        <path d="M267.5 176.1C265 181.3 276.3 181.1 278.3 177.6C284.1 163.1 279 159.7 275.5 176.1" fill="white"/>
        <path d="M267.5 176.1C265 181.3 276.3 181.1 278.3 177.6C284.1 163.1 279 159.7 275.5 176.1" stroke="#002460" stroke-width="0.5" stroke-miterlimit="10" stroke-linecap="round" stroke-linejoin="round"/>
        <path d="M274.4 172L272.5 177.4L276.5 177.8L278.2 174.1L274.4 172Z" fill="white"/>
        <path d="M274.5 170C280.2 156.4 278.2 172.5 276 177.1L274.5 170Z" fill="white"/>
        <path d="M274.5 170C280.2 156.4 278.2 172.5 276 177.1" stroke="#002460" stroke-width="0.5" stroke-miterlimit="10" stroke-linecap="round" stroke-linejoin="round"/>
        <path d="M270 176.1C271.3 173.8 272 170.9 272.7 168.2C275.5 157.3 276.8 171.2 273.7 176.8" fill="white"/>
        <path d="M270 176.1C271.3 173.8 272 170.9 272.7 168.2C275.5 157.3 276.8 171.2 273.7 176.8" stroke="#002460" stroke-width="0.5" stroke-miterlimit="10" stroke-linecap="round" stroke-linejoin="round"/>
        <path d="M267.5 176.1C268.8 173.8 269.2 172.1 270 169.4C272.5 160.2 273.8 172 271.2 176.8" fill="white"/>
        <path d="M267.5 176.1C268.8 173.8 269.2 172.1 270 169.4C272.5 160.2 273.8 172 271.2 176.8" stroke="#002460" stroke-width="0.5" stroke-miterlimit="10" stroke-linecap="round" stroke-linejoin="round"/>
        <path d="M295.1 175.1C297.4 179 287 178.9 285.2 176.2C279.9 165.2 284.6 162.7 287.8 175.1" fill="white"/>
        <path d="M295.1 175.1C297.4 179 287 178.9 285.2 176.2C279.9 165.2 284.6 162.7 287.8 175.1" stroke="#002460" stroke-width="0.5" stroke-miterlimit="10" stroke-linecap="round" stroke-linejoin="round"/>
        <path d="M288.8 172.101L290.6 176.101L286.9 176.401L285.3 173.601L288.8 172.101Z" fill="white"/>
        <path d="M288.7 170.5C283.5 160.2 285.3 172.4 287.3 175.9L288.7 170.5Z" fill="white"/>
        <path d="M288.7 170.5C283.5 160.2 285.3 172.4 287.3 175.9" stroke="#002460" stroke-width="0.5" stroke-miterlimit="10" stroke-linecap="round" stroke-linejoin="round"/>
        <path d="M292.8 175.1C291.6 173.4 291 171.2 290.4 169.1C287.9 160.9 286.7 171.4 289.5 175.6" fill="white"/>
        <path d="M292.8 175.1C291.6 173.4 291 171.2 290.4 169.1C287.9 160.9 286.7 171.4 289.5 175.6" stroke="#002460" stroke-width="0.5" stroke-miterlimit="10" stroke-linecap="round" stroke-linejoin="round"/>
        <path d="M295.101 175.1C293.901 173.4 293.501 172.1 292.801 170C290.501 163 289.301 172 291.701 175.6" fill="white"/>
        <path d="M295.101 175.1C293.901 173.4 293.501 172.1 292.801 170C290.501 163 289.301 172 291.701 175.6" stroke="#002460" stroke-width="0.5" stroke-miterlimit="10" stroke-linecap="round" stroke-linejoin="round"/>
        <path d="M219.2 94.0001C219.6 98.5001 219.9 103.1 220.4 107.6C225.1 113.5 229.5 110.9 228.6 102.6C248.5 103.5 247.5 88.4001 243.9 73.1001C235.1 72.9001 226.4 75.0001 217.8 77.2001L218.5 86.4001C211.3 81.7001 213.8 93.9001 219.2 94.0001Z" fill="white" stroke="#002460" stroke-width="0.5" stroke-miterlimit="10" stroke-linecap="round" stroke-linejoin="round"/>
        <path d="M239.3 73.2002C237.4 77.3002 236 78.6002 232 76.0002C230.2 79.1002 226.9 85.2002 225.9 78.1002C224.8 80.9002 222.7 82.8002 220 83.7002C220.1 84.8002 220 87.3002 218.6 86.5002C218.4 83.5002 218.2 80.2002 218 77.2002C225.2 75.5002 231.1 74.1002 239.3 73.2002Z" fill="#002460" stroke="#002460" stroke-width="0.5" stroke-miterlimit="10" stroke-linecap="round" stroke-linejoin="round"/>
        <path d="M241.401 80.5L242.801 88.1L237.601 88.7" stroke="#002460" stroke-width="0.5" stroke-miterlimit="10" stroke-linecap="round" stroke-linejoin="round"/>
        <path d="M224.601 102.1L228.601 102.6V106.1L224.601 102.1Z" fill="#002460" stroke="#002460" stroke-width="0.5" stroke-miterlimit="10" stroke-linecap="round" stroke-linejoin="round"/>
        <path d="M237.601 88.7004L239.901 88.4004L239.301 91.0004L237.601 88.7004Z" fill="#002460" stroke="#002460" stroke-width="0.5" stroke-miterlimit="10" stroke-linecap="round" stroke-linejoin="round"/>
        <path d="M237.701 242.6C237.701 259.8 237.601 306.3 237.601 323.5L237.701 242.6Z" fill="white"/>
        <path d="M237.701 242.6C237.701 259.8 237.601 306.3 237.601 323.5" stroke="#002460" stroke-width="0.5" stroke-miterlimit="10" stroke-linecap="round" stroke-linejoin="round"/>
        <path d="M330.701 269.7C330.701 277.9 330.601 316.1 330.601 324.3L330.701 269.7Z" fill="white"/>
        <path d="M330.701 269.7C330.701 277.9 330.601 316.1 330.601 324.3" stroke="#002460" stroke-width="0.5" stroke-miterlimit="10" stroke-linecap="round" stroke-linejoin="round"/>
        <path d="M335.1 99.1001C334.9 102.9 334.7 108.3 334.7 108.3C335.8 111.6 339.2 111.4 342.3 107.4C342.3 107.4 342.7 96.7001 343 90.3001C349.2 89.2001 354.4 76.6001 344.2 82.5001C345.8 76.1001 336.4 89.4001 334.4 72.2001C331 76.9001 320.5 67.6001 319.2 71.3001C314 85.3001 313.2 101 335.1 99.1001Z" fill="white" stroke="#002460" stroke-width="0.5" stroke-miterlimit="10" stroke-linecap="round" stroke-linejoin="round"/>
        <path d="M320.7 79.5L319.9 89L322.3 89.4" stroke="#002460" stroke-width="0.5" stroke-miterlimit="10" stroke-linecap="round" stroke-linejoin="round"/>
        <path d="M321.101 89.2002L322.301 89.4002L321.601 91.9002L321.101 89.2002Z" fill="#002460" stroke="#002460" stroke-width="0.5" stroke-miterlimit="10" stroke-linecap="round" stroke-linejoin="round"/>
        <path d="M335.101 99.1002L338.301 98.7002L335.101 101.6V99.1002Z" fill="#002460" stroke="#002460" stroke-width="0.5" stroke-miterlimit="10" stroke-linecap="round" stroke-linejoin="round"/>
        <path d="M371.201 237.6H298.601V258.6H371.201V237.6Z" fill="#002460" stroke="#002460" stroke-width="0.5" stroke-miterlimit="10" stroke-linecap="round" stroke-linejoin="round"/>
    </g>
    <defs>
        <clipPath id="clip0_104_833">
            <rect width="570" height="324" fill="white"/>
        </clipPath>
    </defs>
</svg>
