<svg width="570" height="324" viewBox="0 0 570 324" fill="none" xmlns="http://www.w3.org/2000/svg">
    <g clip-path="url(#clip0_104_866)">
        <path opacity="0.9884" d="M128.8 72.2002H443.3C464.7 72.2002 482.1 89.5002 482.1 111V212.7C482.1 234.1 464.8 251.5 443.3 251.5H128.8C107.4 251.5 90 234.2 90 212.7V110.9C90 89.5002 107.4 72.2002 128.8 72.2002Z" fill="#D9E4F7"/>
        <path d="M93.6998 324C90.0998 317.1 97.5998 308.5 104.7 311.8C98.7998 302.8 105.1 289.6 115.9 288.6C113.1 278.6 124.4 255.8 131.9 273.8C138.2 267.1 150.1 268.6 154.5 276.7C150.9 264.6 155.9 244.4 170.2 243.5C179.7 242.9 184.1 254.9 180.7 262.8C187.8 259.1 192.3 267 192.5 273.1" stroke="#598BDE" stroke-width="0.5" stroke-miterlimit="10" stroke-linecap="round" stroke-linejoin="round"/>
        <path d="M134.499 324C131.099 318.1 138.399 312.2 143.799 316.3C144.699 302.7 160.299 295.9 172.499 299C170.999 289.2 179.899 279.9 189.699 281C189.499 270.8 201.599 264 210.199 269.4C222.599 251.4 240.899 274.3 230.499 291.6C237.499 294.5 243.499 299.8 247.199 306.3" stroke="#598BDE" stroke-width="0.5" stroke-miterlimit="10" stroke-linecap="round" stroke-linejoin="round"/>
        <path d="M230.2 324C231.9 317 239.1 312.2 246.3 313.1C245.7 305.4 252.4 298 260 297.7C260.1 287.8 263.8 274.5 273.6 271.1C284 267.5 290.5 283.7 287.4 292.5C296.3 295.5 299.4 305.2 298.2 313.7C298.8 317.3 302.7 320.3 302.4 323.9" stroke="#598BDE" stroke-width="0.5" stroke-miterlimit="10" stroke-linecap="round" stroke-linejoin="round"/>
        <path d="M198.6 229.4H102.6V236.9H198.6V229.4Z" stroke="#598BDE" stroke-width="0.5" stroke-miterlimit="10" stroke-linecap="round" stroke-linejoin="round"/>
        <path d="M150.6 197.5C129.9 197.5 112.5 211.1 108.2 229.3H193C188.7 211.2 171.3 197.5 150.6 197.5Z" stroke="#598BDE" stroke-width="0.5" stroke-miterlimit="10" stroke-linecap="round" stroke-linejoin="round"/>
        <path d="M107.1 292.8V237H194V271.4" stroke="#598BDE" stroke-width="0.5" stroke-miterlimit="10" stroke-linecap="round" stroke-linejoin="round"/>
        <path d="M125.6 258.1C129.355 258.1 132.4 255.056 132.4 251.3C132.4 247.544 129.355 244.5 125.6 244.5C121.844 244.5 118.8 247.544 118.8 251.3C118.8 255.056 121.844 258.1 125.6 258.1Z" stroke="#598BDE" stroke-width="0.5" stroke-miterlimit="10" stroke-linecap="round" stroke-linejoin="round"/>
        <path d="M228.399 266.8V156C228.399 154 229.999 152.4 231.999 152.4H278.799V271" stroke="#598BDE" stroke-width="0.5" stroke-miterlimit="10" stroke-linecap="round" stroke-linejoin="round"/>
        <path d="M210.699 118.7H174.199V163.7H210.699V118.7Z" stroke="#598BDE" stroke-width="0.5" stroke-miterlimit="10" stroke-linecap="round" stroke-linejoin="round"/>
        <path d="M214.099 163.7H170.899V169.1H214.099V163.7Z" stroke="#598BDE" stroke-width="0.5" stroke-miterlimit="10" stroke-linecap="round" stroke-linejoin="round"/>
        <path d="M172.887 172.213H212.087V169.113H172.887V172.213Z" stroke="#598BDE" stroke-width="0.5" stroke-miterlimit="10" stroke-linecap="round" stroke-linejoin="round"/>
        <path d="M192 225.8H210.7V268.9" stroke="#598BDE" stroke-width="0.5" stroke-miterlimit="10" stroke-linecap="round" stroke-linejoin="round"/>
        <path d="M174.2 204.2V172.2H210.7V217.2" stroke="#598BDE" stroke-width="0.5" stroke-miterlimit="10" stroke-linecap="round" stroke-linejoin="round"/>
        <path d="M187.8 217.2H214.1V222.6H190.8" stroke="#598BDE" stroke-width="0.5" stroke-miterlimit="10" stroke-linecap="round" stroke-linejoin="round"/>
        <path d="M191.9 225.7H212.1V222.6H190.7" stroke="#598BDE" stroke-width="0.5" stroke-miterlimit="10" stroke-linecap="round" stroke-linejoin="round"/>
        <path d="M170.887 118.639H214.087V113.039H170.887V118.639Z" stroke="#598BDE" stroke-width="0.5" stroke-miterlimit="10" stroke-linecap="round" stroke-linejoin="round"/>
        <path d="M212.099 110H172.899V113.1H212.099V110Z" stroke="#598BDE" stroke-width="0.5" stroke-miterlimit="10" stroke-linecap="round" stroke-linejoin="round"/>
        <path d="M192.5 88.5L175.5 110H209.5L192.5 88.5Z" stroke="#598BDE" stroke-width="0.5" stroke-miterlimit="10" stroke-linecap="round" stroke-linejoin="round"/>
        <path d="M241 152.5L240.5 298" stroke="#598BDE" stroke-width="0.5" stroke-miterlimit="10" stroke-linecap="round" stroke-linejoin="round"/>
        <path d="M254.3 152.5L253.8 299.5" stroke="#598BDE" stroke-width="0.5" stroke-miterlimit="10" stroke-linecap="round" stroke-linejoin="round"/>
        <path d="M267.8 152.5L267.3 275.4" stroke="#598BDE" stroke-width="0.5" stroke-miterlimit="10" stroke-linecap="round" stroke-linejoin="round"/>
        <path d="M189 143V133C189 131.1 190.6 129.5 192.5 129.5C194.4 129.5 196 131.1 196 133V143H189Z" stroke="#598BDE" stroke-width="0.5" stroke-miterlimit="10" stroke-linecap="round" stroke-linejoin="round"/>
        <path fill-rule="evenodd" clip-rule="evenodd" d="M90 111.9V110.9C90 106.938 90.5964 103.117 91.704 99.5202C94.3112 99.1369 96.7875 101.449 98.3998 103.4C109.495 97.0065 109.902 99.3358 110.336 101.817C110.595 103.294 110.862 104.824 113.4 104.6C115.524 104.167 117.649 103.007 119.768 101.85C123.034 100.066 126.285 98.2905 129.5 99.2003C131.231 99.6811 131.482 102.104 131.677 103.978C131.684 104.053 131.692 104.127 131.7 104.2C132.134 108.976 134.779 108.446 137.906 107.819C141.261 107.146 145.171 106.362 147.5 111.9H90Z" fill="white"/>
        <path d="M408.1 132.9H467.8C463.3 122.2 455.2 135.1 454.3 125.2C454.1 123.3 451.7 120.7 449.9 120.2C444.6 118.7 439.5 122.2 434 123.3C427.2 123.9 437.2 108.7 419.5 118.8C417.6 116.5 413.7 119.2 410.6 120.9C409.3 125 408.4 129.1 408.1 132.9Z" fill="white"/>
        <path d="M174 174.3L121.8 174.5C123.9 171.5 128.3 169.5 131.4 171.3C133.9 170 148.8 160 146.5 167.9C150.3 165 160.3 157.6 164.3 162.2C163.3 169.4 170.5 161.4 173.9 160.7V163.4H170.6V169.3H172.6V172.4H174" fill="white"/>
        <path d="M214.899 97.5H253.799C253.799 97.1 254.099 92.1 253.699 92C253.399 91.9 253.099 92 252.799 92.2C251.699 92.8 250.499 93.3 249.399 93.9C249.899 91.7 250.199 88.7 248.099 87.6C246.699 86.8 244.999 87.5 243.599 88.2C241.599 89.2 239.799 90.3 237.999 91.6C237.199 92.2 236.099 92.8 235.299 92.2C234.399 91.6 234.499 89.9 233.499 89.8C233.099 89.7 232.799 89.9 232.399 90.1C229.799 91.6 227.199 93 224.599 94.5C223.999 94.9 223.199 95.2 222.599 95C222.199 94.8 221.899 94.5 221.499 94.2C220.299 93.4 218.599 94.2 217.599 95.2C216.499 96.3 215.399 96.7 214.899 97.5Z" fill="white"/>
        <path d="M260.299 72.1997C250.899 77.6997 247.399 90.8997 245.199 101.6C232.699 161.1 267.499 220.6 327.699 221.9C339.399 224.1 356.199 193.3 363.299 184.4C348.299 183 332.299 184.8 318.299 178.9C280.699 162.9 267.199 120.5 277.499 82.8997" fill="white"/>
        <path d="M260.299 72.1997C250.899 77.6997 247.399 90.8997 245.199 101.6C232.699 161.1 267.499 220.6 327.699 221.9C339.399 224.1 356.199 193.3 363.299 184.4C348.299 183 332.299 184.8 318.299 178.9C280.699 162.9 267.199 120.5 277.499 82.8997" stroke="#002460" stroke-width="0.5" stroke-miterlimit="10" stroke-linecap="round" stroke-linejoin="round"/>
        <path d="M278.1 84.4998C270.5 69.2998 279.4 61.3998 287.7 49.9998C291 45.3998 293.5 34.4998 298 30.9998C311 20.5998 333.1 30.4998 343.7 42.4998" fill="white"/>
        <path d="M278.1 84.4998C270.5 69.2998 279.4 61.3998 287.7 49.9998C291 45.3998 293.5 34.4998 298 30.9998C311 20.5998 333.1 30.4998 343.7 42.4998" stroke="#002460" stroke-width="0.5" stroke-miterlimit="10" stroke-linecap="round" stroke-linejoin="round"/>
        <path d="M331.2 218.9C300.9 220 272.9 207.1 256.1 171.6C253.1 165.3 264.3 172.9 267.1 174.8C287.7 187.9 310.8 196.3 334.6 201.1C343 203.7 335.7 215.5 331.2 218.9Z" fill="#F2F6FC"/>
        <path d="M334.941 91.1371C373.669 65.6983 399.706 36.9184 393.096 26.8556C386.486 16.7927 349.733 29.2574 311.004 54.6962C272.276 80.1351 246.239 108.915 252.849 118.978C259.459 129.041 296.213 116.576 334.941 91.1371Z" fill="white" stroke="#002460" stroke-width="0.5" stroke-miterlimit="10" stroke-linecap="round" stroke-linejoin="round"/>
        <path d="M334.043 89.3743C367.648 67.301 390.219 42.2972 384.458 33.5269C378.698 24.7565 346.786 35.5406 313.181 57.6139C279.577 79.6871 257.005 104.691 262.766 113.461C268.527 122.232 300.439 111.448 334.043 89.3743Z" fill="#F2F6FC"/>
        <path d="M329.891 80.2628C351.124 66.3154 365.88 51.2668 362.847 46.6508C359.815 42.0348 340.144 49.5994 318.911 63.5468C297.677 77.4942 282.922 92.5428 285.954 97.1588C288.986 101.775 308.657 94.2102 329.891 80.2628Z" fill="#002460" stroke="#002460" stroke-width="0.5" stroke-miterlimit="10" stroke-linecap="round" stroke-linejoin="round"/>
        <path d="M326.1 93.1999C297.8 79.5999 316 45.4999 345.1 62.0999C367.6 74.8999 414 50.9999 421.1 85.2999C424.3 100.8 411.1 116.3 416.3 132C425 147 417.4 158 400.8 149.7" fill="white"/>
        <path d="M326.1 93.1999C297.8 79.5999 316 45.4999 345.1 62.0999C367.6 74.8999 414 50.9999 421.1 85.2999C424.3 100.8 411.1 116.3 416.3 132C425 147 417.4 158 400.8 149.7" stroke="#002460" stroke-width="0.5" stroke-miterlimit="10" stroke-linecap="round" stroke-linejoin="round"/>
        <path d="M304.899 324.2C304.899 120.7 491.799 117 487.099 324L304.899 324.2Z" fill="white"/>
        <path d="M304.899 324.2C304.899 120.7 491.799 117 487.099 324" stroke="#002460" stroke-width="0.5" stroke-miterlimit="10" stroke-linecap="round" stroke-linejoin="round"/>
        <path d="M383.3 150C384.1 159.5 385.4 171.5 385.4 171.5C386.2 181.3 406.3 183.4 410.2 171.9C410.2 160.9 410.3 149.9 410.3 138.9C410.2 137.5 410.8 136.3 411.9 135.6C420 128.9 431 107.9 421.1 102.3C412.7 97.4999 409.3 112.7 405.1 118.7C401.6 123.6 398.8 118 399.5 113.8C400.4 108.1 410.1 92.7999 401.7 90.3999C395 88.4999 374.8 82.8999 370.4 88.1999C369.1 89.7999 373.4 91.4999 370.5 94.1999C361.5 102.6 339.3 92.4999 326.2 89.9999C328.3 147.4 316.7 157.1 383.3 150Z" fill="white" stroke="#002460" stroke-width="0.5" stroke-miterlimit="10" stroke-linecap="round" stroke-linejoin="round"/>
        <path d="M383.7 195.3C369.2 208.1 367 282.1 400.1 278.5C435.6 274.6 450 247.1 467.9 221.4C463.2 212.1 461.5 209.7 455.1 201.1C444.3 213.9 436.6 230.4 425.2 242.3C417.7 250.2 404 255.7 394.9 248.4C383.3 239.1 380.8 210.1 386.9 197.7C386.1 197.1 385.1 196.3 383.7 195.3Z" fill="#F2F6FC"/>
        <path d="M367.699 200.7C349.399 233.8 338.899 280.9 338.899 308.2C347.499 271.9 357.699 237.3 367.699 200.7Z" fill="#F2F6FC"/>
        <path d="M385.399 171.6C354.799 214.9 336.599 271.3 339.099 324.2" stroke="#002460" stroke-width="0.5" stroke-miterlimit="10" stroke-linecap="round" stroke-linejoin="round"/>
        <path d="M392.8 179.3C373.9 233.7 364.2 269 364.2 323.5" stroke="#002460" stroke-width="0.5" stroke-miterlimit="10" stroke-linecap="round" stroke-linejoin="round"/>
        <path d="M431.7 217.2C448.8 256.4 450.4 282.6 454.8 324" stroke="#002460" stroke-width="0.5" stroke-miterlimit="10" stroke-linecap="round" stroke-linejoin="round"/>
        <path d="M410.7 171.6C393.1 219.8 390.8 272.9 392.4 324.2" stroke="#002460" stroke-width="0.5" stroke-miterlimit="10" stroke-linecap="round" stroke-linejoin="round"/>
        <path d="M416.6 173.2L421.7 211.2L396.5 229.4" stroke="#002460" stroke-width="0.5" stroke-miterlimit="10" stroke-linecap="round" stroke-linejoin="round"/>
        <path d="M407.7 221.3L422.2 238.1L392.1 308.9" stroke="#002460" stroke-width="0.5" stroke-miterlimit="10" stroke-linecap="round" stroke-linejoin="round"/>
        <path d="M369.7 176.9L349 205.2L358.1 221.3" stroke="#002460" stroke-width="0.5" stroke-miterlimit="10" stroke-linecap="round" stroke-linejoin="round"/>
        <path d="M353.9 213.8L336.8 219.9L339.3 299.4" stroke="#002460" stroke-width="0.5" stroke-miterlimit="10" stroke-linecap="round" stroke-linejoin="round"/>
        <path d="M313.1 149.8C321.7 154 333.2 155.5 344.3 155.6C345.3 155.6 347.4 152.4 347.4 152.4C347.4 152.4 349.1 155.6 350 155.5C368.4 155.1 384.8 151.6 384.8 151.6C384.8 151.6 382 145 371.7 146.3C371.7 129.5 330.5 121.1 323.8 145.8C317.4 145.2 313.1 149.8 313.1 149.8Z" fill="white" stroke="#002460" stroke-width="0.5" stroke-miterlimit="10" stroke-linecap="round" stroke-linejoin="round"/>
        <path d="M343.6 103.5C337.7 111.4 337 122 338.8 131.4L352.6 130.9" fill="white"/>
        <path d="M343.6 103.5C337.7 111.4 337 122 338.8 131.4L352.6 130.9" stroke="#002460" stroke-width="0.5" stroke-miterlimit="10" stroke-linecap="round" stroke-linejoin="round"/>
        <path d="M380.3 189.9L382.4 195.6L386.8 197.5L394.2 193.9L392.9 179.7L380.3 189.9Z" fill="#2F6DD5"/>
        <path d="M385.4 172.2L371.7 197.7L392.8 179.3L395.4 208.9L410.1 172.3" stroke="#002460" stroke-width="0.5" stroke-miterlimit="10" stroke-linecap="round" stroke-linejoin="round"/>
        <path d="M383.3 195.2C365.3 217.6 370.1 281.2 410.1 262.9C467.8 236.5 436.2 155.2 503 129.5C485.9 128.8 468.1 136.4 454.8 146.8C433.3 163.6 433.9 194.3 422.7 217.3C417.9 227.1 406.6 236.5 395.6 232.2C381.7 226.8 385.2 210.1 387.3 196.4C386.1 196.1 384.9 195.7 383.3 195.2Z" fill="#2F6DD5"/>
        <path d="M291.7 57.6999C297.4 54.5999 300.9 47.7999 300.1 41.3999" stroke="#002460" stroke-width="0.5" stroke-miterlimit="10" stroke-linecap="round" stroke-linejoin="round"/>
        <path d="M278.8 56.4999C281.3 57.4999 288.8 59.6999 286.7 55.3999C283.3 48.4999 275.9 47.0999 270.4 48.9999C256.5 54.1999 253.9 84.3999 271.6 85.7999L276.6 81.0999C276.6 81.0999 274.8 76.6999 275.3 71.5999" fill="white"/>
        <path d="M278.8 56.4999C281.3 57.4999 288.8 59.6999 286.7 55.3999C283.3 48.4999 275.9 47.0999 270.4 48.9999C256.5 54.1999 253.9 84.3999 271.6 85.7999L276.6 81.0999C276.6 81.0999 274.8 76.6999 275.3 71.5999" stroke="#002460" stroke-width="0.5" stroke-miterlimit="10" stroke-linecap="round" stroke-linejoin="round"/>
        <path d="M271.7 52.9997C280.7 51.1997 293.4 65.7997 280 61.7997L271.7 52.9997Z" fill="white"/>
        <path d="M271.7 52.9997C280.7 51.1997 293.4 65.7997 280 61.7997" stroke="#002460" stroke-width="0.5" stroke-miterlimit="10" stroke-linecap="round" stroke-linejoin="round"/>
        <path d="M269.2 58.1997C280.9 56.5997 290.3 69.7997 276.3 65.7997L269.2 58.1997Z" fill="white"/>
        <path d="M269.2 58.1997C280.9 56.5997 290.3 69.7997 276.3 65.7997" stroke="#002460" stroke-width="0.5" stroke-miterlimit="10" stroke-linecap="round" stroke-linejoin="round"/>
        <path d="M268 63.9C272.3 62.9 284.3 68.2 280.9 70.6C277.3 73.2 271.8 69.7 267.1 71.1" fill="white"/>
        <path d="M268 63.9C272.3 62.9 284.3 68.2 280.9 70.6C277.3 73.2 271.8 69.7 267.1 71.1" stroke="#002460" stroke-width="0.5" stroke-miterlimit="10" stroke-linecap="round" stroke-linejoin="round"/>
        <path d="M421.7 108.6C417 104.3 411 114.8 411.4 119.2C414.9 122.4 411.1 122.9 412.9 124.9C418.3 124 412.5 114.1 421.7 108.6Z" fill="#F2F6FC"/>
    </g>
    <defs>
        <clipPath id="clip0_104_866">
            <rect width="570" height="324" fill="white"/>
        </clipPath>
    </defs>
</svg>
