<svg width="570" height="325" viewBox="0 0 570 325" fill="none" xmlns="http://www.w3.org/2000/svg">
    <path opacity="0.9884" d="M132.8 72.2002H447.3C468.7 72.2002 486.1 89.5002 486.1 111V212.7C486.1 234.1 468.8 251.5 447.3 251.5H132.8C111.4 251.5 94 234.2 94 212.7V110.9C94 89.5002 111.4 72.2002 132.8 72.2002Z" fill="#D9E4F7"/>
    <path d="M93.9002 117H125.4C122.3 108 113.8 116.5 113.3 110.6C111.2 105.3 105.3 109.5 101.6 109.5C99.9002 107.3 97.6002 105 94.4002 105.4C93.8002 110.1 93.2002 112.7 93.9002 117Z" fill="white"/>
    <path d="M148.7 195.901H179.2C178.3 191.501 173.3 188.801 169.6 190.601C165 183.601 162.8 183.901 158.2 190.801C154 189.301 151.7 193.801 148.7 195.901Z" fill="white"/>
    <path d="M262.8 136.7C252 126.9 251.8 134.8 245.2 142.4C237.7 143.8 234.7 138.6 228.3 146.5C222.1 145.2 215.5 145.4 212.5 151.3H260C260 151.3 265.1 138.8 262.8 136.7Z" fill="white"/>
    <path fill-rule="evenodd" clip-rule="evenodd" d="M474.079 82.9082C479.121 87.7133 482.871 93.8659 484.75 100.8H424.8C427.2 97.5005 430.4 94.6005 434.8 96.1005C434.874 96.1745 434.947 96.2498 435.019 96.3245C435.632 96.9564 436.216 97.5581 437.2 97.2005C441.6 96.4505 445.55 94.2505 449.5 92.0505C453.45 89.8505 457.4 87.6505 461.8 86.9005C462.347 89.8642 464.058 88.6076 466.612 86.7328C468.629 85.2519 471.171 83.3852 474.079 82.9082Z" fill="white"/>
    <path d="M108.5 242.801V166.201C108.5 163.801 110.5 161.801 112.9 161.801H136.1C138.5 161.801 140.5 163.801 140.5 166.201V251.401" stroke="#2F6DD5" stroke-width="0.5" stroke-linecap="round" stroke-linejoin="round"/>
    <path d="M157.1 251.401V219.101C157.1 218.001 158 217.101 159.1 217.101H196.2C197.3 217.101 198.2 218.001 198.2 219.101V251.401" stroke="#2F6DD5" stroke-width="0.5" stroke-linecap="round" stroke-linejoin="round"/>
    <path d="M140.6 232.201H157.1" stroke="#2F6DD5" stroke-width="0.5" stroke-linecap="round" stroke-linejoin="round"/>
    <path d="M118.3 162.001V248.301" stroke="#2F6DD5" stroke-width="0.5" stroke-linecap="round" stroke-linejoin="round"/>
    <path d="M130.6 162.001V251.401" stroke="#2F6DD5" stroke-width="0.5" stroke-linecap="round" stroke-linejoin="round"/>
    <path d="M167.3 227.801V223.501" stroke="#2F6DD5" stroke-width="0.5" stroke-linecap="round" stroke-linejoin="round"/>
    <path d="M177.6 227.801V223.501" stroke="#2F6DD5" stroke-width="0.5" stroke-linecap="round" stroke-linejoin="round"/>
    <path d="M188 227.801V223.501" stroke="#2F6DD5" stroke-width="0.5" stroke-linecap="round" stroke-linejoin="round"/>
    <path d="M167.3 240.801V236.501" stroke="#2F6DD5" stroke-width="0.5" stroke-linecap="round" stroke-linejoin="round"/>
    <path d="M177.6 240.801V236.501" stroke="#2F6DD5" stroke-width="0.5" stroke-linecap="round" stroke-linejoin="round"/>
    <path d="M188 240.801V236.501" stroke="#2F6DD5" stroke-width="0.5" stroke-linecap="round" stroke-linejoin="round"/>
    <path d="M167.3 251.4V249.4" stroke="#2F6DD5" stroke-width="0.5" stroke-linecap="round" stroke-linejoin="round"/>
    <path d="M148.3 243.001V238.601" stroke="#2F6DD5" stroke-width="0.5" stroke-linecap="round" stroke-linejoin="round"/>
    <path d="M148.3 251.4V249.4" stroke="#2F6DD5" stroke-width="0.5" stroke-linecap="round" stroke-linejoin="round"/>
    <path d="M177.6 251.4V249.4" stroke="#2F6DD5" stroke-width="0.5" stroke-linecap="round" stroke-linejoin="round"/>
    <path d="M188 251.4V249.4" stroke="#2F6DD5" stroke-width="0.5" stroke-linecap="round" stroke-linejoin="round"/>
    <path d="M208.7 251.4C229.1 214.6 279.1 233.7 313 231.9C332.7 230.8 353.4 226.7 367.8 213.3C376.3 205.3 382 194.8 390.3 186.6C414.1 162.7 454.3 163.6 486.1 164.8" stroke="#2F6DD5" stroke-width="0.5" stroke-linecap="round" stroke-linejoin="round"/>
    <path d="M215.6 251.4C237.7 221.3 284.9 238.4 317.1 236.6C336.8 235.5 357.5 231.4 371.9 218C380.4 210 386.1 199.5 394.4 191.3C418.2 167.4 454.3 168.8 486.1 170" stroke="#2F6DD5" stroke-width="0.5" stroke-linecap="round" stroke-linejoin="round" stroke-dasharray="4 4"/>
    <path d="M223.3 251.4C241.9 229.4 289.4 243.3 319.4 241.7C339.1 240.6 359.8 236.5 374.2 223.1C382.7 215.1 388.4 204.6 396.7 196.4C418.8 174.2 456.3 174.2 486.1 175.2" stroke="#2F6DD5" stroke-width="0.5" stroke-linecap="round" stroke-linejoin="round"/>
    <path d="M436.3 198V142.2C436.3 140.9 437.3 139.9 438.6 139.9H465C466.3 139.9 467.3 140.9 467.3 142.2V245.6" fill="#D9E4F7"/>
    <path d="M436.3 198V142.2C436.3 140.9 437.3 139.9 438.6 139.9H465C466.3 139.9 467.3 140.9 467.3 142.2V245.6" stroke="#2F6DD5" stroke-width="0.5" stroke-linecap="round" stroke-linejoin="round"/>
    <path d="M457.1 198.301H404.6V202.401H457.1V198.301Z" stroke="#2F6DD5" stroke-width="0.5" stroke-linecap="round" stroke-linejoin="round"/>
    <path d="M443.6 149.301V145.301" stroke="#2F6DD5" stroke-width="0.5" stroke-linecap="round" stroke-linejoin="round"/>
    <path d="M451.8 149.301V145.301" stroke="#2F6DD5" stroke-width="0.5" stroke-linecap="round" stroke-linejoin="round"/>
    <path d="M460.1 149.301V145.301" stroke="#2F6DD5" stroke-width="0.5" stroke-linecap="round" stroke-linejoin="round"/>
    <path d="M443.6 163.4V159.4" stroke="#2F6DD5" stroke-width="0.5" stroke-linecap="round" stroke-linejoin="round"/>
    <path d="M451.8 163.4V159.4" stroke="#2F6DD5" stroke-width="0.5" stroke-linecap="round" stroke-linejoin="round"/>
    <path d="M460.1 163.4V159.4" stroke="#2F6DD5" stroke-width="0.5" stroke-linecap="round" stroke-linejoin="round"/>
    <path d="M443.6 177.401V173.501" stroke="#2F6DD5" stroke-width="0.5" stroke-linecap="round" stroke-linejoin="round"/>
    <path d="M451.8 177.401V173.501" stroke="#2F6DD5" stroke-width="0.5" stroke-linecap="round" stroke-linejoin="round"/>
    <path d="M460.1 177.401V173.501" stroke="#2F6DD5" stroke-width="0.5" stroke-linecap="round" stroke-linejoin="round"/>
    <path d="M443.6 191.501V187.601" stroke="#2F6DD5" stroke-width="0.5" stroke-linecap="round" stroke-linejoin="round"/>
    <path d="M451.8 191.501V187.601" stroke="#2F6DD5" stroke-width="0.5" stroke-linecap="round" stroke-linejoin="round"/>
    <path d="M460.1 191.501V187.601" stroke="#2F6DD5" stroke-width="0.5" stroke-linecap="round" stroke-linejoin="round"/>
    <path d="M460.1 205.601V201.701" stroke="#2F6DD5" stroke-width="0.5" stroke-linecap="round" stroke-linejoin="round"/>
    <path d="M460.1 219.701V215.701" stroke="#2F6DD5" stroke-width="0.5" stroke-linecap="round" stroke-linejoin="round"/>
    <path d="M460.1 233.801V229.801" stroke="#2F6DD5" stroke-width="0.5" stroke-linecap="round" stroke-linejoin="round"/>
    <path d="M460.1 247.8V243.9" stroke="#2F6DD5" stroke-width="0.5" stroke-linecap="round" stroke-linejoin="round"/>
    <path d="M408.1 251.4V202.4H453.6V251.4" fill="#D9E4F7"/>
    <path d="M408.1 251.4V202.4H453.6V251.4" stroke="#2F6DD5" stroke-width="0.5" stroke-linecap="round" stroke-linejoin="round"/>
    <path d="M417.2 217.8V211.7" stroke="#2F6DD5" stroke-width="0.5" stroke-linecap="round" stroke-linejoin="round"/>
    <path d="M432.2 217.8V211.7" stroke="#2F6DD5" stroke-width="0.5" stroke-linecap="round" stroke-linejoin="round"/>
    <path d="M447.2 217.8V211.7" stroke="#2F6DD5" stroke-width="0.5" stroke-linecap="round" stroke-linejoin="round"/>
    <path d="M417.2 236.301V230.101" stroke="#2F6DD5" stroke-width="0.5" stroke-linecap="round" stroke-linejoin="round"/>
    <path d="M432.2 236.301V230.101" stroke="#2F6DD5" stroke-width="0.5" stroke-linecap="round" stroke-linejoin="round"/>
    <path d="M447.2 236.301V230.101" stroke="#2F6DD5" stroke-width="0.5" stroke-linecap="round" stroke-linejoin="round"/>
    <path d="M417.2 251.401V248.601" stroke="#2F6DD5" stroke-width="0.5" stroke-linecap="round" stroke-linejoin="round"/>
    <path d="M432.2 251.401V248.601" stroke="#2F6DD5" stroke-width="0.5" stroke-linecap="round" stroke-linejoin="round"/>
    <path d="M447.2 251.401V248.601" stroke="#2F6DD5" stroke-width="0.5" stroke-linecap="round" stroke-linejoin="round"/>
    <path d="M402.3 179.301C395.6 170.601 394.9 160.601 411.9 157.401C416.8 156.501 415.5 163.801 419.1 166.001C422.1 166.201 425.7 166.701 425.5 170.601C417.4 172.001 409.6 175.401 402.5 179.701C402.5 179.701 402.5 179.701 402.3 179.301Z" fill="#598BDE"/>
    <path d="M402.7 173.701C403.1 176.301 403.9 179.101 405.9 180.901C412.5 183.301 406.8 166.501 402.7 173.701Z" fill="#598BDE"/>
    <path d="M416.6 168.401C416.4 171.001 416.6 173.901 418.1 176.101C423.9 180.001 422.2 162.301 416.6 168.401Z" fill="#598BDE"/>
    <path d="M236.3 104.6C229.2 109.1 220.1 109.9 212.4 107.7C202.8 105.1 201.1 90.0997 209.2 83.0997C218.5 74.9997 230.9 86.9998 238.9 75.7998C243.8 68.9998 247.2 76.2997 251.5 71.4997C263.2 58.2997 275.6 54.8997 267.7 80.4997C266.9 83.1997 270.4 85.4997 270.2 88.8997C270.1 91.1997 269 93.4997 267.2 93.8997C270.4 106.5 253.5 100.8 248.1 100.9C243.9 101 239.8 102.3 236.3 104.6Z" fill="#002460" stroke="#002460" stroke-width="0.5" stroke-linecap="round" stroke-linejoin="round"/>
    <path d="M384.8 91.7999C350.9 62.9999 311.4 85.4999 293.8 94.3999C281.1 100.8 260.8 115 257.9 123.6C256.3 128.3 255.8 136.7 256 142.7C256.7 171.2 251.8 217.7 211.3 186.4L203 200.6C227.9 227.8 261.5 228.1 269.3 188.9C280.8 229 279.1 261.3 279.1 261.3H364.1C366.4 241.4 364.5 213.9 362.7 196.7C367.3 200.3 371.5 197.8 368.6 192.5C364.3 181.4 399.2 151.7 403.5 135.5C407.8 118.4 397.1 102.2 384.8 91.7999ZM356.1 167.8C350.3 141.1 339.2 125.4 317.6 112.7C335.4 104.1 359.7 101.7 368.2 123.5C374.4 139.1 363.1 154.3 356.1 167.8Z" fill="white" stroke="#002460" stroke-width="0.5" stroke-linecap="round" stroke-linejoin="round"/>
    <path d="M227.5 104.599C230.2 114.899 237.5 124.399 246.9 120.499C256.7 116.399 259.2 102.999 266.9 115.299C269.4 119.299 275.4 114.399 272.6 110.099L262.9 94.1993C263.4 92.3993 264.7 90.6993 265.2 88.8993C265.8 86.5993 264.3 83.5993 262.3 85.8993C261.9 86.6993 261.3 88.6993 260.6 89.3993C260.8 88.2993 258.6 87.5993 257.7 87.9993C255.8 89.8993 254.7 90.6993 252.1 89.3993C242.4 84.6993 241 98.9993 227.5 104.599Z" fill="white" stroke="#002460" stroke-width="0.5" stroke-linecap="round" stroke-linejoin="round"/>
    <path d="M234.1 109.699L239.5 115.099L242.4 110.799" stroke="#002460" stroke-width="0.5" stroke-linecap="round" stroke-linejoin="round"/>
    <path d="M241.2 112.6L242.4 110.8L244.1 113.4L241.2 112.6Z" fill="#002460" stroke="#002460" stroke-width="0.5" stroke-linecap="round" stroke-linejoin="round"/>
    <path d="M256 113.299L262.7 106.199C262.7 106.199 264.5 108.499 264.2 111.699C260.8 108.499 256 113.299 256 113.299Z" fill="#002460" stroke="#002460" stroke-width="0.5" stroke-linecap="round" stroke-linejoin="round"/>
    <path d="M326.4 80.6003C339.1 79.5003 343.2 99.5003 338.5 106.5" stroke="#002460" stroke-width="0.5" stroke-linecap="round" stroke-linejoin="round"/>
    <path d="M356.1 167.8C354.2 171.1 359.8 194.2 362.5 196.6" stroke="#002460" stroke-width="0.5" stroke-linecap="round" stroke-linejoin="round"/>
    <path d="M264.8 114.399L265.3 130.499L270.1 116.699" stroke="#002460" stroke-width="0.5" stroke-linecap="round" stroke-linejoin="round"/>
    <path d="M272.5 107.899L287 112.299L272.8 114.399" stroke="#002460" stroke-width="0.5" stroke-linecap="round" stroke-linejoin="round"/>
    <path d="M273.8 119.5C271.8 119.7 272.1 123.6 274.3 123.4C276.7 123.1 276.8 119.1 273.8 119.5Z" stroke="#002460" stroke-width="0.5" stroke-linecap="round" stroke-linejoin="round"/>
    <path d="M261 169.199C263.9 174.699 266.4 180.199 269.1 188.699" stroke="#002460" stroke-width="0.5" stroke-linecap="round" stroke-linejoin="round"/>
    <path d="M252.9 176.8C255.7 174.2 261.6 174.2 264.5 176.4" stroke="#002460" stroke-width="0.5" stroke-linecap="round" stroke-linejoin="round"/>
    <path d="M273.2 323.499C273.2 323.499 279 287.999 279 261.199H364C361.2 293.399 355.8 323.999 355.8 323.999" fill="#002460"/>
    <path d="M273.2 323.499C273.2 323.499 279 287.999 279 261.199H364C361.2 293.399 355.8 323.999 355.8 323.999" stroke="#002460" stroke-width="0.5" stroke-linecap="round" stroke-linejoin="round"/>
    <path d="M213.5 206.399L194.6 185.699L200.1 180.699L219 201.399C219.9 202.399 219.9 203.999 218.8 204.899L217 206.499C216.1 207.499 214.5 207.399 213.5 206.399Z" fill="#2F6DD5" stroke="#2F6DD5" stroke-width="0.5" stroke-miterlimit="10" stroke-linecap="round" stroke-linejoin="round"/>
    <path d="M312.2 276.399C313.1 293.099 306.5 323.999 306.5 323.999L312.2 276.399Z" fill="#002460"/>
    <path d="M312.2 276.399C313.1 293.099 306.5 323.999 306.5 323.999" stroke="white" stroke-width="0.5" stroke-linecap="round" stroke-linejoin="round"/>
    <path d="M214.7 191.3C214.8 190.4 213.9 189.6 213 189.4C212.1 189.3 211.2 189.7 210.3 190.1C206.8 191.9 203.4 194.8 202.7 198.8C202.6 199.4 202.5 200 202.8 200.5C203.1 201.2 203.9 201.5 204.7 201.5C205.5 201.5 206.2 201.2 206.8 200.9C209.3 199.6 211.3 197.5 213.1 195.2C214.1 194 214.5 192.6 214.7 191.3Z" fill="white" stroke="#002460" stroke-width="0.5" stroke-linecap="round" stroke-linejoin="round"/>
    <path d="M205.5 190.099C202.7 191.799 200.2 194.399 199.3 197.599C199.1 198.199 199.1 198.899 199.4 199.399C199.7 199.999 200.4 200.199 201.1 200.199C201.8 200.199 202.4 199.899 202.9 199.599C206.3 197.899 209.2 195.299 211.6 192.299C212.4 191.299 213.2 189.999 212.6 188.899C212.2 188.099 211.3 187.699 210.4 187.699C209.5 187.699 208.7 188.099 207.9 188.499C207.1 188.899 206.3 189.599 205.5 190.099Z" fill="white" stroke="#002460" stroke-width="0.5" stroke-linecap="round" stroke-linejoin="round"/>
    <path d="M200.9 187.599C194.6 189.899 194.8 199.199 202.6 194.099C211.7 188.099 213.8 179.099 200.9 187.599Z" fill="white" stroke="#002460" stroke-width="0.5" stroke-linecap="round" stroke-linejoin="round"/>
    <path d="M200.4 181.8C196.8 183 187.5 193.2 195.2 192.2C200.1 191.5 204.9 187.4 207.9 183.4C209.3 178.3 202.8 181 200.4 181.8Z" fill="white" stroke="#002460" stroke-width="0.5" stroke-linecap="round" stroke-linejoin="round"/>
    <path d="M204 180.6C212.9 201.8 217.3 172.5 203.7 176.4C200.3 178.2 195.6 181.9 195.5 185.5C198.9 181.6 204 180.6 204 180.6Z" fill="white" stroke="#002460" stroke-width="0.5" stroke-linecap="round" stroke-linejoin="round"/>
    <path d="M190.5 151.7C200.8 163 204.8 176.1 199.5 181L194 186L156.7 145L162.2 140C167.5 135.1 180.2 140.4 190.5 151.7Z" fill="white" stroke="#2F6DD5" stroke-width="0.5" stroke-linecap="round" stroke-linejoin="round"/>
    <path d="M193.984 185.993C199.293 181.159 195.246 168.07 184.946 156.759C174.646 145.447 161.992 140.196 156.683 145.03C151.375 149.864 155.421 162.953 165.722 174.265C176.022 185.576 188.676 190.827 193.984 185.993Z" fill="white" stroke="#2F6DD5" stroke-width="0.5" stroke-miterlimit="10" stroke-linecap="round" stroke-linejoin="round"/>
    <path d="M158.6 144C156 149.9 160.2 161.2 169.2 171.1C178.2 181 189 186.2 195.2 184.2C197.8 178.3 193.6 167 184.6 157.1C175.6 147.1 164.7 141.9 158.6 144Z" fill="#2F6DD5" stroke="#2F6DD5" stroke-width="0.5" stroke-miterlimit="10" stroke-linecap="round" stroke-linejoin="round"/>
    <path d="M317.5 115.2C300.4 119.3 319.3 185.5 343.3 180.7C372 174.9 330 112.2 317.5 115.2Z" fill="#F2F6FC"/>
    <path d="M161.7 146.3C160.6 151.6 166.1 161.4 170.9 166.8" stroke="white" stroke-width="2" stroke-miterlimit="10" stroke-linecap="round" stroke-linejoin="round"/>
</svg>
