<svg width="570" height="324" viewBox="0 0 570 324" fill="none" xmlns="http://www.w3.org/2000/svg">
    <g clip-path="url(#clip0_104_835)">
        <path opacity="0.9884" d="M128.8 72.2H443.3C464.7 72.2 482.1 89.5 482.1 111V212.7C482.1 234.1 464.8 251.5 443.3 251.5H128.8C107.4 251.5 90 234.2 90 212.7V110.9C90 89.5 107.4 72.2 128.8 72.2Z" fill="#D9E4F7"/>
        <path d="M108.4 323.1C100.5 314.1 106.6 304.5 109.6 295.3C107.6 282.7 104.8 276.8 113.2 265.3C112.2 245 121.1 246.6 123.1 226.8C125.3 205.2 153 191.2 171 205.5C178.8 211.8 181 222 184 231.1C190 233.3 195.2 236.9 198.1 243.4C202.2 252.5 191.5 266.4 204.2 268.4" stroke="#598BDE" stroke-width="0.5" stroke-miterlimit="10" stroke-linecap="round" stroke-linejoin="round"/>
        <path d="M136.9 323.8C132.1 313.2 135.6 296.9 144.1 289.2C150.8 283.1 161.5 285.7 170.3 283.8C187.5 280 201.2 264.7 220.2 265.8C246.5 267.3 243.7 284.2 254.7 301.7C259.8 309.8 273.4 313.2 273.9 324" stroke="#598BDE" stroke-width="0.5" stroke-miterlimit="10" stroke-linecap="round" stroke-linejoin="round"/>
        <path d="M112.7 266.2C98.0996 257.6 87.5996 243.2 81.3996 227.5C75.1996 211.8 73.0996 194.7 72.5996 177.8C83.2996 182.5 91.6996 191.3 98.7996 200.6C107.8 212.4 115.2 225.4 120.2 239.4" stroke="#598BDE" stroke-width="0.5" stroke-miterlimit="10" stroke-linecap="round" stroke-linejoin="round"/>
        <path d="M79.8 223.2C72.8 217.5 64.4 213.5 55.5 211.8C57.1 226 63.3 239.5 72.9 250.2C82.4 260.8 95.2 268.4 109 272" stroke="#598BDE" stroke-width="0.5" stroke-miterlimit="10" stroke-linecap="round" stroke-linejoin="round"/>
        <path d="M92.4996 265.9C86.6996 266.1 80.8996 267.5 75.5996 270C77.1996 272.1 79.6996 273.3 82.0996 274.3C89.9996 277.7 98.4996 280.2 107.1 279.7" stroke="#598BDE" stroke-width="0.5" stroke-miterlimit="10" stroke-linecap="round" stroke-linejoin="round"/>
        <path d="M107.2 212.7C107.8 192.2 113 171.9 122.1 153.5C123 156.9 123.9 160.3 124.8 163.7C125.8 167.6 126.8 171.6 127.7 175.6C128.9 181.4 129.6 187.4 130.1 193.3C130.6 199 131 204.5 130.9 210.3" stroke="#598BDE" stroke-width="0.5" stroke-miterlimit="10" stroke-linecap="round" stroke-linejoin="round"/>
        <path d="M130.5 198.6C132.4 193.5 135.1 188.8 138.5 184.6C139 191.5 138.9 197.9 137.7 204.6" stroke="#598BDE" stroke-width="0.5" stroke-miterlimit="10" stroke-linecap="round" stroke-linejoin="round"/>
        <path d="M198.1 242.3C206.9 226.7 220.2 213.6 235.9 205C229.8 228.1 220.8 247.8 207.2 267.4" stroke="#598BDE" stroke-width="0.5" stroke-miterlimit="10" stroke-linecap="round" stroke-linejoin="round"/>
        <path d="M190.9 234.6C191.4 224.5 193.8 214.5 197.8 205.3C201.6 214.8 203.2 225.3 202.3 235.5" stroke="#598BDE" stroke-width="0.5" stroke-miterlimit="10" stroke-linecap="round" stroke-linejoin="round"/>
        <path d="M214.7 255.8C224.9 248.3 236.8 243.2 249.3 240.8C240.5 251.2 233.6 258.3 222.4 265.9" stroke="#598BDE" stroke-width="0.5" stroke-miterlimit="10" stroke-linecap="round" stroke-linejoin="round"/>
        <path d="M202.3 225.6C204.3 220.3 207.5 215.5 211.5 211.6C211.1 216.9 210.1 222.2 208.6 227.4" stroke="#598BDE" stroke-width="0.5" stroke-miterlimit="10" stroke-linecap="round" stroke-linejoin="round"/>
        <path d="M137.1 186.5L138.3 143.2L122 135.2L124 129.2L138.1 131.9L138.7 115.9L143.5 115.2L146.2 126L153 118.9L156 121.8L152 142.6L153 199.8" stroke="#598BDE" stroke-width="0.5" stroke-miterlimit="10" stroke-linecap="round" stroke-linejoin="round"/>
        <path d="M137.9 148.7C132.6 155.8 123.3 149.3 119.6 143.6C106.2 149.1 90.8995 136.2 94.0995 122.1C72.1995 125.1 69.0995 96.7 87.4995 88.4C89.9995 81.1 87.9995 72.3 91.9995 65.2C104.7 43 112.9 64.8 131.2 46C139.1 37.9 150.9 39.1 159.5 45.3C173.5 44.1 196.4 45 196.1 63.6C196 69.4 191.9 74.9 193.4 80.5C195 86.2 201.6 88.9 204.5 94C209.9 104 201.1 114.8 191.7 118.4C196.9 130.6 183.1 143.5 171.3 137.5C171.6 144.7 162.8 149.5 156.9 145.4C156.3 147.7 154.3 149.5 152.1 148.8" stroke="#598BDE" stroke-width="0.5" stroke-miterlimit="10" stroke-linecap="round" stroke-linejoin="round"/>
        <path d="M217 130.3H294C292.9 125.3 287.1 123.6 283.7 124.5C281.8 124.3 281.7 121.6 281.2 119.8C277.9 112.1 268 116.5 263.8 121.2C261.4 114.6 254.7 107.2 247.4 110.1C243.4 113.4 240.9 118.2 237.5 122.1C233.7 117.4 227.7 122.6 225.9 126.8C222.8 125.4 218.7 127.2 217 130.3Z" fill="white"/>
        <path d="M396.9 102.7H468C465.5 101.5 462.6 99.0001 460.1 98.6001C459.6 89.8001 451.6 88.2001 445.9 94.2001C442 65.9001 420.8 82.4001 412.5 98.6001C411.5 94.3001 406.1 94.3001 403.6 97.3001C401 98.6001 396.4 98.4001 396.9 102.7Z" fill="white"/>
        <path d="M313.3 68.1001C308 69.0001 292.4 72.1001 296.7 62.6001C299.8 55.6001 316.2 49.9001 326.7 45.6001C337.8 41.0001 355 35.5001 361.6 50.1001C365.8 59.4001 368.6 79.8001 356.1 81.4001" fill="white"/>
        <path d="M313.3 68.1001C308 69.0001 292.4 72.1001 296.7 62.6001C299.8 55.6001 316.2 49.9001 326.7 45.6001C337.8 41.0001 355 35.5001 361.6 50.1001C365.8 59.4001 368.6 79.8001 356.1 81.4001" stroke="#002460" stroke-width="0.5" stroke-miterlimit="10" stroke-linecap="round" stroke-linejoin="round"/>
        <path d="M470.999 168.4L468.399 171.7L437.199 165.8L432.699 162L445.899 156L470.999 168.4Z" fill="white"/>
        <path d="M483.399 168.2C496.399 168.2 476.099 156.5 461.199 156.5C461.999 152.8 469.499 154.1 469.599 152.2C467.999 143.2 434.199 155.5 432.799 162.4" fill="white"/>
        <path d="M483.399 168.2C496.399 168.2 476.099 156.5 461.199 156.5C461.999 152.8 469.499 154.1 469.599 152.2C467.999 143.2 434.199 155.5 432.799 162.4" stroke="#002460" stroke-width="0.5" stroke-miterlimit="10" stroke-linecap="round" stroke-linejoin="round"/>
        <path d="M479.099 171.2C490.899 170.1 476.199 162.3 465.999 161.5L479.099 171.2Z" fill="white"/>
        <path d="M479.099 171.2C490.899 170.1 476.199 162.3 465.999 161.5" stroke="#002460" stroke-width="0.5" stroke-miterlimit="10" stroke-linecap="round" stroke-linejoin="round"/>
        <path d="M472.899 172.7C472.899 172.7 476.699 173.8 478.899 172C481.599 169.9 468.899 164.8 461.899 164.3" fill="white"/>
        <path d="M472.899 172.7C472.899 172.7 476.699 173.8 478.899 172C481.599 169.9 468.899 164.8 461.899 164.3" stroke="#002460" stroke-width="0.5" stroke-miterlimit="10" stroke-linecap="round" stroke-linejoin="round"/>
        <path d="M432.899 162.4L443.899 171.4C453.499 170.1 468.799 178.1 473.199 173.7C475.799 171.1 462.299 167.7 457.799 167.3" fill="white"/>
        <path d="M432.899 162.4L443.899 171.4C453.499 170.1 468.799 178.1 473.199 173.7C475.799 171.1 462.299 167.7 457.799 167.3" stroke="#002460" stroke-width="0.5" stroke-miterlimit="10" stroke-linecap="round" stroke-linejoin="round"/>
        <path d="M292.2 324V232.3C272.2 228.8 259.4 209.8 250.5 193.3L266.3 180.4C274.8 191.7 281.8 200.2 287 207.2C283.6 165.5 289.2 119 344.1 116.6C414.6 113.5 402.8 202.2 402.8 202.2C411.4 194.8 430.5 160.4 430.5 160.4L444.9 172.5C439 199.6 420.5 220.9 394.8 232.7V324" fill="white"/>
        <path d="M292.2 324V232.3C272.2 228.8 259.4 209.8 250.5 193.3L266.3 180.4C274.8 191.7 281.8 200.2 287 207.2C283.6 165.5 289.2 119 344.1 116.6C414.6 113.5 402.8 202.2 402.8 202.2C411.4 194.8 430.5 160.4 430.5 160.4L444.9 172.5C439 199.6 420.5 220.9 394.8 232.7V324" stroke="#002460" stroke-width="0.5" stroke-miterlimit="10" stroke-linecap="round" stroke-linejoin="round"/>
        <path d="M314.099 59.4002C313.999 71.7002 306.599 97.5002 317.799 104.2C324.499 108.2 333.599 106.2 341.299 105.4C341.499 109.3 341.699 113.1 341.999 116.9C344.699 121.6 352.399 122.3 353.999 116.8C353.399 107.7 353.299 97.9002 353.099 88.9002C352.999 88.3002 353.299 87.9002 353.899 87.8002C361.299 85.2002 361.899 72.3002 352.399 80.1002C351.299 74.4002 353.899 62.5002 350.399 58.7002C339.099 54.3002 325.599 55.6002 314.099 59.4002Z" fill="white" stroke="#002460" stroke-width="0.5" stroke-miterlimit="10" stroke-linecap="round" stroke-linejoin="round"/>
        <path d="M318.8 71.1001L319.3 83.6001L328.7 81.4001" stroke="#002460" stroke-width="0.5" stroke-miterlimit="10" stroke-linecap="round" stroke-linejoin="round"/>
        <path d="M226.8 187.6L229.5 190.9L260.6 184.9L265.1 181.2L251.9 175.1L226.8 187.6Z" fill="white"/>
        <path d="M214.4 187.3C201.4 187.3 221.7 175.6 236.6 175.6C235.8 171.9 228.3 173.2 228.2 171.3C229.8 162.3 263.6 174.6 265 181.5" fill="white"/>
        <path d="M214.4 187.3C201.4 187.3 221.7 175.6 236.6 175.6C235.8 171.9 228.3 173.2 228.2 171.3C229.8 162.3 263.6 174.6 265 181.5" stroke="#002460" stroke-width="0.5" stroke-miterlimit="10" stroke-linecap="round" stroke-linejoin="round"/>
        <path d="M218.699 190.4C206.899 189.3 221.599 181.5 231.799 180.7L218.699 190.4Z" fill="white"/>
        <path d="M218.699 190.4C206.899 189.3 221.599 181.5 231.799 180.7" stroke="#002460" stroke-width="0.5" stroke-miterlimit="10" stroke-linecap="round" stroke-linejoin="round"/>
        <path d="M225 191.8C225 191.8 221.2 192.9 219 191.1C216.3 189 229 183.9 236 183.4" fill="white"/>
        <path d="M225 191.8C225 191.8 221.2 192.9 219 191.1C216.3 189 229 183.9 236 183.4" stroke="#002460" stroke-width="0.5" stroke-miterlimit="10" stroke-linecap="round" stroke-linejoin="round"/>
        <path d="M265 181.5L254 190.5C244.4 189.2 229.1 197.2 224.7 192.8C222.1 190.2 235.6 186.8 240.1 186.4" fill="white"/>
        <path d="M265 181.5L254 190.5C244.4 189.2 229.1 197.2 224.7 192.8C222.1 190.2 235.6 186.8 240.1 186.4" stroke="#002460" stroke-width="0.5" stroke-miterlimit="10" stroke-linecap="round" stroke-linejoin="round"/>
        <path d="M324.699 82.4001L328.699 81.4001L327.799 87.2001L324.699 82.4001Z" fill="#002460" stroke="#002460" stroke-width="0.5" stroke-miterlimit="10" stroke-linecap="round" stroke-linejoin="round"/>
        <path d="M341.3 105.3L347.2 104.6L341.6 109.9L341.3 105.3Z" fill="#002460" stroke="#002460" stroke-width="0.5" stroke-miterlimit="10" stroke-linecap="round" stroke-linejoin="round"/>
        <path d="M319 58.2C320.9 62.5 324.1 58.4 326.8 59.5C333.8 62.2 332.9 58.5 337.3 61.2C339.3 62.4 337.4 66.1 339 67.8C341.4 70.2 347.2 67.5 348.3 72.3C349.1 75.7 346.4 82.1 349 82.9C353.7 84.4 352.2 77.5 352.7 71.8C352.6 67.5 353.1 62.4 350.5 58.8C340.6 55.3 329.4 55.5 319.4 58.1C319.4 58 319.4 58 319 58.2Z" fill="#002460" stroke="#002460" stroke-width="0.5" stroke-miterlimit="10" stroke-linecap="round" stroke-linejoin="round"/>
        <path d="M313.5 66.4001C291.8 70.9001 299.9 63.3001 314.2 59.4001L313.5 66.4001Z" fill="#F2F6FC"/>
        <path d="M313.5 66.4001C291.8 70.9001 299.9 63.3001 314.2 59.4001" stroke="#002460" stroke-width="0.5" stroke-miterlimit="10" stroke-linecap="round" stroke-linejoin="round"/>
        <path d="M394.999 270.1H292.199V324H394.999V270.1Z" fill="#002460" stroke="#002460" stroke-width="0.5" stroke-miterlimit="10" stroke-linecap="round" stroke-linejoin="round"/>
        <path d="M394.999 261.1H292.199V270.1H394.999V261.1Z" fill="white" stroke="#002460" stroke-width="0.5" stroke-miterlimit="10" stroke-linecap="round" stroke-linejoin="round"/>
        <path d="M297.699 261.1V270.8" stroke="#002460" stroke-width="0.5" stroke-miterlimit="10" stroke-linecap="round" stroke-linejoin="round"/>
        <path d="M305.1 261.1V270.8" stroke="#002460" stroke-width="0.5" stroke-miterlimit="10" stroke-linecap="round" stroke-linejoin="round"/>
        <path d="M314.6 261.1V270.8" stroke="#002460" stroke-width="0.5" stroke-miterlimit="10" stroke-linecap="round" stroke-linejoin="round"/>
        <path d="M324.3 261.1V270.8" stroke="#002460" stroke-width="0.5" stroke-miterlimit="10" stroke-linecap="round" stroke-linejoin="round"/>
        <path d="M333.3 261.1V270.8" stroke="#002460" stroke-width="0.5" stroke-miterlimit="10" stroke-linecap="round" stroke-linejoin="round"/>
        <path d="M341.699 261.1V270.8" stroke="#002460" stroke-width="0.5" stroke-miterlimit="10" stroke-linecap="round" stroke-linejoin="round"/>
        <path d="M351.6 261.1V270.8" stroke="#002460" stroke-width="0.5" stroke-miterlimit="10" stroke-linecap="round" stroke-linejoin="round"/>
        <path d="M358.399 261.1V270.8" stroke="#002460" stroke-width="0.5" stroke-miterlimit="10" stroke-linecap="round" stroke-linejoin="round"/>
        <path d="M367.199 261.1V270.8" stroke="#002460" stroke-width="0.5" stroke-miterlimit="10" stroke-linecap="round" stroke-linejoin="round"/>
        <path d="M373.5 261.1V270.8" stroke="#002460" stroke-width="0.5" stroke-miterlimit="10" stroke-linecap="round" stroke-linejoin="round"/>
        <path d="M380.5 261.1V270.8" stroke="#002460" stroke-width="0.5" stroke-miterlimit="10" stroke-linecap="round" stroke-linejoin="round"/>
        <path d="M387.899 261.1V270.8" stroke="#002460" stroke-width="0.5" stroke-miterlimit="10" stroke-linecap="round" stroke-linejoin="round"/>
        <path d="M253.999 199.4L270.499 185.6" stroke="#002460" stroke-width="0.5" stroke-miterlimit="10" stroke-linecap="round" stroke-linejoin="round"/>
        <path d="M252.199 191.9L256.299 197.3" stroke="#002460" stroke-width="0.5" stroke-miterlimit="10" stroke-linecap="round" stroke-linejoin="round"/>
        <path d="M255.6 189.2L259.7 194.6" stroke="#002460" stroke-width="0.5" stroke-miterlimit="10" stroke-linecap="round" stroke-linejoin="round"/>
        <path d="M258.899 186.5L262.999 191.9" stroke="#002460" stroke-width="0.5" stroke-miterlimit="10" stroke-linecap="round" stroke-linejoin="round"/>
        <path d="M262.199 183.8L266.199 189.2" stroke="#002460" stroke-width="0.5" stroke-miterlimit="10" stroke-linecap="round" stroke-linejoin="round"/>
        <path d="M426.8 167.2L442.9 180" stroke="#002460" stroke-width="0.5" stroke-miterlimit="10" stroke-linecap="round" stroke-linejoin="round"/>
        <path d="M433.3 162.5L429.6 169.4" stroke="#002460" stroke-width="0.5" stroke-miterlimit="10" stroke-linecap="round" stroke-linejoin="round"/>
        <path d="M436.499 165.4L432.899 172" stroke="#002460" stroke-width="0.5" stroke-miterlimit="10" stroke-linecap="round" stroke-linejoin="round"/>
        <path d="M440.3 168.3L436.8 174.8" stroke="#002460" stroke-width="0.5" stroke-miterlimit="10" stroke-linecap="round" stroke-linejoin="round"/>
        <path d="M443.6 171.1L440.3 177.8" stroke="#002460" stroke-width="0.5" stroke-miterlimit="10" stroke-linecap="round" stroke-linejoin="round"/>
        <path d="M333.899 117.8C337.599 134.7 358.099 133.2 363.599 118.5" stroke="#002460" stroke-width="0.5" stroke-miterlimit="10" stroke-linecap="round" stroke-linejoin="round"/>
        <path d="M348.9 120.8L348.8 129.9" stroke="#002460" stroke-width="0.5" stroke-miterlimit="10" stroke-linecap="round" stroke-linejoin="round"/>
        <path d="M344.9 120L341.8 128.6" stroke="#002460" stroke-width="0.5" stroke-miterlimit="10" stroke-linecap="round" stroke-linejoin="round"/>
        <path d="M343 118.2L336.3 123.7" stroke="#002460" stroke-width="0.5" stroke-miterlimit="10" stroke-linecap="round" stroke-linejoin="round"/>
        <path d="M353.6 117.8L361.6 122.3" stroke="#002460" stroke-width="0.5" stroke-miterlimit="10" stroke-linecap="round" stroke-linejoin="round"/>
        <path d="M351.899 119.7L357.299 126.8" stroke="#002460" stroke-width="0.5" stroke-miterlimit="10" stroke-linecap="round" stroke-linejoin="round"/>
        <path d="M292.099 231.2C267.799 223.1 256.399 198.1 291.899 218.1C291.799 218.1 291.799 218 291.699 218" fill="#F2F6FC"/>
        <path d="M292.2 232.3C291.2 208.6 292.2 184.8 295.5 161.3" stroke="#002460" stroke-width="0.5" stroke-miterlimit="10" stroke-linecap="round" stroke-linejoin="round"/>
        <path d="M395.3 219.8C404.4 216.5 410.8 201.2 420.4 205.2C429.9 209.2 399.8 227.3 395.1 231.2" fill="#F2F6FC"/>
        <path d="M394.999 232.6C394.999 207.7 396.299 182.6 390.399 158.2" stroke="#002460" stroke-width="0.5" stroke-miterlimit="10" stroke-linecap="round" stroke-linejoin="round"/>
        <path d="M334.1 289.6L333.8 324.4" stroke="white" stroke-width="0.5" stroke-miterlimit="10" stroke-linecap="round" stroke-linejoin="round"/>
    </g>
    <defs>
        <clipPath id="clip0_104_835">
            <rect width="570" height="324" fill="white"/>
        </clipPath>
    </defs>
</svg>
