<?xml version="1.0" encoding="utf-8"?>
<!-- Generator: Adobe Illustrator 26.4.1, SVG Export Plug-In . SVG Version: 6.00 Build 0)  -->
<svg version="1.1" id="Livello_1" xmlns="http://www.w3.org/2000/svg" xmlns:xlink="http://www.w3.org/1999/xlink" x="0px" y="0px"
	 viewBox="0 0 396 306" style="enable-background:new 0 0 396 306;" xml:space="preserve">
<style type="text/css">
	.st0{fill:#C3E2F0;}
	.st1{fill:#FFFFFF;}
	.st2{fill:none;stroke:#1798CF;stroke-miterlimit:10;}
	.st3{fill:#F2BA11;}
	.st4{fill:#00354C;}
	.st5{fill:#F2BA11;stroke:#F2BA11;stroke-width:0.5;stroke-linecap:round;stroke-linejoin:round;stroke-miterlimit:10;}
	.st6{fill:none;stroke:#FFFFFF;stroke-width:0.5;stroke-linecap:round;stroke-linejoin:round;stroke-miterlimit:10;}
	.st7{fill:#FFFFFF;stroke:#00354C;stroke-width:0.5;stroke-linecap:round;stroke-miterlimit:10;}
	.st8{fill:none;stroke:#00354C;stroke-width:0.5;stroke-linecap:round;stroke-miterlimit:10;}
	.st9{fill:#FFFFFF;stroke:#00354C;stroke-width:0.5;stroke-miterlimit:10;}
	.st10{fill:#00354C;stroke:#00354C;stroke-width:0.5;stroke-miterlimit:10;}
	.st11{fill:#FFFFFF;stroke:#00354C;stroke-width:0.5;stroke-linecap:round;stroke-linejoin:round;stroke-miterlimit:10;}
	.st12{fill:#EDF4F7;}
	.st13{fill:none;stroke:#00354C;stroke-width:0.5;stroke-linecap:round;stroke-linejoin:round;stroke-miterlimit:10;}
	.st14{fill:#00354C;stroke:#00354C;stroke-width:0.5;stroke-linecap:round;stroke-linejoin:round;stroke-miterlimit:10;}
	.st15{fill:none;stroke:#00354C;stroke-width:0.5;stroke-miterlimit:10;}
</style>
<g id="Layer_3">
</g>
<g id="Layer_2">
	<path class="st0" d="M41.7,54.4h314.5c21.4,0,38.8,17.3,38.8,38.8v101.7c0,21.4-17.3,38.8-38.8,38.8H41.7
		c-21.4,0-38.8-17.3-38.8-38.8V93.1C3,71.7,20.3,54.4,41.7,54.4z"/>
</g>
<g id="Layer_7">
	<path class="st1" d="M395,149.2h-66.5c2.5-6.3,10.8-9.7,17-6.9c1.5-8.1,11.7-13.3,19.1-9.7c1,0.5,1.9,1,3,1c1.9-0.1,3-2.1,4-3.7
		c5.1-8.8,13.4-14.2,23.5-12.7"/>
	<path class="st1" d="M3,128.4h40.2c-2-2.3-3.5-2.8-6.7-4s-5.9-5.3-8.1-2.6c-0.9-2-1.8-4-3.3-5.7s-3.5-2.9-5.7-2.9
		c-2.6,0.1-4.9,1.9-6.6,3.9c-2.1-2-7.1-5.7-9.8-6.9V128.4z"/>
	<path class="st1" d="M86.6,97.3c-0.8-2.8-1.5-6.7-4-8.1c-0.9-0.5-1.9-0.8-2.8-0.5c-1,0.4-1.5,1.4-2.4,1.9c-1.7,1.1-3.9,0.1-5.3-1.3
		c-1.4-1.4-2.5-3.2-4.2-4.2c-2.6-1.5-6-0.8-8.4,1s-4,4.4-5.5,6.9c-2.1-0.2-4.2-0.5-6.4-0.7c-1.4-0.2-3-0.3-4.3,0.2s-2.4,2-2,3.4
		c-1.5-0.3-4.4,0.3-5.6,1.2C37.8,96.8,86.6,97.3,86.6,97.3z"/>
	<path class="st2" d="M282.9,188.1c5-4,24.5-3,25.3,9.3c8.8-7,17.4,2.5,13.4,10.6c22.4-6.6,31.8,17.2,18,33.3
		c31.9-9.4,37.9,21.3,32.3,32.5c-0.8,1.3,29.3,5.1,18.3,32.2"/>
	<path class="st2" d="M275,243.6c4.1-12.4,22.8-12.1,26.5,0.4c9.8-12.9,37.7-10.7,37.7,8c7.5-1,13,8,8.7,14.2
		c16,0.4,25.1,20.6,14.9,32.9c6,1.7,3.3,6.2,1.1,7"/>
	<path class="st2" d="M169.9,228.2c-1.1-3.9-0.1-8.2,2.5-11.3s6.7-4.7,10.7-4.3c-1.2-3.1-2.4-6.4-1.8-9.7s3.5-6.4,6.8-5.9
		c-1.6-5.6,0-12.1,4.1-16.3s10.5-6,16.2-4.5"/>
</g>
<g id="Layer_6">
	<path class="st3" d="M58.1,234.8c-7.7-82.9,37.6-87.1,37.5-2.5C83.2,233.3,70.8,234.4,58.1,234.8z"/>
	<path class="st3" d="M68.7,173.2c-6.4-6.9-15.6-19.3-12.8-24.8c2.3-2.3,5.3,2.8,7.4,4.8c1.3-1,2.5-2.1,3.8-3.1
		c-2.5-5.5-3.4-10,0.6-9.5c2.9,0.9,3.1,2.5,4.9,5c3.4-4.3,14.2-13.1,18.3-4.5c5.3,11.2-7.1,21.8-9.9,33.2
		C79.3,177.5,70.8,175.7,68.7,173.2z"/>
	<path class="st3" d="M58.1,234.4c-8.3-3.9-19.2-15.7-13.9-24.6c2-3.3,4,6.3,6.6,8.9C57,225.4,64.4,222.3,58.1,234.4z"/>
	<path class="st4" d="M68.6,173.2c0,0,8-1.2,11.7,0.1c0.8,0.3,1.8,0.5,2.3-0.1c0.4-0.4,0.3-1.2-0.1-1.6c-0.4-0.5-0.9-0.7-1.5-0.9
		c-4.3-1.5-9.2-0.9-13.2,1.3c-1.3,0.7,0.1,1.7,0.2,1.7L68.6,173.2z"/>
	<path class="st5" d="M321.7,82.7c-1.5,3.2-1.3,6.9-0.6,10.3c0.5,2.4,1.4,4.8,3.1,6.6c1.7,1.8,4,2.7,6.3,3.3c2,0.5,4.2,0.8,6.3,0.4
		c5.1-0.9,9-6.1,8.6-11.2c-0.1-1.6-0.7-3.3-2.1-4.2c-0.7-0.4-1.4-0.6-2.2-0.8c-2.3-0.5-4.6-0.6-6.9-0.3c-2.4,0.3-5.4,0.8-7-1.1
		c-1.1-1.2-1.2-3.3-2.6-4.1C323.5,81.1,322.1,82,321.7,82.7z"/>
	<path class="st5" d="M322.3,84.6c-1.8,0.2-3.5,0.7-5.1,1.3c2.2,0.7,4.5,1.1,6.8,1.1C324.5,86,323.6,84.4,322.3,84.6z"/>
	<path class="st5" d="M339.2,86.9c3.1-0.2,14.3-0.4,16.7,0.1c0.3,0.1,0.7,0.3,0.6,0.6c0,0.1-0.1,0.2-0.2,0.3c-1,0.8-2.2,1.1-3.4,1.5
		c-1.4,0.4-2.8,0.7-4.2,1.1c1,0,1.9,0.3,2.6,1c0.1,0.1,0.3,0.3,0.3,0.5c0,0.4-0.3,0.6-0.6,0.8c-2.2,1.2-4.6,1.9-7,2.1
		c-0.2,0-0.3,0-0.5,0c-0.3-0.1-0.4-0.5-0.5-0.8C342.4,91.4,339.6,89.6,339.2,86.9z"/>
	<path class="st6" d="M330.5,97c1.5,3,8.5,5.4,3.9,0.2c5.2,5.3,11.4,0.5,2.9-2.9c8.9,1.8,3.9-5.8-2.3-4.8"/>
	<path class="st5" d="M333.8,103.7c-0.1,1.6,0,3.3,0.3,4.9c0.4,0,0.7-0.1,1.1-0.1c0-1.7-0.1-3.4-0.4-5
		C334.5,103.3,334.2,103.3,333.8,103.7z"/>
</g>
<g id="Layer_5">
	<polygon class="st1" points="194.6,107.7 230.6,67.4 243.6,65.4 246.5,70.3 206.9,146.9 195.8,128 	"/>
	<g>
		<polygon class="st1" points="318.3,108.7 327.8,121.5 329.7,120.7 330.8,119.6 333.3,111.6 322.8,109 		"/>
		<path class="st7" d="M334.3,117.5c0.1,0.3,0.2,0.4,0.2,0.6c0.1,1.1-8.2,2.5-6.6-0.5"/>
		<path class="st8" d="M330.8,119.4c-0.7,1.6-2.7,1.9-3,2.1"/>
		<path class="st7" d="M336.5,114.8c3.2,2.6-7.1,3.8-8.6,2.6c-1.3-0.3-1.6-2.3-0.2-2.4"/>
		<path class="st7" d="M337,112.5c3,2.7-7.9,4-9.4,2.4c-0.8-2.1,3-2.2,4.3-2.5"/>
		<path class="st7" d="M318.5,108.7c7.3-1,16-0.4,21.9-0.2c1.7,0.1,6.1,0.1,5.6,1.5c-0.7,2.1-8.9,2.2-13,2.5"/>
		<path class="st7" d="M326.6,110.4c7.8,4-0.6,6.3-5.8,0.5"/>
	</g>
	<path class="st9" d="M243.7,65.1c8.1-1.3,18,0.9,25.1,5.2c8,4.8,10.3,11.6,12.2,20.7c3.4,16.6,5.7,33.4,8,50.1
		c9.4-11.2,19-22.2,28.9-33c4.9,6.4,10.3,13.9,10.3,13.9s-10.6,22.5-36.2,43.2c-2.5,2-5.2,4-8.3,4.7c1.9,18.9,4.3,56.5,4.3,56.5
		l-90.4-1l-0.6-64.5"/>
	<path class="st10" d="M211,38.7c-2.6-1.2-5.1-2.6-7.5-4.2c-1.1-0.8-2.3-1.7-2.6-3c-0.3-1.3,1-3,2.3-2.4c-1.9-1.5-3.5-3.4-4.6-5.6
		c-0.9-1.8-1.4-4.1-0.4-5.8c0.5-0.7,1.1-1.3,1.9-1.7c2.3-1.4,5.3-1.7,7.8-0.8c-1.2-1.8-1.6-4.2-1-6.3s2.2-3.9,4.2-4.8
		c2.2-0.9,4.6-0.8,6.9-0.4c7.3,1.4,13.7,5.9,19.4,10.6c2.3,1.9,4.6,3.9,7.4,4.9c1.8,0.6,3.8,0.8,5.7,1.4c1.9,0.6,3.7,1.8,4.3,3.7
		c0.5,1.6-0.1,3.4-1.1,4.7s-2.4,2.3-3.9,3.1c2,0.9,3,3.4,2.4,5.5s-2.5,3.7-4.6,4.3c0.9,1.4,0.2,3.4-1.2,4.3
		c-1.4,0.9-3.1,1.1-4.8,1.1c-6.7,0.1-13.3-1.2-19.5-3.7c-2.4-0.9-4.7-2.1-7.1-2.7C213.4,40.4,211.3,40.1,211,38.7z"/>
	<g>
		<path class="st1" d="M260.1,155.5c2.2,2.7,10,8.6,10,8.6l3.3-5.4l0.6-6.6l-5.1,3.5L260.1,155.5z"/>
		<path class="st11" d="M274.1,155.5c0.5,1.3,0,2.8-0.7,4c-1,1.8-1.9,3-3.3,4.5"/>
		<path class="st11" d="M273.9,151.9c0.3-0.1,0.5-0.3,0.7-0.4c0.3-0.1,0.6-0.1,0.8,0.1c0.3,0.3,0.2,0.8,0,1.1c-1,2.6-2.6,5-4.4,7"/>
		<path class="st11" d="M259.9,155.6c4.5-2,5-4.4,7.5-6.8c0.2-0.2,0.5-0.4,0.8-0.5s0.7,0,0.9,0.2c0.2,0.3,0.1,0.7,0,1
			c-0.9,1.9-1.9,3.7-3,5.5c1,0,1.8-0.5,2.6-1.1c1.9-1.5,3.3-3.6,5.5-4.8c0.2-0.1,0.4-0.2,0.5-0.1c0.1,0.1,0.1,0.1,0.1,0.2
			c0.1,0.4-0.1,0.9-0.3,1.2c-1.2,2.4-2.8,4.7-4.6,6.7"/>
	</g>
	<path class="st12" d="M199.7,164c2.6,1.3,5.1,3,7.7,4.4c9,4.8,19.5,5.9,29.7,5.9c6,0,12.2-0.4,17.9-2.3c0.8-0.3,1.6-0.5,2.4-0.6
		c0.8,0,1.7,0.2,2.2,0.9c0.4,0.5,0.4,1.2,0.4,1.9c-0.1,3.2-2,6.1-4.5,8s-5.7,2.9-8.8,3.4c-10.2,1.6-20.7-1.7-29.9-6.5
		c-3.3-1.7-6.4-3.6-9.1-6.2c-1.6-1.6-2.9-3.3-4.3-5.1C202.4,166.6,201.4,165.4,199.7,164z"/>
	<path class="st9" d="M209.3,29.4c-0.3,5.5-0.7,11.1-0.2,16.6c0.2,1.9,0.4,3.8,1.3,5.6c1.7,3.5,5.5,5.5,9.3,6.1s7.7-0.1,11.5-0.7
		c0.2,4.2,0.1,8.4-0.4,12.6c2.3,0.5,4.7,1,7,0.6c2.3-0.3,4.7-1.6,5.6-3.8c0.6-1.3,0.5-2.9,0.5-4.3c-0.1-6-0.3-11.9-0.4-17.9
		c0-1.1,0-2.2,0.4-3.1c0.8-1.6,2.8-2.5,3.4-4.2c0.5-1.6-0.6-3.4-2.1-4s-3.3-0.3-4.8,0.5c0-2.3,0.2-2.4-0.4-4.6
		c-3.1,0.5-6.7-1.6-9.8-1.7c0.9,1.5,1.5,3.1,1.8,4.8c0.1,0.5,0.1,1-0.1,1.3c-0.4,0.7-1.4,0.6-2.2,0.4c-5.2-1.3-10.3-3-15.2-5
		c0.3,1-0.8,2-1.9,2.1C211.2,30.6,210.3,30,209.3,29.4z"/>
	<polyline class="st13" points="212.7,36.8 212.6,47.1 217.7,47.3 	"/>
	<polygon class="st14" points="217.6,47.5 216.9,49.1 216.1,47.3 	"/>
	<path class="st12" d="M202.1,107.2c0,0-4.6,18.5,2.8,30.6c-1.4-9.1,2.8-13.4,2.8-13.4L202.1,107.2z"/>
	<path class="st7" d="M230.7,66.9c-7.6,0.8-15.2,1.7-22.4,4.2c-7.2,2.5-14,6.8-18.1,13.3c-3.6,5.6-4.8,12.3-5.9,18.8
		c-2,11.8-3.6,24-0.9,35.7c1,4.5,2.7,8.9,5.2,12.8c1.9,2.9,4.3,5.5,7,7.8c10.1,8.8,23.4,13.7,36.8,14.3c13.4,0.7,26.8-2.7,38.6-9.1
		c-4.4-2.9-8.4-6.4-12.2-10.4c-10.9,1.3-22.7,0.1-34-3.4c-9-2.8-17.9-7.6-21.6-16.3s-3.1-19.3-1.2-28.3"/>
	<path class="st14" d="M148.9,123.1c-1.7,2.4-5.5,4.1-7.8,1.7c-1.3-1.5-1.3-4.1-3.1-4.9c-10.7,2.1-8.9-5.6-6-13
		c-5.8-3.6-9.2-9.7-4.7-15.6c-11.2-15.8,2.4-33.7,20.7-29.6c3.2-2.7,7.8-8.4,11.9-3.9c1.4,1.9,0.7,5,2.5,6.6
		c9.8,3.1,16.4,15.1,9.3,23.9c7.3,6.3,1.5,11.6-0.6,17.8c6.3,5.8,2.3,14.1-6.3,12.7C161.7,127.3,153.6,117.4,148.9,123.1z"/>
	<path class="st9" d="M147.7,84.5c-6.3,0.5-10.3,2.9-10.3,10.5c0,6.2-0.5,15.3,4.5,19.1c6.5,5,8.2,10.2,8,22c10.2-3.9,10-5,8.2-15
		c-1.1-6.3,4.4-10,4.4-16C162.6,94.3,161.2,82.9,147.7,84.5C147.8,84.6,147.1,84.4,147.7,84.5z"/>
	<circle class="st9" cx="140.1" cy="96.3" r="6.8"/>
	<circle class="st9" cx="157.6" cy="94.8" r="6.8"/>
	<path class="st9" d="M146.9,96c1.3-0.3,2.7-0.5,4-0.4"/>
	<polygon class="st14" points="152,105.9 151.2,108.2 150.7,106.1 	"/>
	<path class="st15" d="M147.7,84.5c-6.3,0.5-10.3,2.9-10.3,10.5c0,6.2-0.5,15.3,4.5,19.1c6.5,5,8.2,10.2,8,22c10.2-3.9,10-5,8.2-15
		c-1.1-6.3,4.4-10,4.4-16C162.6,94.3,161.2,82.9,147.7,84.5C147.8,84.6,147.1,84.4,147.7,84.5z"/>
	<path class="st13" d="M148.5,91.8c-0.6,4.6-1,9.2-1.2,13.8c0,0.2,0,0.4,0.1,0.6c0.1,0.1,0.3,0.1,0.5,0.1c1.4,0,2.8-0.2,4.1-0.5"/>
	<path class="st14" d="M147.5,116.9c3.1,0.7,6.3-0.4,9.3-1.7C154.1,119.5,151.1,120.7,147.5,116.9z"/>
	<line class="st15" x1="225.5" y1="173.1" x2="222.9" y2="225.7"/>
	<line class="st15" x1="230.7" y1="69.6" x2="227.8" y2="126.7"/>
	<line class="st15" x1="245" y1="173.2" x2="245.6" y2="225.7"/>
	<line class="st15" x1="243.7" y1="64.8" x2="244.5" y2="135.4"/>
	<line class="st15" x1="235.4" y1="173.9" x2="236.1" y2="226.4"/>
	<line class="st15" x1="234.9" y1="73.9" x2="235.6" y2="132.6"/>
	<polygon class="st4" points="205.1,306 285.1,306 283.9,226.4 201.3,225.4 	"/>
	<g>
		<polygon class="st1" points="94.5,69.9 87.1,79.4 96.9,86.5 98.2,81.4 97.2,79.9 98,77.5 98.9,71.6 96.2,69.9 		"/>
		<path class="st11" d="M98.5,72.3c1.3-1.2,3.8-2.8,5-2.2c0.2,0.1,0.6,0.7-0.4,1.3c-2.4,1.4-7,7.1-5.3,9.7c1.2,1.8,3.6-2.6,4.7-2.2
			c1.6,0.6-2.3,4.3-2.3,4.3l-3.5,3.3"/>
		<path class="st11" d="M96.5,71c1.1-1.4,4.3-4.1,5-2.7c0.2,0.5-0.2,1-0.6,1.4c-1.8,2-3.7,3.9-5,6.2"/>
		<path class="st11" d="M93.8,70.6c1.4-1.7,3.4-4.1,4.6-3.7c1.4,0.5-3.3,5-4.4,8"/>
		<path class="st11" d="M86.9,79.5c1.7-4.8,5.5-12.1,8.2-12.1c1.6,0-2.3,3.9-3,6.6"/>
	</g>
	<path class="st13" d="M205.3,138.7c-1.9-5.8-0.3-13.4,5.1-16.8c8.8-4.5,16.6,4.6,23.3,9.3c9.8,7.8,22.9,2.2,33.6,5.9
		c5.2,2.2,10.2,8.6,7.2,14.2"/>
	<path class="st11" d="M144.2,142.4c-13.7-1.8-27.2-7.5-36.4-17.8s-13.4-25.4-8.9-38.4c-4.5-2.6-8.9-5.2-13.4-7.8
		c-7.3,16.5-4.8,36.6,5.1,51.8s26.4,25.4,44.1,29.1c0.6-3.6,3.6-6.1,5.8-9C142.4,147.9,143.8,145,144.2,142.4z"/>
	<path class="st13" d="M220,139.2c-7.4-4-11.4-17.5-0.8-15.6C230,125.5,234,146.8,220,139.2z"/>
	<path class="st14" d="M47.2,306c-17.1-80.7,6.6-73.3,59.7-73.3C98.3,265.9,66,257,66,257v49"/>
	<path class="st13" d="M218.6,129.7c2.3-4.2,6.7-1.5,3,2.2"/>
	<path class="st15" d="M230.8,69.7c0.8,10.1,3.8,12.1,4.4,0.5c2.3,18,7.2,5.4,8.2-4.1"/>
	<path class="st4" d="M235.4,71.5c0.4,2.8,1,6.2,1.4,9c0.5,3.3,0.9,6.6,2.1,9.8c1.2,3.1,3.1,6.1,5.9,7.9c4.8,3.1,11.4,2.1,16.3-0.9
		s8.5-7.7,11.9-12.2c1.5-2,3-4,4.5-5.9c3.1-4.1,6.3-8.2,10.2-11.6c3.9-3.4,8.7-5.9,13.8-6.4c1.3,1.1,2.6,2.2,4,3.2
		c-1,1.5-1.9,3-2.9,4.3c-7.9,2.1-14.6,7.7-19.6,14.2c-3.1,4.1-5.8,8.5-9.3,12.2c-2.6,2.7-5.7,4.9-9.1,6.5c-4.3,2-9,3-13.7,2.5
		s-9.3-2.6-12.4-6.1c-3-3.4-4.5-7.8-4.8-12.3C233.3,81.1,234.3,76.4,235.4,71.5z"/>
	<line class="st8" x1="283.7" y1="169.9" x2="276.6" y2="103.6"/>
	<path class="st14" d="M231,56.9l3.9-0.7l-3.8,7.8C231.1,64,231.4,59.3,231,56.9z"/>
	<path class="st11" d="M149.9,136c-23.5,17.3-30.7,71-30.2,98.8c12.5-0.9,24.9-1.8,37.4-2.7c1.2,0,2.2-0.6,2.3-1.9
		c4.7-29.9,15.2-72.8-0.2-100.1C155.8,134.7,152.1,135.2,149.9,136z"/>
	<path class="st11" d="M71.7,206.3c0,2.8,0.1,5.6,0.1,8.3c-19-29.1,56.1-17.8,71.4-24c3.4-14-2.5-37.5,6.4-48.5
		c14.2-17.6,16.8,59.7,10.1,64.4C158.2,207.7,71.7,206.4,71.7,206.3z"/>
	<rect x="66" y="256.9" class="st10" width="24.1" height="7.1"/>
	<rect x="71.7" y="206.3" class="st10" width="92.7" height="8.3"/>
	<path class="st10" d="M159.6,224.5l12.3-81.4c0.2-1.6,1.8-2.8,3.4-2.5l0,0c1.6,0.2,2.8,1.8,2.5,3.4l-12.3,81.4
		c-0.2,1.6-1.8,2.8-3.4,2.5l0,0C160.4,227.7,159.3,226.2,159.6,224.5z"/>
	<path class="st10" d="M87,253l-4.5-40c-0.2-1.6,1-3.1,2.6-3.3l0,0c1.6-0.2,3.1,1,3.3,2.6l4.5,40c0.2,1.6-1,3.1-2.6,3.3l0,0
		C88.7,255.8,87.2,254.6,87,253z"/>
	<polyline class="st11" points="78.8,205.9 77,195.9 92.1,194.3 	"/>
	<path class="st10" d="M175.2,162.1v-6h11.5c1.4,0,2.5,1.1,2.5,2.5v1c0,1.4-1.1,2.5-2.5,2.5H175.2z"/>
	<path class="st12" d="M90.5,127.5c8.5,16.2,25,25.4,42,30.2c0.8-2.1,2.2-4,2.6-6.2c-2.6-2.6-6.9-3.2-10.2-4.8
		C112.6,142,101.2,135.2,90.5,127.5z"/>
	<polygon class="st12" points="230.7,81.9 228.1,126.6 231.5,128.8 	"/>
	<path class="st12" d="M225.3,183l-2.1,41.7c6.2-13,5.8-40.5,5.8-40.5L225.3,183z"/>
	<g>
		<path class="st4" d="M205.6,306c2.1-6.4,3.2-13.1,3.2-20.2c0-36.1-29.3-65.4-65.4-65.4S78,249.7,78,285.8c0,7.1,1.2,13.8,3.3,20.2
			H205.6z"/>
	</g>
	<g>
		<path class="st1" d="M197.4,306c2.4-6.3,3.7-13.1,3.7-20.2c0-31.8-25.8-57.6-57.6-57.6S85.9,254,85.9,285.8
			c0,7.1,1.3,13.9,3.7,20.2H197.4z"/>
	</g>
</g>
<g id="Layer_8">
	<path class="st12" d="M159.5,154.2c-7-32.9-5.7,44.2-3.5,48.4C164.2,211.7,160.4,158.2,159.5,154.2z"/>
	<path class="st12" d="M277.7,107.6c0,0,11.9,47.2,10.5,53.8c-1.4,6.5-4,7.7-4,7.7L277.7,107.6z"/>
</g>
</svg>
