<svg width="50" height="57" viewBox="0 0 50 57" fill="none" xmlns="http://www.w3.org/2000/svg">
    <g clip-path="url(#clip0_317_11302)">
        <path d="M29.1099 0.547828C28.7186 0.560577 28.549 0.804951 28.6039 1.2809C27.9009 1.32001 27.4173 1.44244 27.1537 1.64743C26.8901 1.85253 26.8196 2.141 26.9465 2.51198C27.0734 2.88306 27.3619 3.18606 27.8111 3.42035C27.6939 3.5571 27.6441 3.7729 27.6637 4.06577C27.6832 4.35873 27.9985 4.59963 28.6039 4.79485C29.053 4.91207 29.489 4.92442 29.9187 4.82672C29.821 5.27592 29.9787 5.55821 30.3888 5.67534C30.9551 6.26122 31.6566 6.40655 32.4964 6.11359L32.4087 6.67136L33.5521 7.14148C33.5912 7.6883 33.8444 8.07851 34.3131 8.31279L34.2573 8.42833C34.1987 8.42838 34.1489 8.44908 34.1099 8.48809L33.1737 9.53989C33.0955 9.61804 33.0043 9.63038 32.9067 9.57176C32.3599 9.25936 31.8741 9.01449 31.4446 8.83869C31.3274 8.78015 31.2569 8.68061 31.2374 8.54387L31.4127 7.19725C31.4127 7.0606 31.3462 6.9527 31.2095 6.87454C30.5846 6.58167 29.9495 6.36984 29.3051 6.23311C29.1098 6.17456 28.9728 6.23311 28.8948 6.40841L28.2812 7.66738C28.2226 7.78459 28.1231 7.83435 27.9864 7.81478C27.4786 7.71719 26.9308 7.64671 26.345 7.60761C26.2278 7.60766 26.1613 7.54952 26.1418 7.43231L25.9386 6.08569C25.919 5.90998 25.8111 5.82279 25.6159 5.82274C24.9324 5.78373 24.2475 5.78373 23.5641 5.82274C23.4078 5.82279 23.3083 5.89764 23.2692 6.05382L23.0661 7.43231C23.0465 7.54952 22.98 7.60766 22.8629 7.60761C22.277 7.64671 21.7291 7.71719 21.2214 7.81478C21.1433 7.85388 21.0438 7.82485 20.9266 7.72713L20.3131 6.37654C20.2349 6.25941 20.098 6.21363 19.9027 6.23311C19.6879 6.25268 19.3558 6.34823 18.9067 6.52394V6.40841C19.7268 6.05694 20.5072 5.57556 21.2493 4.97015C22.0304 4.28673 22.4497 3.57681 22.5083 2.83469C22.3716 2.65899 21.973 2.55945 21.3091 2.53986C21.6606 2.14936 21.8473 1.73846 21.8668 1.30879C21.613 0.957339 20.8493 0.899204 19.58 1.13349C18.2521 1.46552 17.0898 1.98433 16.0939 2.68728C15.0785 3.33175 14.1673 4.11832 13.3569 5.04585C12.5464 5.97347 11.8968 6.93443 11.4087 7.93032L11.9943 6.58371C12.2872 5.93933 12.5986 5.18799 12.9306 4.32872C13.0282 3.91867 13.0344 3.62404 12.9465 3.44823C12.8586 3.27254 12.6657 3.22277 12.3728 3.30083C12.0603 3.37898 11.4957 3.78989 10.6756 4.5319C9.77728 5.44977 8.98236 6.58293 8.28912 7.93032C7.59587 9.2778 7.12066 10.3405 6.86681 11.1216C7.00349 10.2428 6.98279 9.49152 6.80705 8.86658C6.7094 8.61275 6.49758 8.54627 6.16561 8.66339C5.85316 8.87824 5.53781 9.19796 5.22537 9.62754C4.91292 10.0572 4.6139 10.4743 4.32099 10.8745C4.02806 11.2749 3.68146 11.8457 3.28114 12.5877C2.88081 13.3298 2.52804 14.2097 2.22536 15.2252C1.92267 16.2407 1.69234 17.5856 1.53612 19.265C1.43847 20.3391 1.51731 21.493 1.77118 22.7232C2.08362 23.9535 2.39498 24.8625 2.70744 25.4483C3.01988 26.0342 3.31452 26.3746 3.58792 26.4722C3.76366 26.9019 3.99619 27.6157 4.28911 28.6116C4.44533 29.0803 4.51581 29.4353 4.49629 29.6794C4.47675 29.9235 4.53707 30.0957 4.68354 30.1933C4.82999 30.291 4.95242 30.4861 5.05007 30.779C5.30393 31.7163 5.64834 32.5839 6.07796 33.3846C5.99984 33.8142 5.95843 34.2458 5.95844 34.6754C5.02109 31.961 4.2614 29.9105 3.67557 28.524C2.54294 26.0049 1.65464 24.851 1.01022 25.0658C0.697768 25.183 0.50267 25.4653 0.424562 25.9144C0.405029 26.0902 0.405029 26.5425 0.424562 27.265C0.444086 27.9876 0.510577 28.7473 0.627749 29.5479C1.21358 32.1451 2.21814 34.3119 3.64369 36.0499L5.78314 38.5718C6.21275 39.0015 6.62365 39.315 7.01422 39.52C7.40477 39.7251 7.7659 39.781 8.09789 39.6834C8.58608 40.4645 9.20044 41.2823 9.94252 42.1416C10.4112 42.8641 10.9009 43.2085 11.4087 43.1695C11.6234 43.6381 11.9432 43.8707 12.3728 43.8707L12.815 43.8149C13.4204 44.4007 13.9643 44.8658 14.4525 45.2173L13.8987 46.8029C12.9223 46.9396 12.0216 47.0145 11.2015 47.034C10.4399 46.4872 9.36883 45.7482 7.98235 44.8109L7.8947 43.0499C7.85563 42.4446 7.95955 41.9381 8.21343 41.528C8.272 41.1961 8.08924 40.8931 7.65964 40.6196C7.01521 40.3072 6.55453 40.1826 6.28115 40.2412C6.16397 40.2802 6.09748 40.3841 6.07796 40.5599V41.528L3.2931 41.5878C3.03922 41.5878 2.82959 41.6834 2.66361 41.8786C2.49762 42.0739 2.49144 42.4641 2.64768 43.0499C2.6672 43.2648 2.65883 43.4515 2.61979 43.6077C2.48308 44.2326 2.12195 44.9963 1.53612 45.8946C1.458 46.0313 1.49324 46.2347 1.6397 46.5081C1.78616 46.7815 2.15346 47.2091 2.73931 47.795C2.99317 48.0488 3.37719 48.3642 3.89469 48.7352C4.41217 49.1063 5.32337 49.6708 6.63175 50.4324C8.17445 51.3502 9.65203 52.1139 11.0581 52.7193C11.351 52.7388 13.302 52.4732 16.9146 51.9265L16.9425 52.2492C15.9075 53.0303 15.2434 53.354 14.9505 53.2173C14.5404 53.2564 14.4158 53.5594 14.572 54.1257C14.6892 54.3795 14.905 54.5539 15.2174 54.6516L15.5959 55.0898L16.6796 55.7352C17.0897 55.8524 17.4798 55.8524 17.8509 55.7352C18.2024 55.5985 18.4389 55.2955 18.5561 54.8269L19.5202 54.3886C19.735 54.2519 19.8429 53.9696 19.8429 53.54L20.6915 52.8946C21.3555 52.7774 21.7871 52.5409 21.9824 52.1894C22.0214 51.877 22.1086 51.6819 22.2453 51.6038L23.2692 50.9026C23.3083 50.8049 23.7315 50.9709 24.5322 51.4006C24.9227 51.4982 25.2632 51.4775 25.5561 51.3408L26.3171 50.9026C27.0005 51.0588 28.2002 51.9057 29.9187 53.4484C29.8991 53.6241 30.007 53.8316 30.2414 54.0659C30.378 54.2417 30.7515 54.387 31.3569 54.5042L31.7673 55.2651L32.1776 55.4125C32.783 55.432 33.3476 55.2162 33.8749 54.7671L34.5203 54.5639C34.8522 54.3101 34.9975 54.0568 34.9585 53.803L34.6956 53.54L34.1378 53.3926C33.4348 53.0606 32.7209 52.6123 31.9984 52.046L31.5322 51.6914C33.6607 52.0624 36.3049 52.3571 39.4685 52.5719C39.859 52.65 40.384 52.4487 41.0382 51.9703C41.6924 51.4919 43.6662 50.0826 46.9665 47.7392C47.4547 47.2119 47.8488 46.6059 48.1418 45.9225C47.8488 45.6491 47.5894 45.2589 47.3649 44.7511C47.1403 44.2434 46.9972 43.8118 46.9386 43.4603C46.8605 43.1283 46.8521 42.8315 46.9107 42.5679C46.9693 42.3042 46.8821 42.0572 46.6478 41.8228C46.5501 41.6862 46.322 41.595 45.9705 41.5559C45.3456 41.4973 44.644 41.5097 43.8629 41.5878C43.4918 41.5487 43.276 41.4615 43.2175 41.3248L43.2494 40.6196C43.3079 40.3072 43.2207 40.1702 42.9864 40.2093C42.1271 40.4241 41.6083 40.6399 41.4326 40.8547C41.1787 41.1281 41.1871 41.4227 41.4605 41.7352C41.6753 41.9305 41.7832 42.1546 41.7832 42.4085C41.666 43.6974 41.5581 44.565 41.4605 45.0141C40.0349 46.1467 39.0678 46.8399 38.5601 47.0938C38.15 47.2305 37.2326 47.1723 35.8071 46.9185C35.4946 46.6451 35.2705 46.176 35.1338 45.5121C35.622 45.2192 36.1408 44.8664 36.6876 44.4563C37.0586 44.3977 37.37 44.3251 37.6239 44.2372C37.8777 44.1493 38.0063 43.9106 38.0063 43.5201C38.2602 43.4224 38.4429 43.2066 38.5601 42.8746L40.2613 40.8268C40.8081 40.3582 41.4017 40.0842 42.0462 40.0061C42.8273 39.9475 43.8442 39.5076 45.094 38.6874C45.2892 38.4726 45.2892 38.1696 45.094 37.779C45.465 37.5642 46.071 36.9582 46.9107 35.9623C47.2427 35.4936 47.3215 34.9748 47.1458 34.4085C47.9269 33.4711 48.3629 32.7322 48.4605 32.1854C48.5386 31.6972 48.5302 31.17 48.4327 30.6037C48.8036 30.3694 49.063 30.1681 49.2096 30.0021C49.356 29.8361 49.4286 29.6058 49.4287 29.3128C49.4286 29.02 49.3207 28.7751 49.106 28.5798C49.6722 27.7791 49.7427 27.0569 49.3131 26.4124C49.4693 25.358 49.3614 24.6938 48.9904 24.4204C48.5998 24.147 48.1184 24.2382 47.5522 24.6873C47.2201 24.5116 46.7718 24.6777 46.2056 25.1853C46.3031 24.9315 46.3155 24.7034 46.2374 24.5081C46.7451 24.2737 47.071 24.0183 47.2175 23.7351C47.3639 23.452 47.4366 23.0059 47.4366 22.4005C47.4952 22.0295 47.8356 21.3653 48.4605 20.4084C48.8901 19.4516 48.5871 19.1195 47.5522 19.4124C48.1184 18.9047 48.4047 18.4648 48.4048 18.0937C48.4438 17.7422 48.2945 17.2939 47.9625 16.7471C47.8258 16.4347 47.6223 16.3765 47.349 16.5718C47.4466 16.3765 47.4985 16.144 47.5084 15.8706C47.5181 15.5972 47.3375 15.0203 46.9665 14.1415C46.9079 12.9894 46.6379 12.508 46.1498 12.7032C46.0716 12.0979 45.8765 11.525 45.5641 10.9781C45.0954 10.2752 44.7219 10.0884 44.4486 10.4204C43.6869 9.28779 42.973 8.81875 42.3091 9.01399C42.2896 8.52583 42.1235 8.08586 41.8111 7.69526C41.6353 6.95324 41.4235 6.43842 41.1697 6.14546C40.8181 6.0088 40.5733 6.2039 40.4366 6.73111C40.378 6.30155 40.241 5.84923 40.0263 5.38052C39.8114 4.91189 39.471 4.67101 39.0024 4.65142C38.8266 4.63194 38.6605 4.66099 38.5043 4.73907C38.1919 4.54385 37.9263 4.4443 37.7115 4.44425C37.0475 3.7413 36.4415 3.68316 35.8948 4.26895L35.8071 3.65541C35.6118 2.93292 35.2216 2.77525 34.6358 3.18529C33.6789 2.18941 32.8611 1.53363 32.1776 1.22114C31.6113 1.02592 31.2378 1.07568 31.0621 1.36855C30.7691 1.07568 30.4578 0.888941 30.1258 0.810777C29.7938 0.732715 29.4825 0.645524 29.1896 0.547828C29.1615 0.546557 29.136 0.546557 29.1099 0.547828ZM29.2613 1.04982C29.4845 1.04395 29.9391 1.20825 30.6238 1.54385L31.2095 1.89445C31.3657 1.60157 31.6273 1.51438 31.9984 1.6315C32.4475 1.84636 32.8707 2.10576 33.2613 2.4084C33.6518 2.71112 34.0878 3.14492 34.576 3.71118C34.9861 3.43784 35.2807 3.49598 35.4565 3.88648L35.5442 4.59167C35.1145 4.18162 34.5874 4.15255 33.9625 4.50402L33.5521 4.32872C32.9858 3.64528 32.6454 3.12649 32.5282 2.77493C32.411 2.32583 32.3529 2.2884 32.3529 2.65939C32.3724 3.05 32.6049 3.5481 33.0541 4.15342C32.1949 3.88007 31.566 3.5273 31.1657 3.09764C30.7653 2.66807 30.4561 2.30694 30.2414 2.01397C30.0265 1.66251 29.9393 1.66251 29.9784 2.01397C30.2127 2.44364 30.5364 2.8422 30.9466 3.21318C30.6341 3.07654 30.3394 2.93956 30.0661 2.80281C29.3826 2.50994 28.818 2.35625 28.3689 2.33668C28.154 2.33673 28.1417 2.37415 28.337 2.45222C29.0985 2.64754 29.6526 2.82811 29.9944 2.99405C30.3361 3.16009 30.5664 3.31159 30.6836 3.44823C30.1368 3.68263 29.5682 3.79052 28.9824 3.77095C28.6113 3.75147 28.4453 3.75986 28.4844 3.79883C28.5234 3.83793 28.6397 3.87936 28.835 3.91835C29.538 3.99652 30.2519 3.91708 30.9744 3.6833C31.5017 3.95674 32.116 4.21833 32.8191 4.47215C32.3894 4.56983 31.9702 4.76892 31.5601 5.06179C31.4038 5.25712 31.4827 5.26547 31.7952 5.08967C32.1076 4.85538 32.5766 4.71006 33.2015 4.65142L33.6995 4.85462C33.6605 5.38192 33.7851 5.91744 34.078 6.46418L33.7593 6.58371L32.7633 6.26099L32.8191 5.58769L32.2653 5.70322C31.738 5.87902 31.2108 5.72533 30.6836 5.23709C30.3321 5.29572 30.1828 5.15875 30.2414 4.82672C30.378 4.53385 30.3406 4.37619 30.1258 4.3566L29.2772 4.44425C28.7304 4.36619 28.3693 4.20852 28.1936 3.97413C28.0764 3.77891 28.1512 3.53801 28.4246 3.24505C27.8973 3.03029 27.5715 2.79379 27.4446 2.53986C27.3176 2.28606 27.3964 2.0826 27.6796 1.92632C27.9627 1.77014 28.4837 1.74109 29.2454 1.83867C29.0696 1.62391 29.0238 1.39974 29.1019 1.16537C29.108 1.09215 29.1598 1.05249 29.2613 1.04982ZM20.8708 1.42432C20.9398 1.42305 21.0081 1.42586 21.074 1.42828C21.3279 1.48691 21.3943 1.63223 21.2772 1.86652L20.6358 2.71513C20.0694 2.79329 19.2912 3.117 18.3051 3.68326C17.3189 4.24961 16.2624 5.00095 15.1298 5.93825L14.7194 6.2012C14.5046 6.04502 14.1104 6.1155 13.5441 6.40837C15.3407 4.90476 16.9054 3.76322 18.2334 2.98206C19.0926 2.5525 19.5907 2.24949 19.7274 2.0737C19.2978 2.19091 18.6918 2.45868 17.9107 2.87848C17.1295 3.29838 15.8387 4.17214 14.0421 5.5L12.317 7.0498C13.2934 5.72195 14.3125 4.62182 15.3768 3.74302C16.441 2.86431 17.7134 2.17947 19.1975 1.69122C19.8297 1.5204 20.3881 1.43076 20.8708 1.42432ZM21.2573 2.92234C21.5356 2.92234 21.7773 2.95979 21.9824 3.03788C21.9824 3.40895 21.7582 3.81986 21.3091 4.26895C20.6256 4.8939 19.7725 5.47083 18.7473 5.99804C17.7221 6.52534 16.3876 7.14807 14.7473 7.87056V7.69526C16.7391 6.21118 18.5862 5.00316 20.2852 4.06577C20.7343 3.79242 20.6929 3.71359 20.1656 3.8307C19.5798 4.12368 18.9364 4.48481 18.2334 4.91437C17.0617 5.67601 15.9201 6.42734 14.8071 7.16936L14.835 6.81876C17.0611 4.86602 18.8875 3.60424 20.3131 3.03788C20.6646 2.95979 20.979 2.92234 21.2573 2.92234ZM12.321 3.88648C12.3306 3.88641 12.3376 3.88406 12.3449 3.88648C12.4425 3.96465 12.4716 4.09326 12.4326 4.26895L10.9983 7.95821C10.0609 9.77436 8.82823 11.6712 7.30506 13.6435C6.66062 14.3465 6.26207 14.7949 6.10585 14.9901C5.94962 15.1854 5.82101 15.3722 5.72338 15.5479L5.8429 15.0499L6.40067 14.1694C7.18178 12.9001 8.11587 11.1028 9.20945 8.77893C9.54141 8.09549 10.0311 7.32346 10.6756 6.46418C10.8709 6.01509 10.7629 6.02743 10.3529 6.49606C9.39599 7.6873 8.28353 9.5718 7.01422 12.1495L7.57199 10.7431C7.66962 10.4307 7.98098 9.72294 8.50825 8.61956C9.03549 7.51627 9.5543 6.64252 10.062 5.99804C10.5698 5.35367 10.9185 4.9344 11.1138 4.73907C11.7729 4.17159 12.1768 3.88767 12.321 3.88648ZM36.6239 4.32075C36.7734 4.3131 36.9332 4.35273 37.098 4.44425C36.5316 4.4443 36.1995 4.68917 36.1019 5.17732C36.0433 5.48981 36.0433 5.87166 36.1019 6.32076C35.9066 6.04741 35.6701 5.8109 35.3968 5.61557C34.8695 5.34223 34.7739 5.3713 35.1059 5.70322C35.4379 6.03524 35.7285 6.37966 35.9824 6.73111C35.5528 7.08267 35.0837 7.23636 34.576 7.19725C34.4003 7.27541 34.4293 7.32518 34.6637 7.34466C34.898 7.40329 35.1719 7.38259 35.4844 7.2849C35.4453 7.5974 35.4951 7.91274 35.6318 8.22515C35.3584 8.26425 35.0347 8.22285 34.6637 8.10562C34.234 7.87133 34.0099 7.50184 33.9904 6.99406L34.5203 6.78689C34.7546 6.51355 34.757 6.31009 34.5322 6.17334C34.3076 6.0367 34.1852 5.67557 34.1657 5.08967C34.3804 4.62106 34.9116 4.62106 35.7513 5.08967C36.0064 4.59297 36.2949 4.33754 36.6239 4.32075ZM37.1458 4.95421C37.605 4.93716 38.06 5.09857 38.5043 5.44027C38.5238 5.16693 38.7044 5.0859 39.0462 5.19326C39.3879 5.30071 39.7054 6.02517 39.9984 7.37255L40.4645 7.54785C40.6207 7.17687 40.7493 6.99411 40.847 6.99406C41.0032 6.99411 41.1568 7.31383 41.3131 7.95821C41.7036 8.30976 41.8904 8.88669 41.8709 9.68729C41.617 10.0193 41.48 10.4302 41.4605 10.9184L41.2255 10.3925C41.0887 9.80668 41.0306 9.18834 41.0502 8.54387C41.0306 8.27052 41.0015 8.27052 40.9625 8.54387C40.9039 9.11022 40.8955 9.5916 40.9346 9.98212C40.4073 9.29868 39.8388 8.68432 39.2334 8.1375C39.1162 7.70792 39.0788 7.21818 39.1179 6.67136C39.0593 6.20273 39.0095 6.09482 38.9705 6.34864C38.9314 6.93452 38.9521 7.4824 39.0302 7.99008C38.5811 7.54098 38.0539 6.88521 37.4486 6.02594C37.2923 5.75258 37.2218 5.69446 37.2414 5.85064C37.6124 6.55368 38.0066 7.13898 38.4167 7.60761C38.8267 8.07633 39.1588 8.44981 39.4127 8.72315C38.9049 8.56697 38.465 8.46126 38.094 8.41239C37.7229 8.36361 37.3785 8.26189 37.0661 8.10562C36.7731 8.04708 36.7855 8.11761 37.098 8.31279C37.2737 8.43001 37.6286 8.53393 38.1657 8.63152C38.7027 8.7292 39.2069 8.89524 39.6757 9.12952C39.9295 9.28579 40.2699 9.68834 40.6996 10.3327L41.0502 11.1216C40.5033 10.8287 39.8973 10.6252 39.2334 10.508C38.5694 10.3909 38.1792 10.283 38.0621 10.1853C37.5543 9.97054 37.4962 9.99124 37.8868 10.2451C38.0039 10.3623 38.421 10.4931 39.1338 10.6395C39.8466 10.786 40.5336 11.0661 41.1976 11.4762L41.2573 11.6514C41.1206 11.8077 41.0708 12.0235 41.1099 12.2969L41.3131 12.8825C41.1373 12.6678 40.8964 12.7633 40.584 13.1734C40.7012 12.9195 40.6721 12.687 40.4964 12.4722C40.2229 12.0621 39.5588 11.6222 38.5043 11.1534L38.329 11.4762C37.4698 11.2028 36.9303 10.6924 36.7155 9.95024C36.6959 9.71595 36.9034 9.58516 37.333 9.55583C37.7626 9.52657 37.8291 9.40414 37.5362 9.18929C36.9699 8.99405 36.5008 8.66198 36.1298 8.19327C35.8759 7.86134 35.8759 7.62881 36.1298 7.49208L36.5681 7.37255L36.7753 7.10961L36.5123 6.08569C36.4342 5.55848 36.5795 5.18501 36.9506 4.97015C37.0165 4.96033 37.0802 4.95665 37.1458 4.95421ZM24.4047 6.03788C24.7396 6.02973 25.0733 6.05355 25.4326 6.08968C25.5677 6.07872 25.6119 6.19144 25.6796 6.32474L25.835 7.3606C25.8643 7.60661 25.8806 7.85159 26.3171 7.87056C26.7535 7.88954 27.4469 7.97314 27.8191 8.05382C28.1912 8.13453 28.4433 7.97914 28.5681 7.71916C28.5681 7.71916 28.9246 6.98098 29.1019 6.61159C29.1442 6.52362 29.222 6.48354 29.2892 6.49606C29.9584 6.62059 30.3989 6.76481 30.9864 7.06577C31.0648 7.10597 31.1201 7.2042 31.094 7.37255L30.9226 8.51598C30.8835 8.77958 31.0206 8.95671 31.2932 9.06578C31.7934 9.26596 32.1063 9.4324 32.4366 9.62754C32.7464 9.81057 33.1506 9.99002 33.4964 9.62359L34.4326 8.63156H34.4884L34.2852 8.86661C34.1944 8.97165 34.1457 9.15312 34.1378 9.3965C34.1328 9.55268 34.4321 9.74296 34.6836 9.78295C35.1749 9.86109 35.4973 9.83493 35.9506 9.81881L35.588 10.8905L35.4844 11.1814C35.4493 11.3474 35.3661 11.5134 35.6597 11.6794L36.0143 11.9423L36.5402 12.4403L36.835 12.7033C37.0162 12.8809 37.1235 13.1586 37.9585 12.6954C37.8807 12.9496 37.8312 13.2056 37.7992 13.4683C37.7637 13.7595 37.8024 13.9734 37.9187 14.2292C37.6686 14.3512 37.5185 14.506 37.4765 14.7273C37.4263 14.9911 37.4692 15.2375 37.5641 15.4882C37.6699 15.7675 37.872 15.9989 38.0342 16.2492C37.8194 16.3078 37.7532 16.3728 37.6518 16.5121C37.5285 16.6814 37.5562 17.0505 37.6318 17.281C37.7976 17.7863 38.3155 17.8001 38.7075 18.038C39.2189 18.3484 39.7081 18.6683 40.0422 19.1615C40.2258 19.4325 40.3639 19.704 40.5482 19.9743C40.6271 20.0901 40.8744 20.3121 40.9944 20.3846C41.1298 20.4665 41.4008 20.5878 41.4008 20.5878C41.3105 20.7684 41.2566 20.9326 41.1737 21.2173C41.1019 21.464 41.0932 21.5359 41.0741 21.791C41.0616 21.957 41.071 22.1142 41.1338 22.2691C41.1758 22.3727 41.4047 22.5958 41.4047 22.5958C41.4671 22.9892 41.5448 23.4414 41.588 23.8149C41.6057 23.9681 41.8134 24.2326 42.0382 24.2611C42.3559 24.3015 42.5349 24.32 43.098 24.4165C43.2296 24.4391 43.3719 24.5748 43.3928 24.8667C43.4389 25.2869 43.399 25.7925 43.4048 26.2133C43.4073 26.4015 43.3941 26.5511 43.1617 26.5918L42.1617 26.7671C41.8612 26.8034 41.6771 26.9623 41.6478 27.1416C41.6158 27.7018 41.5232 28.25 41.4366 28.803C41.4006 29.0326 41.4275 29.2924 41.7235 29.4683C41.9763 29.6186 42.0304 29.6509 42.6159 29.8867C42.5803 30.0142 42.5922 30.1515 42.6358 30.2851C42.4197 30.2052 42.2937 30.3241 42.1976 30.4405C42.1228 30.168 42.0804 29.9944 41.9147 29.9185C41.7202 29.8295 41.5113 29.9138 41.4326 29.9584C41.3056 30.0304 41.082 30.2213 41.082 30.2213C41.0516 29.9724 41.0228 29.7223 41.0024 29.4723C40.9954 29.303 40.9644 29.1651 41.1219 28.7711C41.1568 28.6837 41.2625 28.5855 41.3131 28.4365C41.4992 27.853 41.4194 27.4065 41.3888 26.8269C41.3764 26.5908 41.3464 26.4105 41.3091 26.1855C41.2808 26.0147 41.2471 25.8482 41.1737 25.6914C41.129 25.596 41.0865 25.4721 41.0223 25.3886C40.9293 25.2678 40.8293 25.1306 40.6836 25.0859C40.4555 25.0159 40.2245 25.1021 40.0581 25.2691C39.5419 24.8221 39.4165 24.8461 39.2334 24.8747C38.999 24.9113 38.8144 25.1129 38.6318 25.3129C38.6636 24.9179 38.6432 24.5681 38.6199 24.1297C38.5966 23.6912 38.5202 23.2427 38.4087 22.7074L30.4127 25.807L37.9745 20.3209H28.6597L36.9545 18.038C36.1664 16.127 34.5788 14.3394 33.1139 13.2014C31.649 12.0633 29.7406 11.0243 26.9625 10.9185L27.3808 19.2771L24.588 10.9185L21.7832 19.3209L22.2254 10.8507C19.8696 10.9114 17.3201 12.1193 15.7553 13.3209C14.1905 14.5224 12.7456 16.5658 12.1457 18.038L20.576 20.3209H11.1855L18.7672 25.8148L10.8349 22.6953C10.6865 23.2596 10.613 23.6299 10.56 24.1296C9.71241 24.6429 9.40914 25.8033 9.03415 27.1296C8.60162 27.6757 8.25014 28.1584 7.8947 28.6993C7.80078 28.1691 7.74476 27.6385 7.70347 27.1017C7.68393 26.9455 7.60122 26.8282 7.41263 26.7989L6.15764 26.6037C5.88874 26.5862 5.89476 26.3529 5.88673 26.1694C5.88028 25.6713 5.86653 25.1013 5.87478 24.5917C5.87635 24.4946 5.96806 24.4028 6.08594 24.3726C6.41878 24.2874 6.97878 24.2493 7.33694 24.1575C7.60443 24.0888 7.64488 24.0033 7.70347 23.8666C7.73197 23.3514 7.81001 22.8436 7.9226 22.3407C7.9226 22.3407 8.10028 21.8272 7.91065 21.6754C7.65709 21.4724 7.28515 21.3328 7.28515 21.3328C7.70062 21.0418 8.02815 20.7878 8.50826 20.3208C8.98838 19.8538 9.47044 19.3204 9.9744 18.5359C10.4784 17.7514 11.1779 16.7729 11.6079 15.8268C12.0378 14.8806 12.6176 13.288 12.5202 12.4403C12.7883 11.9952 12.8657 11.902 13.2294 11.273C13.5931 10.6439 14.1777 9.42947 14.5401 8.63152H14.7752L15.6318 9.59965C16.0246 10.0454 16.2581 9.95927 16.6398 9.73113C17.0494 9.48627 17.4441 9.28892 17.8629 9.11758C18.0362 9.04665 18.2761 8.897 18.2175 8.45223L18.082 7.42833C18.0623 7.27869 18.1216 7.20586 18.2852 7.12554C18.711 6.91645 19.4669 6.62319 19.7951 6.55581C19.9427 6.52554 20.0684 6.60588 20.1139 6.70323L20.5999 7.73909C20.7305 8.03029 20.965 8.16579 21.3728 8.07375C21.781 7.98164 22.2195 7.90723 22.7712 7.87056C23.323 7.83391 23.3056 7.64132 23.345 7.3606L23.4884 6.31279C23.4709 6.19845 23.5747 6.06124 23.7952 6.08968C24.0029 6.06133 24.2038 6.04278 24.4047 6.03788ZM14.1138 6.77892C14.1553 6.77522 14.1921 6.77713 14.2214 6.78682C14.2995 6.98215 14.3162 7.24992 14.2772 7.59161C14.2381 7.93339 13.9849 8.65347 13.5162 9.747L12.4326 11.8546C11.671 11.9522 10.9487 12.305 10.2652 12.9103C10.6167 12.305 11.0422 11.6118 11.5401 10.8307C12.0381 10.0496 12.8123 8.87899 13.8668 7.31671C14.0426 7.02383 14.0487 6.95117 13.8828 7.09758C13.7168 7.24409 13.2746 7.80251 12.5521 8.77886C11.8295 9.75531 10.8624 11.2703 9.65168 13.3207C9.31969 13.8285 8.49788 15.0863 7.18952 17.0976C7.09187 17.1953 6.79723 17.2534 6.30904 17.2729L5.34489 20.1175C5.423 20.2347 5.66787 20.1933 6.07796 19.998C5.88267 20.3691 5.58803 20.5765 5.19748 20.6156L4.96242 20.4363L4.84688 19.998L4.87477 19.7351L5.10983 19.763L6.13374 17.1574L5.52019 16.3964L5.6676 15.9582C5.86287 16.3683 6.04563 16.5925 6.22139 16.6315C6.49477 16.1043 6.89114 15.3842 7.40864 14.4761C7.92612 13.5681 8.5383 12.6445 9.24132 11.7072L9.20945 11.4761C9.20943 11.3394 9.27991 11.3271 9.41662 11.4442L10.8788 9.33663L9.67957 11.4163C9.87483 11.6312 9.78764 11.7765 9.41662 11.8546C8.16681 13.5145 7.20804 15.1665 6.5441 16.8068L6.83892 16.8944C7.01466 16.9726 7.1807 16.8944 7.33693 16.6594L9.1218 13.496L10.823 10.3327C11.6236 8.90716 12.541 7.79469 13.576 6.994C13.8103 6.86222 13.9893 6.78992 14.1138 6.77892ZM17.7633 7.08171V7.16936L17.9386 8.57574C17.9581 8.71248 17.9123 8.80803 17.7951 8.86658C17.3069 9.0619 16.8088 9.30677 16.3011 9.59965C16.2034 9.63875 16.1123 9.63038 16.0342 9.57176L15.1298 8.54387L14.8628 8.31279L15.1577 8.19327C16.134 7.80276 17.0016 7.43327 17.7633 7.08171ZM35.0462 8.75104L35.839 8.83869L36.337 9.24905C36.2003 9.28815 36.1007 9.37535 36.0422 9.512C34.9486 9.53157 34.4421 9.45274 34.5203 9.27694C34.4616 9.15982 34.636 8.98542 35.0462 8.75104ZM6.14171 9.47215C6.2067 9.46578 6.25185 9.49855 6.28115 9.57176C6.35925 10.3529 6.35308 11.1104 6.26521 11.8427C6.17733 12.575 5.9884 13.3867 5.69549 14.2849C4.93389 16.8236 4.4772 18.5337 4.32099 19.4124C4.02806 20.4474 3.70435 21.7964 3.35286 23.4563C3.19663 22.6556 3.28999 20.9684 3.63174 18.4005C3.97347 15.8326 4.40727 14.004 4.93453 12.9104C5.18839 12.3441 5.18003 12.2569 4.90665 12.6475C3.71543 14.6784 3.02223 17.6754 2.82696 21.6395C2.7879 23.026 2.86275 24.0284 3.05803 24.6435C3.25331 25.2587 3.47747 25.6136 3.73134 25.7112C3.86803 25.7894 4.01734 25.781 4.17358 25.6834C4.29074 24.9413 4.36957 24.3375 4.40864 23.8786C4.44768 23.4197 4.49964 22.8842 4.568 22.269C4.63634 21.6539 4.75877 21.1413 4.93453 20.7311L5.05007 20.8467C4.85478 21.745 4.75305 22.3717 4.7433 22.7232C4.73352 23.0747 4.71063 23.4275 4.67158 23.779C4.63252 24.1305 4.59111 24.803 4.55206 25.7989C4.78639 24.9983 5.0436 24.2346 5.317 23.512L6.22139 20.8786L7.39669 18.0937C8.0411 16.8439 8.93776 15.4201 10.0899 13.8188C10.7734 13.0182 11.3794 12.5866 11.9067 12.5279C12.0433 12.7233 12.0433 13.1258 11.9067 13.7311C11.77 14.3365 11.5334 14.9716 11.2015 15.6355C9.93215 17.9789 8.70343 19.6767 7.51223 20.7311L9.53216 17.4523L10.5003 15.6913C10.8713 15.0274 10.9378 14.7949 10.7035 14.9901C8.73113 17.9584 7.55218 19.8222 7.16163 20.5837C6.77106 21.3454 6.38922 22.0593 6.0182 22.7232C5.64716 23.3872 5.40229 23.906 5.28513 24.277C5.16796 24.648 4.92309 25.3122 4.55206 26.269C4.55205 26.4448 4.6723 26.9513 4.90665 27.7909C5.14097 28.6307 5.33826 29.1226 5.50426 29.269C5.67023 29.4155 5.68477 29.5754 5.54808 29.7511C5.48949 29.9073 5.5309 30.202 5.6676 30.6316C5.76523 31.1003 5.9894 31.7437 6.34091 32.5638L6.25326 32.8587C5.88222 32.0385 5.55015 31.1379 5.25724 30.1615C5.25724 29.7709 5.21364 29.53 5.12577 29.4324C5.03789 29.3347 4.95069 29.1542 4.86282 28.8905C4.77494 28.6269 4.64016 28.2327 4.46441 27.7152C4.28865 27.1978 4.16403 26.7349 4.08593 26.3248C3.55866 26.0905 3.17683 25.6981 2.9425 25.1415C2.70815 24.585 2.49016 23.8566 2.28512 22.9583C2.08008 22.06 1.99507 20.985 2.03413 19.7351C2.13176 18.251 2.34757 16.8065 2.67955 15.4005C3.16774 13.4477 4.16394 11.5923 5.6676 9.83471C5.87508 9.60285 6.03339 9.48284 6.14171 9.47215ZM42.5442 9.512C42.6321 9.50218 42.7483 9.53132 42.8948 9.59965C43.1877 9.73639 43.6567 10.2552 44.3012 11.1534C44.6136 10.802 44.9166 10.9266 45.2095 11.5319C45.561 12.0787 45.698 12.7345 45.6199 13.4961C46.3424 13.1056 46.5956 13.3671 46.3809 14.2849C46.6933 14.9294 46.8862 15.4337 46.9546 15.7949C47.0229 16.1562 46.9647 16.4944 46.7793 16.8068C46.5937 17.1193 46.5025 17.358 46.5123 17.524C46.522 17.69 46.5925 17.6838 46.7195 17.508C46.8464 17.3323 47.1058 17.187 47.4964 17.0698C47.7502 17.6166 47.8581 17.9777 47.8191 18.1535C47.8191 18.3683 47.6843 18.6008 47.4207 18.8547C47.157 19.1086 47.0055 19.4115 46.9665 19.763C46.9665 19.9388 47.0576 20.03 47.2335 20.03L47.7593 19.8825C48.0327 19.8435 48.041 20.0593 47.7872 20.528C47.5138 21.0357 47.3165 21.4634 47.1896 21.8148C47.0626 22.1664 46.9983 22.4486 46.9984 22.6634C46.9788 23.1126 46.9 23.3782 46.7633 23.4563C46.8023 22.89 46.7878 22.2985 46.7195 21.6833C46.6511 21.0682 46.5287 20.3812 46.353 19.6196C46.5091 19.4829 46.7249 19.0223 46.9984 18.2411C47.135 17.8506 47.106 17.8008 46.9107 18.0937C46.6959 18.6796 46.4801 19.0407 46.2653 19.1774C46.0505 18.4549 45.8179 17.5789 45.5641 16.5439C45.857 16.0557 46.0397 15.4374 46.1179 14.6953C46.1374 14.0704 46.1 14.0246 46.0024 14.5519C45.8852 15.294 45.6693 15.8669 45.357 16.277C45.103 15.4568 44.8291 14.6888 44.5362 13.9662C44.6338 13.5561 44.6752 13.0748 44.6558 12.5279C44.6362 11.9812 44.5864 11.9645 44.5083 12.4722C44.5083 12.8823 44.4585 13.2311 44.3609 13.524L43.7155 11.8865L43.3052 10.9463C43.1684 10.6339 43.1226 10.6339 43.1617 10.9463L43.5402 12.1773C43.2472 11.8454 42.9733 11.6005 42.7195 11.4443C42.4656 11.2881 42.4198 11.3004 42.5761 11.4762C43.0056 11.8472 43.3751 12.2458 43.6876 12.6753C43.9414 13.3003 44.1947 13.9437 44.4486 14.6076C43.7065 13.9828 43.1877 13.634 42.8948 13.5558C42.5237 13.4192 42.5237 13.4857 42.8948 13.759C43.422 14.091 44.0487 14.6763 44.7713 15.516C45.0056 16.1995 45.2297 16.8637 45.4446 17.508C45.0735 17.2933 44.6252 16.8656 44.098 16.2212C43.8636 15.9869 43.8552 16.0243 44.0701 16.3367C44.4997 16.9812 44.9978 17.5498 45.5641 18.0379L46.0024 19.8228C45.5532 19.3737 44.9679 18.917 44.2454 18.4483C43.9329 18.253 43.9122 18.2905 44.1856 18.5638C44.8105 19.013 45.4663 19.6771 46.1498 20.5558C46.345 21.1027 46.4322 22.1072 46.4127 23.5718C46.3932 23.9429 46.1192 24.2168 45.592 24.3925L45.4725 25.7989L44.7434 25.8268C44.3528 25.28 44.052 24.8546 43.847 24.5519C43.6419 24.2492 43.3512 23.7864 42.9705 23.1614C42.5896 22.5366 42.3095 22.0301 42.1338 21.6395C41.958 21.249 41.929 20.8464 42.0462 20.4363C42.1633 20.0263 42.2629 19.7149 42.341 19.5001C42.4191 19.2853 42.4067 19.2479 42.3091 19.3845C42.0748 19.7947 41.9087 20.1932 41.8111 20.5837L41.2255 18.9144C41.284 18.2505 41.6368 17.3996 42.2812 16.3646C42.4765 16.0131 42.4558 15.9841 42.2215 16.277C41.6356 17.0581 41.2577 17.8508 41.082 18.6515L40.1737 16.6315C40.1541 16.2605 40.3866 15.555 40.8749 14.52C41.1287 13.9732 41.0706 13.9939 40.6996 14.5797C40.3871 15.1656 40.1629 15.7135 40.0263 16.2212C39.7528 15.1081 39.4872 14.1617 39.2334 13.3805L39.0302 13.3208L39.1458 13.6435C39.302 14.6199 39.5178 15.4668 39.7912 16.1893C39.4201 15.8574 39.0009 15.5874 38.5322 15.3726C38.2783 15.2359 38.2783 15.265 38.5322 15.4602C39.0985 15.7922 39.5261 16.1243 39.8191 16.4562C40.0534 17.0031 40.2692 17.5012 40.4645 17.9503C40.113 17.6964 39.5193 17.4018 38.6796 17.0698C38.3672 17.0112 38.3672 17.0487 38.6796 17.1853C39.7341 17.615 40.3859 18.0382 40.6398 18.4483L41.2255 19.9981C41.0106 19.9981 40.7283 19.6784 40.3769 19.0339C40.0839 18.4872 39.3533 17.96 38.1816 17.4523C37.9473 17.3547 37.8394 17.1472 37.8589 16.8347C37.8979 16.62 38.1221 16.5328 38.5322 16.5718C38.415 16.2398 38.2781 15.9743 38.1219 15.7789L37.8868 15.4284C37.5743 14.784 37.7611 14.4642 38.4446 14.4642C38.1907 14.0737 38.1035 13.7707 38.1816 13.5558C38.1621 13.1848 38.2493 12.8237 38.4446 12.4722C38.5617 12.2379 38.6489 12.0014 38.7075 11.767C39.0785 11.9818 39.4168 12.1624 39.7195 12.3088C40.0221 12.4553 40.182 12.7231 40.2016 13.1136L40.0541 14.022C40.1127 14.1978 40.2704 14.1396 40.5243 13.8467C40.7781 13.4952 40.9815 13.2917 41.1378 13.2331C41.3526 13.3308 41.56 13.5052 41.7553 13.759C41.9506 14.1301 41.8801 14.8149 41.5482 15.8108L41.2255 16.6315C41.8894 15.7528 42.4289 15.3335 42.839 15.3726C42.9757 15.4702 43.0193 15.6675 42.9705 15.9702C42.9216 16.2729 42.9216 16.5904 42.9705 16.9224C43.0193 17.2544 42.9052 17.5367 42.6318 17.771C42.3584 18.0054 42.1757 18.3872 42.0781 18.9144C42.7029 18.4458 42.9561 18.533 42.839 19.1774L42.4884 20.4363C42.3907 21.0417 42.4863 21.328 42.7793 21.2889C43.0721 21.2499 43.2527 21.2873 43.3211 21.4045C43.3894 21.5217 43.4039 21.7251 43.3649 22.018C43.1891 22.4281 43.1103 22.6999 43.1299 22.8268C43.1493 22.9537 43.2053 23.0616 43.2932 23.1495C43.381 23.2374 43.57 23.2167 43.8629 23.0897C44.1558 22.9628 44.3011 23.05 44.3012 23.3527C44.3011 23.6554 44.3073 23.95 44.3171 24.2332C44.3268 24.5163 44.4202 24.7925 44.596 25.0658C44.7326 25.2611 44.907 25.3897 45.1219 25.4483L45.3848 25.1256C44.9942 25.1451 44.8137 24.8919 44.843 24.3646C44.8722 23.8374 44.8698 23.4265 44.8311 23.1336C44.6748 22.7625 44.5171 22.5551 44.3609 22.516C44.2047 22.477 43.8435 21.5015 43.2773 19.5877L43.8908 19.6196C44.3399 21.26 44.701 22.1421 44.9745 22.269C45.2478 22.396 45.3764 22.5413 45.357 22.7072C45.3374 22.8733 45.3872 23.2322 45.5044 23.779C45.8558 23.6814 46.0593 23.3577 46.1179 22.8108C46.2155 22.3031 46.0702 21.9129 45.6797 21.6395C45.2695 21.4052 45.033 21.1894 44.9745 20.9941C44.8573 20.6621 44.9859 20.4587 45.357 20.3805C45.5717 20.2634 45.0529 19.7944 43.8032 18.9742C43.1587 18.5251 42.9636 18.1225 43.2175 17.771C43.3151 17.5953 43.4957 17.6014 43.7593 17.7869C44.0229 17.9725 44.1951 18.0161 44.2733 17.9184C44.4099 17.645 44.302 17.4561 43.9506 17.3487C43.599 17.2413 43.433 17.1189 43.4526 16.9821C43.433 16.3768 43.4453 15.9659 43.4844 15.7511C43.5235 15.5363 43.5027 15.2831 43.4247 14.9901C43.2098 14.6777 42.7989 14.6984 42.1936 15.0499C42.3303 14.7179 42.3655 14.3942 42.2972 14.0817C42.2288 13.7693 42.0773 13.4663 41.843 13.1734L41.5482 12.265C41.47 11.9526 41.6484 11.7368 42.0781 11.6196C41.9413 11.0143 41.9413 10.5866 42.0781 10.3327C42.2147 10.0594 42.3103 9.83521 42.3689 9.65941C42.3982 9.57156 42.4563 9.52176 42.5442 9.512ZM36.1577 10.3048C36.2358 10.4806 36.4494 10.7506 36.7912 11.1216C37.1329 11.4926 37.575 11.7873 38.1219 12.002L37.3888 12.6156C37.2716 12.6742 37.1637 12.6575 37.0661 12.5598C36.7145 12.1888 36.2953 11.8277 35.8071 11.4762C35.7094 11.4371 35.6927 11.3583 35.7513 11.2411L36.1577 10.3048ZM21.9226 11.1495L21.4445 20.3208L12.5282 17.9543C13.0961 16.6553 14.5986 14.5044 15.9226 13.5399C17.2466 12.5753 19.9518 11.2732 21.9226 11.1495ZM27.2533 11.1813C29.6702 11.2693 31.5954 12.3371 33.0023 13.4124C34.5764 14.7295 35.9038 16.3072 36.6478 17.9423L27.7354 20.3049L27.2533 11.1813ZM24.588 12.9702L27.2533 20.9662H35.9545L28.8071 26.1216L31.4725 34.4085L24.588 29.1973L17.7075 34.4085L20.3728 26.1216L13.2254 20.9662H21.9226L24.588 12.9702ZM5.46043 16.8945L5.69549 17.1853L4.90665 19.2969C5.04333 18.4182 5.22609 17.6171 5.46043 16.8945ZM7.18952 17.508C6.77942 18.2697 6.46806 18.9545 6.25326 19.5598L6.0182 19.5319L6.63175 17.6276L7.18952 17.508ZM5.87079 20.7033L5.28513 22.2849L4.87477 23.6595L5.02218 22.4881L5.22537 21.6395L5.40465 20.7909L5.87079 20.7033ZM41.6677 21.257C41.7458 21.6281 41.8995 21.9809 42.1338 22.3128C42.0361 22.3129 41.9261 22.29 41.7992 22.2411C41.6722 22.1923 41.5872 22.1135 41.5482 22.0061C41.5091 21.8987 41.5505 21.6476 41.6677 21.257ZM4.28911 21.4642C4.09383 23.0265 3.92779 24.2468 3.7911 25.1256L3.67557 24.8905C3.55839 24.7148 3.76185 23.5733 4.28911 21.4642ZM7.01422 21.5798L7.54012 21.8148C7.65727 21.8734 7.68634 21.973 7.62777 22.1096C7.51059 22.6369 7.4441 23.1808 7.42458 23.7471C7.42457 23.8643 7.36644 23.9348 7.24928 23.9543L5.87079 24.1575C5.71456 24.1965 5.63572 24.2961 5.63573 24.4523C5.59667 25.1358 5.59667 25.8166 5.63573 26.5001C5.63572 26.6954 5.7269 26.8033 5.90266 26.8228L7.24928 27.03C7.36644 27.0495 7.42457 27.116 7.42458 27.2332C7.46363 27.819 7.53012 28.3669 7.62777 28.8746C7.64728 29.0113 7.6015 29.1069 7.48434 29.1654L6.22139 29.783C6.04563 29.8416 5.9875 29.9785 6.04609 30.1933C6.18278 30.8182 6.36951 31.3952 6.60386 31.9224L6.57597 32.038C6.40021 31.7646 6.23418 31.3682 6.07796 30.8507C5.92173 30.3332 5.87196 29.9866 5.93055 29.8109C6.08677 29.5375 6.037 29.2843 5.78314 29.0499C5.58785 28.8546 5.33462 27.9747 5.02218 26.4124C5.0417 26.0024 5.20774 25.388 5.52019 24.5678C5.83263 23.7477 6.33073 22.7515 7.01422 21.5798ZM45.0342 21.6116L45.5044 22.0778C45.1919 21.9802 45.0342 21.8265 45.0342 21.6116ZM41.6996 22.6355L42.2773 22.7391C42.5698 23.2274 42.8165 23.6221 43.1617 24.1296L42.0183 23.9543C41.9143 23.9383 41.8628 23.8364 41.843 23.7192C41.8001 23.4651 41.7256 22.7451 41.6996 22.6355ZM38.1697 23.1296C38.276 23.7765 38.3132 24.2857 38.2972 24.8905C38.2775 25.6334 38.2152 26.3655 38.1099 27.0977C37.8229 26.9565 37.5573 26.9182 37.333 27.1734C37.2504 27.2674 37.1939 27.4176 37.2135 27.6714L37.2733 27.9383C37.3318 28.1336 37.3983 28.2997 37.4765 28.4363C37.5377 28.5425 37.5973 28.6494 37.6518 28.7591C37.2913 29.8234 36.9091 30.8089 36.5402 31.4802C35.9614 32.5334 35.4188 33.2797 34.6079 34.1455L29.5681 26.4124L38.1697 23.1296ZM11.0302 23.1415L19.6079 26.4125L14.572 34.1456C13.351 33.0334 12.479 31.5873 11.9306 30.1655C12.1336 29.3095 12.2655 28.8135 12.3728 27.4722C12.3982 27.1554 12.328 26.8567 12.2533 26.7192C12.1409 26.5126 11.9808 26.5133 11.9027 26.5718C11.9895 26.44 12.0393 26.3216 12.1099 26.1495C12.2131 25.8979 12.2075 25.7297 12.1099 25.6515C11.9316 25.532 11.6138 25.568 11.07 25.8627C10.9902 25.4394 10.9402 25.0809 10.8071 24.6714C10.8304 24.108 10.8928 23.6313 11.0302 23.1415ZM10.5003 24.6874C10.7151 25.2537 10.8895 26.3019 11.0262 27.8348C11.1629 29.3678 11.1629 30.748 11.0262 31.9782C10.8969 33.5605 10.4814 34.6178 9.85487 35.9623C9.85485 34.7516 9.86938 33.7677 9.89869 33.0061C9.92797 32.2445 9.95703 31.2338 9.98634 29.9742C10.0156 28.7147 10.1006 27.2847 10.2373 25.6834C10.3154 25.2929 10.2947 25.2017 10.1776 25.4165C9.86511 27.0374 9.67838 29.1169 9.61981 31.6555L9.59192 33.3249L9.53216 35.6117L9.15367 35.1735C8.88026 33.8065 8.76002 32.3703 8.79909 30.8667C8.85766 29.7536 9.03604 28.5539 9.32897 27.2651C9.73904 25.6443 10.1292 24.785 10.5003 24.6874ZM48.0462 24.9902C48.2176 24.9768 48.375 25.0231 48.5203 25.1256C48.696 25.4186 48.7748 25.707 48.7554 25.9902C48.7358 26.2733 48.6362 26.5909 48.4605 26.9424C48.8315 26.9424 49.0266 27.0877 49.0462 27.3806C48.8899 28.0446 48.5786 28.522 48.1099 28.8149C48.5395 28.893 48.7698 29.03 48.7992 29.2252C48.8284 29.4205 48.7848 29.5804 48.6677 29.7073C48.5505 29.8343 48.3263 29.9483 47.9944 30.046L47.6717 29.4603C47.6912 28.9916 47.5335 28.5433 47.2016 28.1137C47.3382 27.9965 47.554 27.8803 47.847 27.7631C48.0618 27.6655 48.0243 27.6324 47.7315 27.6714C47.419 27.7301 47.1741 27.8089 46.9984 27.9065H46.9386C47.1143 27.2816 47.3966 26.688 47.7872 26.1216C47.8848 25.8678 47.8267 25.8762 47.6119 26.1495C47.2799 26.6182 46.9893 27.1163 46.7354 27.6435C46.6182 27.5264 46.527 27.3106 46.4685 26.9981C46.3903 26.6271 46.3322 26.6188 46.2932 26.9702C46.3517 27.4194 46.4389 27.7431 46.5562 27.9384C46.1265 28.6024 45.7861 28.8639 45.5323 28.7272C45.6884 27.7899 45.8959 26.8061 46.1498 25.771C46.5989 25.3219 46.9891 25.1726 47.3211 25.3288C47.5847 25.1201 47.8258 25.0073 48.0462 24.9902ZM39.3848 25.3089C39.4028 25.307 39.4225 25.3072 39.4406 25.3089C39.4888 25.3132 39.5392 25.3314 39.588 25.3607C39.7832 25.4779 39.9079 25.6025 39.9665 25.7392C40.025 25.8759 40.1122 25.853 40.2294 25.6674C40.3466 25.482 40.4461 25.4177 40.5243 25.4762C40.6023 25.5348 40.6834 25.6511 40.7713 25.8268C40.8591 26.0026 40.9235 26.1893 40.9625 26.3846C41.0016 26.5799 41.0368 26.9349 41.0661 27.4523C41.0954 27.9698 41.0311 28.3164 40.8749 28.4922C40.7186 28.6679 40.632 28.8839 40.6398 29.1376C40.6711 30.1533 40.7577 30.6573 40.8749 30.6475C40.992 30.6379 41.1351 30.559 41.3012 30.4125C41.4671 30.266 41.6124 30.2101 41.7394 30.2491C41.8663 30.2882 41.939 30.5745 41.9585 31.1017C41.978 31.629 42.0278 31.681 42.1059 31.2611C42.184 30.8413 42.3293 30.6316 42.5442 30.6316C42.759 30.6316 42.8004 31.1962 42.6637 32.3288C41.9021 33.0123 41.3542 33.5809 41.0223 34.03C40.9051 33.5418 40.8989 33.2014 41.0063 33.0061C41.1137 32.8109 41.2132 32.5889 41.3012 32.3448C41.389 32.1007 41.4617 31.8827 41.5203 31.6874C41.6765 31.2187 41.6474 31.1773 41.4326 31.5679C41.3154 31.8022 41.2137 32.0097 41.1259 32.1854C41.0379 32.3612 40.9322 32.5356 40.8151 32.7113C40.776 32.3989 40.6514 31.8426 40.4366 31.042C40.2608 30.4952 40.2111 30.5036 40.2892 31.0699C40.4454 31.9877 40.5533 32.876 40.6119 33.7352C40.2799 33.3837 39.9417 33.0807 39.6 32.8268C39.2582 32.573 38.9614 32.303 38.7075 32.0101C38.4927 31.8734 38.4553 31.8901 38.592 32.0659C38.8263 32.3783 39.1729 32.7457 39.6318 33.1655C40.0907 33.5854 40.3668 33.8655 40.4645 34.0021C40.5621 34.1389 40.6202 34.2551 40.6398 34.3527C40.464 34.5871 40.2606 34.832 40.0263 35.0858C39.8895 35.0077 39.8107 34.8729 39.7912 34.6874C39.7716 34.5019 39.7073 34.3649 39.6 34.277C39.4925 34.1892 39.1666 33.9214 38.6199 33.4723C38.1316 33.0427 37.974 32.6525 38.1498 32.3009C38.013 32.1252 37.8906 31.9217 37.7832 31.6874C37.6758 31.4531 37.7027 31.2227 37.8589 30.9981C38.0151 30.7736 38.3762 30.8753 38.9426 31.3049C39.0402 30.973 39.0402 30.6616 38.9426 30.3687C38.8449 30.0758 38.7286 29.7811 38.592 29.4882C38.3381 29.0195 38.0932 28.621 37.8589 28.289C37.6441 27.8399 37.5943 27.5866 37.7115 27.528C37.8286 27.4694 38.0154 27.5483 38.2693 27.7631C38.7574 27.2358 39.0772 27.0843 39.2334 27.3089C39.3896 27.5335 39.5182 27.9091 39.6159 28.4364C39.7135 28.9637 39.7219 29.5075 39.6438 30.0738L39.5283 30.1934L39.6438 30.3089C39.6828 30.4261 39.637 30.8661 39.5004 31.6276C39.5003 31.7839 39.5461 31.9415 39.6438 32.0977C39.6047 31.8634 39.5963 31.6851 39.6159 31.5679C39.6354 31.4703 39.6997 31.2439 39.8071 30.8826C39.9145 30.5214 39.9665 30.3139 39.9665 30.2651C39.9665 30.2163 39.8876 30.181 39.7314 30.1615C39.9071 30.1029 40.0212 30.0219 40.0701 29.9145C40.1189 29.8071 40.1272 29.6992 40.098 29.5918C40.0686 29.4844 40.0519 29.1752 40.0422 28.6675C40.0324 28.1598 39.9826 27.7757 39.8948 27.5121C39.8069 27.2485 39.7509 27.045 39.7314 26.8985C39.7119 26.7521 39.5956 26.6671 39.3808 26.6475C39.166 26.628 38.863 26.8438 38.4725 27.293C38.6482 26.4533 38.8287 25.8909 39.0143 25.6077C39.136 25.4219 39.2587 25.3222 39.3848 25.3089ZM1.26919 25.763C1.28993 25.763 1.31096 25.7661 1.33293 25.7709C1.45009 25.771 1.71786 26.0471 2.13771 26.6036C2.55756 27.1602 3.12832 28.4096 3.85087 30.3526C4.57339 32.2957 5.01555 33.572 5.18155 34.1773C5.34752 34.7827 5.51356 35.3099 5.67956 35.759C5.84553 36.2082 6.04681 36.6649 6.28115 37.1335C6.63264 37.8365 6.98542 38.3179 7.33693 38.5718C7.80559 38.9038 8.14602 38.9619 8.36084 38.7471L7.57199 37.1335C7.43528 36.8406 7.22784 36.7327 6.95446 36.8108C6.50531 36.8304 6.32255 36.5688 6.40067 36.022C6.43972 35.6705 6.56434 35.0645 6.77916 34.2052C7.20876 32.7602 7.82313 31.324 8.62379 29.8984C8.52613 30.5234 8.48035 31.0505 8.48036 31.4801C7.75781 33.101 7.23065 34.4085 6.89868 35.4044C6.72292 36.127 6.73128 36.4798 6.92657 36.4602L7.16163 36.3447L6.98633 35.9343L7.10187 35.6116L7.45247 36.2252L7.65964 36.0817L7.83494 36.3447L7.65964 36.6076L8.97837 38.512L9.29709 38.2491L9.53216 38.512C9.14158 38.9026 8.98789 39.1558 9.06602 39.273C9.41751 39.9174 9.73723 40.4362 10.0302 40.8268C10.616 41.686 11.0934 41.9269 11.4644 41.5558C11.5816 41.4582 11.7309 41.4789 11.9067 41.6156C12.0824 41.7523 12.2775 42.047 12.4923 42.4961L12.4605 41.8228L11.3768 40.7949L10.7632 39.5638C10.2555 38.8413 9.89436 38.2851 9.67957 37.8945C9.46475 37.5039 9.19698 37.0389 8.87478 36.4921C8.55256 35.9453 8.15619 35.327 7.68753 34.6435L7.77518 34.3208L8.71144 35.4642C9.55113 36.5382 10.1426 37.3539 10.4843 37.9104C10.8261 38.467 11.0273 38.5978 11.0859 38.3048L11.2612 37.751L11.5242 37.8945L11.3489 39.0379L11.2891 39.3885C11.2696 39.6619 11.3255 39.8258 11.4525 39.8746C11.5794 39.9234 11.6895 40.104 11.7871 40.4164C11.8457 40.6117 12.1549 41.0164 12.7114 41.6315C13.268 42.2467 13.8533 42.7615 14.4684 43.1813C15.0835 43.6012 15.59 43.9456 15.9903 44.2092C16.3906 44.4729 16.5836 44.7323 16.564 44.9861L17.1178 45.1017L16.9744 44.4005L17.325 44.3128C17.5007 44.43 17.6461 44.6418 17.7633 44.9543C18.271 45.3448 18.7109 45.6602 19.082 45.8945L17.7951 46.1256L15.5959 44.8108L13.576 43.4602L13.1935 42.9622C13.0763 42.8255 12.9165 42.7965 12.7114 42.8746C12.5064 42.9527 12.3465 42.8364 12.2294 42.524C11.7021 42.8364 11.1626 42.7202 10.6158 42.1734L9.65168 41.0021L8.74331 39.4483L8.4206 39.2132C7.93239 39.5257 7.30568 39.3138 6.5441 38.5718C6.2707 38.3179 5.6854 37.3094 4.78712 35.5518C3.59591 33.2866 2.78645 31.5805 2.35684 30.4283C2.04438 29.4715 1.84093 28.8655 1.74329 28.6116C1.64565 28.3578 1.60424 28.3516 1.62377 28.5956C1.64329 28.8398 1.78862 29.3876 2.06202 30.2371C2.3354 31.0866 2.84585 32.3298 3.58792 33.9702C4.23233 35.2981 4.8674 36.5101 5.4923 37.6036C4.04723 36.0414 3.00125 34.5762 2.35684 33.2092C1.71241 31.8618 1.2808 30.6124 1.066 29.4602C0.968353 29.0501 0.910222 28.4212 0.890698 27.5717C0.871166 26.7223 0.883508 26.2471 0.922571 26.1494C1.008 25.8931 1.12394 25.7652 1.26919 25.763ZM11.7274 25.8746C11.9046 25.8618 11.9238 25.9809 11.7871 26.2371L11.2334 27.0579C11.1943 26.7259 11.1724 26.4356 11.1138 26.2013C11.3091 26.0646 11.4679 25.9647 11.6437 25.8865C11.6754 25.8793 11.7021 25.8764 11.7274 25.8746ZM43.7155 25.8866L44.2733 26.7949C44.1756 27.8104 44.0012 28.7362 43.7474 29.5758C43.4935 29.3806 43.1614 29.3929 42.7514 29.6077L41.843 29.1654C41.7258 29.1069 41.6709 29.0105 41.6956 28.8746C41.7881 28.3659 41.8581 27.9047 41.8908 27.3168C41.8974 27.1982 41.9611 27.0511 42.0781 27.03L43.3649 26.7989C43.5406 26.7599 43.6362 26.6436 43.6558 26.4483L43.7155 25.8866ZM45.3848 26.2969C45.1114 27.7811 44.8498 29.0305 44.596 30.046L44.1856 29.8109C44.5371 28.4049 44.7529 27.255 44.8311 26.3567C44.9482 26.3177 45.1309 26.297 45.3848 26.2969ZM11.9266 26.8547C12.0566 26.8463 12.1088 27.0521 12.082 27.4682C12.0234 28.347 11.7737 29.9747 11.4326 30.9583C11.413 29.8843 11.3904 29.2711 11.3489 28.5798L11.6118 27.8507C11.6314 27.5969 11.5816 27.5845 11.4644 27.8188L11.313 28.0898L11.2612 27.5559L11.6995 26.9981C11.791 26.9066 11.8675 26.8585 11.9266 26.8547ZM8.9465 27.7033C8.75497 28.5172 8.67051 29.1929 8.62379 29.4882C7.76454 30.9723 7.10041 32.4499 6.63175 33.9145C6.51457 34.3636 6.41901 34.8992 6.34091 35.524C6.28232 34.7234 6.41311 33.6048 6.73534 32.1695C7.05754 30.7342 7.79433 29.2461 8.9465 27.7033ZM46.7076 28.5918C46.876 28.5845 47.0114 28.8745 47.1139 29.4603C47.0553 30.4953 47.3085 30.985 47.8749 30.9264C47.9725 30.985 47.987 31.255 47.9187 31.7432C47.8503 32.2314 47.6905 32.6546 47.4366 33.0061C46.6359 33.924 46.3039 34.4678 46.4406 34.6436C46.6554 35.0146 46.618 35.4339 46.3251 35.9025C45.8954 36.4298 45.3268 37.0191 44.6239 37.6635C44.8191 38.0541 44.6738 38.3861 44.1856 38.6595C43.6193 38.972 42.9926 39.2419 42.3091 39.4763C43.5784 38.5194 44.3628 37.4941 44.6558 36.4005C45.0658 36.0295 45.4269 35.7886 45.7394 35.6715C46.0128 35.4957 46.0586 35.4169 45.8828 35.4364C45.5313 35.5731 45.1618 35.7889 44.7713 36.0818C45.1423 35.3398 45.4079 34.5387 45.5641 33.6794C46.3257 32.9374 46.8031 32.3521 46.9984 31.9224C47.2717 31.5124 47.2801 31.4212 47.0263 31.6555C46.7333 32.1437 46.285 32.6625 45.6797 33.2093C45.953 32.3696 46.1979 31.4316 46.4127 30.3966C46.5103 29.7912 46.4813 29.6833 46.3251 30.0738L46.0303 31.1017C45.8935 30.6917 45.7398 30.3763 45.5641 30.1615L45.9426 31.3926C45.8644 31.8808 45.6777 32.574 45.3848 33.4723C45.1114 32.6911 44.7503 31.9896 44.3012 31.3647C43.891 30.857 43.8245 30.8486 44.098 31.3368C44.5471 31.9812 44.9166 32.8281 45.2095 33.8826C44.9752 34.82 44.7012 35.6004 44.3888 36.2252C44.1544 35.8738 43.9136 35.6329 43.6597 35.4962C43.4644 35.3985 43.4644 35.4567 43.6597 35.6715C43.9136 35.9253 44.117 36.1786 44.2733 36.4324C44.0389 36.9987 43.7297 37.4968 43.349 37.9265C42.9681 38.3561 42.5925 38.7172 42.2215 39.0101C42.6901 38.2876 42.8478 37.4865 42.6916 36.6077C42.6916 36.4515 42.814 36.3229 43.0581 36.2252C43.3022 36.1276 43.3832 36.0197 43.3052 35.9025C43.0903 35.4729 42.9864 35.1325 42.9864 34.8786C43.1426 34.8005 43.3751 34.8005 43.6876 34.8786C43.9414 34.7029 43.9185 34.4558 43.6159 34.1336C43.3132 33.8114 43.1203 33.3446 43.0422 32.7392C43.0422 32.3877 43.2787 32.2631 43.7474 32.3607C43.9621 32.3412 43.9789 32.088 43.8032 31.5997L43.3052 30.9264C42.9536 30.1453 43.1029 29.8591 43.7474 30.0738L44.5083 30.544C45.016 30.7393 45.2609 30.3988 45.2414 29.5201C45.2414 29.3248 45.3929 29.2812 45.6956 29.3886C45.9982 29.496 46.2744 29.2657 46.5283 28.6993C46.5917 28.631 46.6514 28.5942 46.7076 28.5918ZM7.48434 29.4244C7.09143 30.1276 6.85034 30.65 6.64769 31.3806C6.49608 30.9912 6.36839 30.5535 6.31302 30.2093C6.29349 30.1116 6.30794 29.9998 6.40067 29.9583L7.48434 29.4244ZM24.588 30.0499L30.3888 37.2212C28.8401 38.1023 26.4735 38.5485 24.6438 38.5161C22.814 38.4836 20.5398 38.0832 18.7593 37.2212L24.588 30.0499ZM38.6073 30.7046C38.3394 30.6203 38.0975 30.5629 37.8842 30.6363C37.7094 30.6965 37.5224 30.8724 37.4765 30.9822C37.4113 31.1376 37.3687 31.3128 37.3888 31.4802C37.4162 31.7087 37.4917 31.9803 37.5914 32.1268C37.6186 32.1667 37.7115 32.3288 37.7115 32.3288C37.6397 32.6705 37.7567 33.0171 37.9745 33.269C38.3357 33.6869 38.8075 34.0636 39.1896 34.3726C39.106 34.7074 39.0448 35.2527 39.0302 35.5519C39.0156 35.8511 39.0593 36.0599 39.09 36.3129C38.9204 36.6035 38.7956 36.807 38.592 37.0778L38.0183 37.022C38.0183 37.022 37.726 36.7901 37.5721 36.7232C37.398 36.6476 37.17 36.6346 36.9824 36.791C36.5514 37.1503 36.0733 37.5278 35.6916 37.8388C35.5074 37.9666 35.3533 38.1472 35.4406 38.3567C35.5855 38.7044 35.8512 39.2398 36.0023 39.5838C36.0436 39.6775 36.0856 39.8074 35.9426 39.8985C35.4127 40.2363 34.9867 40.543 34.4804 40.8149C34.3334 40.8938 34.2754 40.8831 34.1139 40.7073C33.8661 40.4376 33.6623 40.1747 33.4087 39.9105C33.1342 39.6244 32.9154 39.7392 32.6876 39.8667C32.2217 40.1274 31.6836 40.3758 31.2095 40.6196C30.9947 40.6978 30.9313 40.9415 30.9466 41.038C31.0134 41.4597 31.0427 41.7179 31.094 42.1416C31.1281 42.4241 31.0306 42.4847 30.9107 42.532C30.3492 42.7533 30.0241 42.8735 29.4207 43.0221C29.2402 43.0665 29.1316 43.0367 29.0701 42.9065C28.8659 42.4746 28.6791 42.0676 28.4844 41.6475C28.3831 41.4291 28.2427 41.4069 28.0302 41.4444C27.4443 41.5811 26.8907 41.5869 26.4047 41.6475C26.1635 41.6776 25.931 41.753 25.8788 42.1416C25.8502 42.4902 25.7862 42.8387 25.7314 43.1695C25.6772 43.497 25.5951 43.4588 25.325 43.4802C24.7895 43.5228 24.3496 43.5118 23.8669 43.4802C23.5707 43.4608 23.5557 43.4372 23.5043 43.1376C23.4341 42.7286 23.4061 42.4575 23.3529 42.0459C23.2996 41.7789 23.0572 41.6668 22.7712 41.6515C22.3418 41.6286 21.7144 41.5395 21.0421 41.4244C20.9048 41.4009 20.7205 41.5495 20.6915 41.6475C20.4955 42.0669 20.324 42.4982 20.1059 42.9065C20.047 43.0168 19.9069 43.0643 19.7553 43.0221C19.227 42.875 18.7329 42.7175 18.2254 42.528C18.0876 42.4765 18.0788 42.3965 18.086 42.3209C18.1327 41.8298 18.2079 41.348 18.2613 40.8826C18.2612 40.7654 18.1947 40.6782 18.0581 40.6196C18.0581 40.6196 17.2561 40.2695 17.1138 40.1854C16.9716 40.1012 16.56 39.8637 16.2692 39.7113C16.0829 39.6137 15.9443 39.7757 15.8589 39.8587L15.6278 40.1216L15.1577 40.6196L15.07 40.7073C14.9919 40.7854 14.8756 40.7978 14.7194 40.7392L14.5122 40.6196L13.6636 40.1216L13.2852 39.8507C13.0976 39.717 13.1921 39.6366 13.2772 39.4762C13.4656 39.1212 13.7314 38.7049 13.8389 38.3368C13.8367 38.1439 13.8169 38.1089 13.6915 37.9623C13.602 37.8576 13.3321 37.6629 13.2254 37.5758C13.0205 37.4087 12.8876 37.3071 12.6915 37.1296C12.5989 37.0458 12.4469 36.8829 12.3449 36.8109C12.1965 36.7061 12.1161 36.6348 11.9346 36.6276C11.715 36.6188 11.5217 36.7172 11.329 36.8228C11.1992 36.8939 10.8788 37.0778 10.8788 37.0778H10.5003L10.333 36.7989L10.0541 36.3886C10.5075 35.6318 10.8863 34.524 11.0859 33.767C11.2756 33.0478 11.3531 32.4187 11.4565 31.5639C11.6216 31.1723 11.7111 30.9467 11.8389 30.5997C12.4335 32.125 13.5204 33.534 14.6039 34.4682L19.4007 27.0778L16.4764 36.1973L23.7115 30.7192L18.325 37.3049C20.3449 38.3958 22.4909 38.8035 24.6438 38.8069C26.7966 38.8103 28.9419 38.4298 30.7832 37.2929L25.4685 30.7192L32.7035 36.1973L29.7912 27.1136L34.588 34.4722C35.2166 33.8764 36.1735 32.683 36.7434 31.5749C37.3133 30.4667 37.4875 29.9546 37.7876 29.0131C37.9198 29.1469 38.0506 29.358 38.1348 29.5249C38.259 29.771 38.3376 29.9673 38.4446 30.2212C38.5309 30.4261 38.6097 30.5792 38.6073 30.7046ZM8.48036 32.6236C8.46082 33.2681 8.51895 33.9322 8.65566 34.6157L8.01024 33.7949L8.48036 32.6236ZM42.5442 32.9184L42.5163 33.6475C41.3446 35.0926 40.61 36.0805 40.3171 36.6077C39.3211 38.1114 38.6486 39.3027 38.2972 40.1814C38.0823 40.6696 37.771 41.0598 37.3609 41.3527C37.0484 41.509 36.8119 41.675 36.6557 41.8507C36.519 42.1046 36.5978 42.1711 36.8908 42.0539C37.086 41.8587 37.3018 41.7133 37.5362 41.6157C37.9658 41.4009 38.8832 40.3879 40.2892 38.5718L40.2613 37.5439L40.584 36.9862C40.5645 37.5525 40.6102 37.8678 40.7275 37.9264C40.8446 37.985 41.0084 37.8212 41.2135 37.4404C41.4185 37.0596 41.9188 36.0114 42.7195 34.2929C42.5437 34.8202 42.5353 35.2809 42.6916 35.6714C42.2229 36.0034 42.0943 36.568 42.3091 37.3686L41.345 38.2491C40.9544 38.6788 40.8258 39.1271 40.9625 39.5957C40.4157 39.8887 39.8885 40.3163 39.3808 40.8826C38.8731 41.4489 38.489 41.9303 38.2255 42.3209C37.9618 42.7114 37.6817 42.9439 37.3888 43.0221C37.0568 43.1783 36.6789 43.0995 36.2494 42.787L36.1298 43.5201L34.1657 44.7193L33.6995 43.8428C35.0469 43.1398 35.8273 42.4963 36.0422 41.9105C36.3155 41.4223 36.6102 41.0176 36.9227 40.6954C37.2351 40.3731 37.4592 39.9768 37.596 39.5081L37.6239 38.8029L37.5362 38.0738C37.8486 38.4253 38.1309 38.5002 38.3848 38.3049C38.7949 37.5433 39.2348 36.8356 39.7035 36.1814C40.1722 35.5272 40.6703 34.919 41.1976 34.3527C41.7248 33.7864 42.1731 33.309 42.5442 32.9184ZM39.4685 34.7033C39.488 34.9962 39.5461 35.1997 39.6438 35.3169L39.353 35.8149L39.4685 34.7033ZM8.36084 36.4324L9.18156 37.8069L9.09391 37.9822L8.18554 36.6077L8.36084 36.4324ZM11.9545 36.9105C12.0299 36.9121 12.0906 36.9724 12.1417 37.018C12.5016 37.4189 12.932 37.7698 13.4007 38.1017C13.4983 38.1603 13.5274 38.2475 13.4883 38.3647L12.8708 39.5957C12.8317 39.752 12.8731 39.8766 12.9903 39.9742C13.5371 40.3843 14.1224 40.7455 14.7473 41.0579C14.884 41.1556 15.0126 41.1556 15.1298 41.0579L16.0342 40.034C16.1123 39.9364 16.2034 39.928 16.3011 40.0061C16.8088 40.299 17.3069 40.5439 17.7951 40.7392C17.9123 40.7978 17.9581 40.8933 17.9386 41.03L17.7633 42.4364C17.7437 42.6121 17.8309 42.7284 18.0262 42.787C18.612 43.0409 19.2387 43.236 19.9027 43.3727C20.098 43.3922 20.2349 43.3464 20.3131 43.2292L20.9266 41.8786C20.9852 41.7615 21.0776 41.7529 21.2214 41.791C21.7435 41.9292 22.2965 41.9786 22.8629 41.9981C22.98 41.9982 23.0465 42.0563 23.0661 42.1734L23.2692 43.5479C23.3083 43.7042 23.4078 43.783 23.5641 43.783C24.2475 43.8221 24.9324 43.8221 25.6159 43.783C25.8111 43.783 25.919 43.6958 25.9386 43.5201L26.1418 42.1734C26.1613 42.0563 26.2278 41.9982 26.345 41.9981C26.9308 41.9591 27.4786 41.8886 27.9864 41.791C28.1231 41.7714 28.2226 41.8212 28.2812 41.9384L28.8948 43.1974C28.9728 43.3731 29.1098 43.4312 29.3051 43.3727C29.9495 43.236 30.5743 43.0012 31.2095 42.7312C31.3577 42.6682 31.4355 42.5839 31.4127 42.4085L31.2374 41.0579C31.2569 40.9212 31.3274 40.8257 31.4446 40.7671C31.8741 40.5913 32.3609 40.3482 32.9067 40.034C33.0054 39.9772 33.1003 39.9792 33.1737 40.0619L34.1099 41.1177C34.227 41.2153 34.3433 41.2276 34.4605 41.1495C35.0658 40.7785 35.6428 40.3967 36.1896 40.0061C36.3458 39.9085 36.3832 39.7799 36.3051 39.6236L35.7513 38.3647C35.6986 38.2447 35.7624 38.1245 35.847 38.0619C36.3281 37.7056 36.6822 37.3943 37.0661 37.0459C37.1637 36.9483 37.2738 36.9021 37.4008 36.9344C37.4649 36.9507 37.5586 37.0191 37.6358 37.0778C37.4544 37.106 37.1018 37.2712 37.098 37.6635L37.2135 38.7471C37.2916 39.1963 37.0529 39.6966 36.4964 40.2531C35.9398 40.8097 35.5725 41.3223 35.3968 41.791C35.2991 42.1425 34.9212 42.5243 34.2573 42.9344C34.2182 42.8172 34.0606 42.6305 33.7872 42.3766C33.7481 42.2985 33.6693 42.2695 33.5521 42.289C32.8881 42.4647 31.5515 43.05 29.5402 44.046C29.1886 44.2217 28.6905 44.7405 28.0461 45.5997H26.9027C26.5902 45.424 26.2582 45.1791 25.9067 44.8667C25.6528 44.6714 25.2045 44.7419 24.5601 45.0738C23.9547 44.9372 23.3487 45.0617 22.7433 45.4523C22.3723 45.589 22.0984 45.6181 21.9226 45.54L20.4884 43.9902C17.5201 42.7404 15.9012 42.1842 15.6278 42.3209C15.3348 42.4966 15.119 42.7498 14.9824 43.0818C14.6894 42.9451 14.2495 42.5716 13.6636 41.9663L12.7553 40.9424C12.0913 40.2003 11.8174 39.4988 11.9346 38.8348L12.082 37.9264C12.1015 37.7897 12.0808 37.6818 12.0222 37.6037C11.8074 37.3694 11.6039 37.2324 11.4087 37.1933L11.8748 36.9304C11.9038 36.915 11.9293 36.9099 11.9545 36.9105ZM37.9107 37.3846C37.9466 37.3833 37.9878 37.3887 38.0302 37.4005C38.1689 37.4392 38.2262 37.4375 38.3649 37.4762C38.282 37.6143 38.2297 37.7191 38.1697 37.8069C38.0438 37.9908 37.9603 38.0145 37.7553 37.8388C37.5759 37.685 37.6597 37.392 37.9107 37.3846ZM39.9107 37.9264V38.4244L39.2055 39.2451L39.9107 37.9264ZM41.9585 38.3368L41.8709 38.8627C41.617 39.1165 41.5007 39.0958 41.5203 38.8029L41.9585 38.3368ZM9.88275 38.9503L10.6477 40.034L11.0859 40.8268L11.2334 41.2651C10.9599 41.1284 10.7234 40.9249 10.5282 40.6515L10.062 40.034L9.56403 39.3607L9.88275 38.9503ZM6.4684 40.5758C6.49587 40.5712 6.53203 40.5771 6.57597 40.5918C7.39614 40.8066 7.77399 41.0805 7.71542 41.4125C7.46154 41.8421 7.34528 42.3279 7.36482 42.8746L7.39669 44.4005C6.3617 43.7171 5.24525 43.1111 4.05405 42.5838C4.19074 42.5643 4.34841 42.5498 4.52417 42.54C4.69992 42.5302 4.81618 42.4659 4.87477 42.3487C4.93335 42.2316 4.82545 42.1611 4.55206 42.1416C3.94669 42.1416 3.55649 42.1914 3.38074 42.289C3.24404 42.4452 3.27311 42.6112 3.46839 42.787C4.8744 43.49 6.11547 44.1956 7.18952 44.8985C8.88844 45.9726 10.2083 46.8485 11.1457 47.532C12.0635 47.5125 13.3504 47.3879 15.0103 47.1535L17.5282 46.6834C18.5632 46.4881 19.6382 46.3221 20.7513 46.1854C21.1614 46.1268 21.6802 46.0894 22.3051 46.0699C22.93 46.0503 23.5069 46.0006 24.0342 45.9225C24.5419 46.8793 24.8532 47.7179 24.9704 48.4404C25.029 48.8114 24.9792 49.0189 24.823 49.0579C22.4992 49.9172 20.8305 50.4588 19.8151 50.6834C18.7996 50.908 17.8822 51.1053 17.0621 51.281C15.0116 51.6521 12.9901 51.9551 10.9983 52.1894C10.4906 52.0527 9.02532 51.3014 6.60386 49.9344C4.88539 48.8994 3.68573 48.0609 3.00226 47.4165C2.22113 46.5768 1.90579 46.0703 2.06202 45.8946C2.56974 45.0549 2.91415 44.3119 3.08991 43.6675C3.16801 43.3941 3.18473 43.1783 3.14568 43.0221C2.93087 42.3581 3.08854 42.0177 3.61581 41.9981C4.92417 41.92 5.80411 41.8993 6.25326 41.9384C6.44853 41.9579 6.57315 41.8998 6.63175 41.7631L7.07398 40.8826L6.80705 40.7671L6.42856 41.3527L6.40067 40.6794C6.40067 40.6184 6.42263 40.5835 6.4684 40.5758ZM42.839 40.7392V41.3806L42.2812 41.2372L42.341 41.528C42.4581 41.7428 42.6739 41.8882 42.9864 41.9663L44.5681 42.0539L45.2693 42.026C46.0894 42.0456 46.488 42.2468 46.4685 42.6276C46.4489 43.0084 46.478 43.3634 46.5562 43.6954C46.6928 44.5351 47.0249 45.3362 47.5522 46.0978C47.435 46.4493 47.1817 46.8602 46.7912 47.3288L45.2693 48.3248C43.9609 49.2622 42.1843 50.4826 39.9386 51.9862C38.3373 52.0253 36.4114 51.8967 34.1657 51.6038C32.5448 51.3889 30.681 50.978 28.572 50.3727L28.1059 50.2571L28.3091 50.0539C28.641 49.6243 28.8216 49.3359 28.8509 49.1894C28.8802 49.0429 28.8304 48.7109 28.7035 48.1934C28.5766 47.6759 28.2132 47.0637 27.6079 46.3607V46.1854L28.0461 46.1256C29.2569 46.2038 30.3341 46.3614 31.2812 46.5958C32.2283 46.8301 33.3553 47.0459 34.6637 47.2412C35.933 47.4755 36.8543 47.6147 37.4207 47.6635C37.9869 47.7123 38.4146 47.6894 38.7075 47.5918C39.2347 47.377 40.3181 46.5759 41.9585 45.1894C43.5403 43.9982 44.8769 43.168 45.9705 42.6993C46.3024 42.5041 46.317 42.3649 46.0143 42.277C45.7116 42.1892 45.2611 42.1416 44.6558 42.1416C44.4604 42.2978 44.4771 42.4264 44.7115 42.524C44.9849 42.5045 45.18 42.5253 45.2972 42.5838C43.9888 43.2673 42.897 43.9481 42.0183 44.6316C42.0964 44.1825 42.1629 43.4144 42.2215 42.3209C42.2019 41.9694 42.0856 41.654 41.8709 41.3806C41.7341 41.1853 41.9209 41.0109 42.4287 40.8547L42.839 40.7392ZM16.0222 42.6834C16.1465 42.6803 16.2858 42.7138 16.4445 42.787L17.8509 43.4603L20.2533 44.3687C20.8391 44.9936 21.2002 45.4252 21.337 45.6595C20.8487 45.7181 20.3216 45.7555 19.7553 45.775L18.4963 44.8985C17.9886 44.2932 17.6191 43.8532 17.3848 43.5798C17.1504 43.3064 16.9262 43.1113 16.7115 42.9942C16.399 42.8184 16.1418 42.7603 15.9465 42.8189C15.8098 42.8579 15.6645 43.053 15.5083 43.4045L15.4485 43.3448C15.5266 43.0128 15.649 42.8093 15.815 42.7312C15.8773 42.7019 15.9476 42.6852 16.0222 42.6834ZM33.3888 42.7989C33.4583 42.7952 33.5214 42.8333 33.58 42.9065L33.8151 43.1974L33.4924 43.4045C33.2971 43.5607 33.0562 43.6272 32.7633 43.6077C32.5094 43.5882 32.165 43.6732 31.7354 43.8587C31.3058 44.0442 31.0732 44.2996 31.0342 44.6316C30.9561 44.866 30.8482 45.0153 30.7115 45.0738C30.2818 45.3082 29.8916 45.5116 29.5402 45.6874L28.6318 45.6276L29.1019 44.9862C29.3362 44.7128 29.6352 44.4679 30.0063 44.2531C31.6662 43.433 32.7703 42.9556 33.3171 42.8189C33.3415 42.809 33.3656 42.8002 33.3888 42.7989ZM16.325 43.2053C16.3824 43.2066 16.4408 43.2229 16.5043 43.2571L16.9744 43.6675L17.1776 43.9902C16.9042 44.1269 16.6302 44.1269 16.3569 43.9902L15.8907 43.6356C16.0079 43.3427 16.1529 43.2017 16.325 43.2053ZM4.02617 43.6954L3.87875 43.9025C3.97639 43.9611 4.00545 44.036 3.9664 44.1336L2.70744 46.0699C2.64885 46.1089 2.57001 46.0966 2.47238 46.038L2.32895 46.2452L3.14568 46.7711L3.2931 46.5679C3.21498 46.5288 3.19427 46.4707 3.23333 46.3926L3.67557 45.7153L3.70346 45.7472C3.66439 46.2744 3.67892 46.702 3.74728 47.034C3.81562 47.366 4.0376 47.6606 4.40864 47.9145L4.46441 47.7671C4.2496 47.6109 4.15404 47.2704 4.17358 46.7432C4.21262 46.4307 4.21262 46.1942 4.17358 46.038C4.44696 46.2333 4.72308 46.2602 5.00625 46.1137C5.28939 45.9672 5.46996 45.7078 5.54808 45.3368C5.62618 44.9658 5.48086 44.6421 5.10983 44.3687L4.02617 43.6954ZM32.6836 44.0977C32.7291 44.099 32.7727 44.1008 32.8191 44.1057C32.9753 44.1252 32.9876 44.4075 32.8509 44.9543C32.7337 45.2277 32.1568 45.5597 31.1219 45.9503L30.1537 45.8347L31.1816 45.2491L31.4446 45.6594H31.588L31.4446 45.1893C31.3469 44.8574 31.4632 44.5958 31.7952 44.4005C32.0685 44.1954 32.3653 44.0935 32.6836 44.0977ZM33.349 44.1336L33.7593 44.8985L33.2015 45.1296C33.2796 44.9344 33.3294 44.6023 33.349 44.1336ZM4.55206 44.3687C4.84497 44.5249 5.01718 44.6764 5.06601 44.8229C5.11482 44.9693 5.07958 45.1622 4.96242 45.3966C4.84525 45.6309 4.68538 45.7617 4.48035 45.791C4.2753 45.8203 4.06567 45.7062 3.85087 45.4523L4.55206 44.3687ZM44.333 44.544L44.7713 47.3567C44.7908 47.4544 44.741 47.5539 44.6239 47.6515L44.6836 47.8268L45.5044 47.2691L45.4167 47.1535C45.2214 47.2707 45.1218 47.2707 45.1219 47.1535L45.0064 46.6834L45.7952 46.1575L46.2056 46.4205C46.2836 46.4791 46.2669 46.5455 46.1498 46.6237L46.2653 46.8308L47.2016 46.2133L47.0542 46.038C46.976 46.0771 46.8721 46.0771 46.7354 46.038L44.333 44.544ZM6.16561 45.042L6.07796 45.1894C6.21465 45.248 6.24371 45.3475 6.16561 45.4842L4.90665 47.4165C4.84805 47.5337 4.75687 47.5544 4.63971 47.4762L4.55206 47.6515L6.0182 48.5878L6.57597 48.293L6.48832 48.1495C6.25398 48.2472 5.89284 48.1269 5.40465 47.795L5.99031 46.8906L6.25326 47.0659C6.35089 47.1245 6.35925 47.22 6.28115 47.3567L6.45645 47.4762L6.86681 46.8029L6.7194 46.7113C6.62175 46.848 6.52619 46.8894 6.42856 46.8308L6.16561 46.6555L6.75127 45.7153C7.12229 45.9301 7.31739 46.1459 7.33693 46.3607L7.48434 46.4205L7.59988 45.9503L6.16561 45.042ZM25.4685 45.3089L25.8191 45.3368L26.1218 45.6197L25.4685 45.3089ZM24.1258 45.3966C24.4236 45.3867 24.7442 45.4326 25.086 45.54L25.7912 45.8348L26.1736 45.6715L26.3768 45.8627C27.3727 46.9367 27.9351 47.6713 28.0621 48.0619C28.189 48.4525 28.2035 48.8303 28.1059 49.2013C27.7348 49.6895 27.4693 49.8679 27.3131 49.7312L27.1657 49.2611L26.3768 50.2571L25.7314 50.6675C25.4385 50.9214 25.1355 51.0209 24.823 50.9623L23.7991 50.4643L24.325 50.1974L24.4724 50.3169C24.3748 50.6098 24.491 50.5684 24.823 50.1974L25.7314 49.3209C25.79 48.7936 25.6613 48.1149 25.3489 47.285C25.0365 46.4551 24.8039 45.9301 24.6477 45.7153C24.6086 45.5395 24.1603 45.5021 23.3011 45.5997C23.555 45.4728 23.828 45.4063 24.1258 45.3966ZM43.1299 45.3966L42.3968 45.8627L42.5163 46.0699C42.6334 46.0113 42.7581 46.0403 42.8948 46.1575L43.4247 47.034L41.3729 46.536L40.8151 46.9782L40.9067 47.1217C41.0629 47.0826 41.2166 47.1117 41.3729 47.2093L42.4287 48.8826C42.4677 48.9998 42.4386 49.0954 42.341 49.1735L42.4565 49.3209L43.1617 48.8826L43.0422 48.7352C42.925 48.7938 42.8294 48.7815 42.7514 48.7033L41.9585 47.4165L44.5681 48.03L43.1896 46.038C43.1115 45.8622 43.1405 45.6962 43.2773 45.54L43.1299 45.3966ZM44.7992 45.5121L45.5323 45.9822L44.9745 46.3607L44.7992 45.5121ZM14.9824 45.54L16.329 46.4205L14.572 46.7113L14.9824 45.54ZM34.7235 45.7472C34.8015 46.1572 34.9676 46.5391 35.2215 46.8906C34.7137 46.8125 33.8959 46.6632 32.7633 46.4484L33.7872 46.0978C34.3339 46.2149 34.6453 46.099 34.7235 45.7472ZM7.98235 46.1854L7.86283 46.3607C7.96046 46.4193 7.98952 46.4981 7.95048 46.5958L6.66362 48.5599C6.5855 48.638 6.50666 48.6464 6.42856 48.5878L6.30904 48.7631L7.16163 49.289L7.24928 49.1137C7.15163 49.0551 7.13093 48.9803 7.18952 48.8826L7.62777 48.2053L7.77518 48.3527C8.1462 48.6652 8.4928 48.7379 8.81502 48.5719C9.13722 48.4059 9.33849 48.1443 9.41662 47.783C9.49472 47.4218 9.35775 47.1042 9.00626 46.8308L7.98235 46.1854ZM22.7433 46.2133L21.9824 49.026C21.9238 49.1627 21.8449 49.2416 21.7473 49.2611L21.7752 49.4364L22.5959 49.2611V49.0858C22.4592 49.1053 22.3927 49.0845 22.3927 49.026L22.568 48.4125L23.4167 48.2053L23.6796 48.6476C23.7186 48.7843 23.6729 48.8715 23.5362 48.9105L23.5641 49.0858L24.5601 48.8507V48.6754C24.4038 48.6754 24.2959 48.6257 24.2374 48.528L22.7433 46.2133ZM20.5561 46.7073C20.4905 46.7051 20.4276 46.7073 20.3649 46.7113C19.9468 46.7357 19.5977 46.885 19.317 47.1535C18.9655 47.5831 18.9157 48.1891 19.1696 48.9702C19.4039 49.6537 19.9104 49.936 20.6915 49.8188C21.0821 49.7407 21.3851 49.5954 21.5999 49.3806L21.5123 48.6754L21.337 48.7631C21.3369 49.1341 21.2207 49.379 20.9864 49.4961C20.3224 49.6914 19.8741 49.3677 19.6398 48.528C19.5421 47.6492 19.7663 47.1137 20.3131 46.9184C20.7036 46.8599 20.9859 47.0259 21.1617 47.4165L21.2772 47.3886L21.1896 46.8029C20.9644 46.748 20.7529 46.7139 20.5561 46.7073ZM8.50825 46.8587C8.78163 46.9954 8.9393 47.1531 8.97837 47.3288C9.01741 47.5046 8.96983 47.6935 8.84291 47.8986C8.71597 48.1036 8.56228 48.2199 8.37677 48.2492C8.19125 48.2785 7.98997 48.1974 7.77518 48.0021L8.50825 46.8587ZM29.3649 47.0659L29.333 47.2691C29.4306 47.3277 29.472 47.4272 29.4525 47.5639L29.1577 49.5241C29.1186 49.6412 29.0231 49.691 28.8669 49.6715L28.835 49.9344L29.8629 50.0818L29.8908 49.8189C29.754 49.7994 29.6959 49.7289 29.7155 49.6117L30.0063 47.6515C30.0258 47.4953 30.117 47.4248 30.2732 47.4444L30.329 47.2412L29.3649 47.0659ZM18.8469 47.0938L17.8828 47.2691L17.9386 47.5041C18.0557 47.4846 18.1345 47.522 18.1736 47.6197L18.4963 49.6994C18.4963 49.8165 18.4382 49.8954 18.321 49.9344L18.3489 50.1695L19.2892 49.9942L19.2573 49.7591C19.101 49.7982 19.0222 49.7484 19.0222 49.6117L18.6995 47.5041C18.6995 47.387 18.77 47.3288 18.9067 47.3288L18.8469 47.0938ZM9.53216 47.1535L9.47638 47.2691C9.55448 47.3667 9.58354 47.483 9.56403 47.6197L9.1218 50.6396L11.3768 48.7033C11.4744 48.6252 11.5739 48.6169 11.6716 48.6754L11.7593 48.5599L11.1138 48.1495L11.0581 48.2651C11.1557 48.3432 11.164 48.4304 11.0859 48.528L9.82698 49.6436L10.1178 47.8866C10.1373 47.789 10.2162 47.7683 10.3529 47.8268L10.4126 47.7073L9.53216 47.1535ZM22.831 47.2093L23.2414 47.9424L22.5959 48.0898L22.831 47.2093ZM30.6836 47.297L30.4764 47.8866L30.6238 47.9742C30.741 47.7595 31.0026 47.6973 31.4127 47.795L31.0342 49.8468C30.9756 49.9835 30.8677 50.0416 30.7115 50.0221L30.6836 50.2292L31.7075 50.4045L31.7354 50.1974C31.5987 50.1583 31.5405 50.0711 31.5601 49.9344L31.9107 47.8866C32.3208 47.9257 32.5573 48.071 32.6159 48.3248L32.7912 48.293L32.8191 47.6515C32.0965 47.5734 31.3866 47.4532 30.6836 47.297ZM17.0621 47.4762L16.0939 47.6515L16.1218 47.8547C16.2585 47.8352 16.3497 47.8766 16.3887 47.9742L16.7115 50.0539C16.7114 50.1906 16.6493 50.2778 16.5322 50.3169L16.564 50.5201L18.086 50.2292L18.2334 49.5241L18.0581 49.4962C17.9604 49.7891 17.7072 49.9758 17.2971 50.0539L16.9146 47.8866C16.8951 47.7694 16.9616 47.699 17.1178 47.6794L17.0621 47.4762ZM15.2891 47.7352C15.2382 47.733 15.1859 47.7339 15.1298 47.7392L13.9545 47.9145L13.9864 48.1177C14.1035 48.1177 14.17 48.1674 14.1895 48.2651L14.4246 50.4643C14.4246 50.601 14.3581 50.6758 14.2214 50.6953V50.9025L15.1577 50.7551C16.0364 50.6575 16.3975 50.2756 16.2413 49.6117C16.1827 49.2797 16.0167 49.0846 15.7433 49.026C15.9581 48.8698 16.037 48.6249 15.9784 48.2929C15.8758 47.9341 15.6458 47.7502 15.2891 47.7352ZM33.9904 47.7392L32.4964 50.2292C32.4182 50.3268 32.3227 50.3726 32.2055 50.3726L32.1776 50.5519L33.1139 50.7272V50.4922C32.9381 50.4531 32.8676 50.3743 32.9067 50.2571L33.0541 50.022L34.078 50.1694L34.1657 50.52C34.1461 50.6372 34.0713 50.687 33.9346 50.6675L33.9027 50.8428L35.1059 50.9623V50.783C34.9887 50.783 34.9099 50.7165 34.8709 50.5798L33.9904 47.7392ZM39.5561 47.7392L39.9984 50.5519C39.9983 50.6886 39.9486 50.7925 39.851 50.8706L39.9107 51.0778L40.7275 50.4922L40.6119 50.3726C40.4556 50.4508 40.3685 50.4424 40.349 50.3447L40.2294 49.9065L41.0223 49.3806L41.3729 49.6117C41.4509 49.6703 41.4426 49.7284 41.345 49.787L41.4924 50.022L42.3689 49.4085L42.2215 49.2332C42.1433 49.2722 42.0561 49.2806 41.9585 49.2611L39.5561 47.7392ZM15.1218 47.9981C15.3055 48.0067 15.4143 48.1647 15.4485 48.4722C15.468 48.7456 15.3808 48.9117 15.1856 48.9702L14.7752 49.026L14.6597 48.0619L15.0381 48.0021C15.0674 47.9973 15.0956 47.9968 15.1218 47.9981ZM13.0939 48.0579C13.0427 48.0558 12.9867 48.0566 12.9306 48.0619L11.7871 48.2053L11.819 48.4125C11.9362 48.4125 12.0027 48.4622 12.0222 48.5599L12.2294 50.7551C12.2294 50.8918 12.1589 50.9706 12.0222 50.9902V51.1934L12.9903 51.0499C13.8495 50.9913 14.219 50.6095 14.1019 49.9065C14.0433 49.5745 13.8689 49.3878 13.576 49.3487C13.7908 49.1925 13.8696 48.9476 13.8111 48.6157C13.6914 48.2568 13.4527 48.0729 13.0939 48.0579ZM35.5721 48.0898V48.3527C35.7087 48.3527 35.7708 48.4316 35.7513 48.5878L35.6318 50.5798C35.5927 50.7556 35.5055 50.8428 35.3689 50.8428L35.341 51.0181L37.3888 51.2253L37.596 50.5201H37.4486C37.2142 50.7935 36.7949 50.9014 36.1896 50.8428L36.337 48.6476C36.3565 48.5109 36.423 48.4404 36.5402 48.4404L36.5681 48.1774L35.5721 48.0898ZM38.094 48.293V48.528C38.2111 48.5671 38.2692 48.6543 38.2693 48.791L38.1816 50.7551C38.1425 50.8723 38.043 50.9304 37.8868 50.9304L37.8589 51.1934L38.8828 51.281L38.9147 51.0181C38.7975 50.9986 38.727 50.9321 38.7075 50.8149L38.7952 48.8507C38.8342 48.714 38.9214 48.6352 39.0581 48.6157L39.09 48.3846L38.094 48.293ZM12.9863 48.3169C13.17 48.3254 13.2789 48.4834 13.313 48.791C13.3326 49.0644 13.2247 49.2304 12.9903 49.289L12.6397 49.3488L12.5202 48.3846L12.9027 48.3248C12.932 48.32 12.9601 48.3156 12.9863 48.3169ZM39.9984 48.7033L40.7275 49.2013L40.1737 49.5838L39.9984 48.7033ZM33.7593 48.8229L34.0501 49.9065L33.2015 49.787L33.7593 48.8229ZM15.2174 49.2013C15.4517 49.1818 15.5971 49.3479 15.6557 49.6994C15.7142 50.129 15.6063 50.3739 15.333 50.4324L14.9505 50.4922L14.8071 49.2611L15.2174 49.2013ZM13.0501 49.4962C13.2844 49.4767 13.4297 49.6343 13.4883 49.9663C13.5469 50.3959 13.4597 50.6491 13.2254 50.7273L12.815 50.783L12.6676 49.5559L13.0501 49.4962ZM20.5481 51.2253C20.841 51.4205 20.8287 51.6447 20.5162 51.8986C19.696 52.6992 18.7703 53.4589 17.7354 54.1814L17.3848 54.0659C17.9901 53.6949 18.8493 53.0889 19.9625 52.2492L20.4605 51.6914L20.1935 51.6635C19.8225 51.9955 19.401 52.3337 18.9226 52.6755C18.4442 53.0172 17.8901 53.3431 17.2652 53.6555L16.4166 54.0659L16.564 54.2412L17.2095 54.3289C17.5805 54.5632 17.7342 54.7957 17.6756 55.0301C17.4803 55.323 17.1689 55.3644 16.7393 55.1496L16.0342 54.7671C15.7803 54.5132 15.5271 54.3388 15.2732 54.2412L14.9824 54.0061L15.0979 53.7153L15.9784 54.0659H16.2413L16.0939 53.54L17.1497 52.8946C17.4231 52.7969 17.5393 52.6309 17.5003 52.3966L17.588 51.8667C18.0371 51.9643 18.5268 51.8917 19.0541 51.6476C19.5813 51.4035 20.0794 51.2643 20.5481 51.2253ZM29.5083 51.5599C29.8043 51.5615 30.2145 51.6326 30.7394 51.779L33.2294 53.6277C32.7021 53.6277 32.3701 53.6858 32.2334 53.803H31.8231C31.2567 53.4124 30.8084 53.0513 30.4764 52.7193L29.1019 51.6356C29.1971 51.5844 29.3307 51.559 29.5083 51.5599ZM30.3609 53.4802L30.9466 53.9783C30.8294 54.0564 30.68 54.0273 30.5043 53.8906C30.3285 53.7539 30.2827 53.6169 30.3609 53.4802ZM19.2573 53.7153L19.317 53.8587L19.082 54.1814L18.819 54.3289L18.584 54.1814L18.6119 54.0659L19.1099 53.7432L19.2573 53.7153ZM33.1418 53.9464L33.847 54.0659L34.3131 53.9464L34.6358 54.0061L34.5203 54.1536L33.7593 54.3886C33.4273 54.6815 33.0331 54.8766 32.584 54.9743L32.086 54.8866L31.9705 54.536C32.0876 54.3603 32.2391 54.2317 32.4246 54.1536C32.6101 54.0754 32.8488 54.005 33.1418 53.9464Z" fill="white"/>
    </g>
    <defs>
        <clipPath id="clip0_317_11302">
            <rect width="50" height="56.0959" fill="white" transform="translate(0 0.137085)"/>
        </clipPath>
    </defs>
</svg>
