<svg width="264" height="150" viewBox="0 0 264 150" fill="none" xmlns="http://www.w3.org/2000/svg">
<path d="M109.38 1.37H94.6701C94.0301 1.37 93.5201 1.88 93.5201 2.52V96C93.5201 97.33 91.6501 97.6 91.2701 96.33L63.4101 2.2C63.2701 1.71 62.8201 1.38 62.3101 1.38H52.4301C52.4301 1.38 52.4301 1.38 52.4101 1.38H38.8001C38.1601 1.38 37.6501 1.89 37.6501 2.53V147.59C37.6501 148.23 38.1601 148.74 38.8001 148.74H53.5101C54.1501 148.74 54.6601 148.23 54.6601 147.59V54.09C54.6601 52.76 56.5301 52.49 56.9101 53.76L84.7801 147.9C84.9201 148.39 85.3701 148.72 85.8801 148.72H95.7001C95.7001 148.72 95.7501 148.72 95.7701 148.72H109.38C110.02 148.72 110.53 148.21 110.53 147.57V2.52C110.53 1.88 110.02 1.37 109.38 1.37Z" fill="#2F6DD5"/>
<path d="M21.2401 1.37H3.06006C1.81742 1.37 0.810059 2.37735 0.810059 3.62V146.48C0.810059 147.723 1.81742 148.73 3.06006 148.73H21.2401C22.4827 148.73 23.4901 147.723 23.4901 146.48V3.62C23.4901 2.37735 22.4827 1.37 21.2401 1.37Z" fill="#2F6DD5"/>
<path fill-rule="evenodd" clip-rule="evenodd" d="M184.15 18.2C180.85 8.41 171.59 1.37 160.69 1.37H126.95C125.71 1.37 124.7 2.38 124.7 3.62V146.5C124.7 147.74 125.71 148.75 126.95 148.75H145.13C146.37 148.75 147.38 147.74 147.38 146.5V102.49C147.38 101.11 148.5 99.99 149.88 99.99C153.54 99.99 160.69 99.99 160.69 99.99C171.63 99.99 180.91 92.9 184.18 83.06C187.88 72.96 189.89 62.06 189.89 50.68C189.89 39.3 187.86 28.33 184.14 18.2H184.15ZM164.37 81.68C163.12 85.72 158.61 88.65 154.16 88.65C154.16 88.65 151.61 88.65 149.64 88.65C148.4 88.65 147.39 87.64 147.39 86.4V14.96C147.39 13.72 148.4 12.71 149.64 12.71C151.61 12.71 154.16 12.71 154.16 12.71C158.33 12.71 162.65 15.29 164.11 18.94C167.66 28.86 169.59 39.54 169.59 50.68C169.59 61.82 167.75 71.97 164.37 81.68Z" fill="#2F6DD5"/>
<path d="M244.26 71.64C237.03 64.1 220.28 46.52 216.96 38.59C213.61 30.62 214.43 23.13 218.07 18.24C221.06 14.23 227.1 11.9 233.2 13.98C238.45 15.78 244.77 21.32 246.12 37.41C246.16 38.49 247.02 39.6 248.44 39.6H255.59C256.7 39.6 257.84 38.76 257.89 37.32C258.44 28.28 255.83 18.89 252.75 14.21C247.37 5.24003 240.99 1.76003 231.68 0.580028C222.28 -0.619972 209.55 3.23003 202.95 13.69C197.18 22.84 195.6 37.58 198.97 49.09C203.24 63.68 207.28 68.07 213.96 76.1C215.08 77.45 221.94 84.89 224.35 87.2C234.85 97.21 240.46 105.06 241.41 117.79C242.17 127.89 236.76 136.87 227.4 136.43C221.75 136.17 218.92 134.21 215.1 130.12C211.27 126.02 209.77 120.84 209.01 112.38C208.73 109.24 208.93 103.9 208.95 102.23C208.95 101.12 208.08 99.98 206.7 99.98H197.84C196.48 99.98 195.58 101.11 195.58 102.23C195.63 108.68 195.82 115.41 196.48 119.23C198.62 131.58 200.85 135.4 207.5 142.15C213.03 146.77 219.53 149.71 227.9 149.71C244.53 149.71 256.92 139.86 261.6 125.2C263.32 119.8 263.88 114.08 263.49 108.43C262.27 90.96 252.27 80.02 244.25 71.64H244.26Z" fill="#2F6DD5"/>
</svg>
